<?xml version="1.0" encoding="UTF-8"?>
<svg width="18px" height="18px" viewBox="0 0 18 18" version="1.1" xmlns="http://www.w3.org/2000/svg" xmlns:xlink="http://www.w3.org/1999/xlink">
    <title>lnb/add</title>
    <defs>
        <filter id="filter-1">
            <feColorMatrix in="SourceGraphic" type="matrix" values="0 0 0 0 0.474510 0 0 0 0 0.533333 0 0 0 0 0.592157 0 0 0 1.000000 0"></feColorMatrix>
        </filter>
    </defs>
    <g id="lnb/add" stroke="none" stroke-width="1" fill="none" fill-rule="evenodd">
        <g filter="url(#filter-1)">
            <g>
                <rect id="Rectangle" x="0" y="0" width="18" height="18"></rect>
                <path d="M9,3 C12.3075,3 15,5.6925 15,9 C15,12.3075 12.3075,15 9,15 C8.115,15 7.245,14.805 6.4275,14.415 C6.225,14.3175 6.0075,14.2725 5.7825,14.2725 C5.64,14.2725 5.4975,14.295 5.3625,14.3325 L2.9625,15.0375 L3.6675,12.6375 C3.7725,12.285 3.7425,11.9025 3.585,11.5725 C3.195,10.755 3,9.885 3,9 C3,5.6925 5.6925,3 9,3" id="Path" fill-opacity="0.3" fill="#000000" fill-rule="nonzero"></path>
                <path d="M9,3 C12.3075,3 15,5.6925 15,9 C15,12.3075 12.3075,15 9,15 C8.115,15 7.245,14.805 6.4275,14.415 C6.225,14.3175 6.0075,14.2725 5.7825,14.2725 C5.64,14.2725 5.4975,14.295 5.3625,14.3325 L2.9625,15.0375 L3.6675,12.6375 C3.7725,12.285 3.7425,11.9025 3.585,11.5725 C3.195,10.755 3,9.885 3,9 C3,5.6925 5.6925,3 9,3 M9,1.5 C4.86,1.5 1.5,4.86 1.5,9 C1.5,10.155 1.77,11.235 2.2275,12.2175 L0.75,17.25 L5.7825,15.7725 C6.765,16.23 7.845,16.5 9,16.5 C13.14,16.5 16.5,13.14 16.5,9 C16.5,4.86 13.14,1.5 9,1.5 L9,1.5 Z" id="Shape" fill="#000000" fill-rule="nonzero"></path>
                <polygon id="Path" fill="#000000" fill-rule="nonzero" points="9.75 6 8.25 6 8.25 8.25 6 8.25 6 9.75 8.25 9.75 8.25 12 9.75 12 9.75 9.75 12 9.75 12 8.25 9.75 8.25"></polygon>
            </g>
        </g>
    </g>
</svg>