<?xml version="1.0" encoding="UTF-8"?>
<svg width="18px" height="18px" viewBox="0 0 18 18" version="1.1" xmlns="http://www.w3.org/2000/svg" xmlns:xlink="http://www.w3.org/1999/xlink">
    <title>lnb/add_menu</title>
    <defs>
        <filter id="filter-1">
            <feColorMatrix in="SourceGraphic" type="matrix" values="0 0 0 0 0.474510 0 0 0 0 0.533333 0 0 0 0 0.592157 0 0 0 1.000000 0"></feColorMatrix>
        </filter>
    </defs>
    <g id="lnb/add_menu" stroke="none" stroke-width="1" fill="none" fill-rule="evenodd">
        <g filter="url(#filter-1)">
            <g>
                <polygon id="Path" points="0 0 18 0 18 18 0 18"></polygon>
                <g id="Group" transform="translate(2.250000, 2.250000)" fill="#000000" fill-rule="nonzero">
                    <rect id="Rectangle" opacity="0.3" x="1.5" y="9" width="3" height="3"></rect>
                    <rect id="Rectangle" opacity="0.3" x="1.5" y="1.5" width="3" height="3"></rect>
                    <rect id="Rectangle" opacity="0.3" x="9" y="1.5" width="3" height="3"></rect>
                    <path d="M0,6 L6,6 L6,0 L0,0 L0,6 Z M1.5,1.5 L4.5,1.5 L4.5,4.5 L1.5,4.5 L1.5,1.5 Z" id="Shape"></path>
                    <path d="M7.5,0 L7.5,6 L13.5,6 L13.5,0 L7.5,0 Z M12,4.5 L9,4.5 L9,1.5 L12,1.5 L12,4.5 Z" id="Shape"></path>
                    <path d="M0,13.5 L6,13.5 L6,7.5 L0,7.5 L0,13.5 Z M1.5,9 L4.5,9 L4.5,12 L1.5,12 L1.5,9 Z" id="Shape"></path>
                    <polygon id="Path" points="11.25 7.5 9.75 7.5 9.75 9.75 7.5 9.75 7.5 11.25 9.75 11.25 9.75 13.5 11.25 13.5 11.25 11.25 13.5 11.25 13.5 9.75 11.25 9.75"></polygon>
                </g>
            </g>
        </g>
    </g>
</svg>