<?xml version="1.0" encoding="UTF-8"?>
<svg width="18px" height="18px" viewBox="0 0 18 18" version="1.1" xmlns="http://www.w3.org/2000/svg" xmlns:xlink="http://www.w3.org/1999/xlink">
    <title>lnb/ai_devops</title>
    <defs>
        <filter id="filter-1">
            <feColorMatrix in="SourceGraphic" type="matrix" values="0 0 0 0 0.474510 0 0 0 0 0.533333 0 0 0 0 0.592157 0 0 0 1.000000 0"></feColorMatrix>
        </filter>
    </defs>
    <g id="lnb/ai_devops" stroke="none" stroke-width="1" fill="none" fill-rule="evenodd">
        <g filter="url(#filter-1)">
            <g>
                <rect id="Rectangle" x="0" y="0" width="18" height="18"></rect>
                <g id="Group" transform="translate(2.000000, 1.000000)" fill="#000000" fill-rule="nonzero">
                    <path d="M7.71428571,1.71428571 C5.44285714,1.71428571 3.60857143,3.48 3.45428571,5.71714286 L2.31428571,7.71428571 L3.42857143,7.71428571 L3.42857143,11.1428571 L6,11.1428571 L6,13.7142857 L8.57142857,13.7142857 L8.57142857,10.3285714 L9.33428571,9.96 C10.8942857,9.32571429 12,7.79142857 12,6 C12,3.63428571 10.08,1.71428571 7.71428571,1.71428571 Z M10.9885714,5.1 L10.26,5.66571429 C10.2771429,5.76857143 10.2857143,5.88 10.2857143,6 C10.2857143,6.11142857 10.2771429,6.22285714 10.2685714,6.33428571 L10.98,6.9 C11.0485714,6.95142857 11.0657143,7.03714286 11.0228571,7.11428571 L10.3371429,8.30571429 C10.2942857,8.38285714 10.2,8.40857143 10.1314286,8.38285714 L9.28285714,8.04 C9.10285714,8.17714286 8.91428571,8.28857143 8.70857143,8.37428571 L8.57142857,9.28285714 C8.56285714,9.36857143 8.48571429,9.42857143 8.4,9.42857143 L7.02857143,9.42857143 C6.94285714,9.42857143 6.87428571,9.36857143 6.85714286,9.28285714 L6.72857143,8.37428571 C6.51428571,8.28857143 6.32571429,8.17714286 6.14571429,8.04 L5.29714286,8.38285714 C5.22,8.40857143 5.12571429,8.38285714 5.08285714,8.30571429 L4.39714286,7.11428571 C4.35428571,7.04571429 4.37142857,6.95142857 4.44,6.9 L5.16,6.33428571 C5.15142857,6.22285714 5.14285714,6.11142857 5.14285714,6 C5.14285714,5.88857143 5.16,5.76857143 5.17714286,5.66571429 L4.44857143,5.1 C4.38,5.04857143 4.36285714,4.96285714 4.40571429,4.87714286 L5.09142857,3.69428571 C5.13428571,3.61714286 5.22,3.59142857 5.29714286,3.61714286 L6.15428571,3.96 C6.32571429,3.83142857 6.52285714,3.71142857 6.72857143,3.62571429 L6.85714286,2.71714286 C6.87428571,2.63142857 6.94285714,2.57142857 7.02857143,2.57142857 L8.4,2.57142857 C8.48571429,2.57142857 8.55428571,2.63142857 8.57142857,2.71714286 L8.7,3.62571429 C8.90571429,3.71142857 9.09428571,3.82285714 9.27428571,3.96 L10.1314286,3.61714286 C10.2085714,3.59142857 10.3028571,3.61714286 10.3371429,3.69428571 L11.0228571,4.87714286 C11.0657143,4.95428571 11.0485714,5.04857143 10.9885714,5.1 Z" id="Shape" opacity="0.3"></path>
                    <path d="M10.1314286,3.61714286 L9.27428571,3.96 C9.09428571,3.82285714 8.90571429,3.71142857 8.7,3.62571429 L8.57142857,2.71714286 C8.55428571,2.63142857 8.48571429,2.57142857 8.4,2.57142857 L7.02857143,2.57142857 C6.94285714,2.57142857 6.87428571,2.63142857 6.86571429,2.71714286 L6.73714286,3.62571429 C6.53142857,3.71142857 6.33428571,3.82285714 6.16285714,3.96 L5.30571429,3.61714286 C5.22857143,3.59142857 5.13428571,3.61714286 5.1,3.69428571 L4.41428571,4.87714286 C4.37142857,4.95428571 4.38857143,5.04857143 4.45714286,5.1 L5.18571429,5.66571429 C5.16,5.76857143 5.14285714,5.88857143 5.14285714,6 C5.14285714,6.11142857 5.15142857,6.22285714 5.16857143,6.33428571 L4.44857143,6.9 C4.38,6.95142857 4.36285714,7.04571429 4.40571429,7.11428571 L5.09142857,8.30571429 C5.13428571,8.38285714 5.22,8.40857143 5.30571429,8.38285714 L6.15428571,8.04 C6.33428571,8.17714286 6.52285714,8.28857143 6.73714286,8.37428571 L6.85714286,9.28285714 C6.87428571,9.36857143 6.94285714,9.42857143 7.02857143,9.42857143 L8.4,9.42857143 C8.48571429,9.42857143 8.55428571,9.36857143 8.57142857,9.28285714 L8.7,8.37428571 C8.90571429,8.28857143 9.10285714,8.17714286 9.27428571,8.04 L10.1228571,8.38285714 C10.2,8.41714286 10.2942857,8.38285714 10.3285714,8.30571429 L11.0142857,7.11428571 C11.0571429,7.03714286 11.04,6.95142857 10.9714286,6.9 L10.26,6.33428571 C10.2771429,6.22285714 10.2857143,6.11142857 10.2857143,6 C10.2857143,5.88 10.2771429,5.76857143 10.26,5.66571429 L10.9885714,5.1 C11.0571429,5.04857143 11.0742857,4.95428571 11.0314286,4.87714286 L10.3457143,3.69428571 C10.3028571,3.61714286 10.2085714,3.59142857 10.1314286,3.61714286 Z M7.71428571,7.22571429 C7.03714286,7.22571429 6.48857143,6.67714286 6.48857143,6 C6.48857143,5.32285714 7.03714286,4.77428571 7.71428571,4.77428571 C8.39142857,4.77428571 8.94,5.32285714 8.94,6 C8.94,6.67714286 8.39142857,7.22571429 7.71428571,7.22571429 Z" id="Shape"></path>
                    <path d="M13.6628571,5.19428571 C13.2942857,2.39142857 10.8942857,0.171428571 8.06571429,0.00857142857 C7.94571429,0 7.83428571,0 7.71428571,0 C4.68857143,0 2.20285714,2.23714286 1.78285714,5.14285714 L0.128571429,8.12571429 C-0.222857143,8.69142857 0.188571429,9.42857143 0.857142857,9.42857143 L1.71428571,9.42857143 L1.71428571,11.1428571 C1.71428571,12.0857143 2.48571429,12.8571429 3.42857143,12.8571429 L4.28571429,12.8571429 L4.28571429,15.4285714 L10.2857143,15.4285714 L10.2857143,11.4171429 C12.5314286,10.3457143 14.0142857,7.92 13.6628571,5.19428571 Z M9.33428571,9.96857143 L8.57142857,10.3285714 L8.57142857,13.7142857 L6,13.7142857 L6,11.1428571 L3.42857143,11.1428571 L3.42857143,7.71428571 L2.31428571,7.71428571 L3.45428571,5.71714286 C3.60857143,3.48 5.44285714,1.71428571 7.71428571,1.71428571 C10.08,1.71428571 12,3.63428571 12,6 C12,7.79142857 10.8942857,9.32571429 9.33428571,9.96857143 Z" id="Shape"></path>
                </g>
            </g>
        </g>
    </g>
</svg>