<?xml version="1.0" encoding="UTF-8"?>
<svg width="18px" height="18px" viewBox="0 0 18 18" version="1.1" xmlns="http://www.w3.org/2000/svg" xmlns:xlink="http://www.w3.org/1999/xlink">
    <title>lnb/ansible</title>
    <defs>
        <filter id="filter-1">
            <feColorMatrix in="SourceGraphic" type="matrix" values="0 0 0 0 0.474510 0 0 0 0 0.533333 0 0 0 0 0.592157 0 0 0 1.000000 0"></feColorMatrix>
        </filter>
    </defs>
    <g id="lnb/ansible" stroke="none" stroke-width="1" fill="none" fill-rule="evenodd">
        <g filter="url(#filter-1)">
            <g>
                <rect id="Rectangle" x="0" y="0" width="18" height="18"></rect>
                <path d="M2.16,5.91 L3.315,7.065 C3.1125,7.6725 3,8.325 3,9 C3,12.3075 5.6925,15 9,15 C12.3075,15 15,12.3075 15,9 C15,5.6925 12.3075,3 9,3 C8.325,3 7.6725,3.1125 7.065,3.315 L5.9175,2.1675 C6.8625,1.74 7.905,1.5 9,1.5 C13.14,1.5 16.5,4.86 16.5,9 C16.5,13.14 13.14,16.5 9,16.5 C4.86,16.5 1.5,13.14 1.5,9 C1.5,7.8975 1.74,6.855 2.16,5.91 Z M5.25,4.125 C5.25,4.7475 4.7475,5.25 4.125,5.25 C3.5025,5.25 3,4.7475 3,4.125 C3,3.5025 3.5025,3 4.125,3 C4.7475,3 5.25,3.5025 5.25,4.125 Z M9.0225,6.7425 L8.97,6.7425 L8.1,9.225 L9.8925,9.225 L9.0225,6.7425 Z M8.4675,5.625 L9.54,5.625 L11.7975,11.625 L10.755,11.625 L10.215,10.095 L7.7925,10.095 L7.245,11.625 L6.21,11.625 L8.4675,5.625 Z" id="Shape" fill="#000000" fill-rule="nonzero"></path>
            </g>
        </g>
    </g>
</svg>