<?xml version="1.0" encoding="UTF-8"?>
<svg width="18px" height="18px" viewBox="0 0 18 18" version="1.1" xmlns="http://www.w3.org/2000/svg" xmlns:xlink="http://www.w3.org/1999/xlink">
    <title>lnb/authentication_authorization</title>
    <defs>
        <filter id="filter-1">
            <feColorMatrix in="SourceGraphic" type="matrix" values="0 0 0 0 0.474510 0 0 0 0 0.533333 0 0 0 0 0.592157 0 0 0 1.000000 0"></feColorMatrix>
        </filter>
    </defs>
    <g id="lnb/authentication_authorization" stroke="none" stroke-width="1" fill="none" fill-rule="evenodd">
        <g filter="url(#filter-1)">
            <g>
                <rect id="Rectangle" x="0" y="0" width="18" height="18"></rect>
                <g id="Group" transform="translate(1.500000, 2.250000)" fill="#000000" fill-rule="nonzero">
                    <path d="M1.5,12 L13.5,12 L13.5,1.5 L1.5,1.5 L1.5,12 Z M8.5575,5.8125 L9.615,6.8775 L11.9925,4.5 L13.0575,5.565 L9.615,9 L7.5,6.87 L8.5575,5.8125 Z M2.25,3 L6,3 L6,4.5 L2.25,4.5 L2.25,3 Z M2.25,6 L6,6 L6,7.5 L2.25,7.5 L2.25,6 Z M2.25,9 L6,9 L6,10.5 L2.25,10.5 L2.25,9 Z" id="Shape" opacity="0.3"></path>
                    <path d="M13.5,0 L1.5,0 C0.675,0 0,0.675 0,1.5 L0,12 C0,12.825 0.675,13.5 1.5,13.5 L13.5,13.5 C14.325,13.5 15,12.825 15,12 L15,1.5 C15,0.675 14.325,0 13.5,0 Z M13.5,12 L1.5,12 L1.5,1.5 L13.5,1.5 L13.5,12 Z" id="Shape"></path>
                    <polygon id="Path" points="13.0575 5.565 11.9925 4.5 9.615 6.8775 8.5575 5.8125 7.5 6.87 9.615 9"></polygon>
                    <rect id="Rectangle" x="2.25" y="3" width="3.75" height="1.5"></rect>
                    <rect id="Rectangle" x="2.25" y="6" width="3.75" height="1.5"></rect>
                    <rect id="Rectangle" x="2.25" y="9" width="3.75" height="1.5"></rect>
                </g>
            </g>
        </g>
    </g>
</svg>