<?xml version="1.0" encoding="UTF-8"?>
<svg width="14px" height="16px" viewBox="0 0 14 16" version="1.1" xmlns="http://www.w3.org/2000/svg" xmlns:xlink="http://www.w3.org/1999/xlink">
    <title>lnb/baremetal</title>
    <g id="Page-4:-Component" stroke="none" stroke-width="1" fill="none" fill-rule="evenodd">
        <g id="0_1_01_Common/LNB/GNB_03" transform="translate(-390.000000, -242.000000)" fill="#798897">
            <g id="LNB_01" transform="translate(340.000000, 0.000000)">
                <g id="lnb_icon_filled" transform="translate(44.000000, 119.000000)">
                    <g id="lnb/baremetal" transform="translate(6.000000, 123.500000)">
                        <rect id="Rectangle" opacity="0.3" x="0" y="0" width="14" height="15" rx="1"></rect>
                        <path d="M13,0 C13.5522847,0 14,0.44771525 14,1 L14,14 C14,14.5522847 13.5522847,15 13,15 L1,15 C0.44771525,15 0,14.5522847 0,14 L0,1 C0,0.44771525 0.44771525,0 1,0 L13,0 Z M12.5,1.5 L1.5,1.5 L1.5,13.5 L12.5,13.5 L12.5,1.5 Z M8,10.6 C8.41421356,10.6 8.75,10.9357864 8.75,11.35 C8.75,11.7642136 8.41421356,12.1 8,12.1 C7.58578644,12.1 7.25,11.7642136 7.25,11.35 C7.25,10.9357864 7.58578644,10.6 8,10.6 Z M5.9,10.5 C6.31421356,10.5 6.65,10.8357864 6.65,11.25 C6.65,11.6642136 6.31421356,12 5.9,12 C5.48578644,12 5.15,11.6642136 5.15,11.25 C5.15,10.8357864 5.48578644,10.5 5.9,10.5 Z M4.55,8.75 C4.96421356,8.75 5.3,9.08578644 5.3,9.5 C5.3,9.91421356 4.96421356,10.25 4.55,10.25 C4.13578644,10.25 3.8,9.91421356 3.8,9.5 C3.8,9.08578644 4.13578644,8.75 4.55,8.75 Z M9.45,8.75 C9.86421356,8.75 10.2,9.08578644 10.2,9.5 C10.2,9.91421356 9.86421356,10.25 9.45,10.25 C9.03578644,10.25 8.7,9.91421356 8.7,9.5 C8.7,9.08578644 9.03578644,8.75 9.45,8.75 Z M9,6.75 C9.41421356,6.75 9.75,7.08578644 9.75,7.5 C9.75,7.91421356 9.41421356,8.25 9,8.25 C8.58578644,8.25 8.25,7.91421356 8.25,7.5 C8.25,7.08578644 8.58578644,6.75 9,6.75 Z M5.1,6.6 C5.51421356,6.6 5.85,6.93578644 5.85,7.35 C5.85,7.76421356 5.51421356,8.1 5.1,8.1 C4.68578644,8.1 4.35,7.76421356 4.35,7.35 C4.35,6.93578644 4.68578644,6.6 5.1,6.6 Z M7,5.75 C7.41421356,5.75 7.75,6.08578644 7.75,6.5 C7.75,6.91421356 7.41421356,7.25 7,7.25 C6.58578644,7.25 6.25,6.91421356 6.25,6.5 C6.25,6.08578644 6.58578644,5.75 7,5.75 Z M11.5,2.5 L11.5,4.5 L2.5,4.5 L2.5,2.5 L11.5,2.5 Z" id="Combined-Shape" fill-rule="nonzero"></path>
                    </g>
                </g>
            </g>
        </g>
    </g>
</svg>