<?xml version="1.0" encoding="UTF-8"?>
<svg width="18px" height="18px" viewBox="0 0 18 18" version="1.1" xmlns="http://www.w3.org/2000/svg" xmlns:xlink="http://www.w3.org/1999/xlink">
    <title>lnb/ci_cd</title>
    <defs>
        <filter id="filter-1">
            <feColorMatrix in="SourceGraphic" type="matrix" values="0 0 0 0 0.474510 0 0 0 0 0.533333 0 0 0 0 0.592157 0 0 0 1.000000 0"></feColorMatrix>
        </filter>
    </defs>
    <g id="lnb/ci_cd" stroke="none" stroke-width="1" fill="none" fill-rule="evenodd">
        <g filter="url(#filter-1)">
            <g>
                <rect id="Rectangle" x="0" y="0" width="18" height="18"></rect>
                <g id="Group" transform="translate(1.500000, 2.250000)" fill="#000000" fill-rule="nonzero">
                    <path d="M15,6 L15,0 L9.75,0 L9.75,2.25 L5.25,2.25 L5.25,0 L0,0 L0,6 L5.25,6 L5.25,3.75 L6.75,3.75 L6.75,11.25 L9.75,11.25 L9.75,13.5 L15,13.5 L15,7.5 L9.75,7.5 L9.75,9.75 L8.25,9.75 L8.25,3.75 L9.75,3.75 L9.75,6 L15,6 Z M3.75,4.5 L1.5,4.5 L1.5,1.5 L3.75,1.5 L3.75,4.5 Z M11.25,9 L13.5,9 L13.5,12 L11.25,12 L11.25,9 Z M11.25,1.5 L13.5,1.5 L13.5,4.5 L11.25,4.5 L11.25,1.5 Z" id="Shape"></path>
                    <polyline id="Path" opacity="0.3" points="3.75 1.5 3.75 4.5 1.5 4.5 1.5 1.5 3.75 1.5"></polyline>
                    <polyline id="Path" opacity="0.3" points="13.5 1.5 13.5 4.5 11.25 4.5 11.25 1.5 13.5 1.5"></polyline>
                    <polyline id="Path" opacity="0.3" points="13.5 9 13.5 12 11.25 12 11.25 9 13.5 9"></polyline>
                </g>
            </g>
        </g>
    </g>
</svg>