<?xml version="1.0" encoding="UTF-8"?>
<svg width="18px" height="18px" viewBox="0 0 18 18" version="1.1" xmlns="http://www.w3.org/2000/svg" xmlns:xlink="http://www.w3.org/1999/xlink">
    <title>lnb/cluster</title>
    <defs>
        <filter id="filter-1">
            <feColorMatrix in="SourceGraphic" type="matrix" values="0 0 0 0 0.474510 0 0 0 0 0.533333 0 0 0 0 0.592157 0 0 0 1.000000 0"></feColorMatrix>
        </filter>
    </defs>
    <g id="lnb/cluster" stroke="none" stroke-width="1" fill="none" fill-rule="evenodd">
        <g filter="url(#filter-1)">
            <g>
                <polygon id="Path" points="0 0 18 0 18 18 0 18"></polygon>
                <path d="M9,3 C5.6925,3 3,5.6925 3,9 C3,12.3075 5.6925,15 9,15 C12.3075,15 15,12.3075 15,9 C15,5.6925 12.3075,3 9,3 Z M6,12 C5.175,12 4.5,11.325 4.5,10.5 C4.5,9.675 5.175,9 6,9 C6.825,9 7.5,9.675 7.5,10.5 C7.5,11.325 6.825,12 6,12 Z M9,7.5 C8.175,7.5 7.5,6.825 7.5,6 C7.5,5.175 8.175,4.5 9,4.5 C9.825,4.5 10.5,5.175 10.5,6 C10.5,6.825 9.825,7.5 9,7.5 Z M12,12 C11.175,12 10.5,11.325 10.5,10.5 C10.5,9.675 11.175,9 12,9 C12.825,9 13.5,9.675 13.5,10.5 C13.5,11.325 12.825,12 12,12 Z" id="Shape" fill="#000000" fill-rule="nonzero" opacity="0.3"></path>
                <path d="M9,1.5 C4.86,1.5 1.5,4.86 1.5,9 C1.5,13.14 4.86,16.5 9,16.5 C13.14,16.5 16.5,13.14 16.5,9 C16.5,4.86 13.14,1.5 9,1.5 Z M9,15 C5.6925,15 3,12.3075 3,9 C3,5.6925 5.6925,3 9,3 C12.3075,3 15,5.6925 15,9 C15,12.3075 12.3075,15 9,15 Z" id="Shape" fill="#000000" fill-rule="nonzero"></path>
                <circle id="Oval" fill="#000000" fill-rule="nonzero" cx="6" cy="10.5" r="1.5"></circle>
                <circle id="Oval" fill="#000000" fill-rule="nonzero" cx="9" cy="6" r="1.5"></circle>
                <circle id="Oval" fill="#000000" fill-rule="nonzero" cx="12" cy="10.5" r="1.5"></circle>
            </g>
        </g>
    </g>
</svg>