<?xml version="1.0" encoding="UTF-8"?>
<svg width="18px" height="18px" viewBox="0 0 18 18" version="1.1" xmlns="http://www.w3.org/2000/svg" xmlns:xlink="http://www.w3.org/1999/xlink">
    <title>lnb/controller</title>
    <g id="lnb/controller" stroke="none" stroke-width="1" fill="none" fill-rule="evenodd">
        <g>
            <rect id="Rectangle" x="0" y="0" width="18" height="18"></rect>
            <path d="M9,8.75 C9.48324916,8.75 9.92074916,8.94587542 10.2374369,9.26256313 C10.5541246,9.57925084 10.75,10.0167508 10.75,10.5 C10.75,10.9832492 10.5541246,11.4207492 10.2374369,11.7374369 C9.92074916,12.0541246 9.48324916,12.25 9,12.25 C8.51675084,12.25 8.07925084,12.0541246 7.76256313,11.7374369 C7.44587542,11.4207492 7.25,10.9832492 7.25,10.5 C7.25,10.0167508 7.44587542,9.57925084 7.76256313,9.26256313 C8.07925084,8.94587542 8.51675084,8.75 9,8.75 Z M3.5,4.75 C3.98324916,4.75 4.42074916,4.94587542 4.73743687,5.26256313 C5.05412458,5.57925084 5.25,6.01675084 5.25,6.5 C5.25,6.98324916 5.05412458,7.42074916 4.73743687,7.73743687 C4.42074916,8.05412458 3.98324916,8.25 3.5,8.25 C3.01675084,8.25 2.57925084,8.05412458 2.26256313,7.73743687 C1.94587542,7.42074916 1.75,6.98324916 1.75,6.5 C1.75,6.01675084 1.94587542,5.57925084 2.26256313,5.26256313 C2.57925084,4.94587542 3.01675084,4.75 3.5,4.75 L3.5,4.75 Z M14.5,4.75 C14.9832492,4.75 15.4207492,4.94587542 15.7374369,5.26256313 C16.0541246,5.57925084 16.25,6.01675084 16.25,6.5 C16.25,6.98324916 16.0541246,7.42074916 15.7374369,7.73743687 C15.4207492,8.05412458 14.9832492,8.25 14.5,8.25 C14.0167508,8.25 13.5792508,8.05412458 13.2625631,7.73743687 C12.9458754,7.42074916 12.75,6.98324916 12.75,6.5 C12.75,6.01675084 12.9458754,5.57925084 13.2625631,5.26256313 C13.5792508,4.94587542 14.0167508,4.75 14.5,4.75 Z" id="Shape" stroke="#798897" stroke-width="1.5" fill-opacity="0.3" fill="#798897"></path>
            <path d="M3.5,1 C4.05228475,1 4.5,1.44771525 4.5,2 L4.50083003,4.20838468 C5.38333908,4.59435237 6,5.47516175 6,6.5 C6,7.52483825 5.38333908,8.40564763 4.50083003,8.79161532 L4.5,16 C4.5,16.5522847 4.05228475,17 3.5,17 C2.94771525,17 2.5,16.5522847 2.5,16 L2.50017484,8.79205454 C1.61712907,8.40631615 1,7.52522718 1,6.5 C1,5.47477282 1.61712907,4.59368385 2.50017484,4.20794546 L2.5,2 C2.5,1.44771525 2.94771525,1 3.5,1 Z M14.5,1 C15.0522847,1 15.5,1.44771525 15.5,2 L15.50083,4.20838468 C16.3833391,4.59435237 17,5.47516175 17,6.5 C17,7.52483825 16.3833391,8.40564763 15.50083,8.79161532 L15.5,16 C15.5,16.5522847 15.0522847,17 14.5,17 C13.9477153,17 13.5,16.5522847 13.5,16 L13.5001748,8.79205454 C12.6171291,8.40631615 12,7.52522718 12,6.5 C12,5.47477282 12.6171291,4.59368385 13.5001748,4.20794546 L13.5,2 C13.5,1.44771525 13.9477153,1 14.5,1 Z M9,1 C9.55228475,1 10,1.44771525 10,2 L10.00083,8.20838468 C10.8833391,8.59435237 11.5,9.47516175 11.5,10.5 C11.5,11.5248383 10.8833391,12.4056476 10.00083,12.7916153 L10,16 C10,16.5522847 9.55228475,17 9,17 C8.44771525,17 8,16.5522847 8,16 L8.00017484,12.7920545 C7.11712907,12.4063162 6.5,11.5252272 6.5,10.5 C6.5,9.47477282 7.11712907,8.59368385 8.00017484,8.20794546 L8,2 C8,1.44771525 8.44771525,1 9,1 Z M9,9.5 C8.44771525,9.5 8,9.94771525 8,10.5 C8,11.0522847 8.44771525,11.5 9,11.5 C9.55228475,11.5 10,11.0522847 10,10.5 C10,9.94771525 9.55228475,9.5 9,9.5 Z M3.5,5.5 C2.94771525,5.5 2.5,5.94771525 2.5,6.5 C2.5,7.05228475 2.94771525,7.5 3.5,7.5 C4.05228475,7.5 4.5,7.05228475 4.5,6.5 C4.5,5.94771525 4.05228475,5.5 3.5,5.5 Z M14.5,5.5 C13.9477153,5.5 13.5,5.94771525 13.5,6.5 C13.5,7.05228475 13.9477153,7.5 14.5,7.5 C15.0522847,7.5 15.5,7.05228475 15.5,6.5 C15.5,5.94771525 15.0522847,5.5 14.5,5.5 Z" id="Combined-Shape" fill="#798897"></path>
        </g>
    </g>
</svg>