<?xml version="1.0" encoding="UTF-8"?>
<svg width="18px" height="18px" viewBox="0 0 18 18" version="1.1" xmlns="http://www.w3.org/2000/svg" xmlns:xlink="http://www.w3.org/1999/xlink">
    <title>lnb/ferderation</title>
    <defs>
        <filter id="filter-1">
            <feColorMatrix in="SourceGraphic" type="matrix" values="0 0 0 0 0.474510 0 0 0 0 0.533333 0 0 0 0 0.592157 0 0 0 1.000000 0"></feColorMatrix>
        </filter>
    </defs>
    <g id="lnb/ferderation" stroke="none" stroke-width="1" fill="none" fill-rule="evenodd">
        <g filter="url(#filter-1)">
            <g>
                <polygon id="Path" points="0 0 18 0 18 18 0 18"></polygon>
                <path d="M2.25,12.75 L15.75,12.75 L15.75,3.75 L2.25,3.75 L2.25,12.75 Z M3.75,6 L5.25,6 L5.25,7.5 L3.75,7.5 L3.75,6 Z M3.75,9 L5.25,9 L5.25,10.5 L3.75,10.5 L3.75,9 Z" id="Shape" fill="#000000" fill-rule="nonzero" opacity="0.3"></path>
                <path d="M15.75,2.25 L2.25,2.25 C1.425,2.25 0.75,2.925 0.75,3.75 L0.75,12.75 C0.75,13.575 1.425,14.25 2.25,14.25 L6,14.25 L6,15.75 L12,15.75 L12,14.25 L15.75,14.25 C16.575,14.25 17.25,13.575 17.25,12.75 L17.25,3.75 C17.25,2.925 16.575,2.25 15.75,2.25 Z M15.75,12.75 L2.25,12.75 L2.25,3.75 L15.75,3.75 L15.75,12.75 Z M3.75,9 L5.25,9 L5.25,10.5 L3.75,10.5 L3.75,9 Z M7.5,9 L7.5,10.5 L6,10.5 L6,9 L7.5,9 Z M9.75,9 L9.75,10.5 L8.25,10.5 L8.25,9 L9.75,9 Z M12,9 L12,10.5 L10.5,10.5 L10.5,9 L12,9 Z M14.25,9 L14.25,10.5 L12.75,10.5 L12.75,9 L14.25,9 Z M5.25,6 L5.25,7.5 L3.75,7.5 L3.75,6 L5.25,6 Z M7.5,6 L7.5,7.5 L6,7.5 L6,6 L7.5,6 Z M9.75,6 L9.75,7.5 L8.25,7.5 L8.25,6 L9.75,6 Z M12,6 L12,7.5 L10.5,7.5 L10.5,6 L12,6 Z M14.25,6 L14.25,7.5 L12.75,7.5 L12.75,6 L14.25,6 Z" id="Shape" fill="#000000" fill-rule="nonzero"></path>
            </g>
        </g>
    </g>
</svg>