<?xml version="1.0" encoding="UTF-8"?>
<svg width="18px" height="18px" viewBox="0 0 18 18" version="1.1" xmlns="http://www.w3.org/2000/svg" xmlns:xlink="http://www.w3.org/1999/xlink">
    <title>lnb/helm</title>
    <defs>
        <filter id="filter-1">
            <feColorMatrix in="SourceGraphic" type="matrix" values="0 0 0 0 0.474510 0 0 0 0 0.533333 0 0 0 0 0.592157 0 0 0 1.000000 0"></feColorMatrix>
        </filter>
    </defs>
    <g id="lnb/helm" stroke="none" stroke-width="1" fill="none" fill-rule="evenodd">
        <g filter="url(#filter-1)">
            <g>
                <polygon id="Path" points="0 0 18 0 18 18 0 18"></polygon>
                <polygon id="Shape" fill="#000000" fill-rule="nonzero" opacity="0.3" points="3.75 14.25 14.25 14.25 14.25 6 3.75 6"></polygon>
                <path d="M15.405,3.9225 L14.3625,2.6625 C14.16,2.4075 13.8525,2.25 13.5,2.25 L4.5,2.25 C4.1475,2.25 3.84,2.4075 3.63,2.6625 L2.595,3.9225 C2.3775,4.1775 2.25,4.515 2.25,4.875 L2.25,14.25 C2.25,15.075 2.925,15.75 3.75,15.75 L14.25,15.75 C15.075,15.75 15.75,15.075 15.75,14.25 L15.75,4.875 C15.75,4.515 15.6225,4.1775 15.405,3.9225 Z M4.68,3.75 L13.32,3.75 L13.9275,4.4775 L4.08,4.4775 L4.68,3.75 Z M14.25,14.25 L3.75,14.25 L3.75,6 L14.25,6 L14.25,14.25 Z" id="Shape" fill="#000000" fill-rule="nonzero"></path>
                <polygon id="Rectangle" fill="#000000" fill-rule="nonzero" points="5.25 9.75 6.75 9.75 6.75 12.75 5.25 12.75"></polygon>
                <polygon id="Rectangle" fill="#000000" fill-rule="nonzero" points="11.25 7.5 12.75 7.5 12.75 12.75 11.25 12.75"></polygon>
                <rect id="Rectangle" fill="#000000" fill-rule="nonzero" x="8.25" y="10.5" width="1.5" height="2.25"></rect>
                <rect id="Rectangle" fill="#000000" fill-rule="nonzero" x="8.25" y="7.5" width="1.5" height="1.5"></rect>
            </g>
        </g>
    </g>
</svg>