<?xml version="1.0" encoding="UTF-8"?>
<svg width="18px" height="18px" viewBox="0 0 18 18" version="1.1" xmlns="http://www.w3.org/2000/svg" xmlns:xlink="http://www.w3.org/1999/xlink">
    <title>lnb/home</title>
    <defs>
        <filter id="filter-1">
            <feColorMatrix in="SourceGraphic" type="matrix" values="0 0 0 0 0.474510 0 0 0 0 0.533333 0 0 0 0 0.592157 0 0 0 1.000000 0"></feColorMatrix>
        </filter>
    </defs>
    <g id="lnb/home" stroke="none" stroke-width="1" fill="none" fill-rule="evenodd">
        <g filter="url(#filter-1)">
            <g>
                <polygon id="Path" points="0 0 18 0 18 18 0 18"></polygon>
                <path d="M9,2.25 L1.5,9 L3.75,9 L3.75,15 L8.25,15 L8.25,10.5 L9.75,10.5 L9.75,15 L14.25,15 L14.25,9 L16.5,9 L9,2.25 Z M12.75,13.5 L11.25,13.5 L11.25,9 L6.75,9 L6.75,13.5 L5.25,13.5 L5.25,7.6425 L9,4.2675 L12.75,7.6425 L12.75,13.5 Z" id="Shape" fill="#000000" fill-rule="nonzero"></path>
                <polygon id="Path" fill="#000000" fill-rule="nonzero" opacity="0.3" points="5.25 7.6425 5.25 13.5 6.75 13.5 6.75 9 11.25 9 11.25 13.5 12.75 13.5 12.75 7.6425 9 4.2675"></polygon>
            </g>
        </g>
    </g>
</svg>