<?xml version="1.0" encoding="UTF-8"?>
<svg width="18px" height="18px" viewBox="0 0 18 18" version="1.1" xmlns="http://www.w3.org/2000/svg" xmlns:xlink="http://www.w3.org/1999/xlink">
    <title>lnb/host</title>
    <defs>
        <filter id="filter-1">
            <feColorMatrix in="SourceGraphic" type="matrix" values="0 0 0 0 0.474510 0 0 0 0 0.533333 0 0 0 0 0.592157 0 0 0 1.000000 0"></feColorMatrix>
        </filter>
    </defs>
    <g id="lnb/host" stroke="none" stroke-width="1" fill="none" fill-rule="evenodd">
        <g filter="url(#filter-1)">
            <g transform="translate(9.000000, 9.000000) rotate(-270.000000) translate(-9.000000, -9.000000) ">
                <polygon id="Path" points="0 0 17.25 0 17.25 18 0 18"></polygon>
                <path d="M3.75,6.75 L13.5,6.75 L13.5,3.75 L3.75,3.75 L3.75,6.75 Z M5.14285714,4.125 C5.72089286,4.125 6.1875,4.6275 6.1875,5.25 C6.1875,5.8725 5.72089286,6.375 5.14285714,6.375 C4.56482143,6.375 4.09821429,5.8725 4.09821429,5.25 C4.09821429,4.6275 4.56482143,4.125 5.14285714,4.125 Z M3.75,14.25 L13.5,14.25 L13.5,11.25 L3.75,11.25 L3.75,14.25 Z M5.14285714,11.625 C5.72089286,11.625 6.1875,12.1275 6.1875,12.75 C6.1875,13.3725 5.72089286,13.875 5.14285714,13.875 C4.56482143,13.875 4.09821429,13.3725 4.09821429,12.75 C4.09821429,12.1275 4.56482143,11.625 5.14285714,11.625 Z" id="Shape" fill="#000000" fill-rule="nonzero" opacity="0.3"></path>
                <path d="M14.2916667,9.75 L2.95833333,9.75 C2.56875,9.75 2.25,10.0875 2.25,10.5 L2.25,15 C2.25,15.4125 2.56875,15.75 2.95833333,15.75 L14.2916667,15.75 C14.68125,15.75 15,15.4125 15,15 L15,10.5 C15,10.0875 14.68125,9.75 14.2916667,9.75 Z M13.5833333,14.25 L3.66666667,14.25 L3.66666667,11.25 L13.5833333,11.25 L13.5833333,14.25 Z M5.08333333,13.875 C5.67125,13.875 6.14583333,13.3725 6.14583333,12.75 C6.14583333,12.1275 5.67125,11.625 5.08333333,11.625 C4.49541667,11.625 4.02083333,12.1275 4.02083333,12.75 C4.02083333,13.3725 4.49541667,13.875 5.08333333,13.875 Z M14.2916667,2.25 L2.95833333,2.25 C2.56875,2.25 2.25,2.5875 2.25,3 L2.25,7.5 C2.25,7.9125 2.56875,8.25 2.95833333,8.25 L14.2916667,8.25 C14.68125,8.25 15,7.9125 15,7.5 L15,3 C15,2.5875 14.68125,2.25 14.2916667,2.25 Z M13.5833333,6.75 L3.66666667,6.75 L3.66666667,3.75 L13.5833333,3.75 L13.5833333,6.75 Z M5.08333333,6.375 C5.67125,6.375 6.14583333,5.8725 6.14583333,5.25 C6.14583333,4.6275 5.67125,4.125 5.08333333,4.125 C4.49541667,4.125 4.02083333,4.6275 4.02083333,5.25 C4.02083333,5.8725 4.49541667,6.375 5.08333333,6.375 Z" id="Shape" fill="#000000" fill-rule="nonzero"></path>
            </g>
        </g>
    </g>
</svg>