<?xml version="1.0" encoding="UTF-8"?>
<svg width="18px" height="18px" viewBox="0 0 18 18" version="1.1" xmlns="http://www.w3.org/2000/svg" xmlns:xlink="http://www.w3.org/1999/xlink">
    <title>lnb/image</title>
    <defs>
        <filter id="filter-1">
            <feColorMatrix in="SourceGraphic" type="matrix" values="0 0 0 0 0.474510 0 0 0 0 0.533333 0 0 0 0 0.592157 0 0 0 1.000000 0"></feColorMatrix>
        </filter>
    </defs>
    <g id="lnb/image" stroke="none" stroke-width="1" fill="none" fill-rule="evenodd">
        <g filter="url(#filter-1)">
            <g>
                <polygon id="Path" points="0 0 18 0 18 18 0 18"></polygon>
                <polygon id="Path" fill="#000000" fill-rule="nonzero" opacity="0.3" points="2.5 7.5 15.5 7.5 15.5 3.5 2.5 3.5"></polygon>
                <polygon id="Path2" fill="#000000" fill-rule="nonzero" opacity="0.3" points="2.5 14.5 15.5 14.5 15.5 10.5 2.5 10.5"></polygon>
                <path d="M15.2222222,2.5 C15.6143519,2.5 15.9411265,2.78359375 15.9928659,3.14858941 L16,3.25 L16,7.75 C16,8.128125 15.7059028,8.44322917 15.3273888,8.49312066 L15.2222222,8.5 L2.77777778,8.5 C2.38564815,8.5 2.05887346,8.21640625 2.00713413,7.85141059 L2,7.75 L2,3.25 C2,2.871875 2.29409722,2.55677083 2.67261124,2.50687934 L2.77777778,2.5 L15.2222222,2.5 Z M6.25,4 L3.55555556,4 L3.55555556,7 L6.25,7 L6.25,4 Z M7.75,4 L7.75,7 L10.25,7 L10.25,4 L7.75,4 Z M11.75,7 L14.4444444,7 L14.4444444,4 L11.75,4 L11.75,7 Z" id="Shape" fill="#000000" fill-rule="nonzero"></path>
                <path d="M15.2222222,9.5 C15.6143519,9.5 15.9411265,9.78359375 15.9928659,10.1485894 L16,10.25 L16,14.75 C16,15.128125 15.7059028,15.4432292 15.3273888,15.4931207 L15.2222222,15.5 L2.77777778,15.5 C2.38564815,15.5 2.05887346,15.2164063 2.00713413,14.8514106 L2,14.75 L2,10.25 C2,9.871875 2.29409722,9.55677083 2.67261124,9.50687934 L2.77777778,9.5 L15.2222222,9.5 Z M6.25,11 L3.55555556,11 L3.55555556,14 L6.25,14 L6.25,11 Z M7.75,11 L7.75,14 L10.25,14 L10.25,11 L7.75,11 Z M11.75,14 L14.4444444,14 L14.4444444,11 L11.75,11 L11.75,14 Z" id="Shape2" fill="#000000" fill-rule="nonzero"></path>
            </g>
        </g>
    </g>
</svg>