<?xml version="1.0" encoding="UTF-8"?>
<svg width="18px" height="18px" viewBox="0 0 18 18" version="1.1" xmlns="http://www.w3.org/2000/svg" xmlns:xlink="http://www.w3.org/1999/xlink">
    <title>lnb/management</title>
    <defs>
        <filter id="filter-1">
            <feColorMatrix in="SourceGraphic" type="matrix" values="0 0 0 0 0.474510 0 0 0 0 0.533333 0 0 0 0 0.592157 0 0 0 1.000000 0"></feColorMatrix>
        </filter>
    </defs>
    <g id="lnb/management" stroke="none" stroke-width="1" fill="none" fill-rule="evenodd">
        <g filter="url(#filter-1)">
            <g>
                <polygon id="Path" points="0 0 18 0 18 18 0 18"></polygon>
                <g id="Group" transform="translate(1.500000, 3.000000)" fill="#000000" fill-rule="nonzero">
                    <g transform="translate(1.500000, 1.500000)" opacity="0.3">
                        <circle id="Oval" cx="4.5" cy="1.5" r="1.5"></circle>
                        <path d="M4.5,7.5 C4.5,7.245 4.5225,6.9975 4.56,6.7575 C4.5375,6.75 4.5225,6.75 4.5,6.75 C3.0225,6.75 1.575,7.1475 0.3075,7.905 C0.12,8.01 0,8.25 0,8.5125 L0,9 L4.7175,9 C4.575,8.5275 4.5,8.025 4.5,7.5 Z" id="Path"></path>
                    </g>
                    <path d="M1.5,10.5 L1.5,10.0125 C1.5,9.7575 1.62,9.5175 1.8075,9.405 C3.075,8.6475 4.5225,8.25 6,8.25 C6.0225,8.25 6.0375,8.25 6.06,8.2575 C6.135,7.7325 6.285,7.23 6.5025,6.7725 C6.3375,6.7575 6.1725,6.75 6,6.75 C4.185,6.75 2.49,7.2525 1.0425,8.115 C0.3825,8.505 0,9.24 0,10.0125 L0,12 L6.945,12 C6.63,11.55 6.3825,11.04 6.2175,10.5 L1.5,10.5 Z M6,6 C7.6575,6 9,4.6575 9,3 C9,1.3425 7.6575,0 6,0 C4.3425,0 3,1.3425 3,3 C3,4.6575 4.3425,6 6,6 Z M6,1.5 C6.825,1.5 7.5,2.175 7.5,3 C7.5,3.825 6.825,4.5 6,4.5 C5.175,4.5 4.5,3.825 4.5,3 C4.5,2.175 5.175,1.5 6,1.5 Z" id="Shape"></path>
                    <path d="M14.2236025,6.7225 L13.0978261,7.09 C12.8493789,6.8875 12.5698758,6.73 12.2593168,6.6175 L12.0263975,5.5 L10.4736025,5.5 L10.2406832,6.6175 C9.93012422,6.73 9.65062112,6.8875 9.40217391,7.09 L8.27639752,6.7225 L7.5,8.02 L8.38509317,8.77 C8.36180124,8.9275 8.33850932,9.0775 8.33850932,9.2425 C8.33850932,9.4075 8.36180124,9.5575 8.38509317,9.715 L7.5,10.465 L8.27639752,11.7625 L9.40217391,11.395 C9.65062112,11.5975 9.93012422,11.755 10.2406832,11.8675 L10.4736025,13 L12.0263975,13 L12.2593168,11.8825 C12.5698758,11.77 12.8493789,11.6125 13.0978261,11.41 L14.2236025,11.7775 L15,10.48 L14.1149068,9.73 C14.1381988,9.5725 14.1614907,9.4225 14.1614907,9.2575 C14.1614907,9.0925 14.1381988,8.9425 14.1149068,8.785 L15,8.035 L14.2236025,6.7225 Z M11.25,10.75 C10.3959627,10.75 9.69720497,10.075 9.69720497,9.25 C9.69720497,8.425 10.3959627,7.75 11.25,7.75 C12.1040373,7.75 12.802795,8.425 12.802795,9.25 C12.802795,10.075 12.1040373,10.75 11.25,10.75 Z" id="Shape"></path>
                </g>
            </g>
        </g>
    </g>
</svg>