<?xml version="1.0" encoding="UTF-8"?>
<svg width="18px" height="18px" viewBox="0 0 18 18" version="1.1" xmlns="http://www.w3.org/2000/svg" xmlns:xlink="http://www.w3.org/1999/xlink">
    <title>lnb/muti_cluster</title>
    <defs>
        <filter id="filter-1">
            <feColorMatrix in="SourceGraphic" type="matrix" values="0 0 0 0 0.474510 0 0 0 0 0.533333 0 0 0 0 0.592157 0 0 0 1.000000 0"></feColorMatrix>
        </filter>
    </defs>
    <g id="lnb/muti_cluster" stroke="none" stroke-width="1" fill="none" fill-rule="evenodd">
        <g filter="url(#filter-1)">
            <g>
                <polygon id="Path" points="0 0 18 0 18 18 0 18"></polygon>
                <path d="M11.25,3.75 C8.355,3.75 6,6.105 6,9 C6,11.895 8.355,14.25 11.25,14.25 C14.145,14.25 16.5,11.895 16.5,9 C16.5,6.105 14.145,3.75 11.25,3.75 Z" id="Shape" fill="#000000" fill-rule="nonzero" opacity="0.3"></path>
                <path d="M8.75,12 C9.57842712,12 10.25,11.3284271 10.25,10.5 C10.25,9.67157288 9.57842712,9 8.75,9 C7.92157288,9 7.25,9.67157288 7.25,10.5 C7.25,11.3284271 7.92157288,12 8.75,12 Z M11.25,8.25 C12.0784271,8.25 12.75,7.57842712 12.75,6.75 C12.75,5.92157288 12.0784271,5.25 11.25,5.25 C10.4215729,5.25 9.75,5.92157288 9.75,6.75 C9.75,7.57842712 10.4215729,8.25 11.25,8.25 Z M13.75,12 C14.5784271,12 15.25,11.3284271 15.25,10.5 C15.25,9.67157288 14.5784271,9 13.75,9 C12.9215729,9 12.25,9.67157288 12.25,10.5 C12.25,11.3284271 12.9215729,12 13.75,12 Z M11.25,2.25 C7.53,2.25 4.5,5.28 4.5,9 C4.5,12.72 7.53,15.75 11.25,15.75 C14.97,15.75 18,12.72 18,9 C18,5.28 14.97,2.25 11.25,2.25 Z M11.25,14.25 C8.355,14.25 6,11.895 6,9 C6,6.105 8.355,3.75 11.25,3.75 C14.145,3.75 16.5,6.105 16.5,9 C16.5,11.895 14.145,14.25 11.25,14.25 Z M1.5,9 C1.5,6.9075 2.73,5.1 4.5075,4.26 L4.5075,2.64 C1.89,3.57 0,6.0675 0,9 C0,11.9325 1.89,14.43 4.5075,15.36 L4.5075,13.74 C2.73,12.9 1.5,11.0925 1.5,9 Z" id="Shape" fill="#000000" fill-rule="nonzero"></path>
            </g>
        </g>
    </g>
</svg>