<?xml version="1.0" encoding="UTF-8"?>
<svg width="18px" height="18px" viewBox="0 0 18 18" version="1.1" xmlns="http://www.w3.org/2000/svg" xmlns:xlink="http://www.w3.org/1999/xlink">
    <title>lnb/node</title>
    <g id="lnb/node" stroke="none" stroke-width="1" fill="none" fill-rule="evenodd">
        <g>
            <rect id="Rectangle" x="0" y="0" width="18" height="18"></rect>
            <path d="M10,0.577350269 L15.7942286,3.92264973 C16.4130308,4.27991532 16.7942286,4.94016936 16.7942286,5.65470054 L16.7942286,12.3452995 C16.7942286,13.0598306 16.4130308,13.7200847 15.7942286,14.0773503 L10,17.4226497 C9.38119785,17.7799153 8.61880215,17.7799153 8,17.4226497 L2.20577137,14.0773503 C1.58696921,13.7200847 1.20577137,13.0598306 1.20577137,12.3452995 L1.20577137,5.65470054 C1.20577137,4.94016936 1.58696921,4.27991532 2.20577137,3.92264973 L8,0.577350269 C8.61880215,0.220084679 9.38119785,0.220084679 10,0.577350269 Z" id="Polygon" fill-opacity="0.3" fill="#798897"></path>
            <path d="M10,0.577350269 L15.7942286,3.92264973 C16.4130308,4.27991532 16.7942286,4.94016936 16.7942286,5.65470054 L16.7942286,12.3452995 C16.7942286,13.0598306 16.4130308,13.7200847 15.7942286,14.0773503 L10,17.4226497 C9.38119785,17.7799153 8.61880215,17.7799153 8,17.4226497 L2.20577137,14.0773503 C1.58696921,13.7200847 1.20577137,13.0598306 1.20577137,12.3452995 L1.20577137,5.65470054 C1.20577137,4.94016936 1.58696921,4.27991532 2.20577137,3.92264973 L8,0.577350269 C8.61880215,0.220084679 9.38119785,0.220084679 10,0.577350269 Z M14.7942286,5.65470054 L9,2.30940108 L3.20577137,5.65470054 L3.20577137,12.3452995 L9,15.6905989 L14.7942286,12.3452995 L14.7942286,5.65470054 Z" id="Polygon" fill="#798897" fill-rule="nonzero"></path>
        </g>
    </g>
</svg>