<?xml version="1.0" encoding="UTF-8"?>
<svg width="18px" height="18px" viewBox="0 0 18 18" version="1.1" xmlns="http://www.w3.org/2000/svg" xmlns:xlink="http://www.w3.org/1999/xlink">
    <title>lnb/operator</title>
    <defs>
        <filter id="filter-1">
            <feColorMatrix in="SourceGraphic" type="matrix" values="0 0 0 0 0.474510 0 0 0 0 0.533333 0 0 0 0 0.592157 0 0 0 1.000000 0"></feColorMatrix>
        </filter>
    </defs>
    <g id="lnb/operator" stroke="none" stroke-width="1" fill="none" fill-rule="evenodd">
        <g filter="url(#filter-1)">
            <g>
                <rect id="Rectangle" x="0" y="0" width="18" height="18"></rect>
                <g id="Group" transform="translate(0.750000, 3.000000)" fill="#000000">
                    <path d="M15.0342157,1.5 L15.0154252,5.65111051 C14.3947849,5.39269573 13.7139843,5.25 13,5.25 C10.1015729,5.25 7.75,7.60157288 7.75,10.5 L7.75,10.5 L1.5,10.5 L1.5,1.5 L15.0342157,1.5 Z M13,6.75 C13.6677419,6.75 14.2949011,6.9248179 14.838176,7.23115203 L14.838176,7.23115203 L14.925,7.284 L9.28278346,10.0023182 C9.42907114,8.90065273 10.0542231,7.94954459 10.9419444,7.36528889 L11.1252809,7.25202883 L11.161824,7.23115203 C11.7050989,6.9248179 12.3322581,6.75 13,6.75 Z" id="Combined-Shape" fill-opacity="0.3"></path>
                    <path d="M15,0 C15.825,0 16.5,0.675 16.5,1.5 L16.5,1.5 L16.5011174,6.5885661 C16.0613342,6.19461647 15.5547799,5.87370587 15.0005738,5.64495369 L15,1.5 L1.5,1.5 L1.5,10.5 L7.75,10.5 C7.75,11.0215698 7.82614799,11.5254314 7.96792777,12.0010688 L1.5,12 C0.675,12 0,11.325 0,10.5 L0,10.5 L0,1.5 C0,0.675 0.675,0 1.5,0 L1.5,0 Z" id="Combined-Shape" fill-rule="nonzero"></path>
                    <path d="M7.47291605,6.19794746 C7.48851245,6.04718231 7.49371125,5.89641716 7.47811485,5.75085081 L8.03438627,5.30895295 C8.08637425,5.26736257 8.09677185,5.19977819 8.06557906,5.14259141 L7.53010283,4.21200652 C7.49891005,4.15481974 7.43132567,4.13402455 7.36894009,4.15481974 L6.70349391,4.41475965 C6.58392155,4.32638008 6.45395159,4.25359691 6.31358404,4.19641013 L6.20960808,3.48937356 C6.19921048,3.42178918 6.1472225,3.375 6.07963812,3.375 L5.00348688,3.375 C4.9411013,3.375 4.88391452,3.42178918 4.87351692,3.48417476 L4.76954096,4.19121133 C4.6343722,4.24839811 4.50440225,4.32638008 4.38482989,4.40956085 L3.71938371,4.14962094 C3.65699813,4.12362695 3.58941375,4.14962094 3.55822096,4.20680772 L3.02274474,5.13739261 C2.99155195,5.19457939 3.00194955,5.26216377 3.05393753,5.30375415 L3.61020895,5.75085081 C3.59461255,5.90161595 3.58941375,6.0523811 3.60501015,6.19794746 L3.04873873,6.63984531 C2.99675075,6.68143569 2.98635315,6.74902007 3.01754594,6.80620685 L3.55302217,7.73679174 C3.58421495,7.79397852 3.65179933,7.81477372 3.71418491,7.79397852 L4.37443229,7.53403861 C4.49400465,7.62241818 4.62397461,7.69520136 4.76434216,7.75238814 L4.86831813,8.4594247 C4.87871572,8.52181028 4.9307037,8.56859946 4.99828808,8.56859946 L6.07443932,8.56859946 C6.1368249,8.56859946 6.19401168,8.52181028 6.20440928,8.4594247 L6.30838524,7.75238814 C6.443554,7.69520136 6.57352395,7.61721938 6.69309631,7.53403861 L7.35854249,7.79397852 C7.42092807,7.81997251 7.48851245,7.79397852 7.51970524,7.73679174 L8.05518146,6.80620685 C8.08637425,6.74902007 8.07597665,6.68143569 8.02398867,6.63984531 L7.47291605,6.19794746 Z M5.5441619,6.75421887 C5.11266164,6.75421887 4.76434216,6.40589939 4.76434216,5.97439913 C4.76434216,5.54289887 5.11266164,5.19457939 5.5441619,5.19457939 C5.97566215,5.19457939 6.32398164,5.54289887 6.32398164,5.97439913 C6.32398164,6.40589939 5.97566215,6.75421887 5.5441619,6.75421887 Z" id="Shape" fill-rule="nonzero"></path>
                    <rect id="Rectangle" x="9" y="3" width="4.5" height="1.5"></rect>
                    <path d="M13.5,5.25 L13.5006169,5.2735842 C13.3358383,5.25798033 13.1688471,5.25 13,5.25 C11.5702759,5.25 10.2736129,5.82218724 9.32662137,6.74995143 L9,6.75 L9,5.25 L13.5,5.25 Z" id="Combined-Shape"></path>
                    <path d="M13,6.75 C15.07,6.75 16.75,8.43 16.75,10.5 C16.75,12.57 15.07,14.25 13,14.25 C10.93,14.25 9.25,12.57 9.25,10.5 C9.25,8.43 10.93,6.75 13,6.75 Z M13.375,8.25 L12.625,8.25 L12.625,10.65 L14.2375,12.2625 L14.7625,11.73 L13.375,10.3425 L13.375,8.25 Z" id="Combined-Shape"></path>
                </g>
            </g>
        </g>
    </g>
</svg>