<?xml version="1.0" encoding="UTF-8"?>
<svg width="14px" height="16px" viewBox="0 0 14 16" version="1.1" xmlns="http://www.w3.org/2000/svg" xmlns:xlink="http://www.w3.org/1999/xlink">
    <title>lnb/provisioning</title>
    <g id="Page-4:-Component" stroke="none" stroke-width="1" fill="none" fill-rule="evenodd">
        <g id="0_1_01_Common/LNB/GNB_03" transform="translate(-388.000000, -914.000000)" fill="#798897">
            <g id="Group" transform="translate(386.000000, 913.000000)">
                <g id="lnb/provisioning" transform="translate(2.000000, 1.500000)">
                    <path d="M3,0 C3.55228475,-1.01453063e-16 4,0.44771525 4,1 L4,7 C4,7.55228475 3.55228475,8 3,8 L2.75,8 L2.75098877,11.6457798 C3.48342254,11.9427193 4,12.6610331 4,13.5 C4,14.6045695 3.1045695,15.5 2,15.5 C0.8954305,15.5 0,14.6045695 0,13.5 C0,12.6606498 0.517049545,11.942063 1.25001516,11.6453731 L1.25,8 L1,8 C0.44771525,8 6.76353751e-17,7.55228475 0,7 L0,1 C-6.76353751e-17,0.44771525 0.44771525,1.01453063e-16 1,0 L3,0 Z M8,0 C8.55228475,-1.01453063e-16 9,0.44771525 9,1 L9,7 C9,7.55228475 8.55228475,8 8,8 L7.75,8 L7.75098877,11.6457798 C8.48342254,11.9427193 9,12.6610331 9,13.5 C9,14.6045695 8.1045695,15.5 7,15.5 C5.8954305,15.5 5,14.6045695 5,13.5 C5,12.6606498 5.51704954,11.942063 6.25001516,11.6453731 L6.25,8 L6,8 C5.44771525,8 5,7.55228475 5,7 L5,1 C5,0.44771525 5.44771525,1.01453063e-16 6,0 L8,0 Z M13,0 C13.5522847,-1.01453063e-16 14,0.44771525 14,1 L14,7 C14,7.55228475 13.5522847,8 13,8 L12.75,8 L12.7509888,11.6457798 C13.4834225,11.9427193 14,12.6610331 14,13.5 C14,14.6045695 13.1045695,15.5 12,15.5 C10.8954305,15.5 10,14.6045695 10,13.5 C10,12.6606498 10.5170495,11.942063 11.2500152,11.6453731 L11.25,8 L11,8 C10.4477153,8 10,7.55228475 10,7 L10,1 C10,0.44771525 10.4477153,1.01453063e-16 11,0 L13,0 Z" id="Combined-Shape" opacity="0.3"></path>
                    <path d="M3,0 C3.55228475,0 4,0.44771525 4,1 L4,7 C4,7.55228475 3.55228475,8 3,8 L2.75,8 L2.75098877,11.6457798 C3.48342254,11.9427193 4,12.6610331 4,13.5 C4,14.6045695 3.1045695,15.5 2,15.5 C0.8954305,15.5 0,14.6045695 0,13.5 C0,12.6606498 0.517049545,11.942063 1.25001516,11.6453731 L1.25,8 L1,8 C0.44771525,8 0,7.55228475 0,7 L0,1 C0,0.44771525 0.44771525,0 1,0 L3,0 Z M2,13 C1.72385763,13 1.5,13.2238576 1.5,13.5 C1.5,13.7761424 1.72385763,14 2,14 C2.27614237,14 2.5,13.7761424 2.5,13.5 C2.5,13.2238576 2.27614237,13 2,13 Z M2.5,1.5 L1.5,1.5 L1.5,6.5 L2.5,6.5 L2.5,1.5 Z M8,0 C8.55228475,0 9,0.44771525 9,1 L9,7 C9,7.55228475 8.55228475,8 8,8 L7.75,8 L7.75098877,11.6457798 C8.48342254,11.9427193 9,12.6610331 9,13.5 C9,14.6045695 8.1045695,15.5 7,15.5 C5.8954305,15.5 5,14.6045695 5,13.5 C5,12.6606498 5.51704954,11.942063 6.25001516,11.6453731 L6.25,8 L6,8 C5.44771525,8 5,7.55228475 5,7 L5,1 C5,0.44771525 5.44771525,0 6,0 L8,0 Z M7,13 C6.72385763,13 6.5,13.2238576 6.5,13.5 C6.5,13.7761424 6.72385763,14 7,14 C7.27614237,14 7.5,13.7761424 7.5,13.5 C7.5,13.2238576 7.27614237,13 7,13 Z M7.5,1.5 L6.5,1.5 L6.5,6.5 L7.5,6.5 L7.5,1.5 Z M13,0 C13.5522847,0 14,0.44771525 14,1 L14,7 C14,7.55228475 13.5522847,8 13,8 L12.75,8 L12.7509888,11.6457798 C13.4834225,11.9427193 14,12.6610331 14,13.5 C14,14.6045695 13.1045695,15.5 12,15.5 C10.8954305,15.5 10,14.6045695 10,13.5 C10,12.6606498 10.5170495,11.942063 11.2500152,11.6453731 L11.25,8 L11,8 C10.4477153,8 10,7.55228475 10,7 L10,1 C10,0.44771525 10.4477153,0 11,0 L13,0 Z M12,13 C11.7238576,13 11.5,13.2238576 11.5,13.5 C11.5,13.7761424 11.7238576,14 12,14 C12.2761424,14 12.5,13.7761424 12.5,13.5 C12.5,13.2238576 12.2761424,13 12,13 Z M12.5,1.5 L11.5,1.5 L11.5,6.5 L12.5,6.5 L12.5,1.5 Z" id="Rectangle-Copy-5"></path>
                </g>
            </g>
        </g>
    </g>
</svg>