<?xml version="1.0" encoding="UTF-8"?>
<svg width="18px" height="18px" viewBox="0 0 18 18" version="1.1" xmlns="http://www.w3.org/2000/svg" xmlns:xlink="http://www.w3.org/1999/xlink">
    <title>lnb/redis</title>
    <g id="lnb/redis" stroke="none" stroke-width="1" fill="none" fill-rule="evenodd">
        <g transform="translate(1.000000, 2.000000)">
            <path d="M15.3731429,10.5410286 C14.5192,10.9861714 10.096,12.8048 9.15428571,13.2957714 C8.21262857,13.7867429 7.68949714,13.7820571 6.94556571,13.4264 C6.20169143,13.0707429 1.49456,11.1693714 0.646628571,10.7641143 C0.22288,10.5616 0,10.3906286 0,10.2290286 L0,8.61177143 C0,8.61177143 6.12812571,7.27776 7.11744,6.92282286 C8.10668571,6.56788571 8.44994286,6.55507429 9.29177143,6.86345143 C10.1338286,7.17195429 15.1678857,8.08022857 16,8.38491429 L15.9996571,9.97931429 C15.9997714,10.1392 15.8077714,10.3146286 15.3731429,10.5410286" id="Path" fill="#98A3AD" fill-rule="nonzero"></path>
            <path d="M15.3728,8.93337143 C14.5189714,9.37828571 10.0958857,11.1970286 9.15417143,11.6878857 C8.21254857,12.1789714 7.68942857,12.1741714 6.94554286,11.8185143 C6.20161143,11.4630857 1.49467429,9.56148571 0.6468,9.15634286 C-0.201074286,8.75108571 -0.218822857,8.47211429 0.614045714,8.14605714 C1.44692571,7.81976 6.12804571,5.9832 7.11748571,5.62826286 C8.10673143,5.27345143 8.44992,5.26051429 9.29177143,5.56900571 C10.1337143,5.87738286 14.5305143,7.62745143 15.3624,7.93213714 C16.1946286,8.23714286 16.2266286,8.48834286 15.3728,8.93337143" id="Path" fill="#798897" fill-rule="nonzero"></path>
            <path d="M15.3731429,7.92427429 C14.5192,8.36937143 10.096,10.188 9.15428571,10.6792 C8.21262857,11.1699429 7.68949714,11.1652571 6.94556571,10.8096 C6.20162286,10.4541714 1.49456,8.55257143 0.646628571,8.14731429 C0.22288,7.94476571 0,7.77402286 0,7.61245714 L0,5.99501714 C0,5.99501714 6.12812571,4.66101714 7.11744,4.30608 C8.10668571,3.95114286 8.44994286,3.93827429 9.29177143,4.24670857 C10.1338286,4.55514286 15.168,5.46321143 16,5.76802286 L15.9996571,7.36258286 C15.9997714,7.52238857 15.8077714,7.69777143 15.3731429,7.92427429 Z" id="Path" fill="#98A3AD" fill-rule="nonzero"></path>
            <path d="M15.3728,6.31658286 C14.5189714,6.76158857 10.0958857,8.58022857 9.15417143,9.07131429 C8.21254857,9.56217143 7.68942857,9.55737143 6.94554286,9.20171429 C6.20161143,8.84628571 1.49467429,6.94470857 0.6468,6.53958857 C-0.201074286,6.1344 -0.218822857,5.85539429 0.614045714,5.52914286 C1.44692571,5.20308571 6.12811429,3.3664 7.11748571,3.01152 C8.10673143,2.65665143 8.44992,2.64377143 9.29177143,2.95220571 C10.1337143,3.26058286 14.5305143,5.01052571 15.3624,5.31533714 C16.1946286,5.62033143 16.2266286,5.87158857 15.3728,6.31658286" id="Path" fill="#798897" fill-rule="nonzero"></path>
            <path d="M15.3731429,5.21044571 C14.5192,5.65545143 10.096,7.47419429 9.15428571,7.96532571 C8.21262857,8.45622857 7.68949714,8.45142857 6.94556571,8.09577143 C6.20162286,7.74032 1.49456,5.83869714 0.646628571,5.43357714 C0.22288,5.23089143 0,5.06006857 0,4.89869714 L0,3.2812 C0,3.2812 6.12812571,1.94725714 7.11744,1.59238857 C8.10668571,1.23738286 8.44994286,1.22464 9.29177143,1.53300571 C10.1338286,1.84145143 15.168,2.74950857 16,3.05432 L15.9996571,4.64882286 C15.9997714,4.80851429 15.8077714,4.98388571 15.3731429,5.21044571 Z" id="Path" fill="#98A3AD" fill-rule="nonzero"></path>
            <path d="M15.3728,3.60278857 C14.5189714,4.04778286 10.0958857,5.86653714 9.15417143,6.35740571 C8.21258286,6.84828571 7.68946286,6.84347429 6.94558857,6.48803429 C6.20171429,6.13241143 1.49470857,4.23090286 0.646902857,3.82572571 C-0.20104,3.42059429 -0.21872,3.14153143 0.614091429,2.81534857 C1.44696,2.48922286 6.12814857,0.652788571 7.11752,0.297782857 C8.10677714,-0.0571542857 8.44996571,-0.0699085714 9.29188571,0.238537143 C10.1338286,0.546971429 14.5305143,2.29690286 15.3625143,2.60172571 C16.1947429,2.90646857 16.2266286,3.15778286 15.3728,3.60278857" id="Path" fill="#798897" fill-rule="nonzero"></path>
            <polyline id="Path" fill="#576A7D" fill-rule="nonzero" points="11.5809143 2.23203429 13.7581714 3.09241143 11.5827429 3.95196571 11.5809143 2.23196571"></polyline>
            <path d="M8.57954286,2.17226286 L9.9552,2.02945143 L8.88848,1.63001143 L9.1712,0.951577143 L8.12510857,1.29406857 L7.01541714,0.860068571 L7.37104,1.51619429 L6.18579429,1.94363429 L7.77422857,2.08638857 L8.2716,2.91325714 L8.57954286,2.17226286 Z M5.62216,4.55950857 L8.18947429,5.62432 L9.30091429,3.99482286 L5.62216,4.55950857 Z M6.59635429,3.20345143 C6.59635429,2.78257143 5.71604571,2.44132571 4.63010286,2.44132571 C3.54416,2.44132571 2.66385143,2.78257143 2.66385143,3.20345143 C2.66385143,3.62438857 3.54416,3.96563429 4.63010286,3.96563429 C5.71604571,3.96563429 6.59635429,3.62444571 6.59635429,3.20345143 Z M11.5809143,2.232 L9.17211429,3.18481143 L11.3466286,4.04432 L11.5827429,3.95194286 L11.5809143,2.232 Z" id="Shape" fill="#BCC3CB"></path>
        </g>
    </g>
</svg>