<?xml version="1.0" encoding="UTF-8"?>
<svg width="18px" height="18px" viewBox="0 0 18 18" version="1.1" xmlns="http://www.w3.org/2000/svg" xmlns:xlink="http://www.w3.org/1999/xlink">
    <title>lnb/sas</title>
    <g id="lnb/sas" stroke="none" stroke-width="1" fill="none" fill-rule="evenodd">
        <g>
            <rect id="Rectangle" x="0" y="0" width="18" height="18"></rect>
            <circle id="Oval" fill-opacity="0.3" fill="#798897" cx="9" cy="9" r="8"></circle>
            <path d="M9,1 C13.418278,1 17,4.581722 17,9 C17,13.418278 13.418278,17 9,17 C4.581722,17 1,13.418278 1,9 C1,4.581722 4.581722,1 9,1 Z M9,2.5 C5.41014913,2.5 2.5,5.41014913 2.5,9 C2.5,12.5898509 5.41014913,15.5 9,15.5 C12.5898509,15.5 15.5,12.5898509 15.5,9 C15.5,5.41014913 12.5898509,2.5 9,2.5 Z M13.0674942,6.48908123 C13.5445843,6.489 13.9573718,6.60921902 14.3069226,6.85006807 C14.5382489,7.00945752 14.7271637,7.19656608 14.8743526,7.41382825 L14.9769314,7.58246672 L15.0565981,7.74771672 L15.0005865,7.91345835 L14.2205865,8.30945835 L14.0555467,8.26015208 L13.986814,8.13998093 C13.8938991,7.99296369 13.7803365,7.87003515 13.6457011,7.77052202 C13.5485988,7.69875073 13.4416455,7.64862039 13.3270271,7.62017621 L13.2099347,7.59896242 L13.072,7.591 C12.832889,7.591 12.6576817,7.63632726 12.5442313,7.72182612 C12.4381672,7.80175844 12.387,7.90854226 12.387,8.054 C12.387,8.18156519 12.4261417,8.27123525 12.5050869,8.3343914 C12.5611869,8.3792714 12.636309,8.42063908 12.7289514,8.45730907 L12.8273781,8.49236927 L12.9478117,8.52711568 L13.6360386,8.70830782 L13.8305531,8.7669523 C14.1542085,8.87668578 14.4305704,9.03401979 14.6585808,9.23905241 C14.9443366,9.49601114 15.087,9.85211668 15.087,10.298 C15.087,10.6164973 14.9975841,10.8968878 14.819,11.135 C14.6429736,11.3697019 14.4035391,11.5484652 14.1031358,11.6707722 C13.9256412,11.7430379 13.7356972,11.7935165 13.5316726,11.8223992 L13.3228941,11.8440903 L13.114,11.851 C12.5950283,11.851 12.1456236,11.7307368 11.7685847,11.4892624 C11.6496749,11.4131067 11.5405662,11.3272049 11.4412202,11.2314227 L11.5680582,11.5949238 L11.45,11.761 L10.49,11.761 L10.3717295,11.676461 L9.932,10.393 L8.359,10.393 L7.9202705,11.676461 L7.802,11.761 L6.842,11.761 L6.72394178,11.5949238 L6.8609061,11.2077291 C6.69154309,11.4069551 6.47170533,11.5614261 6.20313584,11.6707722 C6.02564123,11.7430379 5.83569716,11.7935165 5.63167259,11.8223992 L5.42289411,11.8440903 L5.214,11.851 C4.69502828,11.851 4.24562361,11.7307368 3.86858473,11.4892624 C3.59851834,11.3162986 3.37900908,11.0930614 3.20960598,10.8179786 L3.11397325,10.6466948 L3.03621815,10.4757561 L3.0940983,10.3121966 L3.8860983,9.9161966 L4.0531804,9.97086929 L4.12806647,10.1169446 C4.23057418,10.2940568 4.36095132,10.4366841 4.51985619,10.5460223 C4.67712008,10.6542314 4.85592352,10.7192117 5.05576008,10.7409156 L5.2095733,10.7490784 L5.3740313,10.7433456 C5.56979733,10.728758 5.72096729,10.6862148 5.8281503,10.6183775 C5.95012078,10.541181 6.007,10.4389424 6.007,10.298 C6.007,10.1650788 5.97142263,10.0666733 5.9016862,9.9954531 C5.85695714,9.94977236 5.78936781,9.90682604 5.7004694,9.86852423 L5.60452543,9.83184135 L5.4815397,9.79471176 L4.76470761,9.60191433 L4.58526001,9.54905584 C3.74271215,9.2769171 3.307,8.77377331 3.307,8.054 C3.307,7.73704539 3.39045483,7.45703247 3.5574636,7.21750673 C3.72289812,6.98023881 3.94911728,6.79861093 4.23371579,6.67356007 C4.40212054,6.59956404 4.58236068,6.54786589 4.77615634,6.51827294 L4.97453422,6.49604123 L5.172,6.489 C5.64458435,6.489 6.05737179,6.60921902 6.40692261,6.85006807 C6.63824891,7.00945752 6.82716367,7.19656608 6.97435259,7.41382825 L7.0769314,7.58246672 L7.15659807,7.74771672 L7.10058654,7.91345835 L6.32058654,8.30945835 L6.1555467,8.26015208 L6.08681398,8.13998093 C5.99389908,7.99296369 5.88033653,7.87003515 5.74570112,7.77052202 C5.64859878,7.69875073 5.54164548,7.64862039 5.42702712,7.62017621 L5.3099347,7.59896242 L5.172,7.591 C4.93288897,7.591 4.7576817,7.63632726 4.64423128,7.72182612 C4.53816725,7.80175844 4.487,7.90854226 4.487,8.054 C4.487,8.18156519 4.52614169,8.27123525 4.60508688,8.3343914 C4.66118689,8.3792714 4.73630904,8.42063908 4.82895135,8.45730907 L4.92737809,8.49236927 L5.04781166,8.52711568 L5.73603861,8.70830782 L5.93055307,8.7669523 C6.25420848,8.87668578 6.53057036,9.03401979 6.75858078,9.23905241 C7.00861712,9.4638913 7.14909833,9.76463946 7.18031182,10.1350204 L7.185,10.267 L8.43994178,6.66292378 L8.558,6.579 L9.734,6.579 L9.85205822,6.66292378 L11.103,10.258 L11.7860983,9.9161966 L11.9531804,9.97086929 L12.0280665,10.1169446 C12.1305742,10.2940568 12.2609513,10.4366841 12.4198562,10.5460223 C12.5771201,10.6542314 12.7559235,10.7192117 12.9557601,10.7409156 L13.1095733,10.7490784 L13.2740313,10.7433456 C13.4697973,10.728758 13.6209673,10.6862148 13.7281503,10.6183775 C13.8501208,10.541181 13.907,10.4389424 13.907,10.298 C13.907,10.1650788 13.8714226,10.0666733 13.8016862,9.9954531 C13.7569571,9.94977236 13.6893678,9.90682604 13.6004694,9.86852423 L13.5045254,9.83184135 L13.3815397,9.79471176 L12.6647076,9.60191433 L12.48526,9.54905584 C11.6427121,9.2769171 11.207,8.77377331 11.207,8.054 C11.207,7.73704539 11.2904548,7.45703247 11.4574636,7.21750673 C11.6228981,6.98023881 11.8491173,6.79861093 12.1337158,6.67356007 C12.3021205,6.59956404 12.4823607,6.54786589 12.6761563,6.51827294 L12.8745342,6.49604123 L13.0674942,6.48908123 Z M9.146,7.718 L8.564,9.422 L9.728,9.422 L9.146,7.718 Z" id="Shape" fill="#798897" fill-rule="nonzero"></path>
        </g>
    </g>
</svg>