<?xml version="1.0" encoding="UTF-8"?>
<svg width="18px" height="18px" viewBox="0 0 18 18" version="1.1" xmlns="http://www.w3.org/2000/svg" xmlns:xlink="http://www.w3.org/1999/xlink">
    <title>lnb/service</title>
    <g id="lnb/service" stroke="none" stroke-width="1" fill="none" fill-rule="evenodd">
        <g>
            <rect id="Rectangle" x="0" y="0" width="18" height="18"></rect>
            <path d="M9,12.5 C10.1045695,12.5 11,13.3954305 11,14.5 C11,15.6045695 10.1045695,16.5 9,16.5 C7.8954305,16.5 7,15.6045695 7,14.5 C7,13.3954305 7.8954305,12.5 9,12.5 Z M8.5,1.5 C10.4878494,1.5 12.1746524,2.78893266 12.7702494,4.57663827 C13.0054608,4.52628237 13.2496611,4.5 13.5,4.5 C15.4329966,4.5 17,6.06700338 17,8 C17,9.85185849 15.5617866,11.3678042 13.741391,11.491806 L13.7405464,11.5 L4,11.5 C2.34314575,11.5 1,10.1568542 1,8.5 C1,6.84314575 2.34314575,5.5 4,5.5 L4.02821126,5.50012989 L4.02821126,5.50012989 C4.27545092,3.25069972 6.18327654,1.5 8.5,1.5 Z" id="Combined-Shape" fill-opacity="0.3" fill="#798897"></path>
            <path d="M8.5,1.5 C10.4878494,1.5 12.1746524,2.78893266 12.7702494,4.57663827 C13.0054608,4.52628237 13.2496611,4.5 13.5,4.5 C15.4329966,4.5 17,6.06700338 17,8 C17,9.85185849 15.5617866,11.3678042 13.741391,11.491806 L13.7405464,11.5 L9.75,11.5 L9.75098877,12.6457798 C10.33269,12.8816101 10.778238,13.3832259 10.9369863,13.9999808 L14.25,14 C14.6642136,14 15,14.3357864 15,14.75 C15,15.1642136 14.6642136,15.5 14.25,15.5 L10.7318119,15.5010775 C10.3858493,16.0982846 9.7398375,16.5 9,16.5 C8.2601625,16.5 7.61415066,16.0982846 7.26818814,15.5010775 L3.75,15.5 C3.33578644,15.5 3,15.1642136 3,14.75 C3,14.3357864 3.33578644,14 3.75,14 L7.06301369,13.9999808 C7.22185331,13.3828711 7.66782265,12.8810331 8.25001516,12.6453731 L8.25,11.5 L4,11.5 C2.34314575,11.5 1,10.1568542 1,8.5 C1,6.90231912 2.24891996,5.59633912 3.82372721,5.50509269 L4.02821126,5.50012989 C4.27545092,3.25069972 6.18327654,1.5 8.5,1.5 Z M9,14 C8.72385763,14 8.5,14.2238576 8.5,14.5 C8.5,14.7761424 8.72385763,15 9,15 C9.27614237,15 9.5,14.7761424 9.5,14.5 C9.5,14.2238576 9.27614237,14 9,14 Z M8.5,3 C7.0262856,3 5.78399773,4.06875131 5.5432634,5.49161368 L5.51923203,5.66401116 L5.37169473,7.00633162 L4,7 C3.17157288,7 2.5,7.67157288 2.5,8.5 C2.5,9.27969612 3.09488808,9.92044868 3.85553999,9.99313342 L4,10 L13.566,10 L13.6394502,9.99527397 C14.6306847,9.92775305 15.4177198,9.13808284 15.4939453,8.15650369 L15.5,8 C15.5,6.8954305 14.6045695,6 13.5,6 C13.4049216,6 13.3114508,6.00652829 13.219963,6.01938794 L13.0842657,6.0434013 L11.771497,6.3244492 L11.3471517,5.05076148 C10.9618161,3.89416291 9.90834604,3.08050812 8.68475268,3.00563986 L8.5,3 Z" id="Combined-Shape" fill="#798897" fill-rule="nonzero"></path>
        </g>
    </g>
</svg>