<?xml version="1.0" encoding="UTF-8"?>
<svg width="18px" height="18px" viewBox="0 0 18 18" version="1.1" xmlns="http://www.w3.org/2000/svg" xmlns:xlink="http://www.w3.org/1999/xlink">
    <title>lnb/service_catalog</title>
    <defs>
        <filter id="filter-1">
            <feColorMatrix in="SourceGraphic" type="matrix" values="0 0 0 0 0.474510 0 0 0 0 0.533333 0 0 0 0 0.592157 0 0 0 1.000000 0"></feColorMatrix>
        </filter>
    </defs>
    <g id="lnb/service_catalog" stroke="none" stroke-width="1" fill="none" fill-rule="evenodd">
        <g filter="url(#filter-1)">
            <g>
                <rect id="Rectangle" x="0" y="0" width="18" height="18"></rect>
                <path d="M6.2475,12.75 L3.75,12.75 L3.75,5.25 L6.2475,5.25 L6.2475,12.75 Z M10.2525,12.75 L7.755,12.75 L7.755,9.75 L10.2525,9.75 L10.2525,12.75 Z M14.25,12.75 L11.7525,12.75 L11.7525,9.75 L14.25,9.75 L14.25,12.75 Z M14.25,8.25 L7.7475,8.25 L7.7475,5.25 L14.25,5.25 L14.25,8.25 Z" id="Shape" fill="#000000" fill-rule="nonzero" opacity="0.3"></path>
                <path d="M2.25,3.75 L2.25,14.25 L15.75,14.25 L15.75,3.75 L2.25,3.75 Z M6.2475,12.75 L3.75,12.75 L3.75,5.25 L6.2475,5.25 L6.2475,12.75 Z M10.2525,12.75 L7.755,12.75 L7.755,9.75 L10.2525,9.75 L10.2525,12.75 Z M14.25,12.75 L11.7525,12.75 L11.7525,9.75 L14.25,9.75 L14.25,12.75 Z M14.25,8.25 L7.7475,8.25 L7.7475,5.25 L14.25,5.25 L14.25,8.25 Z" id="Shape" fill="#000000" fill-rule="nonzero"></path>
            </g>
        </g>
    </g>
</svg>