<?xml version="1.0" encoding="UTF-8"?>
<svg width="18px" height="18px" viewBox="0 0 18 18" version="1.1" xmlns="http://www.w3.org/2000/svg" xmlns:xlink="http://www.w3.org/1999/xlink">
    <title>lnb/service_mesh</title>
    <defs>
        <filter id="filter-1">
            <feColorMatrix in="SourceGraphic" type="matrix" values="0 0 0 0 0.474510 0 0 0 0 0.533333 0 0 0 0 0.592157 0 0 0 1.000000 0"></feColorMatrix>
        </filter>
    </defs>
    <g id="lnb/service_mesh" stroke="none" stroke-width="1" fill="none" fill-rule="evenodd">
        <g filter="url(#filter-1)">
            <g>
                <polygon id="Path" points="0 0 18 0 18 18 0 18"></polygon>
                <path d="M2.25,12 C2.25,12.4125 2.5875,12.75 3,12.75 C3.4125,12.75 3.75,12.4125 3.75,12 L3.75,10.5 L2.25,10.5 L2.25,12 Z M8.25,12 C8.25,12.4125 8.5875,12.75 9,12.75 C9.4125,12.75 9.75,12.4125 9.75,12 L9.75,10.5 L8.25,10.5 L8.25,12 Z M14.25,12 C14.25,12.4125 14.5875,12.75 15,12.75 C15.4125,12.75 15.75,12.4125 15.75,12 L15.75,10.5 L14.25,10.5 L14.25,12 Z" id="Shape" fill="#000000" fill-rule="nonzero" opacity="0.3"></path>
                <path d="M3.75,1.5 C3.75,1.0875 3.4125,0.75 3,0.75 C2.5875,0.75 2.25,1.0875 2.25,1.5 L2.25,4.5 L0.75,4.5 L0.75,12 C0.75,12.975 1.38,13.8 2.25,14.115 L2.25,17.25 L3.75,17.25 L3.75,14.115 C4.62,13.8 5.25,12.975 5.25,12 L5.25,4.5 L3.75,4.5 L3.75,1.5 Z M3.75,12 C3.75,12.4125 3.4125,12.75 3,12.75 C2.5875,12.75 2.25,12.4125 2.25,12 L2.25,10.5 L3.75,10.5 L3.75,12 Z M3.75,9 L2.25,9 L2.25,6 L3.75,6 L3.75,9 Z M9.75,1.5 C9.75,1.0875 9.4125,0.75 9,0.75 C8.5875,0.75 8.25,1.0875 8.25,1.5 L8.25,4.5 L6.75,4.5 L6.75,12 C6.75,12.975 7.38,13.8 8.25,14.115 L8.25,17.25 L9.75,17.25 L9.75,14.115 C10.62,13.8 11.25,12.975 11.25,12 L11.25,4.5 L9.75,4.5 L9.75,1.5 Z M9.75,12 C9.75,12.4125 9.4125,12.75 9,12.75 C8.5875,12.75 8.25,12.4125 8.25,12 L8.25,10.5 L9.75,10.5 L9.75,12 Z M9.75,9 L8.25,9 L8.25,6 L9.75,6 L9.75,9 Z M15.75,4.5 L15.75,1.5 C15.75,1.0875 15.4125,0.75 15,0.75 C14.5875,0.75 14.25,1.0875 14.25,1.5 L14.25,4.5 L12.75,4.5 L12.75,12 C12.75,12.975 13.38,13.8 14.25,14.115 L14.25,17.25 L15.75,17.25 L15.75,14.115 C16.62,13.8 17.25,12.975 17.25,12 L17.25,4.5 L15.75,4.5 Z M15.75,12 C15.75,12.4125 15.4125,12.75 15,12.75 C14.5875,12.75 14.25,12.4125 14.25,12 L14.25,10.5 L15.75,10.5 L15.75,12 Z M15.75,9 L14.25,9 L14.25,6 L15.75,6 L15.75,9 Z" id="Shape" fill="#000000" fill-rule="nonzero"></path>
            </g>
        </g>
    </g>
</svg>