<?xml version="1.0" encoding="UTF-8"?>
<svg width="18px" height="18px" viewBox="0 0 18 18" version="1.1" xmlns="http://www.w3.org/2000/svg" xmlns:xlink="http://www.w3.org/1999/xlink">
    <title>lnb/workload</title>
    <defs>
        <filter id="filter-1">
            <feColorMatrix in="SourceGraphic" type="matrix" values="0 0 0 0 0.474510 0 0 0 0 0.533333 0 0 0 0 0.592157 0 0 0 1.000000 0"></feColorMatrix>
        </filter>
    </defs>
    <g id="lnb/workload" stroke="none" stroke-width="1" fill="none" fill-rule="evenodd">
        <g filter="url(#filter-1)">
            <g>
                <rect id="Rectangle" x="0" y="0" width="18" height="18"></rect>
                <path d="M9,3.2175 L13.4325,5.6775 L11.175,6.93 C10.6275,6.36 9.855,6 9,6 C8.145,6 7.3725,6.36 6.825,6.93 L4.5675,5.6775 L9,3.2175 Z M8.25,14.37 L3.75,11.8725 L3.75,6.945 L6.0975,8.25 C6.03,8.4825 6,8.7375 6,9 C6,10.395 6.9525,11.5725 8.25,11.9025 L8.25,14.37 Z M7.5,9 C7.5,8.175 8.175,7.5 9,7.5 C9.825,7.5 10.5,8.175 10.5,9 C10.5,9.825 9.825,10.5 9,10.5 C8.175,10.5 7.5,9.825 7.5,9 Z M9.75,14.37 L9.75,11.91 C11.0475,11.58 12,10.4025 12,9.0075 C12,8.745 11.97,8.49 11.9025,8.25 L14.25,6.945 L14.25,11.8725 L9.75,14.37 Z" id="Shape" fill="#000000" fill-rule="nonzero" opacity="0.3"></path>
                <path d="M15.75,5.25 L9,1.5 L2.25,5.25 L2.25,12.75 L9,16.5 L15.75,12.75 L15.75,5.25 Z M9,3.2175 L13.4325,5.6775 L11.175,6.93 C10.6275,6.36 9.855,6 9,6 C8.145,6 7.3725,6.36 6.825,6.93 L4.5675,5.6775 L9,3.2175 Z M8.25,14.37 L3.75,11.8725 L3.75,6.945 L6.0975,8.25 C6.03,8.4825 6,8.7375 6,9 C6,10.395 6.9525,11.5725 8.25,11.9025 L8.25,14.37 Z M7.5,9 C7.5,8.175 8.175,7.5 9,7.5 C9.825,7.5 10.5,8.175 10.5,9 C10.5,9.825 9.825,10.5 9,10.5 C8.175,10.5 7.5,9.825 7.5,9 Z M9.75,14.37 L9.75,11.91 C11.0475,11.58 12,10.4025 12,9.0075 C12,8.745 11.97,8.49 11.9025,8.25 L14.25,6.945 L14.25,11.8725 L9.75,14.37 Z" id="Shape" fill="#000000" fill-rule="nonzero"></path>
            </g>
        </g>
    </g>
</svg>