<?xml version="1.0" encoding="UTF-8"?>
<svg width="24px" height="24px" viewBox="0 0 24 24" version="1.1" xmlns="http://www.w3.org/2000/svg" xmlns:xlink="http://www.w3.org/1999/xlink">
    <title>table_status/approved.success</title>
    <g id="table_status/approved.success" stroke="none" stroke-width="1" fill="none" fill-rule="evenodd">
        <g id="approved">
            <rect id="box" fill="#D8D8D8" opacity="0" x="0" y="0" width="24" height="24"></rect>
            <path d="M12,22 C17.5228547,22 22,17.5228547 22,12 C22,6.47714529 17.5228547,2 12,2 C6.47714529,2 2,6.47714529 2,12 C2,17.5228547 6.47714529,22 12,22 Z M9.93086883,17.2948982 L5.73732044,13.1013499 C5.48542244,12.8494125 5.48542244,12.4408707 5.73732044,12.1889333 L6.64973696,11.2765562 C6.90167433,11.0246188 7.3102161,11.0246188 7.56215348,11.2765562 L10.3870968,14.1015389 L16.4378465,8.05078913 C16.6898233,7.79881237 17.098365,7.79881237 17.350263,8.05078913 L18.2626796,8.96316627 C18.5145776,9.21510364 18.5145776,9.62364541 18.2626796,9.87558279 L10.8433247,17.2949376 C10.591348,17.5468356 10.1828456,17.5468356 9.93086883,17.2948982 Z" id="Approved" fill="#000000"></path>
        </g>
    </g>
</svg>