<?xml version="1.0" encoding="UTF-8"?>
<svg width="24px" height="24px" viewBox="0 0 24 24" version="1.1" xmlns="http://www.w3.org/2000/svg" xmlns:xlink="http://www.w3.org/1999/xlink">
    <title>table_status/awaiting</title>
    <g id="table_status/awaiting" stroke="none" stroke-width="1" fill="none" fill-rule="evenodd">
        <g id="awaiting">
            <rect id="box" fill="#D8D8D8" opacity="0" x="0.000749268293" y="0" width="24" height="24"></rect>
            <path d="M12.00125,2.02266537 C17.51375,2.02266537 22,6.51016537 22,12.0226654 C22,17.5376654 17.51375,22.0226654 12.00125,22.0226654 C6.485,22.0226654 2,17.5376654 2,12.0226654 C2,6.51016537 6.485,2.02266537 12.00125,2.02266537 Z M12.00125,4.52141537 C7.865,4.52141537 4.50125,7.88641537 4.50125,12.0214154 C4.50125,16.1601654 7.865,19.5214154 12.00125,19.5214154 C16.13625,19.5214154 19.50125,16.1589154 19.50125,12.0214154 C19.5,7.88641537 16.13625,4.52141537 12.00125,4.52141537 Z M7.155625,10.4607904 C8.01856992,10.4607904 8.718125,11.1603454 8.718125,12.0232904 C8.718125,12.8862353 8.01856992,13.5857904 7.155625,13.5857904 C6.29268008,13.5857904 5.593125,12.8862353 5.593125,12.0232904 C5.593125,11.1603454 6.29268008,10.4607904 7.155625,10.4607904 Z M12.0189062,10.4607904 C12.8818512,10.4607904 13.5814063,11.1603454 13.5814063,12.0232904 C13.5814063,12.8862353 12.8818512,13.5857904 12.0189062,13.5857904 C11.1559613,13.5857904 10.4564062,12.8862353 10.4564062,12.0232904 C10.4564062,11.1603454 11.1559613,10.4607904 12.0189062,10.4607904 Z M16.8626563,10.4607904 C17.7256012,10.4607904 18.4251563,11.1603454 18.4251563,12.0232904 C18.4251563,12.8862353 17.7256012,13.5857904 16.8626563,13.5857904 C15.9997113,13.5857904 15.3001563,12.8862353 15.3001563,12.0232904 C15.3001563,11.1603454 15.9997113,10.4607904 16.8626563,10.4607904 Z" id="Awaiting" fill="#000000"></path>
        </g>
    </g>
</svg>