<?xml version="1.0" encoding="UTF-8"?>
<svg width="24px" height="24px" viewBox="0 0 24 24" version="1.1" xmlns="http://www.w3.org/2000/svg" xmlns:xlink="http://www.w3.org/1999/xlink">
    <title>table_status/bound</title>
    <g id="table_status/bound" stroke="none" stroke-width="1" fill="none" fill-rule="evenodd">
        <g id="bound" fill-rule="nonzero">
            <rect id="bg" x="0" y="0" width="24" height="24"></rect>
            <path d="M16,5 C19.8659932,5 23,8.13400675 23,12 C23,15.8659932 19.8659932,19 16,19 C14.5126081,19 13.1335669,18.5360955 11.9996713,17.7450814 C10.8672447,18.5358224 9.4878296,19 8,19 C4.13400675,19 1,15.8659932 1,12 C1,8.13400675 4.13400675,5 8,5 C9.4878296,5 10.8672447,5.46417755 12.0013298,6.25561705 C13.1335669,5.46390447 14.5126081,5 16,5 Z M8,7 C5.23857625,7 3,9.23857625 3,12 C3,14.7614237 5.23857625,17 8,17 C8.91125332,17 9.76557061,16.7562279 10.5012971,16.3303384 C9.56038599,15.1386406 9,13.6347629 9,12 C9,10.3652371 9.56038599,8.86135944 10.4995405,7.6699844 C9.76557061,7.24377212 8.91125332,7 8,7 Z M16,7 C15.0887467,7 14.2344294,7.24377212 13.4987029,7.66966156 C14.439614,8.86135944 15,10.3652371 15,12 C15,13.6347629 14.439614,15.1386406 13.5004595,16.3300156 C14.2344294,16.7562279 15.0887467,17 16,17 C18.7614237,17 21,14.7614237 21,12 C21,9.23857625 18.7614237,7 16,7 Z M12.0002202,8.99980567 L11.9408969,9.07982774 C11.3488086,9.90139724 11,10.9099643 11,12 C11,13.1256932 11.3720025,14.1645005 11.9997798,15.0001943 C12.6279975,14.1645005 13,13.1256932 13,12 C13,10.8743068 12.6279975,9.83549949 12.0002202,8.99980567 Z" fill="#000000"></path>
        </g>
    </g>
</svg>