<?xml version="1.0" encoding="UTF-8"?>
<svg width="24px" height="24px" viewBox="0 0 24 24" version="1.1" xmlns="http://www.w3.org/2000/svg" xmlns:xlink="http://www.w3.org/1999/xlink">
    <title>table_status/cancelled,terminating</title>
    <g id="table_status/cancelled,terminating" stroke="none" stroke-width="1" fill="none" fill-rule="evenodd">
        <g id="cancelled,terminating" fill-rule="nonzero">
            <rect id="bg" x="0" y="0" width="24" height="24"></rect>
            <path d="M12,2 C17.5228475,2 22,6.4771525 22,12 C22,17.5228475 17.5228475,22 12,22 C6.4771525,22 2,17.5228475 2,12 C2,6.4771525 6.4771525,2 12,2 Z M12,4.5 C7.85786438,4.5 4.5,7.85786438 4.5,12 C4.5,16.1421356 7.85786438,19.5 12,19.5 C16.1421356,19.5 19.5,16.1421356 19.5,12 C19.5,7.85786438 16.1421356,4.5 12,4.5 Z M16.065864,8.99479618 C16.2611261,9.19005833 16.2611261,9.50664082 16.065864,9.70190296 L13.7684741,11.9992929 L16.065864,14.298097 C16.2611261,14.4933592 16.2611261,14.8099417 16.065864,15.0052038 L15.0052038,16.065864 C14.8099417,16.2611261 14.4933592,16.2611261 14.298097,16.065864 L12.0007071,13.7670598 L9.70190296,16.065864 C9.50664082,16.2611261 9.19005833,16.2611261 8.99479618,16.065864 L7.93413601,15.0052038 C7.73887386,14.8099417 7.73887386,14.4933592 7.93413601,14.298097 L10.2329402,11.9992929 L7.93413601,9.70190296 C7.73887386,9.50664082 7.73887386,9.19005833 7.93413601,8.99479618 L8.99479618,7.93413601 C9.19005833,7.73887386 9.50664082,7.73887386 9.70190296,7.93413601 L12.0007071,10.2315259 L14.298097,7.93413601 C14.4933592,7.73887386 14.8099417,7.73887386 15.0052038,7.93413601 L16.065864,8.99479618 Z" id="cancelled.terminating" fill="#000000"></path>
        </g>
    </g>
</svg>