<?xml version="1.0" encoding="UTF-8"?>
<svg width="24px" height="24px" viewBox="0 0 24 24" version="1.1" xmlns="http://www.w3.org/2000/svg" xmlns:xlink="http://www.w3.org/1999/xlink">
    <title>table_status/cash_loop_back_off</title>
    <g id="table_status/cash_loop_back_off" stroke="none" stroke-width="1" fill="none" fill-rule="evenodd">
        <g id="cash_loop_back_off" fill-rule="nonzero">
            <rect id="bg" x="0" y="0" width="24" height="24"></rect>
            <path d="M12.05,2.00000005 C12.0550563,2.00000005 12.0601056,2.00003007 12.0651477,2.00008995 L11.9989971,2.00000005 C17.5228475,2.00000005 22,6.4771525 22,12 C22,17.5228475 17.5228475,22 12,22 C6.4771525,22 2,17.5228475 2,12 C2,10.0066253 2.58324856,8.14947556 3.5884004,6.58989614 C3.5310434,6.40408069 3.5,6.20566563 3.5,6.00000005 C3.5,4.8954305 4.3954305,4.00000005 5.5,4.00000005 C5.64992091,4.00000005 5.79598904,4.01649568 5.93648841,4.04777104 L5.96504819,4.02564037 L5.96579989,4.05452907 C6.84571331,4.26442922 7.5,5.05580619 7.5,6.00000005 C7.5,7.05057902 6.68996602,7.91196447 5.66039227,7.99366212 C4.92493994,9.15220679 4.5,10.5264784 4.5,12 C4.5,16.1421356 7.85786438,19.5 12,19.5 C16.1421356,19.5 19.5,16.1421356 19.5,12 C19.5,7.93908272 16.2725256,4.63198248 12.2427311,4.50385357 L11.999,4.50000005 C11.3324414,4.47237937 10.8,3.92336888 10.8,3.25000005 C10.8,2.55964411 11.3596441,2.00000005 12.05,2.00000005 L11.998,2.00200005 L11.9989971,2.00000005 Z M15.2178218,8.93068517 C17.0479658,8.93068517 18.5346535,10.303013 18.5346535,11.999994 C18.5346535,13.6969749 17.0479658,15.0693027 15.2178218,15.0693027 C14.2944463,15.0693027 13.2702121,14.4958484 12.1407649,13.3559696 L12,13.2089056 L11.8588672,13.3559444 C10.8709965,14.3532942 9.96331441,14.9170718 9.13320009,15.0424326 L8.95650476,15.0625835 L8.78217822,15.0693027 C6.95203415,15.0693027 5.46534653,13.6969749 5.46534653,11.999994 C5.46534653,10.303013 6.95203415,8.93068517 8.78217822,8.93068517 C9.70555369,8.93068517 10.7297879,9.50413957 11.8592351,10.6440184 L12,10.7900922 L12.1411328,10.6440435 C13.1290035,9.64669374 14.0366856,9.08291609 14.8667999,8.95755527 L15.0434952,8.93740446 L15.2178218,8.93068517 Z M15.2178218,10.8260187 C14.9548825,10.8260187 14.410571,11.1735402 13.7625082,11.8057278 L13.5683168,11.999994 L13.6100821,12.0426217 C14.23343,12.6776221 14.7755086,13.0658272 15.0939385,13.1543351 L15.1688042,13.1701877 L15.2178218,13.1739692 C15.926469,13.1739692 16.4978784,12.6465141 16.4978784,11.999994 C16.4978784,11.3534738 15.926469,10.8260187 15.2178218,10.8260187 Z M8.77722772,10.8257358 L8.65102112,10.8321001 C8.0043369,10.8924157 7.50212164,11.3938813 7.50212164,11.999994 C7.50212164,12.6465141 8.073531,13.1739692 8.78217822,13.1739692 C9.04511745,13.1739692 9.58942902,12.8264477 10.237052,12.1947184 L10.4306931,11.9990039 L10.3899179,11.9573663 C9.76656996,11.3223658 9.22449141,10.9341607 8.90606152,10.8456528 L8.83119579,10.8298002 L8.77722772,10.8257358 Z" id="Shape" fill="#000000"></path>
        </g>
    </g>
</svg>