<?xml version="1.0" encoding="UTF-8"?>
<svg width="24px" height="24px" viewBox="0 0 24 24" version="1.1" xmlns="http://www.w3.org/2000/svg" xmlns:xlink="http://www.w3.org/1999/xlink">
    <title>table_status/chartfetched</title>
    <g id="table_status/chartfetched" stroke="none" stroke-width="1" fill="none" fill-rule="evenodd">
        <g id="chartfetched">
            <rect id="box" fill="#D8D8D8" opacity="0" x="0" y="0" width="24" height="24"></rect>
            <path d="M12,2 C6.4765625,2 2,6.4765625 2,12 C2,17.5234375 6.4765625,22 12,22 C17.5234375,22 22,17.5234375 22,12 C22,6.4765625 17.5234375,2 12,2 Z M5.01757812,9.05664062 C5.4140625,8.14257812 5.95898438,7.33789062 6.64648438,6.64648438 C7.33789062,5.95507812 8.140625,5.4140625 9.05664062,5.01757812 C9.97070312,4.62109375 10.953125,4.42382812 11.9941406,4.42382812 C13.0332031,4.42382812 14.015625,4.62109375 14.9316406,5.01757812 C15.8457031,5.4140625 16.6503906,5.95898437 17.3417969,6.64648438 C18.0332031,7.33789062 18.5742188,8.14257812 18.9707031,9.05664062 C19.234375,9.65039062 19.4082031,10.2617188 19.4980469,10.9042969 L16.1796875,10.9042969 C15.8535156,10.9042969 15.546875,11.0703125 15.3671875,11.3417969 L14.9199219,12.0253906 L12.7246094,7.66992188 C12.484375,7.19140625 11.8984375,6.99609375 11.421875,7.2421875 C11.1933594,7.35742188 11.0253906,7.5546875 10.9394531,7.79492187 L9.0390625,13.3203125 L8.15039062,11.4589844 C7.99023438,11.1191406 7.64648438,10.90625 7.27148438,10.90625 L4.5,10.90625 C4.58789062,10.2617188 4.76171875,9.64453125 5.01757812,9.05664062 Z M18.9765625,14.9433594 C18.5800781,15.8671875 18.0351562,16.6699219 17.3476562,17.3535156 C16.6601562,18.0371094 15.8535156,18.5761719 14.9375,18.9726562 C14.0234375,19.3691406 13.0410156,19.5664062 12,19.5664062 C10.9609375,19.5664062 9.97851562,19.3691406 9.0625,18.9726562 C8.1484375,18.5761719 7.34375,18.0351562 6.65234375,17.3535156 C5.9609375,16.671875 5.41992188,15.8671875 5.0234375,14.9433594 C4.73828125,14.2734375 4.5546875,13.578125 4.47460938,12.8496094 L6.65234375,12.8496094 L8.29882812,16.3046875 C8.45898438,16.6445312 8.80273438,16.8574219 9.17773438,16.8574219 L9.23046875,16.8574219 C9.62304688,16.8359375 9.96679688,16.5761719 10.0957031,16.2011719 L12.0234375,10.6054688 L13.9433594,14.4082031 C14.0996094,14.7167969 14.4121094,14.921875 14.7558594,14.9394531 C15.0859375,14.9570312 15.4335937,14.7929687 15.6210937,14.5019531 L16.7011719,12.8515625 L19.5214844,12.8515625 C19.4453125,13.578125 19.2636719,14.2773438 18.9765625,14.9433594 Z" id="ChartFetched" fill="#000000"></path>
        </g>
    </g>
</svg>