<?xml version="1.0" encoding="UTF-8"?>
<svg width="24px" height="24px" viewBox="0 0 24 24" version="1.1" xmlns="http://www.w3.org/2000/svg" xmlns:xlink="http://www.w3.org/1999/xlink">
    <title>table_status/chartfetchfailed</title>
    <g id="table_status/chartfetchfailed" stroke="none" stroke-width="1" fill="none" fill-rule="evenodd">
        <g id="chartfetchfailed">
            <rect id="box" fill="#D8D8D8" opacity="0" x="0" y="0" width="24" height="24"></rect>
            <path d="M12,2 C17.5234375,2 22,6.4765625 22,12 C22,12.5866001 21.9495095,13.1613926 21.8526366,13.7202693 C21.1418812,13.3355232 20.3457664,13.0902974 19.4999027,13.0205289 L19.5214844,12.8515625 L16.7011719,12.8515625 L16.1244349,13.7326768 C15.5547756,14.0443286 15.04121,14.4457013 14.6027427,14.9177903 C14.3209994,14.8573537 14.0759351,14.6700402 13.9433594,14.4082031 L13.9433594,14.4082031 L12.0234375,10.6054688 L10.0957031,16.2011719 C9.96679688,16.5761719 9.62304688,16.8359375 9.23046875,16.8574219 L9.23046875,16.8574219 L9.17773438,16.8574219 C8.80273438,16.8574219 8.45898438,16.6445312 8.29882812,16.3046875 L8.29882812,16.3046875 L6.65234375,12.8496094 L4.47460938,12.8496094 C4.5546875,13.578125 4.73828125,14.2734375 5.0234375,14.9433594 C5.41992188,15.8671875 5.9609375,16.671875 6.65234375,17.3535156 C7.34375,18.0351562 8.1484375,18.5761719 9.0625,18.9726562 C9.97851562,19.3691406 10.9609375,19.5664062 12,19.5664062 C12.3470052,19.5664062 12.6875,19.5444878 13.0211227,19.5005787 L13.0368112,19.6684013 C13.1236119,20.4515318 13.3611369,21.189207 13.7197283,21.8517691 C13.1613926,21.9495095 12.5866001,22 12,22 C6.4765625,22 2,17.5234375 2,12 C2,6.4765625 6.4765625,2 12,2 Z M11.9941406,4.42382812 C10.953125,4.42382812 9.97070312,4.62109375 9.05664062,5.01757812 C8.140625,5.4140625 7.33789062,5.95507812 6.64648438,6.64648438 C5.95898438,7.33789062 5.4140625,8.14257812 5.01757812,9.05664062 C4.76171875,9.64453125 4.58789062,10.2617188 4.5,10.90625 L4.5,10.90625 L7.27148438,10.90625 C7.64648438,10.90625 7.99023438,11.1191406 8.15039062,11.4589844 L8.15039062,11.4589844 L9.0390625,13.3203125 L10.9394531,7.79492187 C11.0253906,7.5546875 11.1933594,7.35742188 11.421875,7.2421875 C11.8984375,6.99609375 12.484375,7.19140625 12.7246094,7.66992188 L12.7246094,7.66992188 L14.9199219,12.0253906 L15.3671875,11.3417969 C15.546875,11.0703125 15.8535156,10.9042969 16.1796875,10.9042969 L16.1796875,10.9042969 L19.4980469,10.9042969 C19.4082031,10.2617188 19.234375,9.65039062 18.9707031,9.05664062 C18.5742188,8.14257812 18.0332031,7.33789062 17.3417969,6.64648438 C16.6503906,5.95898437 15.8457031,5.4140625 14.9316406,5.01757812 C14.015625,4.62109375 13.0332031,4.42382812 11.9941406,4.42382812 Z" id="Combined-Shape" fill="#000000"></path>
            <path d="M19,24 C21.7612305,24 24,21.7620377 24,19 C24,16.2395768 21.7612305,14 19,14 C16.2387695,14 14,16.2395768 14,19 C14,21.7620377 16.2387695,24 19,24 Z M19.4893838,19.6451613 L18.5106162,19.6451613 C18.3821273,19.6451613 18.2760443,19.5447092 18.2690548,19.4164173 L18.119499,16.6744818 C18.1119385,16.5358926 18.2222546,16.4193548 18.3610407,16.4193548 L19.6389396,16.4193548 C19.7777257,16.4193548 19.8880615,16.5358926 19.880501,16.6744818 L19.7309452,19.4164173 C19.7239557,19.5447092 19.6178727,19.6451613 19.4893838,19.6451613 Z M19,21.8629032 C18.4877969,21.8629032 18.0725806,21.447687 18.0725806,20.9354839 C18.0725806,20.4232808 18.4877969,20.0080645 19,20.0080645 C19.5122031,20.0080645 19.9274194,20.4232808 19.9274194,20.9354839 C19.9274194,21.447687 19.5122031,21.8629032 19,21.8629032 Z" id="error.failure.failed" fill="#C9190B"></path>
        </g>
    </g>
</svg>