<?xml version="1.0" encoding="UTF-8"?>
<svg width="24px" height="24px" viewBox="0 0 24 24" version="1.1" xmlns="http://www.w3.org/2000/svg" xmlns:xlink="http://www.w3.org/1999/xlink">
    <title>table_status/clearallfilters </title>
    <g id="table_status/clearallfilters-" stroke="none" stroke-width="1" fill="none" fill-rule="evenodd">
        <g id="clearallfilters-">
            <rect id="box" fill="#D8D8D8" opacity="0" x="0" y="0" width="24" height="24"></rect>
            <path d="M19,14 C21.7614237,14 24,16.2385763 24,19 C24,21.7614237 21.7614237,24 19,24 C16.2385763,24 14,21.7614237 14,19 C14,16.2385763 16.2385763,14 19,14 Z M17.8509515,16.967068 C17.7641683,16.8802848 17.6294561,16.8706423 17.532022,16.9381403 L17.4973981,16.967068 L16.967068,17.4973981 C16.8802848,17.5841813 16.8706423,17.7188935 16.9381403,17.8163275 L16.967068,17.8509515 L18.1164701,18.9996464 L16.967068,20.1490485 C16.8802848,20.2358317 16.8706423,20.3705439 16.9381403,20.467978 L16.967068,20.5026019 L17.4973981,21.032932 C17.5841813,21.1197152 17.7188935,21.1293577 17.8163275,21.0618597 L17.8509515,21.032932 L19.0003536,19.8835299 L20.1490485,21.032932 C20.2358317,21.1197152 20.3705439,21.1293577 20.467978,21.0618597 L20.5026019,21.032932 L21.032932,20.5026019 C21.1197152,20.4158187 21.1293577,20.2811065 21.0618597,20.1836725 L21.032932,20.1490485 L19.884237,18.9996464 L21.032932,17.8509515 C21.1197152,17.7641683 21.1293577,17.6294561 21.0618597,17.532022 L21.032932,17.4973981 L20.5026019,16.967068 C20.4158187,16.8802848 20.2811065,16.8706423 20.1836725,16.9381403 L20.1490485,16.967068 L19.0003536,18.115763 L17.8509515,16.967068 Z" id="Shape" fill="#000000" fill-rule="nonzero"></path>
            <path d="M21.0614991,2 C21.8959621,2 22.313289,3.01157901 21.7244538,3.60041428 L21.7244538,3.60041428 L14.4999684,10.8258151 L14.4991299,15.0322495 C13.5661029,16.0898266 13,17.4788031 13,19 C13,20.080845 13.2857928,21.0949395 13.7859327,21.9708376 C13.5391864,22.0337288 13.2638366,21.997001 13.0248666,21.8297028 L13.0248666,21.8297028 L9.89987409,19.6430091 C9.64924908,19.4675334 9.49998033,19.1808596 9.49998033,18.8749598 L9.49998033,18.8749598 L9.49998033,10.8258151 L2.27568573,3.60041428 C1.68566791,3.01039646 2.10585581,2 2.93860224,2 L2.93860224,2 Z" id="Combined-Shape" fill="#000000"></path>
        </g>
    </g>
</svg>