<?xml version="1.0" encoding="UTF-8"?>
<svg width="24px" height="24px" viewBox="0 0 24 24" version="1.1" xmlns="http://www.w3.org/2000/svg" xmlns:xlink="http://www.w3.org/1999/xlink">
    <title>table_status/deployedfailed</title>
    <g id="table_status/deployedfailed" stroke="none" stroke-width="1" fill="none" fill-rule="evenodd">
        <g id="deployedfailed">
            <rect id="box" fill="#D8D8D8" opacity="0" x="0" y="0" width="24" height="24"></rect>
            <path d="M4.70830995,8.12108709 L6.40497683,9.95908066 C5.23927048,10.9526093 4.5,12.4316384 4.5,14.0833333 C4.5,17.0748757 6.92512427,19.5 9.91666667,19.5 C11.0710685,19.5 12.141125,19.1388749 13.0200301,18.5234308 C13.0063024,18.6804608 13,18.8394944 13,19 C13,19.7721336 13.145851,20.5102019 13.4115057,21.1881575 C12.3586181,21.7079356 11.17175,22 9.91666667,22 C5.5444124,22 2,18.4555876 2,14.0833333 C2,11.7053567 3.0484521,9.57225916 4.70830995,8.12108709 Z M9.91666667,11.1666667 C11.5274972,11.1666667 12.8333333,12.4725028 12.8333333,14.0833333 C12.8333333,15.6941639 11.5274972,17 9.91666667,17 C8.30583615,17 7,15.6941639 7,14.0833333 C7,12.4725028 8.30583615,11.1666667 9.91666667,11.1666667 Z M16.5834073,2 L22,7.30829376 L20.2015451,9.07772501 L17.8367039,6.76865199 L17.831349,13.1137456 C16.9026553,13.2970867 16.050957,13.6947285 15.3299152,14.2530098 C15.332456,14.1969262 15.3333333,14.1402322 15.3333333,14.0833333 L15.3335929,6.76948611 L12.9651215,9.07772501 L11.1666667,7.30829376 L16.5834073,2 Z" id="Combined-Shape" fill="#000000"></path>
            <path d="M19,24 C21.7612305,24 24,21.7620377 24,19 C24,16.2395768 21.7612305,14 19,14 C16.2387695,14 14,16.2395768 14,19 C14,21.7620377 16.2387695,24 19,24 Z M19.4893838,19.6451613 L18.5106162,19.6451613 C18.3821273,19.6451613 18.2760443,19.5447092 18.2690548,19.4164173 L18.119499,16.6744818 C18.1119385,16.5358926 18.2222546,16.4193548 18.3610407,16.4193548 L19.6389396,16.4193548 C19.7777257,16.4193548 19.8880615,16.5358926 19.880501,16.6744818 L19.7309452,19.4164173 C19.7239557,19.5447092 19.6178727,19.6451613 19.4893838,19.6451613 Z M19,21.8629032 C18.4877969,21.8629032 18.0725806,21.447687 18.0725806,20.9354839 C18.0725806,20.4232808 18.4877969,20.0080645 19,20.0080645 C19.5122031,20.0080645 19.9274194,20.4232808 19.9274194,20.9354839 C19.9274194,21.447687 19.5122031,21.8629032 19,21.8629032 Z" id="error.failure.failed" fill="#C9190B"></path>
        </g>
    </g>
</svg>