<?xml version="1.0" encoding="UTF-8"?>
<svg width="24px" height="24px" viewBox="0 0 24 24" version="1.1" xmlns="http://www.w3.org/2000/svg" xmlns:xlink="http://www.w3.org/1999/xlink">
    <title>table_status/deployed</title>
    <g id="table_status/deployed" stroke="none" stroke-width="1" fill="none" fill-rule="evenodd">
        <g id="deployed">
            <rect id="box" fill="#D8D8D8" opacity="0" x="0" y="0" width="24" height="24"></rect>
            <path d="M15.3335929,6.76948611 L12.9651215,9.07772501 L11.1666667,7.30829376 L16.5834073,2 L22,7.30829376 L20.2015451,9.07772501 L17.8367039,6.76865199 L17.8301864,14.3087322 C17.7108661,18.5767551 14.2135372,22 9.91666667,22 C5.5444124,22 2,18.4555876 2,14.0833333 C2,11.7053567 3.0484521,9.57225916 4.70830995,8.12108709 L6.40497683,9.95908066 C5.23927048,10.9526093 4.5,12.4316384 4.5,14.0833333 C4.5,17.0748757 6.92512427,19.5 9.91666667,19.5 C12.9082091,19.5 15.3333333,17.0748757 15.3333333,14.0833333 L15.3335929,6.76948611 Z M9.91666667,11.1666667 C11.5274972,11.1666667 12.8333333,12.4725028 12.8333333,14.0833333 C12.8333333,15.6941639 11.5274972,17 9.91666667,17 C8.30583615,17 7,15.6941639 7,14.0833333 C7,12.4725028 8.30583615,11.1666667 9.91666667,11.1666667 Z" id="Deployed" fill="#000000"></path>
        </g>
    </g>
</svg>