<?xml version="1.0" encoding="UTF-8"?>
<svg width="24px" height="24px" viewBox="0 0 24 24" version="1.1" xmlns="http://www.w3.org/2000/svg" xmlns:xlink="http://www.w3.org/1999/xlink">
    <title>destroyed</title>
    <g id="Page-4:-Component" stroke="none" stroke-width="1" fill="none" fill-rule="evenodd">
        <g id="0_1_07_Form-Editor" transform="translate(-714.000000, -750.000000)">
            <g id="Group-4" transform="translate(676.000000, 519.000000)">
                <g id="Group" transform="translate(38.000000, 61.000000)">
                    <g id="destroyed" transform="translate(0.000000, 170.000000)">
                        <rect id="box" fill="#D8D8D8" opacity="0" x="0" y="0" width="24" height="24"></rect>
                        <path d="M21.1666667,2 L21.1666667,13.6666667 L22,13.6666667 L22,16.1666667 L21.1666667,16.1666667 L21.1666667,22 L18.6666667,22 L18.6666667,16.1666667 L17.2083333,16.1666667 L17.2083333,22 L14.7083333,22 L14.7083333,16.1666667 L13.25,16.1666667 L13.25,22 L10.75,22 L10.75,16.1666667 L9.29166667,16.1666667 L9.29166667,22 L6.79166667,22 L6.79166667,16.1666667 L5.33333333,16.1666667 L5.33333333,22 L2.83333333,22 L2.83333333,16.1666667 L2,16.1666667 L2,13.6666667 L2.83333333,13.6666667 L2.83333333,2 L21.1666667,2 Z M18.6666667,4.5 L5.33333333,4.5 L5.33333333,13.6666667 L18.6666667,13.6666667 L18.6666667,4.5 Z" id="Destroyed" fill="#000000" fill-rule="nonzero"></path>
                    </g>
                </g>
            </g>
        </g>
    </g>
</svg>