<?xml version="1.0" encoding="UTF-8"?>
<svg width="24px" height="24px" viewBox="0 0 24 24" version="1.1" xmlns="http://www.w3.org/2000/svg" xmlns:xlink="http://www.w3.org/1999/xlink">
    <title>table_status/destroyed</title>
    <g id="table_status/destroyed" stroke="none" stroke-width="1" fill="none" fill-rule="evenodd">
        <g id="destroyed">
            <rect id="box" fill="#D8D8D8" opacity="0" x="0" y="0" width="24" height="24"></rect>
            <path d="M21.1666667,2 L21.1666667,13.6666667 L22,13.6666667 L22,16.1666667 L21.1666667,16.1666667 L21.1666667,22 L18.6666667,22 L18.6666667,16.1666667 L17.2083333,16.1666667 L17.2083333,22 L14.7083333,22 L14.7083333,16.1666667 L13.25,16.1666667 L13.25,22 L10.75,22 L10.75,16.1666667 L9.29166667,16.1666667 L9.29166667,22 L6.79166667,22 L6.79166667,16.1666667 L5.33333333,16.1666667 L5.33333333,22 L2.83333333,22 L2.83333333,16.1666667 L2,16.1666667 L2,13.6666667 L2.83333333,13.6666667 L2.83333333,2 L21.1666667,2 Z M16.065864,7.99479618 C16.2611261,8.19005833 16.2611261,8.50664082 16.065864,8.70190296 L13.7684741,10.9992929 L16.065864,13.298097 C16.2611261,13.4933592 16.2611261,13.8099417 16.065864,14.0052038 L15.0052038,15.065864 C14.8099417,15.2611261 14.4933592,15.2611261 14.298097,15.065864 L12.0007071,12.7670598 L9.70190296,15.065864 C9.50664082,15.2611261 9.19005833,15.2611261 8.99479618,15.065864 L7.93413601,14.0052038 C7.73887386,13.8099417 7.73887386,13.4933592 7.93413601,13.298097 L10.2329402,10.9992929 L7.93413601,8.70190296 C7.73887386,8.50664082 7.73887386,8.19005833 7.93413601,7.99479618 L8.99479618,6.93413601 C9.19005833,6.73887386 9.50664082,6.73887386 9.70190296,6.93413601 L12.0007071,9.23152594 L14.298097,6.93413601 C14.4933592,6.73887386 14.8099417,6.73887386 15.0052038,6.93413601 L16.065864,7.99479618 Z M18.6666667,4.5 L5.33333333,4.5 L5.33333333,13.6666667 L18.6666667,13.6666667 L18.6666667,4.5 Z" id="Destroyed" fill="#000000" fill-rule="nonzero"></path>
        </g>
    </g>
</svg>