<?xml version="1.0" encoding="UTF-8"?>
<svg width="24px" height="24px" viewBox="0 0 24 24" version="1.1" xmlns="http://www.w3.org/2000/svg" xmlns:xlink="http://www.w3.org/1999/xlink">
    <title>table_status/error.failure.failed </title>
    <g id="table_status/error.failure.failed-" stroke="none" stroke-width="1" fill="none" fill-rule="evenodd">
        <g id="error.failure.failed-">
            <rect id="box" fill="#D8D8D8" opacity="0" x="0" y="0" width="24" height="24"></rect>
            <path d="M12,22 C17.5224609,22 22,17.5240754 22,12 C22,6.47915354 17.5224609,2 12,2 C6.47753906,2 2,6.47915354 2,12 C2,17.5240754 6.47753906,22 12,22 Z M12.9787676,13.2903226 L11.0212324,13.2903226 C10.7642547,13.2903226 10.5520886,13.0894185 10.5381096,12.8328346 L10.2389979,7.34896358 C10.223877,7.07178522 10.4445092,6.83870968 10.7220813,6.83870968 L13.2778793,6.83870968 C13.5554514,6.83870968 13.776123,7.07178522 13.7610021,7.34896358 L13.4618904,12.8328346 C13.4479114,13.0894185 13.2357453,13.2903226 12.9787676,13.2903226 Z M12,17.7258065 C10.9755938,17.7258065 10.1451613,16.8953739 10.1451613,15.8709677 C10.1451613,14.8465616 10.9755938,14.016129 12,14.016129 C13.0244062,14.016129 13.8548387,14.8465616 13.8548387,15.8709677 C13.8548387,16.8953739 13.0244062,17.7258065 12,17.7258065 Z" id="error.failure.failed" fill="#000000"></path>
        </g>
    </g>
</svg>