<?xml version="1.0" encoding="UTF-8"?>
<svg width="24px" height="24px" viewBox="0 0 24 24" version="1.1" xmlns="http://www.w3.org/2000/svg" xmlns:xlink="http://www.w3.org/1999/xlink">
    <title>installing</title>
    <g id="Page-4:-Component" stroke="none" stroke-width="1" fill="none" fill-rule="evenodd">
        <g id="0_1_07_Form-Editor" transform="translate(-60.000000, -648.000000)">
            <g id="Group-3" transform="translate(30.000000, 519.000000)">
                <g id="Group-2" transform="translate(30.000000, 61.000000)">
                    <g id="installing" transform="translate(0.000000, 68.000000)">
                        <rect id="box" fill="#D8D8D8" opacity="0" x="0" y="0" width="24" height="24"></rect>
                        <path d="M11.9902248,22 C12.6810036,22 13.3489736,21.9348958 13.9941349,21.8046875 C14.6392962,21.6744792 15.2681655,21.4791667 15.8807429,21.21875 C16.4802867,20.9583333 17.0472467,20.6490885 17.5816227,20.2910156 C18.1159987,19.9329427 18.6047572,19.5260417 19.0478983,19.0703125 C19.504073,18.6145833 19.9113718,18.1230469 20.2697947,17.5957031 C20.6282177,17.0683594 20.9377647,16.4986979 21.198436,15.8867188 C21.4721408,15.2877604 21.674161,14.6627604 21.8044966,14.0117188 C21.9348322,13.3606771 22,12.6901042 22,12 C22,11.3098958 21.9348322,10.6425781 21.8044966,9.99804688 C21.674161,9.35351562 21.4721408,8.72526042 21.198436,8.11328125 C20.9377647,7.51432292 20.6282177,6.94791667 20.2697947,6.4140625 C19.9113718,5.88020833 19.504073,5.39192708 19.0478983,4.94921875 C18.6047572,4.49348958 18.1159987,4.08658854 17.5816227,3.72851562 C17.0472467,3.37044271 16.4802867,3.06119792 15.8807429,2.80078125 C15.2681655,2.52734375 14.6392962,2.32552083 13.9941349,2.1953125 C13.3489736,2.06510417 12.6810036,2 11.9902248,2 L11.9902248,4.6953125 C12.4855002,4.70833333 12.9677419,4.76041667 13.4369501,4.8515625 C13.9061584,4.94270833 14.362333,5.0859375 14.8054741,5.28125 C15.2486152,5.4765625 15.6624308,5.70442708 16.0469208,5.96484375 C16.4314109,6.22526042 16.7930922,6.52473958 17.1319648,6.86328125 C17.4708374,7.20182292 17.7706093,7.56315104 18.0312805,7.94726562 C18.2919518,8.33138021 18.5200391,8.74479167 18.7155425,9.1875 C18.9110459,9.64322917 19.0576735,10.108724 19.1554252,10.5839844 C19.2531769,11.0592448 19.3020528,11.5442708 19.3020528,12.0390625 C19.3020528,12.546875 19.2531769,13.0384115 19.1554252,13.5136719 C19.0576735,13.9889323 18.9110459,14.4544271 18.7155425,14.9101562 C18.5200391,15.3528646 18.2919518,15.7695312 18.0312805,16.1601562 C17.7706093,16.5507812 17.4708374,16.9088542 17.1319648,17.234375 C16.7930922,17.5729167 16.4314109,17.8723958 16.0469208,18.1328125 C15.6624308,18.3932292 15.2486152,18.6210938 14.8054741,18.8164062 C14.3492994,19.0117188 13.8833496,19.1549479 13.4076246,19.2460938 C12.9318996,19.3372396 12.4463995,19.3828125 11.9511241,19.3828125 C11.5210166,19.3828125 11.107201,19.3502604 10.7096774,19.2851562 C10.3121538,19.2200521 9.92440534,19.1223958 9.54643206,18.9921875 L8.23655914,21.2773438 C8.8230694,21.5247396 9.42913001,21.7070312 10.054741,21.8242188 C10.6803519,21.9414062 11.3255132,22 11.9902248,22 Z M2,11.296875 L4.65884653,11.1210938 C4.69794721,10.7825521 4.75985663,10.453776 4.84457478,10.1347656 C4.92929293,9.81575521 5.03681981,9.50651042 5.16715543,9.20703125 C5.20625611,9.11588542 5.24535679,9.02799479 5.28445748,8.94335938 C5.32355816,8.85872396 5.36917563,8.77083333 5.42130987,8.6796875 L3.05571848,7.5078125 C3.00358423,7.59895833 2.95470837,7.69661458 2.90909091,7.80078125 C2.86347344,7.90494792 2.82111437,8.00911458 2.78201369,8.11328125 C2.56044314,8.62109375 2.38449006,9.13867188 2.25415445,9.66601562 C2.12381883,10.1933594 2.03910068,10.7369792 2,11.296875 Z M5.77321603,19.8320312 L7.08308895,17.546875 C7.03095471,17.4947917 6.97556207,17.4459635 6.91691105,17.4003906 C6.85826002,17.3548177 6.80286738,17.3059896 6.75073314,17.2539062 C6.4248941,16.9153646 6.12838058,16.5507812 5.86119257,16.1601562 C5.59400456,15.7695312 5.36265885,15.3528646 5.16715543,14.9101562 C5.10198762,14.7539062 5.04333659,14.5976562 4.99120235,14.4414062 C4.9390681,14.2851562 4.89345064,14.1289062 4.85434995,13.9726562 L2.21505376,14.1484375 C2.28022157,14.4479167 2.35842294,14.7441406 2.44965787,15.0371094 C2.5408928,15.3300781 2.65167807,15.6132812 2.78201369,15.8867188 C3.04268491,16.4986979 3.352232,17.0683594 3.71065494,17.5957031 C4.06907788,18.1230469 4.47637667,18.6145833 4.93255132,19.0703125 C5.06288693,19.2135417 5.19648094,19.3470052 5.33333333,19.4707031 C5.47018573,19.594401 5.61681329,19.7148438 5.77321603,19.8320312 Z" id="Installing" fill="#000000"></path>
                    </g>
                </g>
            </g>
        </g>
    </g>
</svg>