<?xml version="1.0" encoding="UTF-8"?>
<svg width="24px" height="24px" viewBox="0 0 24 24" version="1.1" xmlns="http://www.w3.org/2000/svg" xmlns:xlink="http://www.w3.org/1999/xlink">
    <title>table_status/installing</title>
    <g id="table_status/installing" stroke="none" stroke-width="1" fill="none" fill-rule="evenodd">
        <g id="installing">
            <rect id="box" fill="#D8D8D8" opacity="0" x="0" y="0" width="24" height="24"></rect>
            <path d="M4.5,14 C4.77614237,14 5,14.2238576 5,14.5 L5,19 L19,19 L19,14.5 C19,14.2238576 19.2238576,14 19.5,14 L21.5,14 C21.7761424,14 22,14.2238576 22,14.5 L22,21.5 C22,21.7454599 21.8231248,21.9496084 21.5898756,21.9919443 L21.5,22 L2.5,22 C2.22385763,22 2,21.7761424 2,21.5 L2,14.5 C2,14.2238576 2.22385763,14 2.5,14 L4.5,14 Z M13.2533705,8.66 L13.2533705,13.2277058 L15.6182118,10.9186328 L17.4166667,12.6880641 L12.000074,17.9963578 L6.58333333,12.6880641 L8.38178821,10.9186328 L10.7502596,13.2268717 L10.75,8.66 L13.2533705,8.66 Z M13.2533705,5.33 L13.2533705,7.83 L10.7502596,7.82952618 L10.75,5.33 L13.2533705,5.33 Z M13.2533705,2 L13.2533705,4.5 L10.7502596,4.49952618 L10.75,2 L13.2533705,2 Z" id="Shape" fill="#000000"></path>
        </g>
    </g>
</svg>