<?xml version="1.0" encoding="UTF-8"?>
<svg width="24px" height="24px" viewBox="0 0 24 24" version="1.1" xmlns="http://www.w3.org/2000/svg" xmlns:xlink="http://www.w3.org/1999/xlink">
    <title>table_status/lost</title>
    <g id="table_status/lost" stroke="none" stroke-width="1" fill="none" fill-rule="evenodd">
        <g id="lost" fill-rule="nonzero">
            <rect id="bg" x="0" y="0" width="24" height="24"></rect>
            <path d="M15.9085605,18.4748166 L16.8122167,20.7954971 L15.6518764,21.2473251 C14.9443848,21.5228172 14.2056219,21.716788 13.4474008,21.8242608 L12.2145182,21.9990137 L11.8650124,19.5332485 L13.097895,19.3584956 C13.6658521,19.2779914 14.2187093,19.1328324 14.7482203,18.9266446 L15.9085605,18.4748166 Z M7.14748418,17.7451131 L8.21683087,18.3831066 C8.70655703,18.675287 9.22827495,18.9105054 9.77280197,19.0835491 L10.9595261,19.4606749 L10.2052745,21.8341232 L9.01855038,21.4569974 C8.29106879,21.2258131 7.5943507,20.9116952 6.94084382,20.5218 L5.87149713,19.8838065 L7.14748418,17.7451131 Z M19.1913955,14.4612934 L21.374163,15.6603257 L20.7746469,16.7517094 C20.4081443,17.4189057 19.9661645,18.0419386 19.4582575,18.6085729 L18.6271262,19.5358048 L16.7726625,17.8735422 L17.6037938,16.9463104 C17.9852139,16.5207881 18.3169756,16.0531233 18.5918793,15.5526772 L19.1913955,14.4612934 Z M4.57596499,13.2722144 L4.98998451,14.4465764 C5.17989484,14.985255 5.43130358,15.4995772 5.73867662,15.9802582 L6.40950261,17.0293199 L4.31137909,18.3709719 L3.6405531,17.3219102 C3.23053939,16.680716 2.89492195,15.9941229 2.64126066,15.2746154 L2.22724114,14.1002535 L4.57596499,13.2722144 Z M11.7268395,16.1997815 L11.8704643,16.2062328 C12.3853282,16.2631542 12.7872054,16.7081304 12.7872054,17.250081 C12.7872054,17.7467578 12.4478547,18.167243 11.9878616,18.2739487 L11.8704765,18.2939505 L11.7158986,18.300081 L11.6039465,18.2939292 C11.0890825,18.2370077 10.6872054,17.7920315 10.6872054,17.250081 C10.6872054,16.7534042 11.026556,16.3329189 11.4865491,16.2262133 L11.6039342,16.2062115 L11.7268395,16.1997815 Z M12.3976531,6 L12.5783746,6.00484163 C14.1316087,6.08687674 15.3967974,7.21974501 15.5782906,8.67415289 L15.5948171,8.85017855 L15.6007375,9.04115196 L15.6006382,10.1662939 L15.5953138,10.3418766 C15.5212491,11.5607413 14.6809363,12.6162812 13.4795216,13.0237921 L13.2966518,13.079998 L13.096661,13.1287137 L12.9098112,13.1542932 L12.9066342,14.22114 L12.8856761,14.338555 C12.8012563,14.6854289 12.5267259,14.9795007 12.164647,15.1002639 L12.0408521,15.1339342 L11.9124825,15.1539769 L11.7901872,15.1592793 L11.6714834,15.152944 C11.2028427,15.1029219 10.8140649,14.761836 10.7128684,14.3136133 L10.6936807,14.1994321 L10.687199,13.2544097 L10.6872054,12.7120426 L10.6939773,12.5655824 C10.7612246,11.8414761 11.3221942,11.2477083 12.0579336,11.1179249 L12.2073172,11.0982535 L12.4048087,11.0914504 L12.5244285,11.0843351 C12.8785976,11.0419447 13.1856096,10.8138045 13.3119497,10.4985329 L13.3471884,10.3903505 L13.3681198,10.2680326 L13.3735872,10.1749015 L13.3737725,9.03485001 L13.3664341,8.92096314 C13.3179813,8.54750755 13.0343136,8.24047597 12.6564171,8.14239427 L12.5403622,8.11938078 L12.411363,8.11003593 L11.2036233,8.10956547 L11.082224,8.11671257 C10.7232164,8.15918961 10.4157206,8.3873384 10.2893321,8.70261094 L10.254088,8.8107934 L10.2331566,8.93311129 L10.2203459,9.13277226 C10.1768945,9.44627944 9.94475506,9.70076414 9.63483107,9.78062711 L9.5287943,9.80062205 L9.41545238,9.80709471 L8.80063821,9.80673129 L8.68462454,9.79861083 C8.41920939,9.76105617 8.1940502,9.59563837 8.07786092,9.35245204 L8.03493747,9.24361404 L8.00578913,9.12459446 L8,9.01888515 L8.00507685,8.84961883 C8.09197732,7.39426202 9.28457529,6.194101 10.8218811,6.02139374 L11.0079637,6.00565007 L11.2093143,6 L12.3976531,6 Z M21.5803653,8.83244029 L21.8175036,10.0548574 C21.9367529,10.6695721 21.9981578,11.2973893 22,11.9355512 L21.9992286,12.0810758 L21.9925748,12.3503673 L21.9447266,13.5946537 L19.4561538,13.4989571 L19.5071658,12.1545946 L19.5095932,11.9394859 C19.5082103,11.461577 19.4621005,10.9901393 19.3726694,10.529134 L19.1355311,9.30671692 L21.5803653,8.83244029 Z M3.08851606,7.40853478 L5.43105662,8.25390814 L5.00836994,9.42517842 C4.81562702,9.95927154 4.68431086,10.5154652 4.61783881,11.0857014 L4.47366223,12.3225325 L2,12.0341793 L2.14417658,10.7973482 C2.23287233,10.0364641 2.40830851,9.29339874 2.66582938,8.57980506 L3.08851606,7.40853478 Z M17.4114756,3.48037318 L18.3721982,4.27255386 C18.9591841,4.75656339 19.4894738,5.30628361 19.9519971,5.91035031 L20.7090068,6.89902335 L18.7316607,8.41304278 L17.974651,7.42436974 C17.627238,6.9706399 17.2288016,6.55760428 16.7878368,6.193999 L15.8271142,5.40181831 L17.4114756,3.48037318 Z M8.04386385,2.74880007 L9.31201122,4.89215132 L8.2403356,5.52622501 C7.74882198,5.81703675 7.29177806,6.16359887 6.87848939,6.55840648 L5.97809441,7.41853842 L4.25783052,5.61774845 L5.1582255,4.75761651 C5.70845751,4.23198928 6.31714631,3.77043958 6.97218822,3.38287376 L8.04386385,2.74880007 Z M12.038389,2 C12.8061586,2 13.563506,2.08709226 14.2996797,2.25805299 L15.5126084,2.53972999 L14.9492544,4.96558749 L13.7363257,4.6839105 C13.184541,4.55577019 12.6161921,4.49041209 12.038389,4.49041209 L10.7931829,4.49041209 L10.7931829,2 L12.038389,2 Z" fill="#000000"></path>
        </g>
    </g>
</svg>