<?xml version="1.0" encoding="UTF-8"?>
<svg width="24px" height="24px" viewBox="0 0 24 24" version="1.1" xmlns="http://www.w3.org/2000/svg" xmlns:xlink="http://www.w3.org/1999/xlink">
    <title>table_status/master</title>
    <g id="table_status/master" stroke="none" stroke-width="1" fill="none" fill-rule="evenodd">
        <g id="master" fill-rule="nonzero">
            <rect id="bg" x="0" y="0" width="24" height="24"></rect>
            <path d="M12,2 C17.5228475,2 22,6.4771525 22,12 C22,17.5228475 17.5228475,22 12,22 C6.4771525,22 2,17.5228475 2,12 C2,6.4771525 6.4771525,2 12,2 Z M12,4.5 C7.85786438,4.5 4.5,7.85786438 4.5,12 C4.5,16.1421356 7.85786438,19.5 12,19.5 C16.1421356,19.5 19.5,16.1421356 19.5,12 C19.5,7.85786438 16.1421356,4.5 12,4.5 Z M16,15 L16,17 L8,17 L8,15 L16,15 Z M16,8 C16.5522847,8 17,8.44771525 17,9 C17,9.51283584 16.6139598,9.93550716 16.1166211,9.99327227 L16,10 L16,14.497396 L8,14.497396 L8,10 C7.44771525,10 7,9.55228475 7,9 C7,8.44771525 7.44771525,8 8,8 C8.55228475,8 9,8.44771525 9,9 C9,9.44489605 8.70946873,9.82193488 8.30778251,9.95174018 C8.92560849,10.6517016 9.95972032,10.8779299 10.8346432,10.4395053 C11.2724521,10.2201188 11.6204286,9.85542486 11.8190452,9.40781061 L12,9 L12.1814784,9.40873652 C12.6547867,10.47475 13.9026536,10.9552325 14.968667,10.4819242 C15.2475095,10.3581185 15.4941483,10.176338 15.6934957,9.9509854 C15.2910085,9.82255395 15,9.44526132 15,9 C15,8.44771525 15.4477153,8 16,8 Z M12,7 C12.5522847,7 13,7.44771525 13,8 C13,8.55228475 12.5522847,9 12,9 C11.4477153,9 11,8.55228475 11,8 C11,7.44771525 11.4477153,7 12,7 Z" fill="#000000"></path>
        </g>
    </g>
</svg>