<?xml version="1.0" encoding="UTF-8"?>
<svg width="24px" height="24px" viewBox="0 0 24 24" version="1.1" xmlns="http://www.w3.org/2000/svg" xmlns:xlink="http://www.w3.org/1999/xlink" style="background: #FFFFFF;">
    <title>table_status/normal</title>
    <g id="table_status/normal" stroke="none" stroke-width="1" fill="none" fill-rule="evenodd">
        <rect fill="#FFFFFF" x="0" y="0" width="24" height="24"></rect>
        <rect id="box" opacity="0" x="0" y="0" width="24" height="24"></rect>
        <path d="M12,2 C17.5234375,2 22,6.4765625 22,12 C22,17.5234375 17.5234375,22 12,22 C6.4765625,22 2,17.5234375 2,12 C2,6.4765625 6.4765625,2 12,2 Z M12,5 C8.13359375,5 5,8.13359375 5,12 C5,15.8664062 8.13359375,19 12,19 C15.8664062,19 19,15.8664062 19,12 C19,8.13359375 15.8664062,5 12,5 Z M12,9 C10.3429688,9 9,10.3429688 9,12 C9,13.6570312 10.3429688,15 12,15 C13.6570312,15 15,13.6570312 15,12 C15,10.3429688 13.6570312,9 12,9 Z" id="Shape" fill="#000000"></path>
    </g>
</svg>