<?xml version="1.0" encoding="UTF-8"?>
<svg width="24px" height="24px" viewBox="0 0 24 24" version="1.1" xmlns="http://www.w3.org/2000/svg" xmlns:xlink="http://www.w3.org/1999/xlink">
    <title>table_status/notready</title>
    <g id="table_status/notready" stroke="none" stroke-width="1" fill="none" fill-rule="evenodd">
        <g id="notready">
            <rect id="box" x="9.09494702e-13" y="0" width="24" height="24"></rect>
            <path d="M14.5717474,18.9752281 L15.3968621,21.4100301 L15.2111574,21.4729625 C14.1919722,21.8183485 13.1229465,21.9961099 12.0319454,21.9999999 C11.5328276,22.0000505 11.053409,21.9670114 10.5805968,21.8998887 L10.2270218,21.8431405 L10.0340138,21.8085765 L10.4871868,19.2780212 L10.6801949,19.3125852 C11.1175152,19.3909009 11.5589245,19.4292356 12.0272226,19.4291956 C12.7209437,19.4267172 13.4030039,19.3294248 14.059808,19.1403389 L14.3860424,19.0381606 L14.5717474,18.9752281 Z M6.12240907,16.5488014 L6.24656922,16.7005615 C6.97790865,17.5944726 7.90579406,18.3062569 8.95256876,18.777803 L9.24094209,18.9004064 L9.42297938,18.9732702 L8.46765355,21.3599892 L8.28561591,21.2871253 C6.82899215,20.704085 5.52862247,19.7832213 4.49145236,18.6048962 L4.25682627,18.3284413 L4.13266647,18.1766816 L6.12240907,16.5488014 Z M18.4536705,15.6883884 L20.6497627,17.0248941 L20.5478263,17.1923922 C19.7315624,18.533647 18.6095618,19.6660237 17.2793625,20.4942988 L16.968742,20.6799977 L16.798651,20.7775472 L15.5196689,18.5474624 L15.6897595,18.4499131 C16.6890922,17.8767818 17.543881,17.0771662 18.1828685,16.120606 L18.3517338,15.855887 L18.4536705,15.6883884 Z M2.00308635,11.6323062 L4.57354445,11.6756766 L4.57080327,12.0000283 C4.57080327,13.0942136 4.80685477,14.1582251 5.26234588,15.1350206 L5.40555979,15.4253857 L5.49611329,15.5993016 L3.21587741,16.786564 L3.1253237,16.6126477 C2.4424318,15.3010944 2.06140177,13.858839 2.00682803,12.3711851 L2,11.9983752 L2.00308635,11.6323062 Z M21.8362051,10.1782169 L21.867924,10.3717128 C21.9544903,10.8997965 21.9986161,11.4351215 22,11.9771941 C22,13.0132053 21.84805,14.0189886 21.5472059,14.9829603 L21.4274175,15.3424671 L21.3618934,15.5272736 L18.9388746,14.6681771 L19.0043986,14.483371 C19.2866712,13.6872403 19.4292143,12.85057 19.429194,11.9805216 C19.4284218,11.6789762 19.4097439,11.3794615 19.3733145,11.0829958 L19.3309737,10.7875842 L19.2992548,10.5940884 L21.8362051,10.1782169 Z M11.25,13.75 C10.9738576,13.75 10.75,13.5261424 10.75,13.25 L10.75,7.25 C10.75,6.97385763 10.9738576,6.75 11.25,6.75 L12.75,6.75 C13.0261424,6.75 13.25,6.97385763 13.25,7.25 L13.249,11.25 L16.5,11.25 C16.7761424,11.25 17,11.4738576 17,11.75 L17,13.25 C17,13.5261424 16.7761424,13.75 16.5,13.75 L11.25,13.75 Z M4.63202701,5.23596864 L6.55897785,6.93771204 L6.42918443,7.08468253 C5.66406114,7.95106348 5.11320146,8.97866251 4.81858655,10.0889754 L4.74462175,10.3937798 L4.70245245,10.5852701 L2.19179904,10.032382 L2.23396829,9.84089188 C2.57220236,8.3049748 3.26968177,6.87419441 4.26682972,5.65939374 L4.50223323,5.38293954 L4.63202701,5.23596864 Z M18.3201837,4.24763658 L18.469646,4.37455349 C19.6690279,5.39301683 20.6117761,6.67796148 21.2197324,8.12159199 L21.3540514,8.45750534 L21.4235242,8.64086349 L19.0194895,9.55173335 L18.9500166,9.36837486 C18.5425304,8.29290514 17.887439,7.32501446 17.041134,6.54283187 L16.8056251,6.33417238 L16.6561632,6.20725582 L18.3201837,4.24763658 Z M10.7988382,2.0695924 L11.1547315,4.61565134 L10.960541,4.64279573 C9.81726369,4.80260568 8.73375028,5.2264862 7.78640262,5.88031831 L7.53146849,6.0643118 L7.37492315,6.18238139 L5.8269009,4.12989522 L5.98344582,4.01182596 C7.24082771,3.06348376 8.69829108,2.42767152 10.2459456,2.15355216 L10.6046476,2.09673681 L10.7988382,2.0695924 Z M12.0000111,2 C13.5845464,2 15.1268711,2.37004558 16.5229342,3.07919217 L16.8424589,3.24884685 L17.0139477,3.34391671 L15.7674742,5.59233341 L15.595985,5.49726333 C14.5898038,4.93945709 13.4735317,4.62581949 12.3165182,4.57742021 L12.0000111,4.57081239 L11.8039326,4.57081239 L11.8039326,2 L12.0000111,2 Z" fill="#000000" fill-rule="nonzero"></path>
        </g>
    </g>
</svg>