<?xml version="1.0" encoding="UTF-8"?>
<svg width="24px" height="24px" viewBox="0 0 24 24" version="1.1" xmlns="http://www.w3.org/2000/svg" xmlns:xlink="http://www.w3.org/1999/xlink">
    <title>table_status/ready</title>
    <g id="table_status/ready" stroke="none" stroke-width="1" fill="none" fill-rule="evenodd">
        <g id="ready">
            <rect id="box" x="0" y="0" width="24" height="24"></rect>
            <path d="M12,2 C17.5228475,2 22,6.4771525 22,12 C22,12.586888 21.9494424,13.1619677 21.852445,13.7211212 C21.122879,13.3252388 20.3030841,13.0772687 19.4318706,13.0153041 C19.4767631,12.683719 19.5,12.3445732 19.5,12 C19.5,7.85786438 16.1421356,4.5 12,4.5 C7.85786438,4.5 4.5,7.85786438 4.5,12 C4.5,16.1421356 7.85786438,19.5 12,19.5 C12.3445732,19.5 12.683719,19.4767631 13.0159561,19.431771 C13.0772687,20.3030841 13.3252388,21.122879 13.7197283,21.8517691 C13.1619677,21.9494424 12.586888,22 12,22 C6.4771525,22 2,17.5228475 2,12 C2,6.4771525 6.4771525,2 12,2 Z M12.75,6.75 C13.0261424,6.75 13.25,6.97385763 13.25,7.25 L13.25,11.25 L16.5,11.25 C16.7761424,11.25 17,11.4738576 17,11.75 L17,13.25 C17,13.2832093 16.9967624,13.3156624 16.9905856,13.3470609 C16.6773946,13.4561206 16.3774286,13.5920804 16.0917676,13.7506811 L11.25,13.75 C10.9738576,13.75 10.75,13.5261424 10.75,13.25 L10.75,7.25 C10.75,6.97385763 10.9738576,6.75 11.25,6.75 L12.75,6.75 Z" id="Shape" fill="#000000" fill-rule="nonzero"></path>
            <path d="M19,24 C21.7614274,24 24,21.7614274 24,19 C24,16.2385726 21.7614274,14 19,14 C16.2385726,14 14,16.2385726 14,19 C14,21.7614274 16.2385726,24 19,24 Z M17.9654344,21.6474491 L15.8686602,19.5506749 C15.7427112,19.4247062 15.7427112,19.2204354 15.8686602,19.0944667 L16.3248685,18.6382781 C16.4508372,18.5123094 16.6551081,18.5123094 16.7810767,18.6382781 L18.1935484,20.0507694 L21.2189233,17.0253946 C21.3449116,16.8994062 21.5491825,16.8994062 21.6751315,17.0253946 L22.1313398,17.4815831 C22.2572888,17.6075518 22.2572888,17.8118227 22.1313398,17.9377914 L18.4216624,21.6474688 C18.295674,21.7734178 18.0914228,21.7734178 17.9654344,21.6474491 Z" id="check-circle" fill="#3E8635"></path>
        </g>
    </g>
</svg>