<?xml version="1.0" encoding="UTF-8"?>
<svg width="24px" height="24px" viewBox="0 0 24 24" version="1.1" xmlns="http://www.w3.org/2000/svg" xmlns:xlink="http://www.w3.org/1999/xlink">
    <title>table_status/rolledback</title>
    <g id="table_status/rolledback" stroke="none" stroke-width="1" fill="none" fill-rule="evenodd">
        <g id="rolledback">
            <rect id="box" fill="#D8D8D8" opacity="0" x="0" y="0" width="24" height="24"></rect>
            <path d="M6.10427245,17.8957274 C6.45138469,17.5486151 7.00558295,17.5106159 7.39018252,17.8157518 C8.65569508,18.8199555 10.2572942,19.4193591 11.9999827,19.4193591 C12.3432904,19.4193591 12.6811132,19.3961002 13.0119637,19.351071 C13.06209,20.2520348 13.3128515,21.0996526 13.719191,21.8507762 C13.1633012,21.9486158 12.5909695,21.9995539 12.0072282,21.999963 C9.62760935,22.0016537 7.44180636,21.1721283 5.72412253,19.7858057 C5.27746409,19.4253445 5.24407201,18.7559278 5.64993541,18.3500644 L5.64993541,18.3500644 Z M11.9999827,2.0000344 C17.5164881,2.0000344 21.9897666,6.46697319 21.9999827,11.9811159 C22.0010785,12.574069 21.9500145,13.1553897 21.8511374,13.7207191 C21.0996526,13.3128515 20.2520348,13.06209 19.3511189,13.0101029 C19.3960702,12.681051 19.4193247,12.343272 19.4193247,12.0000171 C19.4193247,7.89901298 16.1003568,4.5806751 11.9999827,4.5806751 C10.0316614,4.5806751 8.24396444,5.34554273 6.91658991,6.59404422 L6.91658991,6.59404422 L8.96311485,8.64056916 C9.36956891,9.04702322 9.08171973,9.7419565 8.50696644,9.7419565 L8.50696644,9.7419565 L2.64516017,9.7419565 C2.28883361,9.7419565 2,9.45312288 2,9.09679632 L2,9.09679632 L2,3.23499005 C2,2.66023676 2.69493327,2.37238759 3.10138733,2.77880227 L3.10138733,2.77880227 L5.0921538,4.76956874 C6.88745059,3.05389315 9.32062273,2.0000344 11.9999827,2.0000344 Z" id="Combined-Shape" fill="#000000"></path>
            <path d="M19,24 C21.7614274,24 24,21.7614274 24,19 C24,16.2385726 21.7614274,14 19,14 C16.2385726,14 14,16.2385726 14,19 C14,21.7614274 16.2385726,24 19,24 Z M17.9654344,21.6474491 L15.8686602,19.5506749 C15.7427112,19.4247062 15.7427112,19.2204354 15.8686602,19.0944667 L16.3248685,18.6382781 C16.4508372,18.5123094 16.6551081,18.5123094 16.7810767,18.6382781 L18.1935484,20.0507694 L21.2189233,17.0253946 C21.3449116,16.8994062 21.5491825,16.8994062 21.6751315,17.0253946 L22.1313398,17.4815831 C22.2572888,17.6075518 22.2572888,17.8118227 22.1313398,17.9377914 L18.4216624,21.6474688 C18.295674,21.7734178 18.0914228,21.7734178 17.9654344,21.6474491 Z" id="check-circle" fill="#3E8635"></path>
        </g>
    </g>
</svg>