<?xml version="1.0" encoding="UTF-8"?>
<svg width="24px" height="24px" viewBox="0 0 24 24" version="1.1" xmlns="http://www.w3.org/2000/svg" xmlns:xlink="http://www.w3.org/1999/xlink">
    <title>table_status/rollingback</title>
    <g id="table_status/rollingback" stroke="none" stroke-width="1" fill="none" fill-rule="evenodd">
        <g id="rollingback">
            <rect id="Rectangle-Copy-46" fill="#151515" opacity="0" x="0" y="0" width="24" height="24"></rect>
            <path d="M12.0072282,22 C17.5169212,21.9961358 22.0101642,17.4907885 21.9999827,11.9811159 C21.9897666,6.46695415 17.5164881,2 11.9999827,2 C9.32062273,2 6.88745059,3.05386237 5.0921538,4.76954386 L3.10138733,2.77877055 C2.69493327,2.37235447 2,2.66020463 2,3.2349599 L2,9.09678633 C2,9.45311412 2.28883361,9.74194873 2.64516017,9.74194873 L8.50696644,9.74194873 C9.08171973,9.74194873 9.36956891,9.04701306 8.96311485,8.6405576 L6.91658991,6.59402563 C8.24396444,5.34551984 10.0316614,4.58064958 11.9999827,4.58064958 C16.1003568,4.58064958 19.4193247,7.89899888 19.4193247,12.0000171 C19.4193247,16.1004053 16.1009868,19.4193846 11.9999827,19.4193846 C10.2572942,19.4193846 8.65569508,18.819979 7.39018252,17.8157718 C7.00558295,17.5106348 6.45138469,17.5486342 6.10427245,17.8957476 L5.64993541,18.3500862 C5.24407201,18.755951 5.27746409,19.42537 5.72412253,19.7858325 C7.44180636,21.1721598 9.62760935,22.0016881 12.0072282,22 Z" fill="#000000"></path>
        </g>
    </g>
</svg>