<?xml version="1.0" encoding="UTF-8"?>
<svg width="24px" height="24px" viewBox="0 0 24 24" version="1.1" xmlns="http://www.w3.org/2000/svg" xmlns:xlink="http://www.w3.org/1999/xlink">
    <title>table_status/rollbackfailed</title>
    <g id="table_status/rollbackfailed" stroke="none" stroke-width="1" fill="none" fill-rule="evenodd">
        <g id="rollbackfailed">
            <rect id="box" fill="#D8D8D8" opacity="0" x="0" y="0" width="24" height="24"></rect>
            <path d="M6.10427245,17.8957274 C6.45138469,17.5486151 7.00558295,17.5106159 7.39018252,17.8157518 C8.65569508,18.8199555 10.2572942,19.4193591 11.9999827,19.4193591 C12.3432904,19.4193591 12.6811132,19.3961002 13.0119637,19.351071 C13.06209,20.2520348 13.3128515,21.0996526 13.719191,21.8507762 C13.1633012,21.9486158 12.5909695,21.9995539 12.0072282,21.999963 C9.62760935,22.0016537 7.44180636,21.1721283 5.72412253,19.7858057 C5.27746409,19.4253445 5.24407201,18.7559278 5.64993541,18.3500644 L5.64993541,18.3500644 Z M11.9999827,2.0000344 C17.5164881,2.0000344 21.9897666,6.46697319 21.9999827,11.9811159 C22.0010785,12.574069 21.9500145,13.1553897 21.8511374,13.7207191 C21.0996526,13.3128515 20.2520348,13.06209 19.3511189,13.0101029 C19.3960702,12.681051 19.4193247,12.343272 19.4193247,12.0000171 C19.4193247,7.89901298 16.1003568,4.5806751 11.9999827,4.5806751 C10.0316614,4.5806751 8.24396444,5.34554273 6.91658991,6.59404422 L6.91658991,6.59404422 L8.96311485,8.64056916 C9.36956891,9.04702322 9.08171973,9.7419565 8.50696644,9.7419565 L8.50696644,9.7419565 L2.64516017,9.7419565 C2.28883361,9.7419565 2,9.45312288 2,9.09679632 L2,9.09679632 L2,3.23499005 C2,2.66023676 2.69493327,2.37238759 3.10138733,2.77880227 L3.10138733,2.77880227 L5.0921538,4.76956874 C6.88745059,3.05389315 9.32062273,2.0000344 11.9999827,2.0000344 Z" id="Combined-Shape" fill="#000000"></path>
            <path d="M19,24 C21.7612305,24 24,21.7620377 24,19 C24,16.2395768 21.7612305,14 19,14 C16.2387695,14 14,16.2395768 14,19 C14,21.7620377 16.2387695,24 19,24 Z M19.4893838,19.6451613 L18.5106162,19.6451613 C18.3821273,19.6451613 18.2760443,19.5447092 18.2690548,19.4164173 L18.119499,16.6744818 C18.1119385,16.5358926 18.2222546,16.4193548 18.3610407,16.4193548 L19.6389396,16.4193548 C19.7777257,16.4193548 19.8880615,16.5358926 19.880501,16.6744818 L19.7309452,19.4164173 C19.7239557,19.5447092 19.6178727,19.6451613 19.4893838,19.6451613 Z M19,21.8629032 C18.4877969,21.8629032 18.0725806,21.447687 18.0725806,20.9354839 C18.0725806,20.4232808 18.4877969,20.0080645 19,20.0080645 C19.5122031,20.0080645 19.9274194,20.4232808 19.9274194,20.9354839 C19.9274194,21.447687 19.5122031,21.8629032 19,21.8629032 Z" id="error.failure.failed" fill="#C9190B"></path>
        </g>
    </g>
</svg>