<?xml version="1.0" encoding="UTF-8"?>
<svg width="24px" height="24px" viewBox="0 0 24 24" version="1.1" xmlns="http://www.w3.org/2000/svg" xmlns:xlink="http://www.w3.org/1999/xlink">
    <title>table_status/scanning</title>
    <g id="table_status/scanning" stroke="none" stroke-width="1" fill="none" fill-rule="evenodd">
        <g id="scanning">
            <rect id="bg" fill-rule="nonzero" x="0" y="0" width="24" height="24"></rect>
            <path d="M12.00125,2 C17.51375,2 22,6.4875 22,12 C22,17.515 17.51375,22 12.00125,22 C6.485,22 2,17.515 2,12 C2,6.4875 6.485,2 12.00125,2 Z M12.00125,4.49875 C7.865,4.49875 4.50125,7.86375 4.50125,11.99875 C4.50125,16.1375 7.865,19.49875 12.00125,19.49875 C13.6793953,19.49875 15.2307174,18.9449277 16.4817562,18.010242 C16.4488104,17.9944257 16.4173921,17.9756218 16.387364,17.9540024 L16.3050504,17.8839546 L13.9683327,15.5472368 C13.8690393,15.4479435 13.8048704,15.3203428 13.7831746,15.1828122 L13.7749812,15.0780896 L13.774,14.8943346 L13.7328482,14.9259706 C13.049264,15.4066506 12.2560693,15.7076837 11.4156106,15.7983244 L11.1337927,15.8207035 L10.8749884,15.8273114 C8.12678842,15.8273114 5.9,13.600523 5.9,10.852323 C5.9,8.10412305 8.12678842,5.87733463 10.8749884,5.87733463 C13.6231883,5.87733463 15.8499768,8.10412305 15.8499768,10.852323 C15.8499768,11.8919651 15.5312784,12.8815959 14.948636,13.7101828 L14.917,13.7513346 L15.100755,13.7523159 C15.2067652,13.7523159 15.3097741,13.7772404 15.4020289,13.8239892 L15.4904117,13.8778979 L15.5699022,13.9456673 L17.9069956,16.2827627 C17.9581102,16.3344247 17.999025,16.3923969 18.0297389,16.4541624 C18.954348,15.208824 19.50125,13.6667661 19.50125,11.99875 C19.5,7.86375 16.13625,4.49875 12.00125,4.49875 Z M10.8749955,7.95233016 C9.27166876,7.95233016 7.97499553,9.24970081 7.97499553,10.8523302 C7.97499553,12.4556448 9.27236831,13.7523159 10.8749955,13.7523159 C12.478308,13.7523159 13.7749812,12.4549452 13.7749812,10.8523302 C13.7749812,9.24900553 12.4776127,7.95233016 10.8749955,7.95233016 Z" fill="#000000"></path>
        </g>
    </g>
</svg>