<?xml version="1.0" encoding="UTF-8"?>
<svg width="24px" height="24px" viewBox="0 0 24 24" version="1.1" xmlns="http://www.w3.org/2000/svg" xmlns:xlink="http://www.w3.org/1999/xlink">
    <title>table_status/tested</title>
    <g id="table_status/tested" stroke="none" stroke-width="1" fill="none" fill-rule="evenodd">
        <g id="tested">
            <rect id="box" fill="#D8D8D8" opacity="0" x="0" y="0" width="24" height="24"></rect>
            <path d="M12.0019993,2 C17.5144993,2 22.0007493,6.4875 22.0007493,12 C22.0007493,17.515 17.5144993,22 12.0019993,22 C6.48574927,22 2.00074927,17.515 2.00074927,12 C2.00074927,6.4875 6.48574927,2 12.0019993,2 Z M12.0019993,4.49875 C7.86574927,4.49875 4.50199927,7.86375 4.50199927,11.99875 C4.50199927,16.1375 7.86574927,19.49875 12.0019993,19.49875 C16.1369993,19.49875 19.5019993,16.13625 19.5019993,11.99875 C19.5007493,7.86375 16.1369993,4.49875 12.0019993,4.49875 Z M15.4376243,7.000625 C15.6101243,7.000625 15.7501243,7.141875 15.7501243,7.313125 L15.7501243,7.625625 C15.7501243,10.750625 12.6251243,10.731875 12.6251243,12.000625 C12.6251243,13.270625 15.7501243,13.250625 15.7501243,16.375625 L15.7501243,16.688125 C15.7501243,16.860625 15.6101243,17.000625 15.4376243,17.000625 L8.56262427,17.000625 C8.39012427,17.000625 8.25012427,16.860625 8.25012427,16.688125 L8.25012427,16.375625 C8.25012427,13.231875 11.3751243,13.231875 11.3751243,12.000625 C11.3751243,10.770625 8.25012427,10.731875 8.25012427,7.625625 L8.25012427,7.313125 C8.25012427,7.141875 8.39012427,7.000625 8.56262427,7.000625 L15.4376243,7.000625 Z" id="Tested" fill="#000000"></path>
        </g>
    </g>
</svg>