<?xml version="1.0" encoding="UTF-8"?>
<svg width="24px" height="24px" viewBox="0 0 24 24" version="1.1" xmlns="http://www.w3.org/2000/svg" xmlns:xlink="http://www.w3.org/1999/xlink">
    <title>table_status/testfailed</title>
    <g id="table_status/testfailed" stroke="none" stroke-width="1" fill="none" fill-rule="evenodd">
        <g id="testfailed">
            <rect id="box" fill="#000000" opacity="0" x="0" y="0" width="24" height="24"></rect>
            <path d="M12.0019993,2 C17.5144993,2 22.0007493,6.4875 22.0007493,12 C22.0007493,12.5794023 21.9512324,13.1474361 21.8562109,13.7000949 C21.1269662,13.3040764 20.3071629,13.0554725 19.4358508,12.9929231 C19.4796766,12.6675907 19.5019993,12.335741 19.5019993,11.99875 C19.5007493,7.86375 16.1369993,4.49875 12.0019993,4.49875 C7.86574927,4.49875 4.50199927,7.86375 4.50199927,11.99875 C4.50199927,16.1375 7.86574927,19.49875 12.0019993,19.49875 C12.3460629,19.49875 12.6847954,19.4754697 13.0167018,19.4303997 C13.0816766,20.3011601 13.3329764,21.1212589 13.7309537,21.8497477 C13.1695331,21.948686 12.591637,22 12.0019993,22 C6.48574927,22 2.00074927,17.515 2.00074927,12 C2.00074927,6.4875 6.48574927,2 12.0019993,2 Z M15.4376243,7.000625 C15.5854814,7.000625 15.709461,7.10440051 15.7418663,7.24189322 L15.7501243,7.313125 L15.7501243,7.625625 C15.7501243,10.750625 12.6251243,10.731875 12.6251243,12.000625 C12.6251243,12.9121877 14.2350864,13.159158 15.1438588,14.3815293 C14.3245992,15.0687086 13.6926729,15.9704403 13.3334352,17.0000474 L8.56262427,17.000625 C8.41476713,17.000625 8.29078753,16.8977679 8.25838229,16.7597504 L8.25012427,16.688125 L8.25012427,16.375625 C8.25012427,13.231875 11.3751243,13.231875 11.3751243,12.000625 C11.3751243,10.8078977 8.4366486,10.7353174 8.25855917,7.89967946 L8.25012427,7.625625 L8.25012427,7.313125 C8.25012427,7.16633929 8.35298141,7.04159439 8.4909989,7.00894862 L8.56262427,7.000625 L15.4376243,7.000625 Z M11.6726243,13.960625 C11.3776243,14.059375 10.3363743,14.394375 10.1913743,15.414375 C10.1910444,15.4166146 10.1907155,15.4188568 10.1903878,15.4211012 L10.1884368,15.4345892 L10.186523,15.4481045 C10.1852615,15.4571183 10.1840311,15.4661342 10.182844,15.4751196 L10.1810975,15.488571 C10.1666029,15.6022723 10.1601219,15.7084534 10.1871687,15.7406887 L10.2076243,15.750625 L13.7938743,15.750625 C13.8435222,15.750625 13.8378239,15.6283278 13.8212877,15.4938726 L13.8195996,15.4803906 L13.8178492,15.4668521 L13.8160462,15.4532815 L13.8142007,15.4397032 L13.8142007,15.4397032 L13.8113743,15.419375 C13.6713743,14.411875 12.6251243,14.064375 12.3301243,13.960625 C12.0063743,13.849375 12.0063743,13.849375 11.6726243,13.960625 Z M13.7938743,8.19875 L10.2088743,8.19875 C10.1575715,8.19875 10.1663137,8.33028937 10.1835093,8.47017918 L10.185198,8.48373885 C10.1854833,8.48600174 10.1857704,8.4882658 10.186059,8.49053047 L10.1878074,8.5041218 C10.1889831,8.51318215 10.1901767,8.52223592 10.1913743,8.53125 C10.3313743,9.53875 11.3776243,9.88625 11.6726243,9.99 C11.9902379,10.0987216 11.9974564,10.1011925 12.309128,9.99741283 L12.3313743,9.99 C12.6263743,9.89 13.6676243,9.55625 13.8126243,8.535 C13.8129588,8.53274648 13.8132918,8.53048973 13.8136231,8.52823031 L13.8165549,8.50783744 L13.8193655,8.48738668 C13.8388495,8.34195969 13.846832,8.19875 13.7938743,8.19875 Z" id="TestFailed" fill="#000000"></path>
            <path d="M19,24 C21.7612305,24 24,21.7620377 24,19 C24,16.2395768 21.7612305,14 19,14 C16.2387695,14 14,16.2395768 14,19 C14,21.7620377 16.2387695,24 19,24 Z M19.4893838,19.6451613 L18.5106162,19.6451613 C18.3821273,19.6451613 18.2760443,19.5447092 18.2690548,19.4164173 L18.119499,16.6744818 C18.1119385,16.5358926 18.2222546,16.4193548 18.3610407,16.4193548 L19.6389396,16.4193548 C19.7777257,16.4193548 19.8880615,16.5358926 19.880501,16.6744818 L19.7309452,19.4164173 C19.7239557,19.5447092 19.6178727,19.6451613 19.4893838,19.6451613 Z M19,21.8629032 C18.4877969,21.8629032 18.0725806,21.447687 18.0725806,20.9354839 C18.0725806,20.4232808 18.4877969,20.0080645 19,20.0080645 C19.5122031,20.0080645 19.9274194,20.4232808 19.9274194,20.9354839 C19.9274194,21.447687 19.5122031,21.8629032 19,21.8629032 Z" id="error.failure.failed" fill="#C9190B"></path>
        </g>
    </g>
</svg>