<?xml version="1.0" encoding="UTF-8"?>
<svg width="24px" height="24px" viewBox="0 0 24 24" version="1.1" xmlns="http://www.w3.org/2000/svg" xmlns:xlink="http://www.w3.org/1999/xlink">
    <title>table_status/unknown</title>
    <g id="table_status/unknown" stroke="none" stroke-width="1" fill="none" fill-rule="evenodd">
        <g id="unknown" fill-rule="nonzero">
            <rect id="bg" x="0" y="0" width="24" height="24"></rect>
            <path d="M12,2 C17.5228475,2 22,6.4771525 22,12 C22,17.5228475 17.5228475,22 12,22 C6.4771525,22 2,17.5228475 2,12 C2,6.4771525 6.4771525,2 12,2 Z M12,4.5 C7.85786438,4.5 4.5,7.85786438 4.5,12 C4.5,16.1421356 7.85786438,19.5 12,19.5 C16.1421356,19.5 19.5,16.1421356 19.5,12 C19.5,7.85786438 16.1421356,4.5 12,4.5 Z M11.7268395,16.1997815 L11.8704643,16.2062328 C12.3853282,16.2631542 12.7872054,16.7081304 12.7872054,17.250081 C12.7872054,17.7467578 12.4478547,18.167243 11.9878616,18.2739487 L11.8704765,18.2939505 L11.7158986,18.300081 L11.6039465,18.2939292 C11.0890825,18.2370077 10.6872054,17.7920315 10.6872054,17.250081 C10.6872054,16.7534042 11.026556,16.3329189 11.4865491,16.2262133 L11.6039342,16.2062115 L11.7268395,16.1997815 Z M12.3976531,6 L12.5783746,6.00484163 C14.1316087,6.08687674 15.3967974,7.21974501 15.5782906,8.67415289 L15.5948171,8.85017855 L15.6007375,9.04115196 L15.6006382,10.1662939 L15.5953138,10.3418766 C15.5212491,11.5607413 14.6809363,12.6162812 13.4795216,13.0237921 L13.2966518,13.079998 L13.096661,13.1287137 L12.9098112,13.1542932 L12.9066342,14.22114 L12.8856761,14.338555 C12.8012563,14.6854289 12.5267259,14.9795007 12.164647,15.1002639 L12.0408521,15.1339342 L11.9124825,15.1539769 L11.7901872,15.1592793 L11.6714834,15.152944 C11.2028427,15.1029219 10.8140649,14.761836 10.7128684,14.3136133 L10.6936807,14.1994321 L10.687199,13.2544097 L10.6872054,12.7120426 L10.6939773,12.5655824 C10.7612246,11.8414761 11.3221942,11.2477083 12.0579336,11.1179249 L12.2073172,11.0982535 L12.4048087,11.0914504 L12.5244285,11.0843351 C12.8785976,11.0419447 13.1856096,10.8138045 13.3119497,10.4985329 L13.3471884,10.3903505 L13.3681198,10.2680326 L13.3735872,10.1749015 L13.3737725,9.03485001 L13.3664341,8.92096314 C13.3179813,8.54750755 13.0343136,8.24047597 12.6564171,8.14239427 L12.5403622,8.11938078 L12.411363,8.11003593 L11.2036233,8.10956547 L11.082224,8.11671257 C10.7232164,8.15918961 10.4157206,8.3873384 10.2893321,8.70261094 L10.254088,8.8107934 L10.2331566,8.93311129 L10.2203459,9.13277226 C10.1768945,9.44627944 9.94475506,9.70076414 9.63483107,9.78062711 L9.5287943,9.80062205 L9.41545238,9.80709471 L8.80063821,9.80673129 L8.68462454,9.79861083 C8.41920939,9.76105617 8.1940502,9.59563837 8.07786092,9.35245204 L8.03493747,9.24361404 L8.00578913,9.12459446 L8,9.01888515 L8.00507685,8.84961883 C8.09197732,7.39426202 9.28457529,6.194101 10.8218811,6.02139374 L11.0079637,6.00565007 L11.2093143,6 L12.3976531,6 Z" fill="#000000"></path>
        </g>
    </g>
</svg>