<?xml version="1.0" encoding="UTF-8"?>
<svg width="24px" height="24px" viewBox="0 0 24 24" version="1.1" xmlns="http://www.w3.org/2000/svg" xmlns:xlink="http://www.w3.org/1999/xlink">
    <title>unready</title>
    <g id="Page-4:-Component" stroke="none" stroke-width="1" fill="none" fill-rule="evenodd">
        <g id="0_1_07_Form-Editor" transform="translate(-714.000000, -918.000000)">
            <g id="Group-4" transform="translate(676.000000, 519.000000)">
                <g id="Group" transform="translate(38.000000, 61.000000)">
                    <g id="unready" transform="translate(0.000000, 338.000000)">
                        <rect id="box" x="9.09494702e-13" y="0" width="24" height="24"></rect>
                        <path d="M20.9343878,7.15665586 L21.8172052,7.91296493 C22.0609316,8.12180676 22.0609316,8.46046479 21.8172052,8.66930663 L12.117027,16.8433972 C11.8732245,17.0522064 11.477974,17.0522064 11.2341715,16.8433645 L7.17666311,13.36715 C6.93293677,13.1583082 6.93293677,12.8196502 7.17666311,12.6108083 L8.05948055,11.8544993 C8.303245,11.6456574 8.69853355,11.6456574 8.94229799,11.8544993 L9.044,11.9407188 L9.668,12.476 L11.6755992,14.1962502 L20.0515704,7.15665586 C20.2953729,6.94778138 20.6906615,6.94778138 20.9343878,7.15665586 Z M3.94842964,11.6466082 L6.68173089,13.9883591 L6.703,13.9687188 L8.462,15.4767188 L7.12315866,16.6355061 C6.87935612,16.8443153 6.48410567,16.8443153 6.24030312,16.6354735 L2.18279476,13.159259 C1.93906841,12.9504171 1.93906841,12.6117591 2.18279476,12.4029173 L3.0656122,11.6466082 C3.30937665,11.4377664 3.7046652,11.4377664 3.94842964,11.6466082 Z M15.3541896,7.24037468 L16.2370071,7.99668374 C16.4807334,8.20552558 16.4807334,8.54418361 16.2370071,8.75302545 L11.391,12.9437188 L9.629,11.4347188 L14.4713722,7.24037468 C14.7151747,7.0315002 15.1104633,7.0315002 15.3541896,7.24037468 Z" id="ready" fill="#000000"></path>
                        <path d="M19,24 C21.7612305,24 24,21.7620377 24,19 C24,16.2395768 21.7612305,14 19,14 C16.2387695,14 14,16.2395768 14,19 C14,21.7620377 16.2387695,24 19,24 Z M19.4893838,19.6451613 L18.5106162,19.6451613 C18.3821273,19.6451613 18.2760443,19.5447092 18.2690548,19.4164173 L18.119499,16.6744818 C18.1119385,16.5358926 18.2222546,16.4193548 18.3610407,16.4193548 L19.6389396,16.4193548 C19.7777257,16.4193548 19.8880615,16.5358926 19.880501,16.6744818 L19.7309452,19.4164173 C19.7239557,19.5447092 19.6178727,19.6451613 19.4893838,19.6451613 Z M19,21.8629032 C18.4877969,21.8629032 18.0725806,21.447687 18.0725806,20.9354839 C18.0725806,20.4232808 18.4877969,20.0080645 19,20.0080645 C19.5122031,20.0080645 19.9274194,20.4232808 19.9274194,20.9354839 C19.9274194,21.447687 19.5122031,21.8629032 19,21.8629032 Z" id="error.failure.failed" fill="#C9190B"></path>
                    </g>
                </g>
            </g>
        </g>
    </g>
</svg>