<?xml version="1.0" encoding="UTF-8"?>
<svg width="24px" height="24px" viewBox="0 0 24 24" version="1.1" xmlns="http://www.w3.org/2000/svg" xmlns:xlink="http://www.w3.org/1999/xlink">
    <title>table_status/unready</title>
    <g id="table_status/unready" stroke="none" stroke-width="1" fill="none" fill-rule="evenodd">
        <g id="unready">
            <rect id="box" x="9.09494702e-13" y="0" width="24" height="24"></rect>
            <path d="M12,2 C17.5228475,2 22,6.4771525 22,12 C22,16.3306613 19.2471394,20.0183576 15.3958624,21.4086445 L15.3968621,21.4100301 L15.2595525,21.4567324 C15.1252933,21.5030001 14.9897401,21.5464892 14.8529617,21.587131 L14.907,21.569 L14.7968453,21.6033396 L14.7968453,21.6033396 C14.5648865,21.6710635 14.3294241,21.730331 14.0908139,21.7810881 C14.0599891,21.7874012 14.0296377,21.7937089 13.9992539,21.7998753 C13.7628825,21.8480956 13.522738,21.8878349 13.2798706,21.9188624 C13.2593649,21.9212725 13.2390314,21.9238077 13.2186864,21.926281 C13.1002586,21.9408795 12.9809268,21.953224 12.8609911,21.9634517 C12.8543458,21.9638474 12.8480016,21.964383 12.8416565,21.9649126 C12.7229023,21.9749813 12.6032788,21.9828191 12.4830996,21.9885355 L12.391101,21.9924149 L12.391101,21.9924149 C12.2868803,21.9965009 12.1822118,21.9989147 12.0771578,21.9997085 C12.062024,21.9998601 12.0469868,21.9999468 12.0319454,22.0000004 L12,22 L11.999,21.999 L11.6610961,21.9938182 C11.2935312,21.9814007 10.935206,21.9502308 10.5805968,21.8998887 L10.2270218,21.8431405 L10.0340138,21.8085765 L10.4919096,19.2488255 L10.6849177,19.2833896 C11.1181302,19.3609696 11.5553553,19.3993163 12.0187562,19.399991 L12.165,19.397 L12.2553224,19.3956779 C16.2240062,19.2611142 19.4,16.0014536 19.4,12 C19.4,7.91309285 16.0869071,4.6 12,4.6 L12,2 Z M6.12240907,16.5488014 L6.24656922,16.7005615 C6.97790865,17.5944726 7.90579406,18.3062569 8.95256876,18.777803 L9.24094209,18.9004064 L9.42297938,18.9732702 L8.46765355,21.3599892 L8.28561591,21.2871253 C6.82899215,20.704085 5.52862247,19.7832213 4.49145236,18.6048962 L4.25682627,18.3284413 L4.13266647,18.1766816 L6.12240907,16.5488014 Z M2.00308635,11.6323062 L4.57354445,11.6756766 L4.57080327,12.0000283 C4.57080327,13.0942136 4.80685477,14.1582251 5.26234588,15.1350206 L5.40555979,15.4253857 L5.49611329,15.5993016 L3.21587741,16.786564 L3.1253237,16.6126477 C2.4424318,15.3010944 2.06140177,13.858839 2.00682803,12.3711851 L2,11.9983752 L2.00308635,11.6323062 Z M11.25,13.75 C10.9738576,13.75 10.75,13.5261424 10.75,13.25 L10.75,7.25 C10.75,6.97385763 10.9738576,6.75 11.25,6.75 L12.75,6.75 C13.0261424,6.75 13.25,6.97385763 13.25,7.25 L13.249,11.25 L16.5,11.25 C16.7761424,11.25 17,11.4738576 17,11.75 L17,13.25 C17,13.5261424 16.7761424,13.75 16.5,13.75 L11.25,13.75 Z M4.63202701,5.23596864 L6.55897785,6.93771204 L6.42918443,7.08468253 C5.66406114,7.95106348 5.11320146,8.97866251 4.81858655,10.0889754 L4.74462175,10.3937798 L4.70245245,10.5852701 L2.19179904,10.032382 L2.23396829,9.84089188 C2.57220236,8.3049748 3.26968177,6.87419441 4.26682972,5.65939374 L4.50223323,5.38293954 L4.63202701,5.23596864 Z M10.7988382,2.0695924 L11.1547315,4.61565134 L10.960541,4.64279573 C9.81726369,4.80260568 8.73375028,5.2264862 7.78640262,5.88031831 L7.53146849,6.0643118 L7.37492315,6.18238139 L5.8269009,4.12989522 L5.98344582,4.01182596 C7.24082771,3.06348376 8.69829108,2.42767152 10.2459456,2.15355216 L10.6046476,2.09673681 L10.7988382,2.0695924 Z" id="Combined-Shape" fill="#000000" fill-rule="nonzero"></path>
        </g>
    </g>
</svg>