<?xml version="1.0" encoding="UTF-8"?>
<svg width="24px" height="24px" viewBox="0 0 24 24" version="1.1" xmlns="http://www.w3.org/2000/svg" xmlns:xlink="http://www.w3.org/1999/xlink">
    <title>table_status/Upgrading</title>
    <g id="table_status/Upgrading" stroke="none" stroke-width="1" fill="none" fill-rule="evenodd">
        <g id="Upgrading">
            <rect id="box" fill="#D8D8D8" opacity="0" x="0" y="0" width="24" height="24"></rect>
            <path d="M20.6389507,6.96664975 C22.3203466,9.85719575 22.5132755,13.524957 20.8277877,16.6945899 C18.7951797,20.5169974 14.6343323,22.4799624 10.5821816,21.8996512 L10.5824137,21.9013433 L10.3889502,21.8697374 C10.2405348,21.8454909 10.0927969,21.8178965 9.94581191,21.786975 L9.59979069,21.7079173 L9.16573613,21.5895282 L8.82700555,21.4826167 L8.43722418,21.3424201 L8.2420475,21.2655124 L8.06551793,21.1915337 L7.68009971,21.0164443 L7.37372695,20.8630533 L7.01075987,20.6633955 C6.69212962,20.4799346 6.39045699,20.2842582 6.10106305,20.0734038 L5.81558872,19.8573803 L5.66143864,19.7362928 L7.26706062,17.6918523 L7.42121085,17.8129399 C7.7704864,18.0873019 8.14213658,18.3282941 8.55553345,18.5480344 C8.71055502,18.6297438 8.86661953,18.7072647 9.02408712,18.7797773 L9.02762555,18.7757479 C12.5394649,20.3210723 16.702261,18.91662 18.5327047,15.4743914 C19.7880389,13.1136809 19.6352918,10.379568 18.3686659,8.23425217 L20.6389507,6.96664975 Z M4.67726052,13.2580699 L4.71563066,13.4502884 C4.94164201,14.5825114 5.42663099,15.6462227 6.12932294,16.5536861 L6.32633278,16.7972363 L6.45282271,16.94698 L4.48932018,18.6052484 L4.36283002,18.4555044 C3.35068449,17.2572868 2.63502662,15.8342245 2.2725416,14.3074383 L2.19518635,13.9533169 L2.15681631,13.761099 L4.67726052,13.2580699 Z M13.2439514,14.4956214 L13.2439514,16.9947457 L10.7412141,16.9947457 L10.7414736,14.4960951 L13.2439514,14.4956214 Z M13.2439514,11.1634557 L13.2439514,13.66258 L10.7412141,13.66258 L10.7414736,11.1639294 L13.2439514,11.1634557 Z M3.34860527,6.98535543 L5.59725496,8.22997004 L5.44259986,8.51496886 C4.92904094,9.48073866 4.63801251,10.5306567 4.58162386,11.606579 L4.57175857,11.9300777 L4.57006444,12.1260799 L2,12.1038723 L2.00169414,11.9078696 C2.01447011,10.4297564 2.35505229,8.97794641 3.00511325,7.63927426 L3.17406536,7.30701351 L3.34860527,6.98535543 Z M11.9909719,2 L17.4061944,7.30643435 L15.6081944,9.07524579 L13.2439514,6.7669816 L13.2439514,10.3334377 L10.7412141,10.3334377 L10.7414736,6.76781543 L8.37360133,9.07524579 L6.57560138,7.30643435 L11.9909719,2 Z" fill="#000000"></path>
        </g>
    </g>
</svg>