<?xml version="1.0" encoding="UTF-8"?>
<svg width="24px" height="24px" viewBox="0 0 24 24" version="1.1" xmlns="http://www.w3.org/2000/svg" xmlns:xlink="http://www.w3.org/1999/xlink">
    <title>Upgrading</title>
    <g id="Page-4:-Component" stroke="none" stroke-width="1" fill="none" fill-rule="evenodd">
        <g id="0_1_07_Form-Editor" transform="translate(-60.000000, -682.000000)">
            <g id="Group-3" transform="translate(30.000000, 519.000000)">
                <g id="Group-2" transform="translate(30.000000, 61.000000)">
                    <g id="Upgrading" transform="translate(0.000000, 102.000000)">
                        <rect id="box" fill="#D8D8D8" opacity="0" x="0" y="0" width="24" height="24"></rect>
                        <path d="M21.0574193,7.83333333 L21.1574166,8.07141602 L21.3354727,8.51268067 C21.3899495,8.65201317 21.4395511,8.78358996 21.4842775,8.90741103 L21.603831,9.2556071 C21.6562949,9.41807156 21.6977895,9.56308566 21.7283149,9.69064939 C21.8809419,10.3284681 21.9692979,10.9912619 21.9933829,11.6790309 C22.0174678,12.3667999 21.9758048,13.0373695 21.8683939,13.6907398 C21.760983,14.3441101 21.5810903,14.9740191 21.3287158,15.5804671 C21.089809,16.1994386 20.8006255,16.7779349 20.4611655,17.3159561 C20.1217055,17.8539773 19.732196,18.3580117 19.2926372,18.8280594 C18.8660916,19.2976538 18.3922954,19.7201715 17.8712488,20.0956123 C17.3502021,20.471053 16.7949182,20.7989638 16.205397,21.0793446 C15.6028626,21.3601785 14.9817894,21.5766951 14.3421775,21.7288942 C13.7025656,21.8810933 13.0379083,21.9692015 12.3482057,21.9932189 C11.6845296,22.01633 11.0383284,21.9803659 10.4096021,21.8853266 C9.90662112,21.8092951 9.41467866,21.691303 8.93377474,21.5313501 L8.57516653,21.4035178 L9.80324591,19.0805516 C10.1851747,19.1971777 10.5757274,19.281022 10.9749039,19.3320846 C11.3740804,19.3831471 11.7883874,19.4012012 12.2178249,19.386247 C12.7123287,19.3690269 13.195482,19.3067281 13.6672849,19.1993503 C14.1390877,19.0919726 14.5993129,18.9330277 15.0479604,18.7225155 C15.4835947,18.5124565 15.888813,18.2709752 16.2636155,17.9980715 C16.6384179,17.7251679 16.9890838,17.4141269 17.3156133,17.0649487 C17.6425971,16.7287472 17.9294052,16.3614633 18.1760373,15.9630969 C18.4226695,15.5647305 18.6358596,15.1415435 18.8156078,14.6935358 C18.9949015,14.2325514 19.1250546,13.7635337 19.2060673,13.2864828 C19.2870799,12.8094318 19.3187248,12.3178593 19.3010019,11.8117651 C19.2837334,11.3186477 19.2180061,10.8369623 19.1038198,10.3667087 C19.0869034,10.2970416 19.0657142,10.2201981 19.0402525,10.1361784 L18.9510493,9.86259049 L18.8968342,9.70964995 L18.8968342,9.70964995 L18.7691773,9.37147571 L18.6158845,8.99024391 L21.0574193,7.83333333 Z M4.94328934,14.2411426 C4.98778231,14.3955044 5.03878191,14.5496397 5.09628813,14.7035483 C5.15379436,14.857457 5.21780721,15.011139 5.28832669,15.1645945 C5.49897628,15.5990074 5.74450345,16.0062206 6.02490822,16.386234 C6.30531298,16.7662475 6.61408871,17.1192878 6.9512354,17.4453549 L7.03439632,17.5179785 L7.21013729,17.6531532 L7.29329821,17.7257768 L6.06521882,20.048743 C5.90496984,19.9373899 5.75436719,19.8224528 5.61341087,19.7039316 C5.47245456,19.5854104 5.33441073,19.4570434 5.19927939,19.3188305 C4.72791023,18.880504 4.30409109,18.404792 3.92782198,17.8916945 C3.62680669,17.4812166 3.35607799,17.0426593 3.1156359,16.5760228 L2.94098306,16.2207806 C2.8013074,15.9527999 2.68081079,15.674407 2.57949325,15.3856017 C2.51194822,15.1930648 2.45013637,14.9988847 2.39405769,14.8030613 L2.31423957,14.5080938 L4.94328934,14.2411426 Z M12.000074,2 L17.4166667,7.30829376 L15.6182118,9.07772501 L13.2533705,6.76865199 L13.2533705,10.3363578 L10.75,10.3363578 L10.7502596,6.76948611 L8.38178821,9.07772501 L6.58333333,7.30829376 L12.000074,2 Z M13.2533705,11.1666667 L13.2533705,13.6666667 L10.75,13.6666667 L10.7502596,11.1671405 L13.2533705,11.1666667 Z M13.2533705,14.5 L13.2533705,17 L10.75,17 L10.7502596,14.5004738 L13.2533705,14.5 Z M2.92183386,7.86071058 L5.32463904,8.94637184 C5.27576704,9.03902189 5.23328806,9.12820117 5.19720211,9.21390967 L5.08928506,9.48076776 C4.96960444,9.78376514 4.87303785,10.0957021 4.79958529,10.4165786 C4.75061691,10.6304962 4.71192143,10.848387 4.68349885,11.0702509 L4.64856966,11.4060267 L2,11.6736575 C2.01949915,11.1142968 2.08511275,10.569571 2.19684079,10.03948 C2.30856883,9.50938913 2.46618409,8.98744474 2.66968658,8.47364688 C2.70509089,8.36847321 2.74374852,8.26318626 2.78565945,8.15778602 L2.85113626,8.00446697 L2.92183386,7.86071058 Z" fill="#000000"></path>
                    </g>
                </g>
            </g>
        </g>
    </g>
</svg>