<?xml version="1.0" encoding="UTF-8"?>
<svg width="24px" height="24px" viewBox="0 0 24 24" version="1.1" xmlns="http://www.w3.org/2000/svg" xmlns:xlink="http://www.w3.org/1999/xlink">
    <title>table_status/warning</title>
    <g id="table_status/warning" stroke="none" stroke-width="1" fill="none" fill-rule="evenodd">
        <g id="warning" fill-rule="nonzero">
            <rect id="bg" x="0" y="0" width="24" height="24"></rect>
        </g>
        <rect id="bg" fill-rule="nonzero" x="0" y="0" width="24" height="24"></rect>
        <path d="M20.3312825,21 C21.6113251,21 22.4158023,19.5939903 21.7748993,18.4691963 L13.4436696,3.84323518 C12.8035805,2.71995181 11.1975762,2.71789187 10.5563681,3.84323518 L2.22490099,18.4691963 C1.58525265,19.5918274 2.38603378,21 3.66855176,21 L20.3312825,21 Z M12.8333553,15 L11.1666448,15 C10.9478455,15 10.7672002,14.8131592 10.755298,14.5745361 L10.5006244,9.47453613 C10.4877499,9.21676025 10.6756036,9 10.9119377,9 L13.0880289,9 C13.324363,9 13.5122502,9.21676025 13.4993757,9.47453613 L13.2447021,14.5745361 C13.2327999,14.8131592 13.0521546,15 12.8333553,15 Z M12,19 C11.1715672,19 10.5,18.3284328 10.5,17.5 C10.5,16.6715672 11.1715672,16 12,16 C12.8284328,16 13.5,16.6715672 13.5,17.5 C13.5,18.3284328 12.8284328,19 12,19 Z" id="exclamation-triangle" fill="#F0AB00"></path>
    </g>
</svg>