<?xml version="1.0" encoding="UTF-8"?>
<svg width="24px" height="24px" viewBox="0 0 24 24" version="1.1" xmlns="http://www.w3.org/2000/svg" xmlns:xlink="http://www.w3.org/1999/xlink">
    <title>table_status/worker</title>
    <g id="table_status/worker" stroke="none" stroke-width="1" fill="none" fill-rule="evenodd">
        <g id="worker" fill-rule="nonzero">
            <rect id="bg" x="0" y="0" width="24" height="24"></rect>
            <path d="M12,2 C17.5228475,2 22,6.4771525 22,12 C22,17.5228475 17.5228475,22 12,22 C6.4771525,22 2,17.5228475 2,12 C2,6.4771525 6.4771525,2 12,2 Z M12,4.5 C7.85786438,4.5 4.5,7.85786438 4.5,12 C4.5,14.2250943 5.46897232,16.223873 7.00797271,17.5973919 C7.00270627,17.5134515 7,17.4282064 7,17.3423293 L7,17 C7,14.790861 8.790861,13 11,13 L11.9699466,12.9998526 C10.3269341,12.9837277 9,11.6468249 9,10 C9,8.34314575 10.3431458,7 12,7 C13.6568542,7 15,8.34314575 15,10 C15,11.5976809 13.75108,12.9036609 12.1762728,12.9949073 L12.029,12.999 L13,13 C15.209139,13 17,14.790861 17,17 L17,17.3423293 C17,17.4282064 16.9972937,17.5134515 16.9919618,17.5979839 C18.5310277,16.223873 19.5,14.2250943 19.5,12 C19.5,7.85786438 16.1421356,4.5 12,4.5 Z" fill="#000000"></path>
        </g>
    </g>
</svg>