<?xml version="1.0" encoding="UTF-8"?>
<svg width="24px" height="24px" viewBox="0 0 24 24" version="1.1" xmlns="http://www.w3.org/2000/svg" xmlns:xlink="http://www.w3.org/1999/xlink">
    <title>topology/ingress</title>
    <defs>
        <path d="M15.5,12.875 L19,15.9375 L15.5,19 L15.5,16.8125 L15.2924736,16.8080043 C13.8439829,16.7451711 12.526466,16.0275616 11.6842059,14.8981771 C12.1011256,14.4001469 12.4559613,13.8451323 12.7370868,13.2430722 L12.7269172,13.2222019 C13.1722119,14.279328 14.1820423,14.9920852 15.3272562,15.0575697 L15.5,15.0625 L15.5,12.875 Z M15.5,5 L19,8.0625 L15.5,11.125 L15.5,8.9375 C14.856087,8.9375 14.2474191,9.14243205 13.7478427,9.50017413 C13.7375391,9.50754578 13.72629,9.51571237 13.7150975,9.52395658 C13.6823745,9.54806265 13.6502651,9.57272879 13.6186572,9.59803815 C13.600409,9.61264725 13.5821116,9.62765231 13.5639897,9.64287397 C13.5346379,9.66753189 13.5059109,9.69260887 13.4776564,9.71823516 C13.4525906,9.74096703 13.4277868,9.76423776 13.4033707,9.78793591 C13.381395,9.80927179 13.3600476,9.83062993 13.3390139,9.85231816 C13.3159519,9.87610391 13.2935318,9.89999518 13.2714909,9.92426618 C13.2488891,9.94913986 13.2261066,9.97509549 13.203757,10.0014627 C13.1806185,10.0287656 13.1581166,10.056291 13.1360856,10.0842409 C13.1204682,10.1040585 13.1052871,10.1238229 13.0903412,10.1437917 C12.9458454,10.3368021 12.823188,10.5492521 12.7269172,10.7777981 L12.8105216,10.5963766 C12.7807892,10.6556385 12.7528927,10.7161324 12.7269172,10.7777981 L12.6644107,10.9389119 L12.287,11.999125 L12.286,12 L12.1896885,12.2743221 L12.0778379,12.5674016 C11.8512183,13.1224397 11.5557506,13.6361417 11.20349,14.0999989 C11.2027399,14.0992692 11.2025787,14.0989302 11.2024175,14.0985912 C11.0857256,14.2526232 10.9627489,14.4011634 10.8339308,14.5439002 L10.8822111,14.4916496 C10.8287748,14.5520256 10.7743079,14.6113899 10.7188429,14.6697194 L10.8339308,14.5439002 C10.7674397,14.6175756 10.6993923,14.6897049 10.6298496,14.7602451 L10.7188429,14.6697194 C10.6523341,14.7396631 10.5843901,14.8081192 10.5150669,14.8750481 L10.6298496,14.7602451 C10.5688027,14.8221676 10.5066036,14.8828656 10.4432934,14.9423102 L10.5150669,14.8750481 C10.4480441,14.939756 10.3797321,15.0030365 10.3101813,15.0648538 L10.4432934,14.9423102 C10.3530856,15.02701 10.2606221,15.1091649 10.1660224,15.1886912 L10.3101813,15.0648538 C10.2389922,15.1281274 10.1665053,15.1898681 10.0927747,15.2500377 L10.1660224,15.1886912 C10.1098012,15.2359541 10.0528255,15.2822885 9.99512028,15.3276769 L9.99533228,15.3280748 C8.88951182,16.1972993 7.51611252,16.7196273 6.05107898,16.7708235 L5.81318646,16.7749764 L5,16.7749764 L5,15.0249764 L5.81318646,15.0249764 C7.1805415,15.0249764 8.45257044,14.4707063 9.37488493,13.5417181 C9.37760685,13.5389768 9.38050181,13.536054 9.38339331,13.5331275 C9.50542419,13.4096617 9.62182782,13.2789507 9.73140797,13.1420209 C9.75248946,13.1156768 9.77326057,13.0891778 9.79377627,13.0624529 C9.83184148,13.0128693 9.86909023,12.9624197 9.9054295,12.9112092 C9.91675701,12.8952426 9.92770182,12.8796272 9.93856207,12.8639422 C10.0898568,12.645444 10.2247899,12.4133444 10.3412348,12.1691897 L10.3494179,12.1519474 L10.3494179,12.1519474 L10.3665776,12.1152297 C10.3840454,12.0774558 10.4010735,12.0394 10.4176542,12.0010676 L10.416,11.998 L10.4657573,11.8859646 L10.5407776,11.6881543 L11.0154997,10.3527441 L11.10958,10.1093165 C11.1391788,10.0385386 11.1703757,9.96873207 11.2031196,9.89993296 C11.2042469,9.90099795 11.2045039,9.9013366 11.2047609,9.90167527 C11.3074169,9.68507992 11.4254409,9.47846489 11.557229,9.28295737 L11.5560042,9.28236778 C11.8043163,8.91640335 12.0997869,8.58889436 12.4330697,8.30785927 L12.3512116,8.37791384 C12.4100991,8.32598273 12.470236,8.27553644 12.5315609,8.2266183 L12.4330697,8.30785927 C12.4929292,8.25738372 12.5540085,8.20840734 12.6162463,8.16097317 L12.5315609,8.2266183 C12.5999049,8.17210111 12.6697245,8.1194819 12.7409346,8.06882062 L12.6162463,8.16097317 C12.6767273,8.11487788 12.7383024,8.07023897 12.8009154,8.02709593 L12.7409346,8.06882062 C12.7977954,8.02836798 12.8555428,7.9891637 12.9141336,7.95123831 L12.8009154,8.02709593 C12.8752212,7.97589594 12.9509888,7.92680269 13.028124,7.87988222 L12.9141336,7.95123831 C12.9723204,7.91357443 13.031339,7.87717186 13.091147,7.8420605 L13.028124,7.87988222 C13.0966721,7.83818518 13.1663004,7.79820407 13.2369428,7.75998523 L13.2365943,7.76006373 C13.8585623,7.42367789 14.5587132,7.22382502 15.2924736,7.19199568 L15.5,7.1875 L15.5,5 Z M5.81318646,7.22502362 L6.05107898,7.22917646 C7.78896717,7.28990768 9.39790982,8.01360446 10.5852583,9.19370995 C10.4303257,9.46791232 10.2986053,9.75708712 10.1910443,10.0596601 L10.1910443,10.0596601 L9.85133476,11.0149598 C8.96352873,9.8104305 7.56548188,9.04501266 6.02779653,8.97958408 L5.81318646,8.97502362 L5,8.97502362 L5,7.22502362 L5.81318646,7.22502362 Z" id="path-1"></path>
        <filter x="-6.8%" y="-4.6%" width="113.6%" height="118.6%" filterUnits="objectBoundingBox" id="filter-2">
            <feOffset dx="0" dy="1" in="SourceAlpha" result="shadowOffsetOuter1"></feOffset>
            <feGaussianBlur stdDeviation="0.15" in="shadowOffsetOuter1" result="shadowBlurOuter1"></feGaussianBlur>
            <feColorMatrix values="0 0 0 0 0   0 0 0 0 0.333150001   0 0 0 0 0.827260114  0 0 0 1 0" type="matrix" in="shadowBlurOuter1"></feColorMatrix>
        </filter>
    </defs>
    <g id="Page-4:-Component" stroke="none" stroke-width="1" fill="none" fill-rule="evenodd">
        <g id="0_2_10_Form-Editor" transform="translate(-70.000000, -622.000000)">
            <g id="topology/ingress" transform="translate(70.000000, 622.000000)">
                <rect id="Rectangle-Copy-21" fill="#FFFFFF" opacity="0" x="0" y="0" width="24" height="24"></rect>
                <rect id="Rectangle" fill="#0962E6" x="2" y="2" width="20" height="20" rx="4"></rect>
                <g id="ingress">
                    <use fill="black" fill-opacity="1" filter="url(#filter-2)" xlink:href="#path-1"></use>
                    <use fill="#FFFFFF" fill-rule="evenodd" xlink:href="#path-1"></use>
                </g>
            </g>
        </g>
    </g>
</svg>