<?xml version="1.0" encoding="UTF-8"?>
<svg width="24px" height="24px" viewBox="0 0 24 24" version="1.1" xmlns="http://www.w3.org/2000/svg" xmlns:xlink="http://www.w3.org/1999/xlink">
    <title>topology/pvc</title>
    <g id="Page-4:-Component" stroke="none" stroke-width="1" fill="none" fill-rule="evenodd">
        <g id="0_1_09_Form-Editor" transform="translate(-70.000000, -610.000000)">
            <g id="topology/pvc" transform="translate(70.000000, 610.000000)">
                <rect id="Rectangle-Copy-20" fill="#FFFFFF" opacity="0" x="0" y="0" width="24" height="24"></rect>
                <g id="pvc" transform="translate(1.000000, 3.000000)" fill="#000000">
                    <path d="M22.0009951,6.7095364 L22,14.4114528 C15.141168,17.4352105 7.34724516,17.4995458 0.448622068,14.6044586 L1.24344979e-12,14.4114528 L-5.25185845e-06,6.71019262 C1.57324467,7.75300301 3.9709472,8.44101532 6.81621341,8.77138888 L7.47985739,8.84121006 C7.81547223,8.87295194 8.15664811,8.89993979 8.50280793,8.92216925 L9.20160185,8.96028238 C9.78918285,8.98675408 10.3895395,9 11,9 C11.6104605,9 12.2108171,8.98675408 12.7983982,8.96028238 L13.4971921,8.92216925 C13.8433519,8.89993979 14.1845278,8.87295194 14.5201426,8.84121006 L15.1837866,8.77138888 C18.0296496,8.44094602 20.4277611,7.75271438 22.0009951,6.7095364 Z M16.5519106,6.5221474 L15.9989811,6.61853232 C15.9052383,6.63377595 15.8107174,6.64860424 15.7154424,6.66300955 L15.1349362,6.74430474 C14.8403507,6.78235347 14.5394103,6.81645816 14.2327623,6.84641287 L13.6120479,6.90072795 C12.7747933,6.96560761 11.9000196,7 11,7 C10.0999804,7 9.22520668,6.96560761 8.38795206,6.90072795 L7.76723771,6.84641287 C7.46058972,6.81645816 7.15964934,6.78235347 6.86506379,6.74430474 L6.28455757,6.66300955 L5.72214818,6.57156302 C2.67244244,6.0399099 0.500880393,5.0618157 0.0760131397,3.9136376 L21.9240336,3.91351136 C21.5121145,5.02704539 19.4573225,5.98061757 16.5519106,6.5221474 Z" id="Combined-Shape"></path>
                    <ellipse id="Oval" cx="11" cy="3.5" rx="11" ry="3.5"></ellipse>
                </g>
            </g>
        </g>
    </g>
</svg>