<?xml version="1.0" encoding="UTF-8"?>
<svg width="20px" height="18px" viewBox="0 0 20 18" version="1.1" xmlns="http://www.w3.org/2000/svg" xmlns:xlink="http://www.w3.org/1999/xlink">
    <title>topology/pvc</title>
    <defs>
        <path d="M9.67635859,0.00179833176 L10,0 C10.7580379,0 11.496376,0.0295206326 12.2061416,0.0854564069 L12.8073078,0.139797939 C16.9635921,0.564457729 20,1.90812043 20,3.5 C20,3.65021668 19.9729619,3.79822309 19.9204961,3.94345556 L19.859956,4.08703435 L19.8223308,4.16024935 L19.8223308,4.16024935 L19.7591212,4.26703344 L19.7591212,4.26703344 L19.6366004,4.43827949 L19.6366004,4.43827949 L19.5164227,4.57829866 L19.5164227,4.57829866 C19.449547,4.65061276 19.3764046,4.72167608 19.2970944,4.79155787 L19.0603092,4.98320456 L19.0603092,4.98320456 L18.8172254,5.15263933 L18.8172254,5.15263933 L18.6576372,5.25274456 L18.6576372,5.25274456 L18.4253963,5.386023 L18.4253963,5.386023 L18.0465375,5.57848583 L18.0465375,5.57848583 L17.6110404,5.77030872 L17.6110404,5.77030872 L17.3319174,5.88009946 L17.3319174,5.88009946 C17.1781096,5.9381202 17.0183398,5.99444714 16.8532876,6.04883212 L16.5624782,6.14097858 L16.5624782,6.14097858 L16.1021763,6.2730352 L16.1021763,6.2730352 L15.7189527,6.37151531 L15.7189527,6.37151531 L15.3206505,6.46400438 L15.3206505,6.46400438 C15.1419948,6.5033691 14.9599445,6.54073095 14.7743379,6.57609495 L14.5520076,6.61719392 L14.5520076,6.61719392 L13.9710976,6.71317071 L13.9710976,6.71317071 L13.3289957,6.80137955 L13.3289957,6.80137955 L13.1295571,6.82518472 L13.1295571,6.82518472 L12.6855745,6.87234478 L12.6855745,6.87234478 L12.2061416,6.91454359 L11.9066992,6.93645361 L11.9066992,6.93645361 L11.4084652,6.96555483 L11.4084652,6.96555483 L11.0129615,6.98226528 L11.0129615,6.98226528 L10.5140486,6.99545558 L10.5140486,6.99545558 L10,7 L10,7 L9.69133744,6.99836449 L9.69133744,6.99836449 L9.18585365,6.98856785 L9.18585365,6.98856785 L8.58997512,6.96547805 L8.58997512,6.96547805 L8.22970849,6.94532593 L8.22970849,6.94532593 L7.76881269,6.91256178 L7.76881269,6.91256178 L7.19269225,6.86020206 L6.67099024,6.80137788 L6.67099024,6.80137788 L6.02881462,6.71315681 L6.02881462,6.71315681 L5.67378685,6.65641159 L5.67378685,6.65641159 L5.44788873,6.61717485 L5.44788873,6.61717485 L5.22508172,6.57598436 C5.04005553,6.54073095 4.85800516,6.5033691 4.67974671,6.4640919 L3.89080179,6.27113781 L3.89080179,6.27113781 L3.75503601,6.23376182 C3.54532943,6.1750072 3.34219709,6.11324854 3.14649211,6.04875954 L2.90310563,5.96580215 L2.90310563,5.96580215 L2.53380025,5.82843118 L2.53380025,5.82843118 L2.11375133,5.65231644 L2.11375133,5.65231644 L1.80892909,5.50826193 L1.80892909,5.50826193 L1.57445961,5.38594428 L1.57445961,5.38594428 C1.44014077,5.31259179 1.3133744,5.23733207 1.19459354,5.16032507 L0.939717743,4.98322441 L0.939717743,4.98322441 L0.825962098,4.89508293 L0.825962098,4.89508293 C0.74269755,4.82812556 0.665058545,4.75988342 0.593425393,4.69055995 L0.40879672,4.49372766 L0.40879672,4.49372766 L0.263801356,4.30206157 L0.263801356,4.30206157 L0.17298095,4.15158972 L0.17298095,4.15158972 L0.140043951,4.08703435 L0.140043951,4.08703435 C0.0480677182,3.89664844 0,3.70028891 0,3.5 C0,1.90812043 3.03640793,0.564457729 7.19269225,0.139797939 L7.79385841,0.0854564069 C8.40222889,0.0375114575 9.03159147,0.00897355098 9.67635859,0.00179833176 L9.67635859,0.00179833176 Z" id="path-1"></path>
    </defs>
    <g id="Page-4:-Component" stroke="none" stroke-width="1" fill="none" fill-rule="evenodd">
        <g id="0_1_09_Form-Editor" transform="translate(-72.000000, -518.000000)">
            <g id="topology/pvc" transform="translate(70.000000, 515.000000)">
                <rect id="Rectangle-Copy-20" fill="#FFFFFF" opacity="0" x="0" y="0" width="24" height="24"></rect>
                <g id="pvc" transform="translate(2.000000, 3.000000)">
                    <path d="M0.25,7 C1.53299704,7.85680109 3.37307024,8.45985168 5.5352045,8.7995374 L6.13374566,8.88578135 L6.74724778,8.95887653 C7.78162711,9.06972032 8.87390627,9.12559606 10.0018978,9.12559606 C11.1298893,9.12559606 12.2221685,9.06972032 13.2565478,8.95887653 L13.87005,8.88578135 L14.4685911,8.7995374 C16.6285941,8.46018651 18.4671707,7.85798971 19.75,7.00253294 L19.7490529,15.7384621 C13.7415724,18.6896889 6.69678831,18.7524809 0.645167325,15.9268382 L0.251925327,15.7384621 L0.25,7 Z" id="Shape" fill="#FBC010"></path>
                    <g id="Path">
                        <use fill="#FBC010" xlink:href="#path-1"></use>
                        <use fill-opacity="0.3" fill="#FFFFFF" xlink:href="#path-1"></use>
                    </g>
                </g>
            </g>
        </g>
    </g>
</svg>