<?xml version="1.0" encoding="UTF-8"?>
<svg width="22px" height="20px" viewBox="0 0 22 20" version="1.1" xmlns="http://www.w3.org/2000/svg" xmlns:xlink="http://www.w3.org/1999/xlink">
    <title>topology/service</title>
    <g id="Page-4:-Component" stroke="none" stroke-width="1" fill="none" fill-rule="evenodd">
        <g id="0_1_09_Form-Editor" transform="translate(-71.000000, -571.000000)">
            <g id="topology/service" transform="translate(70.000000, 569.000000)">
                <rect id="Rectangle-Copy-21" fill="#FFFFFF" opacity="0" x="0" y="0" width="24" height="24"></rect>
                <path d="M12,2 C18.0751322,2 23,6.92486775 23,13 C23,16.3356462 21.5152852,19.3245186 19.1706598,21.3418129 L18.2418633,19.483774 C19.9421459,17.8465414 21,15.5468082 21,13 C21,8.02943725 16.9705627,4 12,4 C7.02943725,4 3,8.02943725 3,13 C3,15.5468082 4.05785408,17.8465414 5.7581367,19.483774 L4.83034193,21.3426747 C2.48513774,19.3253699 1,16.3361212 1,13 C1,6.92486775 5.92486775,2 12,2 Z M12,6 C15.8659932,6 19,9.13400675 19,13 C19,14.7526024 18.3559129,16.3547703 17.2915304,17.582712 L16.287482,15.5739116 C16.7398349,14.8220241 17,13.9413945 17,13 C17,10.2385763 14.7614237,8 12,8 C9.23857625,8 7,10.2385763 7,13 C7,13.9418074 7.26039338,14.8227966 7.71311327,15.5749008 L6.70932788,17.583702 C5.64443329,16.3556314 5,14.7530734 5,13 C5,9.13400675 8.13400675,6 12,6 Z M12,10 C13.6568542,10 15,11.3431458 15,13 C15,14.6568542 13.6568542,16 12,16 C10.3431458,16 9,14.6568542 9,13 C9,11.3431458 10.3431458,10 12,10 Z" id="service" fill="#666666" fill-rule="nonzero"></path>
            </g>
        </g>
    </g>
</svg>