<?xml version="1.0" encoding="UTF-8"?>
<svg width="18px" height="18px" viewBox="0 0 18 18" version="1.1" xmlns="http://www.w3.org/2000/svg" xmlns:xlink="http://www.w3.org/1999/xlink">
    <title>lnb/filled/add</title>
    <defs>
        <filter id="filter-1">
            <feColorMatrix in="SourceGraphic" type="matrix" values="0 0 0 0 1.000000 0 0 0 0 1.000000 0 0 0 0 1.000000 0 0 0 1.000000 0"></feColorMatrix>
        </filter>
    </defs>
    <g id="lnb/filled/add" stroke="none" stroke-width="1" fill="none" fill-rule="evenodd">
        <g filter="url(#filter-1)">
            <g>
                <rect id="Rectangle" x="0" y="0" width="18" height="18"></rect>
                <path d="M9,1.5 C13.14,1.5 16.5,4.86 16.5,9 C16.5,13.14 13.14,16.5 9,16.5 C7.9605,16.5 6.98175,16.2813 6.0801525,15.9040425 L5.7825,15.7725 L0.75,17.25 L2.2275,12.2175 C1.77,11.235 1.5,10.155 1.5,9 C1.5,4.86 4.86,1.5 9,1.5 Z M9.75,6 L8.25,6 L8.25,8.25 L6,8.25 L6,9.75 L8.25,9.75 L8.25,12 L9.75,12 L9.75,9.75 L12,9.75 L12,8.25 L9.75,8.25 L9.75,6 Z" id="Shape" fill="#000000" fill-rule="nonzero"></path>
            </g>
        </g>
    </g>
</svg>