<?xml version="1.0" encoding="UTF-8"?>
<svg width="18px" height="18px" viewBox="0 0 18 18" version="1.1" xmlns="http://www.w3.org/2000/svg" xmlns:xlink="http://www.w3.org/1999/xlink">
    <title>lnb/filled/add_menu_filled</title>
    <defs>
        <filter id="filter-1">
            <feColorMatrix in="SourceGraphic" type="matrix" values="0 0 0 0 1.000000 0 0 0 0 1.000000 0 0 0 0 1.000000 0 0 0 1.000000 0"></feColorMatrix>
        </filter>
    </defs>
    <g id="lnb/filled/add_menu_filled" stroke="none" stroke-width="1" fill="none" fill-rule="evenodd">
        <g filter="url(#filter-1)" id="lnb/add_menu">
            <g>
                <polygon id="Path" points="0 0 18 0 18 18 0 18"></polygon>
                <path d="M2.25,2.25 L8.25,2.25 L8.25,8.25 L2.25,8.25 L2.25,2.25 Z M9.75,2.25 L15.75,2.25 L15.75,8.25 L9.75,8.25 L9.75,2.25 Z M2.25,9.75 L8.25,9.75 L8.25,15.75 L2.25,15.75 L2.25,9.75 Z M13.5,9.75 L12,9.75 L12,12 L9.75,12 L9.75,13.5 L12,13.5 L12,15.75 L13.5,15.75 L13.5,13.5 L15.75,13.5 L15.75,12 L13.5,12 L13.5,9.75 Z" id="Shape" fill="#000000" fill-rule="nonzero"></path>
            </g>
        </g>
    </g>
</svg>