<?xml version="1.0" encoding="UTF-8"?>
<svg width="18px" height="18px" viewBox="0 0 18 18" version="1.1" xmlns="http://www.w3.org/2000/svg" xmlns:xlink="http://www.w3.org/1999/xlink">
    <title>lnb/filled/ai_devops</title>
    <defs>
        <filter id="filter-1">
            <feColorMatrix in="SourceGraphic" type="matrix" values="0 0 0 0 1.000000 0 0 0 0 1.000000 0 0 0 0 1.000000 0 0 0 1.000000 0"></feColorMatrix>
        </filter>
    </defs>
    <g id="lnb/filled/ai_devops" stroke="none" stroke-width="1" fill="none" fill-rule="evenodd">
        <g filter="url(#filter-1)">
            <g>
                <rect id="Rectangle" x="0" y="0" width="18" height="18"></rect>
                <g id="Group" transform="translate(2.000000, 1.000000)" fill="#000000" fill-rule="nonzero">
                    <path d="M7.71428571,3.94351218e-13 C7.83428571,3.94351218e-13 7.94571429,3.94351218e-13 8.06571429,0.00857142857 C10.8942857,0.171428571 13.2942857,2.39142857 13.6628571,5.19428571 C14.0033036,7.83482143 12.6223158,10.1938142 10.4939824,11.312761 L10.2857143,11.4171429 L10.2857143,15.4285714 L4.28571429,15.4285714 L4.28571429,12.8571429 L3.42857143,12.8571429 C2.53533835,12.8571429 1.79596359,12.1647804 1.720609,11.2902172 L1.71428571,11.1428571 L1.71428571,9.42857143 L0.857142857,9.42857143 C0.225714286,9.42857143 -0.176349206,8.7710582 0.0769767784,8.22143151 L1.78285714,5.14285714 C2.20285714,2.23714286 4.68857143,3.94351218e-13 7.71428571,3.94351218e-13 Z M8.4,2.57142857 L7.02857143,2.57142857 C6.96,2.57142857 6.9024,2.60982857 6.87332571,2.66907429 L6.85714286,2.71714286 L6.72857143,3.62571429 C6.57428571,3.69 6.42482143,3.77357143 6.28741071,3.86558036 L6.15713088,3.958 L5.30571429,3.61714286 L5.25798857,3.60788571 L5.29714286,3.61714286 C5.23542857,3.59657143 5.16822857,3.60891429 5.12187429,3.65417143 L5.09142857,3.69428571 L4.40571429,4.87714286 C4.37142857,4.94571429 4.37554286,5.01428571 4.41366857,5.06530286 L4.44857143,5.1 L5.17714286,5.66571429 C5.16,5.76857143 5.14285714,5.88857143 5.14285714,6 L5.14821429,6.16714286 L5.16,6.33428571 L4.44,6.9 C4.38514286,6.94114286 4.3632,7.00971429 4.37856,7.07060571 L4.39714286,7.11428571 L5.08285714,8.30571429 C5.11714286,8.36742857 5.18434286,8.39622857 5.24934857,8.39211429 C5.27142857,8.39108571 5.28857143,8.388 5.30571429,8.38285714 L6.14813088,8.042 L6.28258929,8.13803571 C6.37526786,8.20017857 6.47116071,8.25589286 6.57241071,8.30517857 L6.72857143,8.37428571 L6.85714286,9.28285714 C6.87085714,9.35142857 6.91748571,9.40354286 6.97947429,9.42164571 L7.02857143,9.42857143 L8.4,9.42857143 C8.46857143,9.42857143 8.53165714,9.39017143 8.55853714,9.33092571 L8.57142857,9.28285714 L8.70857143,8.37428571 C8.84571429,8.31714286 8.9752381,8.24857143 9.09968254,8.16857143 L9.28013088,8.041 L10.1228571,8.38285714 C10.1764511,8.40667669 10.2383193,8.3973996 10.2825939,8.36364843 L10.3058743,8.34582857 L10.3371429,8.30571429 L11.0228571,7.11428571 C11.0571429,7.05257143 11.0530286,6.98537143 11.0149029,6.93462857 L10.98,6.9 L10.2685714,6.33428571 C10.2771429,6.22285714 10.2857143,6.11142857 10.2857143,6 C10.2857143,5.92 10.2819048,5.84380952 10.2742857,5.77142857 L10.26,5.66571429 L10.9885714,5.1 C11.0571429,5.04857143 11.0742857,4.95428571 11.0314286,4.87714286 L10.3457143,3.69428571 C10.32,3.648 10.2757714,3.62022857 10.22784,3.61097143 L10.1791543,3.60788571 L10.1314286,3.61714286 L9.27428571,3.96 C9.09428571,3.82285714 8.90571429,3.71142857 8.7,3.62571429 L8.57142857,2.71714286 C8.55428571,2.63142857 8.48571429,2.57142857 8.4,2.57142857 Z M7.71428571,4.77428571 C8.39142857,4.77428571 8.94,5.32285714 8.94,6 C8.94,6.67714286 8.39142857,7.22571429 7.71428571,7.22571429 C7.03714286,7.22571429 6.48857143,6.67714286 6.48857143,6 C6.48857143,5.32285714 7.03714286,4.77428571 7.71428571,4.77428571 Z" id="Shape"></path>
                </g>
            </g>
        </g>
    </g>
</svg>