<?xml version="1.0" encoding="UTF-8"?>
<svg width="18px" height="18px" viewBox="0 0 18 18" version="1.1" xmlns="http://www.w3.org/2000/svg" xmlns:xlink="http://www.w3.org/1999/xlink">
    <title>lnb/filled/ansible</title>
    <defs>
        <filter id="filter-1">
            <feColorMatrix in="SourceGraphic" type="matrix" values="0 0 0 0 1.000000 0 0 0 0 1.000000 0 0 0 0 1.000000 0 0 0 1.000000 0"></feColorMatrix>
        </filter>
    </defs>
    <g id="lnb/filled/ansible" stroke="none" stroke-width="1" fill="none" fill-rule="evenodd">
        <g filter="url(#filter-1)">
            <g>
                <rect id="Rectangle" x="0" y="0" width="18" height="18"></rect>
                <path d="M9,1.5 C13.1421356,1.5 16.5,4.85786438 16.5,9 C16.5,13.1421356 13.1421356,16.5 9,16.5 C4.85786438,16.5 1.5,13.1421356 1.5,9 C1.5,7.88793342 1.74203384,6.83239688 2.1762981,5.8831938 C2.65603491,6.41601308 3.35113928,6.75 4.125,6.75 C5.57592712,6.75 6.75,5.57592712 6.75,4.125 C6.75,3.35113928 6.41601308,2.65603491 5.88416799,2.17581566 C6.83239688,1.74203384 7.88793342,1.5 9,1.5 Z M9.54,5.625 L8.4675,5.625 L6.21,11.625 L7.245,11.625 L7.7925,10.095 L10.215,10.095 L10.755,11.625 L11.7975,11.625 L9.54,5.625 Z M9.0225,6.7425 L9.8925,9.225 L8.1,9.225 L8.97,6.7425 L9.0225,6.7425 Z M4.125,3 C4.208,3 4.28886667,3.00893333 4.36669333,3.02589333 L4.43962501,3.04527728 C4.51609343,3.06689829 4.5844245,3.09477011 4.64902357,3.12873891 C4.65647981,3.13322174 4.66412431,3.1373427 4.67171454,3.14154911 C4.69242207,3.15251415 4.71261992,3.16458889 4.73239258,3.17726597 C4.74743157,3.18733923 4.76262066,3.19758243 4.77753809,3.20818169 C4.79641475,3.22123678 4.81419449,3.23472884 4.83154787,3.24872705 L4.84469722,3.25977578 L4.84469722,3.25977578 L4.87922667,3.28942667 L4.92351836,3.3318863 C4.93223989,3.3406555 4.94081706,3.34956855 4.94924606,3.35862164 C4.9674438,3.37796639 4.9851321,3.39839478 5.00207612,3.41944896 C5.00993537,3.42936772 5.0175682,3.43917511 5.02503979,3.4491112 C5.03973323,3.46851635 5.05394993,3.48877959 5.06749988,3.50952015 C5.0758618,3.52241796 5.08392638,3.53532248 5.09173277,3.54840015 C5.10223754,3.56592325 5.11225266,3.58380176 5.12178552,3.60197496 L5.1472665,3.65380008 L5.1472665,3.65380008 C5.15369656,3.66771423 5.15988283,3.68191207 5.16578148,3.69625988 C5.1752237,3.71924867 5.18397835,3.7427321 5.19195766,3.7665751 C5.20998535,3.82049052 5.22398045,3.87588378 5.23372456,3.93275119 L5.24300984,3.99853423 L5.24300984,3.99853423 C5.24776667,4.04253333 5.25,4.0835 5.25,4.125 C5.25,4.706 4.81226667,5.18246667 4.24778667,5.24341333 L4.125,5.25 C4.0643606,5.25 4.00485991,5.24523166 3.9468515,5.23604856 C3.88495642,5.22624341 3.82487262,5.21144999 3.76690877,5.19207662 C3.7461437,5.18512879 3.72598779,5.17772822 3.70611382,5.16977792 C3.68847083,5.16272204 3.67095319,5.15518834 3.6536735,5.1472298 L3.60196032,5.12177784 L3.60196032,5.12177784 C3.58380176,5.11225266 3.56592325,5.10223754 3.54835632,5.09175701 C3.53525971,5.08394324 3.52235031,5.07587997 3.50962068,5.06756555 C3.48877959,5.05394993 3.46851635,5.03973323 3.44876058,5.02487993 C3.43906812,5.01759693 3.42925508,5.00996562 3.41957429,5.00217697 C3.39839478,4.9851321 3.37796639,4.9674438 3.35820328,4.94905074 C3.34701559,4.93864518 3.33579417,4.92776461 3.32480332,4.91665546 C3.31016999,4.90185542 3.29618076,4.88691528 3.28260399,4.87160063 C3.26653779,4.85348918 3.25083563,4.83457948 3.23575683,4.81516018 C3.22700643,4.80389959 3.2182244,4.79213088 3.20967069,4.78018688 C3.19636493,4.76158622 3.18394038,4.74308224 3.172062,4.72419814 C3.16329168,4.71025714 3.15478418,4.6960477 3.14658585,4.68163823 C3.13439213,4.66022778 3.1226726,4.63794492 3.11169354,4.61523393 C3.10396334,4.59922388 3.09681549,4.5835039 3.09002329,4.5675941 C3.08402552,4.5535462 3.07829418,4.53932173 3.0728481,4.52495554 L3.04883474,4.45463896 L3.04883474,4.45463896 C3.04742596,4.45002373 3.04591499,4.44494445 3.04443897,4.43985014 C3.01540181,4.33928717 3,4.23398261 3,4.125 C3,3.5025 3.5025,3 4.125,3 Z" id="Combined-Shape" fill="#D8D8D8"></path>
            </g>
        </g>
    </g>
</svg>