<?xml version="1.0" encoding="UTF-8"?>
<svg width="18px" height="18px" viewBox="0 0 18 18" version="1.1" xmlns="http://www.w3.org/2000/svg" xmlns:xlink="http://www.w3.org/1999/xlink">
    <title>lnb/filled/ansible_lnb</title>
    <defs>
        <filter id="filter-1">
            <feColorMatrix in="SourceGraphic" type="matrix" values="0 0 0 0 1.000000 0 0 0 0 1.000000 0 0 0 0 1.000000 0 0 0 1.000000 0"></feColorMatrix>
        </filter>
    </defs>
    <g id="lnb/filled/ansible_lnb" stroke="none" stroke-width="1" fill="none" fill-rule="evenodd">
        <g filter="url(#filter-1)" id="lnb/filled/ansible">
            <g>
                <rect id="Rectangle" x="0" y="0" width="18" height="18"></rect>
                <path d="M9,1.5 C7.9640625,1.5 6.9890625,1.696875 6.0796875,2.0859375 C5.1703125,2.475 4.36875,3.009375 3.6890625,3.6890625 C3.009375,4.36875 2.475,5.165625 2.0859375,6.0796875 C1.696875,6.99375 1.5,7.9640625 1.5,9 C1.5,10.0359375 1.696875,11.0109375 2.0859375,11.9203125 C2.475,12.8296875 3.009375,13.63125 3.6890625,14.30625 C4.36875,14.9859375 5.165625,15.5203125 6.075,15.909375 C6.984375,16.2984375 7.9640625,16.5 9,16.5 C10.0359375,16.5 11.0109375,16.303125 11.9203125,15.9140625 C12.8296875,15.525 13.63125,14.990625 14.30625,14.3109375 C14.9859375,13.63125 15.5203125,12.834375 15.909375,11.925 C16.2984375,11.015625 16.5,10.0359375 16.5,9 C16.5,7.9640625 16.303125,6.9890625 15.9140625,6.0796875 C15.525,5.1703125 14.990625,4.36875 14.3109375,3.69375 C13.63125,3.0140625 12.834375,2.4796875 11.925,2.090625 C11.015625,1.7015625 10.0359375,1.5 9,1.5 C9,1.5 9,1.5 9,1.5 Z M12.075,12.7359375 C12.0046875,12.7359375 11.9390625,12.721875 11.878125,12.69375 C11.8171875,12.665625 11.7421875,12.6140625 11.6671875,12.5484375 L7.8,9.4265625 L6.496875,12.6796875 L5.38125,12.6796875 L8.6484375,4.8 C8.6953125,4.6921875 8.7609375,4.6125 8.8453125,4.55625 C8.9296875,4.5046875 9.0234375,4.4765625 9.13125,4.4765625 C9.2296875,4.4765625 9.31875,4.5046875 9.403125,4.55625 C9.4875,4.6078125 9.5484375,4.6921875 9.5859375,4.8 L12.5765625,11.9765625 C12.5953125,12.0234375 12.609375,12.0703125 12.6140625,12.1078125 C12.61875,12.1453125 12.6234375,12.178125 12.6234375,12.196875 C12.6234375,12.3515625 12.571875,12.4828125 12.4640625,12.5859375 C12.35625,12.6890625 12.225,12.7359375 12.075,12.7359375 C12.075,12.7359375 12.075,12.7359375 12.075,12.7359375 Z M8.1375,8.559375 L11.0671875,10.875 L9.13125,6.084375 L8.1375,8.559375 Z" id="Shape" fill="#000000" fill-rule="nonzero"></path>
            </g>
        </g>
    </g>
</svg>