<?xml version="1.0" encoding="UTF-8"?>
<svg width="18px" height="18px" viewBox="0 0 18 18" version="1.1" xmlns="http://www.w3.org/2000/svg" xmlns:xlink="http://www.w3.org/1999/xlink">
    <title>lnb/filled/app</title>
    <g id="lnb/filled/app" stroke="none" stroke-width="1" fill="none" fill-rule="evenodd">
        <g>
            <rect id="Rectangle" x="0" y="0" width="18" height="18"></rect>
            <path d="M15.4230769,10 C16.0178451,10 16.5,10.4821549 16.5,11.0769231 L16.5,15.9230769 C16.5,16.5178451 16.0178451,17 15.4230769,17 L10.5769231,17 C9.98215488,17 9.5,16.5178451 9.5,15.9230769 L9.5,11.0769231 C9.5,10.4821549 9.98215488,10 10.5769231,10 L15.4230769,10 Z M5,10 C6.93299662,10 8.5,11.5670034 8.5,13.5 C8.5,15.4329966 6.93299662,17 5,17 C3.06700338,17 1.5,15.4329966 1.5,13.5 C1.5,11.5670034 3.06700338,10 5,10 Z M14.8846154,11.6153846 L11.1153846,11.6153846 L11.1153846,15.3846154 L14.8846154,15.3846154 L14.8846154,11.6153846 Z M5,11.5 C3.8954305,11.5 3,12.3954305 3,13.5 C3,14.6045695 3.8954305,15.5 5,15.5 C6.1045695,15.5 7,14.6045695 7,13.5 C7,12.3954305 6.1045695,11.5 5,11.5 Z M7.42307692,1 C8.01784512,1 8.5,1.48215488 8.5,2.07692308 L8.5,6.92307692 C8.5,7.51784512 8.01784512,8 7.42307692,8 L2.57692308,8 C1.98215488,8 1.5,7.51784512 1.5,6.92307692 L1.5,2.07692308 C1.5,1.48215488 1.98215488,1 2.57692308,1 L7.42307692,1 Z M15.4230769,1 C16.0178451,1 16.5,1.48215488 16.5,2.07692308 L16.5,6.92307692 C16.5,7.51784512 16.0178451,8 15.4230769,8 L10.5769231,8 C9.98215488,8 9.5,7.51784512 9.5,6.92307692 L9.5,2.07692308 C9.5,1.48215488 9.98215488,1 10.5769231,1 L15.4230769,1 Z M6.88461538,2.61538462 L3.11538462,2.61538462 L3.11538462,6.38461538 L6.88461538,6.38461538 L6.88461538,2.61538462 Z M14.8846154,2.61538462 L11.1153846,2.61538462 L11.1153846,6.38461538 L14.8846154,6.38461538 L14.8846154,2.61538462 Z" id="Shape" fill="#FFFFFF" fill-rule="nonzero"></path>
        </g>
    </g>
</svg>