<?xml version="1.0" encoding="UTF-8"?>
<svg width="18px" height="18px" viewBox="0 0 18 18" version="1.1" xmlns="http://www.w3.org/2000/svg" xmlns:xlink="http://www.w3.org/1999/xlink">
    <title>lnb/filled/authentication_authorization</title>
    <defs>
        <filter id="filter-1">
            <feColorMatrix in="SourceGraphic" type="matrix" values="0 0 0 0 1.000000 0 0 0 0 1.000000 0 0 0 0 1.000000 0 0 0 1.000000 0"></feColorMatrix>
        </filter>
    </defs>
    <g id="lnb/filled/authentication_authorization" stroke="none" stroke-width="1" fill="none" fill-rule="evenodd">
        <g filter="url(#filter-1)">
            <g>
                <rect id="Rectangle" x="0" y="0" width="18" height="18"></rect>
                <g id="Group" transform="translate(1.500000, 2.250000)" fill="#000000" fill-rule="nonzero">
                    <path d="M13.5,0 C14.2764706,0 14.9200692,0.597923875 14.9930999,1.35607572 L15,1.5 L15,12 C15,12.7764706 14.4020761,13.4200692 13.6439243,13.4930999 L13.5,13.5 L1.5,13.5 C0.723529412,13.5 0.0799307958,12.9020761 0.00690006106,12.1439243 L0,12 L0,1.5 C0,0.723529412 0.597923875,0.0799307958 1.35607572,0.00690006106 L1.5,0 L13.5,0 Z M6,9 L2.25,9 L2.25,10.5 L6,10.5 L6,9 Z M11.9925,4.5 L9.615,6.876 L8.5575,5.8125 L7.5,6.87 L9.615,9 L9.615,8.999 L9.615,9 L13.0575,5.565 L11.9925,4.5 Z M6,6 L2.25,6 L2.25,7.5 L6,7.5 L6,6 Z M6,3 L2.25,3 L2.25,4.5 L6,4.5 L6,3 Z" id="Combined-Shape"></path>
                </g>
            </g>
        </g>
    </g>
</svg>