<?xml version="1.0" encoding="UTF-8"?>
<svg width="18px" height="18px" viewBox="0 0 18 18" version="1.1" xmlns="http://www.w3.org/2000/svg" xmlns:xlink="http://www.w3.org/1999/xlink">
    <title>lnb/filled/cluster</title>
    <defs>
        <filter id="filter-1">
            <feColorMatrix in="SourceGraphic" type="matrix" values="0 0 0 0 1.000000 0 0 0 0 1.000000 0 0 0 0 1.000000 0 0 0 1.000000 0"></feColorMatrix>
        </filter>
    </defs>
    <g id="lnb/filled/cluster" stroke="none" stroke-width="1" fill="none" fill-rule="evenodd">
        <g filter="url(#filter-1)">
            <g>
                <polygon id="Path" points="0 0 18 0 18 18 0 18"></polygon>
                <path d="M9,1.5 C4.86,1.5 1.5,4.86 1.5,9 C1.5,13.14 4.86,16.5 9,16.5 C13.14,16.5 16.5,13.14 16.5,9 C16.5,4.86 13.14,1.5 9,1.5 Z M6,13.125 C4.965,13.125 4.125,12.285 4.125,11.25 C4.125,10.215 4.965,9.375 6,9.375 C7.035,9.375 7.875,10.215 7.875,11.25 C7.875,12.285 7.035,13.125 6,13.125 Z M7.125,6 C7.125,4.965 7.965,4.125 9,4.125 C10.035,4.125 10.875,4.965 10.875,6 C10.875,7.035 10.035,7.875 9,7.875 C7.965,7.875 7.125,7.035 7.125,6 Z M12,13.125 C10.965,13.125 10.125,12.285 10.125,11.25 C10.125,10.215 10.965,9.375 12,9.375 C13.035,9.375 13.875,10.215 13.875,11.25 C13.875,12.285 13.035,13.125 12,13.125 Z" id="Shape" fill="#000000" fill-rule="nonzero"></path>
            </g>
        </g>
    </g>
</svg>