<?xml version="1.0" encoding="UTF-8"?>
<svg width="18px" height="18px" viewBox="0 0 18 18" version="1.1" xmlns="http://www.w3.org/2000/svg" xmlns:xlink="http://www.w3.org/1999/xlink">
    <title>lnb/filled/developer</title>
    <defs>
        <filter id="filter-1">
            <feColorMatrix in="SourceGraphic" type="matrix" values="0 0 0 0 1.000000 0 0 0 0 1.000000 0 0 0 0 1.000000 0 0 0 1.000000 0"></feColorMatrix>
        </filter>
    </defs>
    <g id="lnb/filled/developer" stroke="none" stroke-width="1" fill="none" fill-rule="evenodd">
        <g filter="url(#filter-1)">
            <g>
                <polygon id="Path" points="0 0 18 0 18 18 0 18"></polygon>
                <g id="developer" transform="translate(2.000000, 2.000000)" fill="#000000" fill-rule="nonzero">
                    <path d="M11.3333333,6 C11.8894444,6 12.3511852,6.441 12.410279,7.00286667 L12.4166667,7.125 L12.4170539,8.20302382 C13.2887285,8.66397556 13.9115576,9.2521618 13.9913256,9.96691574 L14,10.1233525 L14,12.5 L12.416,12.499 L12.4166667,12.75 C12.4166667,13.3275 11.992,13.807 11.4509432,13.8683667 L11.3333333,13.875 L13.5,13.875 L13.5,15 L0.5,15 L0.5,13.875 L2.66666667,13.875 C2.11055556,13.875 1.64881481,13.434 1.58972099,12.8721333 L1.58333333,12.75 L1.583,12.499 L0,12.5 L0,10.1233525 C0,9.33762135 0.648384881,8.69727369 1.58274374,8.20313085 L1.58333333,7.125 C1.58333333,6.5475 2.008,6.068 2.54905679,6.00663333 L2.66666667,6 L11.3333333,6 Z M5.654,8 L3.5,10 L5.654,12 L6.5,11.2089136 L5.198,10 L6.5,8.79108635 L5.654,8 Z M8.346,8 L7.5,8.79108635 L8.802,10 L7.5,11.2089136 L8.346,12 L10.5,10 L8.346,8 Z M7,0 C8.6575,0 10,1.3425 10,3 C10,4.6575 8.6575,6 7,6 C5.3425,6 4,4.6575 4,3 C4,1.3425 5.3425,0 7,0 Z" id="Combined-Shape"></path>
                </g>
            </g>
        </g>
    </g>
</svg>