<?xml version="1.0" encoding="UTF-8"?>
<svg width="18px" height="18px" viewBox="0 0 18 18" version="1.1" xmlns="http://www.w3.org/2000/svg" xmlns:xlink="http://www.w3.org/1999/xlink">
    <title>lnb/filled/ferderation</title>
    <defs>
        <filter id="filter-1">
            <feColorMatrix in="SourceGraphic" type="matrix" values="0 0 0 0 1.000000 0 0 0 0 1.000000 0 0 0 0 1.000000 0 0 0 1.000000 0"></feColorMatrix>
        </filter>
    </defs>
    <g id="lnb/filled/ferderation" stroke="none" stroke-width="1" fill="none" fill-rule="evenodd">
        <g filter="url(#filter-1)">
            <g>
                <polygon id="Path" points="0 0 18 0 18 18 0 18"></polygon>
                <path d="M15.75,2.25 C16.5264706,2.25 17.1700692,2.84792388 17.2430999,3.60607572 L17.25,3.75 L17.25,12.75 C17.25,13.5264706 16.6520761,14.1700692 15.8939243,14.2430999 L15.75,14.25 L12,14.25 L12,15.75 L6,15.75 L6,14.25 L2.25,14.25 C1.47352941,14.25 0.829930796,13.6520761 0.756900061,12.8939243 L0.75,12.75 L0.75,3.75 C0.75,2.97352941 1.34792388,2.3299308 2.10607572,2.25690006 L2.25,2.25 L15.75,2.25 Z M5.25,9 L3.75,9 L3.75,10.5 L5.25,10.5 L5.25,9 Z M7.5,9 L6,9 L6,10.5 L7.5,10.5 L7.5,9 Z M9.75,9 L8.25,9 L8.25,10.5 L9.75,10.5 L9.75,9 Z M12,9 L10.5,9 L10.5,10.5 L12,10.5 L12,9 Z M14.25,9 L12.75,9 L12.75,10.5 L14.25,10.5 L14.25,9 Z M5.25,6 L3.75,6 L3.75,7.5 L5.25,7.5 L5.25,6 Z M7.5,6 L6,6 L6,7.5 L7.5,7.5 L7.5,6 Z M9.75,6 L8.25,6 L8.25,7.5 L9.75,7.5 L9.75,6 Z M12,6 L10.5,6 L10.5,7.5 L12,7.5 L12,6 Z M14.25,6 L12.75,6 L12.75,7.5 L14.25,7.5 L14.25,6 Z" id="Combined-Shape" fill="#000000" fill-rule="nonzero"></path>
            </g>
        </g>
    </g>
</svg>