<?xml version="1.0" encoding="UTF-8"?>
<svg width="18px" height="18px" viewBox="0 0 18 18" version="1.1" xmlns="http://www.w3.org/2000/svg" xmlns:xlink="http://www.w3.org/1999/xlink">
    <title>lnb/filled/helm</title>
    <defs>
        <filter id="filter-1">
            <feColorMatrix in="SourceGraphic" type="matrix" values="0 0 0 0 1.000000 0 0 0 0 1.000000 0 0 0 0 1.000000 0 0 0 1.000000 0"></feColorMatrix>
        </filter>
    </defs>
    <g id="lnb/filled/helm" stroke="none" stroke-width="1" fill="none" fill-rule="evenodd">
        <g filter="url(#filter-1)">
            <g>
                <polygon id="Path" points="0 0 18 0 18 18 0 18"></polygon>
                <path d="M13.5,2.25 C13.8084375,2.25 14.0824219,2.37058594 14.2817578,2.5715625 L14.3625,2.6625 L15.405,3.9225 C15.5914286,4.14107143 15.7117347,4.4202551 15.7423032,4.72226676 L15.75,4.875 L15.75,14.25 C15.75,15.0264706 15.1520761,15.6700692 14.3939243,15.7430999 L14.25,15.75 L3.75,15.75 C2.97352941,15.75 2.3299308,15.1520761 2.25690006,14.3939243 L2.25,14.25 L2.25,4.875 C2.25,4.56642857 2.34367347,4.27438776 2.50740525,4.03666181 L2.595,3.9225 L3.63,2.6625 C3.81375,2.439375 4.07214844,2.29089844 4.37002441,2.25726563 L4.5,2.25 L13.5,2.25 Z M6.75,9.75 L5.25,9.75 L5.25,12.75 L6.75,12.75 L6.75,9.75 Z M12.75,7.5 L11.25,7.5 L11.25,12.75 L12.75,12.75 L12.75,7.5 Z M9.75,10.5 L8.25,10.5 L8.25,12.75 L9.75,12.75 L9.75,10.5 Z M9.75,7.5 L8.25,7.5 L8.25,9 L9.75,9 L9.75,7.5 Z M13.32,3.75 L4.68,3.75 L4.08,4.4775 L13.9275,4.4775 L13.32,3.75 Z" id="Combined-Shape" fill="#000000" fill-rule="nonzero"></path>
            </g>
        </g>
    </g>
</svg>