<?xml version="1.0" encoding="UTF-8"?>
<svg width="18px" height="18px" viewBox="0 0 18 18" version="1.1" xmlns="http://www.w3.org/2000/svg" xmlns:xlink="http://www.w3.org/1999/xlink">
    <title>lnb/filled/helm_lnb</title>
    <defs>
        <filter id="filter-1">
            <feColorMatrix in="SourceGraphic" type="matrix" values="0 0 0 0 1.000000 0 0 0 0 1.000000 0 0 0 0 1.000000 0 0 0 1.000000 0"></feColorMatrix>
        </filter>
    </defs>
    <g id="lnb/filled/helm_lnb" stroke="none" stroke-width="1" fill="none" fill-rule="evenodd">
        <g filter="url(#filter-1)" id="lnb/filled/helm">
            <g>
                <polygon id="Path" points="0 0 18 0 18 18 0 18"></polygon>
                <path d="M13.6483991,11.2151023 L14.5381783,11.7571389 L14.5875276,11.9603487 L14.5516963,12.0198987 C14.2946416,12.442234 13.9942827,12.8329745 13.6562452,13.186152 L13.5167926,13.3233186 C13.6634109,13.4464412 13.807517,13.5920047 13.9455901,13.7555141 L14.081522,13.924839 L14.2125479,14.1050634 C14.7998737,14.9539882 15.0202666,15.8349508 14.6276849,16.1131615 C14.2351031,16.3913722 13.4925327,15.8804608 12.9052069,15.0315361 C12.761791,14.8242418 12.6388459,14.6117391 12.5414601,14.405196 L12.445455,14.1822845 L12.3293484,14.2584169 C11.6818973,14.6566417 10.972234,14.9396089 10.229224,15.0944865 L9.90883373,15.152983 L9.75155623,15.1730962 L9.76010701,15.2033837 C9.79047703,15.3398857 9.81380828,15.4862172 9.82954703,15.6390935 L9.84739155,15.8729059 L9.85343202,16.114072 C9.85343202,17.1504178 9.53470146,18 9.05544767,18 C8.57619384,18 8.25746332,17.1504178 8.25746332,16.114072 C8.25746332,15.8776982 8.27466116,15.6478869 8.30736262,15.4344639 L8.34967891,15.2055657 L8.1997521,15.1945326 C7.44283747,15.1158787 6.7094723,14.9055697 6.02825895,14.5751645 L5.73958673,14.4262431 L5.60231046,14.3456159 L5.5801826,14.3973117 C5.53669235,14.4901995 5.48795869,14.5843556 5.43448868,14.6787252 L5.35079477,14.820308 L5.21276478,15.0315526 C4.62543902,15.8804774 3.88286854,16.3913888 3.49028681,16.1131781 C3.09770507,15.8349674 3.31809801,14.9540048 3.90542377,14.10508 C4.0545547,13.8895251 4.21661334,13.6928686 4.3821895,13.5248472 L4.42889442,13.4787786 L4.31264885,13.3733056 C4.15802802,13.2249346 4.01022874,13.0684862 3.86964075,12.9043236 L3.66421593,12.6523393 L3.46990034,12.3890559 L3.29195589,12.1221121 L3.33421853,11.9152703 L4.20886423,11.3485651 L4.40991024,11.3926706 L4.43979564,11.4394055 C5.42698786,12.9663226 7.09003621,13.8860262 8.89006475,13.8860262 C10.6798686,13.8860262 12.331241,12.976297 13.3178845,11.47395 L13.4482571,11.2654411 L13.6483991,11.2151023 Z M13.699984,6.77944262 L13.7979875,6.81774185 L15.2953129,8.19313743 L16.7883254,6.8179036 L16.8865047,6.77944262 L17.3506624,6.77944262 L17.4964887,6.92703126 L17.4964887,10.8817061 L17.3506624,11.0292948 L16.3180419,11.0292948 L16.1722155,10.8817061 L16.1722153,9.18591702 L15.3941365,9.90451931 L15.198142,9.90504701 L14.4135495,9.18788487 L14.4142732,10.8817061 L14.2684468,11.0292948 L13.2358264,11.0292948 L13.09,10.8817061 L13.09,6.92703126 L13.2358264,6.77944262 L13.699984,6.77944262 Z M1.67323153,6.77944262 L1.81905789,6.92703126 L1.81900501,8.18723388 L2.76784847,8.18723388 L2.76863581,6.92703126 L2.91446216,6.77944262 L3.94186735,6.77944262 L4.0876937,6.92703126 L4.0876937,10.8817061 L3.94186735,11.0292948 L2.91446216,11.0292948 L2.76863581,10.8817061 L2.76784847,9.52045127 L1.81900501,9.52045127 L1.81905789,10.8817061 L1.67323153,11.0292948 L0.645826351,11.0292948 L0.5,10.8817061 L0.5,6.92703126 L0.645826351,6.77944262 L1.67323153,6.77944262 Z M7.86382905,6.77944262 L8.0096554,6.92703126 L8.0096554,7.78651392 L7.86382905,7.93410256 L6.60596289,7.93338142 L6.60596289,8.28169061 L7.70215616,8.28221907 L7.84798252,8.42980771 L7.84798252,9.30510906 L7.70215616,9.4526977 L6.60596289,9.4525605 L6.60596289,9.88450325 L7.86382905,9.8851806 L8.0096554,10.0327692 L8.0096554,10.8817061 L7.86382905,11.0292948 L5.43352035,11.0292948 L5.287694,10.8817061 L5.287694,6.92703126 L5.43352035,6.77944262 L7.86382905,6.77944262 Z M10.3828866,6.77944262 L10.5287129,6.92703126 L10.528311,9.68968625 L11.7910053,9.69008332 L11.9368317,9.83767196 L11.9368317,10.8817061 L11.7910053,11.0292948 L9.35548135,11.0292948 L9.209655,10.8817061 L9.209655,6.92703126 L9.35548135,6.77944262 L10.3828866,6.77944262 Z M9.05544767,0 C9.53470146,0 9.85343202,0.849582236 9.85343202,1.88592797 C9.85343202,2.12222478 9.83626469,2.35219615 9.80342562,2.56620646 L9.79335979,2.61822249 L9.9645163,2.6419329 C10.7197927,2.7663362 11.4451227,3.0228012 12.1107186,3.39773787 L12.3922299,3.56563876 L12.517396,3.64839121 L12.5355963,3.60772856 C12.5791111,3.51425426 12.6280181,3.41941322 12.6817889,3.32429613 L12.7660271,3.18154981 L12.9051969,2.96844337 C13.4925227,2.1195186 14.2350932,1.60860724 14.6276749,1.88681793 C15.0202566,2.1650286 14.7998637,3.04599128 14.2125379,3.894916 C14.0396371,4.14482816 13.849433,4.36920752 13.6568024,4.55286196 L13.629565,4.5762318 L13.7506611,4.70077055 C13.900372,4.86313262 14.0423397,5.03343183 14.1760742,5.21110683 L14.3704398,5.483081 L14.5875276,5.82460051 L14.5381783,6.02781036 L13.6483991,6.5698469 L13.4482571,6.51950816 C12.4810798,4.89323451 10.7612233,3.89892307 8.89006475,3.89892307 C7.16829829,3.89892307 5.57185968,4.74039091 4.57269554,6.14930991 L4.40991024,6.39227862 L4.20886423,6.43638409 L3.33421853,5.8696789 L3.29002838,5.66580502 C3.54589001,5.26130925 3.84176785,4.88714183 4.17251654,4.54863216 L4.31709421,4.40699682 L4.28940958,4.37764746 L4.15754821,4.22690391 L4.02917189,4.06557779 L3.90543374,3.89489943 C3.31810798,3.04597468 3.09771504,2.16501204 3.49029678,1.88680136 C3.88287851,1.60859068 4.62544899,2.11950205 5.21277475,2.9684268 C5.31387313,3.1145551 5.40496467,3.26347514 5.48422279,3.41150275 L5.52161987,3.4860437 L5.66650736,3.4003786 C6.33364551,3.023117 7.06070007,2.76584365 7.81779929,2.64058221 L8.14402277,2.59501616 L8.31079188,2.57984945 L8.27842793,2.33127424 L8.26275271,2.11172306 L8.25746332,1.88592797 C8.25746332,0.849582187 8.57619384,0 9.05544767,0 Z" id="Shape" fill="#798897" fill-rule="nonzero"></path>
            </g>
        </g>
    </g>
</svg>