<?xml version="1.0" encoding="UTF-8"?>
<svg width="18px" height="18px" viewBox="0 0 18 18" version="1.1" xmlns="http://www.w3.org/2000/svg" xmlns:xlink="http://www.w3.org/1999/xlink">
    <title>lnb/filled/host</title>
    <defs>
        <filter id="filter-1">
            <feColorMatrix in="SourceGraphic" type="matrix" values="0 0 0 0 1.000000 0 0 0 0 1.000000 0 0 0 0 1.000000 0 0 0 1.000000 0"></feColorMatrix>
        </filter>
    </defs>
    <g id="lnb/filled/host" stroke="none" stroke-width="1" fill="none" fill-rule="evenodd">
        <g filter="url(#filter-1)">
            <g transform="translate(9.000000, 9.000000) rotate(-270.000000) translate(-9.000000, -9.000000) ">
                <polygon id="Path" points="0 0 17.25 0 17.25 18 0 18"></polygon>
                <path d="M14.2916667,9.75 C14.6487847,9.75 14.9463831,10.0335937 14.9935028,10.3985894 L15,10.5 L15,15 C15,15.378125 14.7321615,15.6932292 14.3874433,15.7431207 L14.2916667,15.75 L2.95833333,15.75 C2.60121528,15.75 2.3036169,15.4664063 2.25649715,15.1014106 L2.25,15 L2.25,10.5 C2.25,10.121875 2.51783854,9.80677083 2.86255666,9.75687934 L2.95833333,9.75 L14.2916667,9.75 Z M5.14285714,11.625 C4.56482143,11.625 4.09821429,12.1275 4.09821429,12.75 C4.09821429,13.3725 4.56482143,13.875 5.14285714,13.875 C5.72089286,13.875 6.1875,13.3725 6.1875,12.75 C6.1875,12.1275 5.72089286,11.625 5.14285714,11.625 Z M14.2916667,2.25 C14.6487847,2.25 14.9463831,2.53359375 14.9935028,2.89858941 L15,3 L15,7.5 C15,7.878125 14.7321615,8.19322917 14.3874433,8.24312066 L14.2916667,8.25 L2.95833333,8.25 C2.60121528,8.25 2.3036169,7.96640625 2.25649715,7.60141059 L2.25,7.5 L2.25,3 C2.25,2.621875 2.51783854,2.30677083 2.86255666,2.25687934 L2.95833333,2.25 L14.2916667,2.25 Z M5.14285714,4.125 C4.56482143,4.125 4.09821429,4.6275 4.09821429,5.25 C4.09821429,5.8725 4.56482143,6.375 5.14285714,6.375 C5.72089286,6.375 6.1875,5.8725 6.1875,5.25 C6.1875,4.6275 5.72089286,4.125 5.14285714,4.125 Z" id="Shape" fill="#000000" fill-rule="nonzero"></path>
            </g>
        </g>
    </g>
</svg>