<?xml version="1.0" encoding="UTF-8"?>
<svg width="12px" height="17px" viewBox="0 0 12 17" version="1.1" xmlns="http://www.w3.org/2000/svg" xmlns:xlink="http://www.w3.org/1999/xlink">
    <title>lnb/filled/kafka</title>
    <g id="Page-4:-Component" stroke="none" stroke-width="1" fill="none" fill-rule="evenodd">
        <g id="0_1_01_Common/LNB/GNB_03" transform="translate(-473.000000, -942.000000)" fill="#FFFFFF">
            <g id="Group" transform="translate(386.000000, 913.000000)">
                <g id="lnb/filled/kafka" transform="translate(87.000000, 29.000000)">
                    <path d="M3.5,4 C4.32842712,4 5,3.32842712 5,2.5 C5,1.67157288 4.32842712,1 3.5,1 C2.67157288,1 2,1.67157288 2,2.5 C2,3.32842712 2.67157288,4 3.5,4 Z M3,10 C4.1045695,10 5,9.1045695 5,8 C5,6.8954305 4.1045695,6 3,6 C1.8954305,6 1,6.8954305 1,8 C1,9.1045695 1.8954305,10 3,10 Z M2.5,16 C3.32842712,16 4,15.3284271 4,14.5 C4,13.6715729 3.32842712,13 2.5,13 C1.67157288,13 1,13.6715729 1,14.5 C1,15.3284271 1.67157288,16 2.5,16 Z M8.5,7 C9.32842712,7 10,6.32842712 10,5.5 C10,4.67157288 9.32842712,4 8.5,4 C7.67157288,4 7,4.67157288 7,5.5 C7,6.32842712 7.67157288,7 8.5,7 Z M8.5,13 C9.32842712,13 10,12.3284271 10,11.5 C10,10.6715729 9.32842712,10 8.5,10 C7.67157288,10 7,10.6715729 7,11.5 C7,12.3284271 7.67157288,13 8.5,13 Z" id="Combined-Shape" opacity="0.5"></path>
                    <path d="M3,0 C4.24264069,0 5.25,1.00735931 5.25,2.25 C5.25,3.22956939 4.62401536,4.06293223 3.7502535,4.3718811 L3.75062919,5.09467513 C4.35502914,5.25037753 4.88568145,5.58970498 5.27956048,6.04963186 L6.752,5.199 L6.75519081,5.09595119 C6.83435508,3.92516159 7.80913601,3 9,3 C10.2426407,3 11.25,4.00735931 11.25,5.25 C11.25,6.49264069 10.2426407,7.5 9,7.5 C8.28714586,7.5 7.65171966,7.16849153 7.23947743,6.65123061 L5.94017374,7.40091017 C5.97940645,7.59449397 6,7.79484204 6,8 C6,8.20515796 5.97940645,8.40550603 5.94017374,8.59908983 L7.55100923,9.52861914 C7.94247037,9.19876254 8.44802344,9 9,9 C10.2426407,9 11.25,10.0073593 11.25,11.25 C11.25,12.4926407 10.2426407,13.5 9,13.5 C7.75735931,13.5 6.75,12.4926407 6.75,11.25 C6.75,11.1037658 6.76395054,10.96079 6.79059336,10.8223307 L5.27956048,9.95036814 C4.88568145,10.410295 4.35502914,10.7496225 3.75062919,10.9053249 L3.7502535,12.1281189 C4.62401536,12.4370678 5.25,13.2704306 5.25,14.25 C5.25,15.4926407 4.24264069,16.5 3,16.5 C1.75735931,16.5 0.75,15.4926407 0.75,14.25 C0.75,13.2700499 1.37647132,12.43642 2.25076538,12.1277589 L2.24975229,10.9054231 C0.95595757,10.5723049 0,9.39779037 0,8 C0,6.60220963 0.95595757,5.42769512 2.24975229,5.09457688 L2.25076538,4.37224108 C1.37647132,4.06357999 0.75,3.2299501 0.75,2.25 C0.75,1.00735931 1.75735931,0 3,0 Z M3,13.5 C2.58578644,13.5 2.25,13.8357864 2.25,14.25 C2.25,14.6642136 2.58578644,15 3,15 C3.41421356,15 3.75,14.6642136 3.75,14.25 C3.75,13.8357864 3.41421356,13.5 3,13.5 Z M9,10.5 C8.58578644,10.5 8.25,10.8357864 8.25,11.25 C8.25,11.6642136 8.58578644,12 9,12 C9.41421356,12 9.75,11.6642136 9.75,11.25 C9.75,10.8357864 9.41421356,10.5 9,10.5 Z M3,6.5 C2.17157288,6.5 1.5,7.17157288 1.5,8 C1.5,8.82842712 2.17157288,9.5 3,9.5 C3.82842712,9.5 4.5,8.82842712 4.5,8 C4.5,7.17157288 3.82842712,6.5 3,6.5 Z M9,4.5 C8.58578644,4.5 8.25,4.83578644 8.25,5.25 C8.25,5.31516115 8.25830983,5.37838143 8.27392756,5.43865893 L8.47440329,5.78502184 C8.60973612,5.91798535 8.79529029,6 9,6 C9.41421356,6 9.75,5.66421356 9.75,5.25 C9.75,4.83578644 9.41421356,4.5 9,4.5 Z M3,1.5 C2.58578644,1.5 2.25,1.83578644 2.25,2.25 C2.25,2.66421356 2.58578644,3 3,3 C3.41421356,3 3.75,2.66421356 3.75,2.25 C3.75,1.83578644 3.41421356,1.5 3,1.5 Z" id="Combined-Shape" fill-rule="nonzero"></path>
                </g>
            </g>
        </g>
    </g>
</svg>