<?xml version="1.0" encoding="UTF-8"?>
<svg width="18px" height="18px" viewBox="0 0 18 18" version="1.1" xmlns="http://www.w3.org/2000/svg" xmlns:xlink="http://www.w3.org/1999/xlink">
    <title>lnb/filled/management</title>
    <defs>
        <filter id="filter-1">
            <feColorMatrix in="SourceGraphic" type="matrix" values="0 0 0 0 1.000000 0 0 0 0 1.000000 0 0 0 0 1.000000 0 0 0 1.000000 0"></feColorMatrix>
        </filter>
    </defs>
    <g id="lnb/filled/management" stroke="none" stroke-width="1" fill="none" fill-rule="evenodd">
        <g filter="url(#filter-1)">
            <g>
                <polygon id="Path" points="0 0 18 0 18 18 0 18"></polygon>
                <path d="M13.5263975,8.5 L13.7593168,9.6175 C14.007764,9.7075 14.2363354,9.8263 14.4450311,9.9739 L14.5978261,10.09 L15.7236025,9.7225 L16.5,11.035 L15.6149068,11.785 C15.6381988,11.9425 15.6614907,12.0925 15.6614907,12.2575 C15.6614907,12.3675 15.6511387,12.4708333 15.6373361,12.5741667 L15.6149068,12.73 L16.5,13.48 L15.7236025,14.7775 L14.5978261,14.41 C14.3990683,14.572 14.1804348,14.7052 13.9419255,14.8096 L13.7593168,14.8825 L13.5263975,16 L11.9736025,16 L11.7406832,14.8675 C11.492236,14.7775 11.2636646,14.6587 11.0549689,14.5111 L10.9021739,14.395 L9.77639752,14.7625 L9,13.465 L9.88509317,12.715 C9.86180124,12.5575 9.83850932,12.4075 9.83850932,12.2425 C9.83850932,12.1325 9.84886128,12.0291667 9.86266391,11.9258333 L9.88509317,11.77 L9,11.02 L9.77639752,9.7225 L10.9021739,10.09 C11.1009317,9.928 11.3195652,9.7948 11.5580745,9.6904 L11.7406832,9.6175 L11.9736025,8.5 L13.5263975,8.5 Z M7.80680556,13.7673611 C7.93486111,14.1201389 8.09847222,14.4573611 8.29319444,14.7701389 L8.445,15 L1.5,15 L1.5,13.0125 C1.5,12.24 1.8825,11.505 2.5425,11.115 C3.99,10.2525 5.685,9.75 7.5,9.75 C7.6725,9.75 7.8375,9.7575 8.0025,9.7725 C7.785,10.23 7.635,10.7325 7.56,11.2575 C7.5225,11.4975 7.5,11.745 7.5,12 C7.5,12.42 7.548,12.8256 7.64016,13.21296 L7.7175,13.5 L7.80680556,13.7673611 Z M12.75,10.75 C11.8959627,10.75 11.197205,11.425 11.197205,12.25 C11.197205,13.075 11.8959627,13.75 12.75,13.75 C13.6040373,13.75 14.302795,13.075 14.302795,12.25 C14.302795,11.425 13.6040373,10.75 12.75,10.75 Z M7.5,3 C9.1575,3 10.5,4.3425 10.5,6 C10.5,7.6575 9.1575,9 7.5,9 C5.8425,9 4.5,7.6575 4.5,6 C4.5,4.3425 5.8425,3 7.5,3 Z" id="Shape" fill="#000000" fill-rule="nonzero"></path>
            </g>
        </g>
    </g>
</svg>