<?xml version="1.0" encoding="UTF-8"?>
<svg width="18px" height="18px" viewBox="0 0 18 18" version="1.1" xmlns="http://www.w3.org/2000/svg" xmlns:xlink="http://www.w3.org/1999/xlink">
    <title>lnb/filled/master_cluster</title>
    <defs>
        <filter id="filter-1">
            <feColorMatrix in="SourceGraphic" type="matrix" values="0 0 0 0 1.000000 0 0 0 0 1.000000 0 0 0 0 1.000000 0 0 0 1.000000 0"></feColorMatrix>
        </filter>
    </defs>
    <g id="lnb/filled/master_cluster" stroke="none" stroke-width="1" fill="none" fill-rule="evenodd">
        <g filter="url(#filter-1)">
            <g>
                <polygon id="Path" points="0 0 18 0 18 18 0 18"></polygon>
                <path d="M9,3 C12.2161494,3 14.8508012,5.54582428 14.9938821,8.72739925 C14.5210858,8.57932107 14.0198061,8.5 13.5,8.5 C10.7385763,8.5 8.5,10.7385763 8.5,13.5 C8.5,14.0198061 8.57932107,14.5210858 8.72651933,14.9923952 C5.54582428,14.8508012 3,12.2161494 3,9 C3,5.6925 5.6925,3 9,3 Z M6,9 C5.175,9 4.5,9.675 4.5,10.5 C4.5,11.325 5.175,12 6,12 C6.825,12 7.5,11.325 7.5,10.5 C7.5,9.675 6.825,9 6,9 Z M9,4.5 C8.175,4.5 7.5,5.175 7.5,6 C7.5,6.825 8.175,7.5 9,7.5 C9.825,7.5 10.5,6.825 10.5,6 C10.5,5.175 9.825,4.5 9,4.5 Z" id="Combined-Shape" fill="#000000" fill-rule="nonzero" opacity="0.3"></path>
                <path d="M9,1.5 C13.14,1.5 16.5,4.86 16.5,9 C16.5,9.16405833 16.4947236,9.32689179 16.4843314,9.48833982 C16.0390224,9.15600435 15.5356156,8.89617667 14.9923952,8.72651933 C14.8508012,5.54582428 12.2161494,3 9,3 C5.6925,3 3,5.6925 3,9 C3,12.2161494 5.54582428,14.8508012 8.72739925,14.9938821 C8.89617667,15.5356156 9.15600435,16.0390224 9.48848039,16.4850936 C9.32689179,16.4947236 9.16405833,16.5 9,16.5 C4.86,16.5 1.5,13.14 1.5,9 C1.5,4.86 4.86,1.5 9,1.5 Z" id="Combined-Shape" fill="#000000" fill-rule="nonzero"></path>
                <path d="M6,9 C6.82842712,9 7.5,9.67157288 7.5,10.5 C7.5,11.3284271 6.82842712,12 6,12 C5.17157288,12 4.5,11.3284271 4.5,10.5 C4.5,9.67157288 5.17157288,9 6,9 Z M9,4.5 C9.82842712,4.5 10.5,5.17157288 10.5,6 C10.5,6.82842712 9.82842712,7.5 9,7.5 C8.17157288,7.5 7.5,6.82842712 7.5,6 C7.5,5.17157288 8.17157288,4.5 9,4.5 Z" id="Combined-Shape" fill="#000000" fill-rule="nonzero"></path>
                <path d="M16.2753623,11.141 L15.2246377,11.484 C14.9927536,11.295 14.7318841,11.148 14.442029,11.043 L14.2246377,10 L12.7753623,10 L12.557971,11.043 C12.2681159,11.148 12.0072464,11.295 11.7753623,11.484 L10.7246377,11.141 L10,12.352 L10.826087,13.052 C10.8043478,13.199 10.7826087,13.339 10.7826087,13.493 C10.7826087,13.647 10.8043478,13.787 10.826087,13.934 L10,14.634 L10.7246377,15.845 L11.7753623,15.502 C12.0072464,15.691 12.2681159,15.838 12.557971,15.943 L12.7753623,17 L14.2246377,17 L14.442029,15.957 C14.7318841,15.852 14.9927536,15.705 15.2246377,15.516 L16.2753623,15.859 L17,14.648 L16.173913,13.948 C16.1956522,13.801 16.2173913,13.661 16.2173913,13.507 C16.2173913,13.353 16.1956522,13.213 16.173913,13.066 L17,12.366 L16.2753623,11.141 Z M13.5,14.9 C12.7028986,14.9 12.0507246,14.27 12.0507246,13.5 C12.0507246,12.73 12.7028986,12.1 13.5,12.1 C14.2971014,12.1 14.9492754,12.73 14.9492754,13.5 C14.9492754,14.27 14.2971014,14.9 13.5,14.9 Z" id="Shape" fill="#000000" fill-rule="nonzero"></path>
            </g>
        </g>
    </g>
</svg>