<?xml version="1.0" encoding="UTF-8"?>
<svg width="18px" height="18px" viewBox="0 0 18 18" version="1.1" xmlns="http://www.w3.org/2000/svg" xmlns:xlink="http://www.w3.org/1999/xlink">
    <title>lnb/filled/muti_cluster</title>
    <defs>
        <filter id="filter-1">
            <feColorMatrix in="SourceGraphic" type="matrix" values="0 0 0 0 1.000000 0 0 0 0 1.000000 0 0 0 0 1.000000 0 0 0 1.000000 0"></feColorMatrix>
        </filter>
    </defs>
    <g id="lnb/filled/muti_cluster" stroke="none" stroke-width="1" fill="none" fill-rule="evenodd">
        <g filter="url(#filter-1)">
            <g>
                <polygon id="Path" points="0 0 18 0 18 18 0 18"></polygon>
                <path d="M11.25,2.25 C14.97,2.25 18,5.28 18,9 C18,12.72 14.97,15.75 11.25,15.75 C7.53,15.75 4.5,12.72 4.5,9 C4.5,5.28 7.53,2.25 11.25,2.25 Z M4.5075,2.64 L4.5075,4.26 C2.73,5.1 1.5,6.9075 1.5,9 C1.5,11.0120192 2.63720414,12.7605399 4.30487241,13.6388221 L4.5075,13.74 L4.5075,15.36 C1.89,14.43 0,11.9325 0,9 C0,6.15636364 1.77719008,3.72176309 4.27158194,2.72883212 L4.5075,2.64 Z M8.75,9 C7.92157288,9 7.25,9.67157288 7.25,10.5 C7.25,11.3284271 7.92157288,12 8.75,12 C9.57842712,12 10.25,11.3284271 10.25,10.5 C10.25,9.67157288 9.57842712,9 8.75,9 Z M13.75,9 C12.9215729,9 12.25,9.67157288 12.25,10.5 C12.25,11.3284271 12.9215729,12 13.75,12 C14.5784271,12 15.25,11.3284271 15.25,10.5 C15.25,9.67157288 14.5784271,9 13.75,9 Z M11.25,5.25 C10.4215729,5.25 9.75,5.92157288 9.75,6.75 C9.75,7.57842712 10.4215729,8.25 11.25,8.25 C12.0784271,8.25 12.75,7.57842712 12.75,6.75 C12.75,5.92157288 12.0784271,5.25 11.25,5.25 Z" id="Shape" fill="#000000" fill-rule="nonzero"></path>
            </g>
        </g>
    </g>
</svg>