<?xml version="1.0" encoding="UTF-8"?>
<svg width="18px" height="18px" viewBox="0 0 18 18" version="1.1" xmlns="http://www.w3.org/2000/svg" xmlns:xlink="http://www.w3.org/1999/xlink">
    <title>lnb/filled/network</title>
    <defs>
        <filter id="filter-1">
            <feColorMatrix in="SourceGraphic" type="matrix" values="0 0 0 0 1.000000 0 0 0 0 1.000000 0 0 0 0 1.000000 0 0 0 1.000000 0"></feColorMatrix>
        </filter>
    </defs>
    <g id="lnb/filled/network" stroke="none" stroke-width="1" fill="none" fill-rule="evenodd">
        <g filter="url(#filter-1)">
            <g>
                <polygon id="Path" points="0 0 18 0 18 18 0 18"></polygon>
                <path d="M9,8.25 C8.175,8.25 7.5,8.925 7.5,9.75 C7.5,10.575 8.175,11.25 9,11.25 C9.825,11.25 10.5,10.575 10.5,9.75 C10.5,8.925 9.825,8.25 9,8.25 Z M13.5,9.75 C13.5,7.2675 11.4825,5.25 9,5.25 C6.5175,5.25 4.5,7.2675 4.5,9.75 C4.5,11.415 5.4075,12.8625 6.75,13.6425 L7.5,12.3375 C6.6075,11.8125 6,10.86 6,9.75 C6,8.0925 7.3425,6.75 9,6.75 C10.6575,6.75 12,8.0925 12,9.75 C12,10.86 11.3925,11.8125 10.5,12.3375 L11.25,13.6425 C12.5925,12.8625 13.5,11.415 13.5,9.75 Z M9,2.25 C4.86,2.25 1.5,5.61 1.5,9.75 C1.5,12.525 3.0075,14.94 5.2425,16.2375 L5.9925,14.94 C4.2075,13.8975 3,11.97 3,9.75 C3,6.435 5.685,3.75 9,3.75 C12.315,3.75 15,6.435 15,9.75 C15,11.97 13.7925,13.8975 12,14.94 L12.75,16.2375 C14.9925,14.94 16.5,12.525 16.5,9.75 C16.5,5.61 13.14,2.25 9,2.25 Z" id="Shape" fill="#000000" fill-rule="nonzero"></path>
            </g>
        </g>
    </g>
</svg>