<?xml version="1.0" encoding="UTF-8"?>
<svg width="18px" height="18px" viewBox="0 0 18 18" version="1.1" xmlns="http://www.w3.org/2000/svg" xmlns:xlink="http://www.w3.org/1999/xlink">
    <title>lnb/filled/node</title>
    <g id="lnb/filled/node" stroke="none" stroke-width="1" fill="none" fill-rule="evenodd">
        <g>
            <rect id="Rectangle" x="0" y="0" width="18" height="18"></rect>
            <path d="M9,0.309401077 L9.17248353,0.31684411 C9.4594021,0.34165422 9.74216577,0.428489607 10,0.577350269 L15.7942286,3.92264973 C16.4130308,4.27991532 16.7942286,4.94016936 16.7942286,5.65470054 L16.7942286,12.3452995 C16.7942286,13.0598306 16.4130308,13.7200847 15.7942286,14.0773503 L10,17.4226497 C9.74216577,17.5715104 9.4594021,17.6583458 9.17248353,17.6831559 L9,17.6905989 C8.65470054,17.6905989 8.30940108,17.6012825 8,17.4226497 L2.20577137,14.0773503 C1.58696921,13.7200847 1.20577137,13.0598306 1.20577137,12.3452995 L1.20577137,5.65470054 C1.20577137,4.94016936 1.58696921,4.27991532 2.20577137,3.92264973 L8,0.577350269 C8.30940108,0.398717474 8.65470054,0.309401077 9,0.309401077 Z" id="Combined-Shape" fill="#FFFFFF"></path>
        </g>
    </g>
</svg>