<?xml version="1.0" encoding="UTF-8"?>
<svg width="18px" height="18px" viewBox="0 0 18 18" version="1.1" xmlns="http://www.w3.org/2000/svg" xmlns:xlink="http://www.w3.org/1999/xlink" style="background: #FFFFFF;">
    <title>lnb/filled/operator</title>
    <defs>
        <filter id="filter-1">
            <feColorMatrix in="SourceGraphic" type="matrix" values="0 0 0 0 1.000000 0 0 0 0 1.000000 0 0 0 0 1.000000 0 0 0 1.000000 0"></feColorMatrix>
        </filter>
    </defs>
    <g id="lnb/filled/operator" stroke="none" stroke-width="1" fill="none" fill-rule="evenodd">
        <rect fill="#FFFFFF" x="0" y="0" width="18" height="18"></rect>
        <g filter="url(#filter-1)" id="lnb/operator">
            <g>
                <rect id="Rectangle" x="0" y="0" width="18" height="18"></rect>
                <g id="Group" transform="translate(0.750000, 3.000000)" fill="#000000">
                    <path d="M13,6.75 C13.0776761,6.75 13.154803,6.75236561 13.2313127,6.75702867 L13,6.75 C13.0950985,6.75 13.1893739,6.75354581 13.282701,6.76051236 C13.3434306,6.76504334 13.4038966,6.77103987 13.4639246,6.77845682 C13.485858,6.78116583 13.507906,6.78408898 13.5298928,6.78720305 C13.5776227,6.7939652 13.6249148,6.80159991 13.6719029,6.81011109 C13.7006101,6.81531345 13.7288945,6.82077939 13.7570639,6.82656154 C13.8996957,6.85580795 14.040102,6.89339978 14.1770225,6.93867222 C14.1989475,6.94592214 14.2207163,6.95334551 14.2423941,6.96096253 C14.2848939,6.97589407 14.3271705,6.99161953 14.3690798,7.00807801 C14.3991036,7.01987079 14.4287523,7.03196082 14.4582091,7.04441664 C14.4990876,7.06169892 14.5398233,7.07979119 14.5801698,7.09858038 C14.5971104,7.10647011 14.6138899,7.11443793 14.6306004,7.12252612 L14.6539268,7.13391679 C15.8952626,7.74543067 16.75,9.02350474 16.75,10.5 C16.75,12.57 15.07,14.25 13,14.25 C10.93,14.25 9.25,12.57 9.25,10.5 C9.25,10.3308156 9.26122248,10.1642365 9.28296315,10.0009669 L9.28278346,10.0023182 L9.29084511,9.94500553 C9.29536697,9.91456646 9.30025506,9.88424634 9.30550474,9.8540498 L9.28278346,10.0023182 C9.29394872,9.91823469 9.30790353,9.83502824 9.32455173,9.752795 C9.36483629,9.55358989 9.42120968,9.35935218 9.49212984,9.17225102 L9.49786973,9.15720631 C9.51715243,9.10699121 9.53748456,9.05729495 9.55883924,9.00814443 C9.56237824,8.99999754 9.56604147,8.99164865 9.56973418,8.98331571 C9.58403071,8.95105081 9.59883265,8.91889207 9.6140725,8.88698204 C9.62822693,8.85734815 9.64268197,8.82807974 9.65750464,8.79902977 C9.67106247,8.77245803 9.68494555,8.74603638 9.69913225,8.71980266 C9.71863611,8.68372961 9.7388657,8.64775224 9.75966527,8.61214793 C9.7745434,8.58668462 9.78955193,8.56167366 9.8048415,8.53685405 C9.82344305,8.50665405 9.84258315,8.47655063 9.86213644,8.4467422 C9.8799446,8.41958711 9.89834915,8.39231142 9.91709962,8.36529364 C9.93321934,8.34207131 9.94938025,8.31933411 9.96578627,8.29678655 C9.98745284,8.26700711 10.0096221,8.23746126 10.0322126,8.20825752 C10.0506458,8.18442485 10.0695133,8.16063087 10.0886608,8.13707347 C10.1684902,8.03887765 10.2529266,7.94505352 10.3418352,7.85568272 C10.3723226,7.82503584 10.4033802,7.79487108 10.4349503,7.76524624 C10.4458627,7.75500947 10.4563993,7.74523767 10.4669918,7.73552591 C10.5061887,7.69958238 10.5463831,7.66426604 10.5873242,7.62980901 C10.6032192,7.61642899 10.6194842,7.60296903 10.6358637,7.5896445 C10.6644445,7.56639773 10.693161,7.54372627 10.7222122,7.52147001 C10.7550057,7.49634397 10.7883834,7.4716343 10.8221784,7.44747166 C10.8443757,7.43159876 10.8669756,7.41580999 10.8897554,7.40026569 C10.9073521,7.38826194 10.9245981,7.37670538 10.9419444,7.36528889 L10.9628699,7.35161624 C11.0102238,7.32089966 11.0583132,7.29122216 11.1071058,7.26261611 L11.1252809,7.25202883 L11.161824,7.23115203 L11.3272797,7.14324058 C11.3335343,7.14011566 11.3397988,7.13700771 11.3460732,7.13391679 L11.161824,7.23115203 C11.2458421,7.1837771 11.3318665,7.13954764 11.4197369,7.09862382 C11.4601767,7.07979119 11.5009124,7.06169892 11.5420217,7.04431905 C11.5712477,7.03196082 11.6008964,7.01987079 11.6307312,7.00815226 C11.6728295,6.99161953 11.7151061,6.97589407 11.7577342,6.96091744 C11.7792837,6.95334551 11.8010525,6.94592214 11.8229101,6.93869451 C11.959898,6.89339978 12.1003043,6.85580795 12.2436853,6.82640783 C12.2711055,6.82077939 12.2993899,6.81531345 12.3277852,6.81016758 C12.3750852,6.80159991 12.4223773,6.7939652 12.4699557,6.78722451 C12.492094,6.78408898 12.514142,6.78116583 12.5362493,6.77843533 C12.5961034,6.77103987 12.6565694,6.76504334 12.7174388,6.76050193 C12.7343056,6.75924288 12.7513436,6.75808698 12.7684124,6.75704544 C12.845197,6.75236561 12.9223239,6.75 13,6.75 Z M13.375,8.25 L12.919,8.25 L12.625,8.392 L12.625,10.65 L14.2375,12.2625 L14.7625,11.73 L13.375,10.3425 L13.375,8.25 Z M15,-2.54196664e-12 C15.7764706,-2.54196664e-12 16.4200692,0.597923875 16.4930999,1.35607572 L16.5,1.5 L16.5011174,6.5885661 C16.1346314,6.26027474 15.7217766,5.98270493 15.2736174,5.76692113 L15.0154252,5.65111051 C14.4991116,5.43613402 13.9411631,5.3012427 13.357111,5.2619679 L13.5006169,5.2735842 L13.5,5.25 L9,5.25 L9,6.75 L9.32662137,6.74995143 C9.34613356,6.73083541 9.3657942,6.71187035 9.38560139,6.69305814 C8.42707279,7.60335287 7.81166518,8.87188851 7.754381,10.2836715 L7.75,10.5 L7.749,10.5 L7.75905363,10.8107328 C7.78308447,11.2219854 7.85450395,11.6205589 7.96792777,12.0010688 L1.5,12 C0.723529412,12 0.0799307958,11.4020761 0.00690006105,10.6439243 L-1.19015908e-11,10.5 L-1.19015908e-11,1.5 C-1.19015908e-11,0.723529412 0.597923875,0.0799307958 1.35607572,0.00690006106 L1.5,-2.54196664e-12 L15,-2.54196664e-12 Z M6.07963812,3.375 L5.00348688,3.375 C4.9411013,3.375 4.88391452,3.42178918 4.87351692,3.48417476 L4.76954096,4.19121133 C4.6343722,4.24839811 4.50440225,4.32638008 4.38482989,4.40956085 L3.71938371,4.14962094 C3.65699813,4.12362695 3.58941375,4.14962094 3.55822096,4.20680772 L3.02274474,5.13739261 C2.99155195,5.19457939 3.00194955,5.26216377 3.05393753,5.30375415 L3.61020895,5.75085081 C3.59461255,5.90161595 3.58941375,6.0523811 3.60501015,6.19794746 L3.04873873,6.63984531 C2.99675075,6.68143569 2.98635315,6.74902007 3.01754594,6.80620685 L3.55302217,7.73679174 C3.58421495,7.79397852 3.65179933,7.81477372 3.71418491,7.79397852 L4.37443229,7.53403861 C4.49400465,7.62241818 4.62397461,7.69520136 4.76434216,7.75238814 L4.86831813,8.4594247 C4.87871572,8.52181028 4.9307037,8.56859946 4.99828808,8.56859946 L6.07443932,8.56859946 C6.1368249,8.56859946 6.19401168,8.52181028 6.20440928,8.4594247 L6.30838524,7.75238814 C6.443554,7.69520136 6.57352395,7.61721938 6.69309631,7.53403861 L7.35854249,7.79397852 C7.42092807,7.81997251 7.48851245,7.79397852 7.51970524,7.73679174 L8.05518146,6.80620685 C8.08637425,6.74902007 8.07597665,6.68143569 8.02398867,6.63984531 L7.47291605,6.19794746 C7.48851245,6.04718231 7.49371125,5.89641716 7.47811485,5.75085081 L8.03438627,5.30895295 C8.08637425,5.26736257 8.09677185,5.19977819 8.06557906,5.14259141 L7.53010283,4.21200652 C7.49891005,4.15481974 7.43132567,4.13402455 7.36894009,4.15481974 L6.70349391,4.41475965 C6.58392155,4.32638008 6.45395159,4.25359691 6.31358404,4.19641013 L6.20960808,3.48937356 C6.19921048,3.42178918 6.1472225,3.375 6.07963812,3.375 Z M5.5441619,5.19457939 C5.97566215,5.19457939 6.32398164,5.54289887 6.32398164,5.97439913 C6.32398164,6.40589939 5.97566215,6.75421887 5.5441619,6.75421887 C5.11266164,6.75421887 4.76434216,6.40589939 4.76434216,5.97439913 C4.76434216,5.54289887 5.11266164,5.19457939 5.5441619,5.19457939 Z M13.5,3 L9,3 L9,4.5 L13.5,4.5 L13.5,3 Z" id="Combined-Shape"></path>
                </g>
            </g>
        </g>
    </g>
</svg>