<?xml version="1.0" encoding="UTF-8"?>
<svg width="18px" height="18px" viewBox="0 0 18 18" version="1.1" xmlns="http://www.w3.org/2000/svg" xmlns:xlink="http://www.w3.org/1999/xlink">
    <title>lnb/filled/redis_filled</title>
    <g id="lnb/filled/redis_filled" stroke="none" stroke-width="1" fill="none" fill-rule="evenodd">
        <g id="lnb/redis_filled" transform="translate(1.000000, 2.000000)">
            <path d="M15.3731429,10.4874286 C14.5192,10.9324571 10.096,12.7512 9.15428571,13.2422857 C8.21262857,13.7331429 7.68949714,13.7283429 6.94556571,13.3726857 C6.20162286,13.0172571 1.49456,11.1156571 0.646628571,10.7105143 C0.22288,10.5078857 0,10.3370286 0,10.1756571 L0,8.55817143 C0,8.55817143 5.97397714,6.20328 6.96329143,5.84841143 C7.95253714,5.49340571 8.30140571,5.54001143 9.14331429,5.84838857 C9.98537143,6.15682286 15.168,8.02651429 16,8.33131429 L15.9996571,9.92582857 C15.9997714,10.0854857 15.8077714,10.2608 15.3731429,10.4874286 Z" id="Path" fill="#A8B3BC" fill-rule="nonzero"></path>
            <path d="M12.3954286,10.1974857 C13.6917714,9.64045714 14.9569143,9.0968 15.3732571,8.87977143 C16.2270857,8.43474286 16.1950857,8.18342857 15.3628571,7.87868571 C14.9483429,7.7268 13.6486857,7.21610286 12.3448,6.70373714 C11.0318857,6.18784 9.71462857,5.67024 9.29222857,5.51549714 C8.45037714,5.20705143 8.10718857,5.21980571 7.11794286,5.57474286 C6.19715429,5.90513143 2.07865143,7.51868571 0.840685714,8.00365714 C0.748468571,8.03988571 0.67224,8.06971429 0.614502857,8.09234286 C-0.218308571,8.41851429 -0.200617143,8.6976 0.647314286,9.10262857 C1.08483429,9.31177143 2.55006857,9.91931429 3.96803429,10.5073143 C5.29780571,11.0587429 6.586,11.5929143 6.946,11.7650286 C7.68988571,12.1204571 8.21300571,12.1252571 9.15462857,11.6344 C9.63714286,11.3828571 11.0334857,10.7827429 12.3954286,10.1974857 Z M9.95554286,7.30641143 L8.57995429,7.44922286 L8.27202286,8.19017143 L7.77465143,7.36334857 L6.18620571,7.22059429 L7.37146286,6.79315429 L7.01582857,6.13702857 L8.12552,6.57102857 L9.17165714,6.22853714 L8.88889143,6.90697143 L9.95554286,7.30641143 Z M8.18989714,10.9012571 L5.62258286,9.83645714 L9.30137143,9.27177143 L8.18989714,10.9012571 Z M4.63052571,7.71828571 C5.71645714,7.71828571 6.59677714,8.05954286 6.59677714,8.48045714 C6.59677714,8.90137143 5.71645714,9.24262857 4.63052571,9.24262857 C3.54458286,9.24262857 2.66427429,8.90137143 2.66427429,8.48045714 C2.66427429,8.05954286 3.54458286,7.71828571 4.63052571,7.71828571 Z M9.17257143,8.46182857 L11.5813714,7.50896 L11.5832,9.22891429 L11.3469714,9.32125714 L9.17257143,8.46182857 Z" id="Shape" fill="#FFFFFF"></path>
            <path d="M15.3731429,7.91597714 C14.5192,8.36102857 10.096,10.1797714 9.15428571,10.6708571 C8.21262857,11.1617143 7.68949714,11.1569143 6.94556571,10.8012571 C6.20162286,10.4458286 1.49456,8.54422857 0.646628571,8.13908571 C0.22288,7.93641143 0,7.7656 0,7.60422857 L0,5.98673143 C0,5.98673143 5.97397714,3.63185143 6.96329143,3.27698286 C7.95253714,2.92197714 8.30140571,2.96858286 9.14331429,3.27696 C9.98537143,3.58539429 15.168,5.45504 16,5.75985143 L15.9996571,7.35435429 C15.9997714,7.51403429 15.8077714,7.68941714 15.3731429,7.91597714 Z" id="Path" fill="#A8B3BC" fill-rule="nonzero"></path>
            <path d="M12.3954286,7.62606857 C13.6917714,7.06899429 14.9569143,6.52531429 15.3732571,6.30832 C16.2270857,5.86331429 16.1950857,5.612 15.3628571,5.30725714 C14.9483429,5.15537143 13.6486857,4.64467429 12.3448,4.13230857 C11.0318857,3.61641143 9.71462857,3.09881143 9.29222857,2.94406857 C8.45037714,2.63562286 8.10718857,2.64837714 7.11794286,3.00331429 C6.19715429,3.33370286 2.07865143,4.94725714 0.840685714,5.43227429 C0.748468571,5.4684 0.67224,5.49827429 0.614502857,5.52088 C-0.218308571,5.84706286 -0.200617143,6.12612571 0.647314286,6.53125714 C1.08483429,6.74034286 2.55006857,7.34792 3.96803429,7.93589714 C5.29780571,8.48731429 6.586,9.02148571 6.946,9.1936 C7.68988571,9.54902857 8.21300571,9.55382857 9.15462857,9.06297143 C9.63714286,8.81142857 11.0334857,8.21131429 12.3954286,7.62606857 Z M9.95554286,4.73498286 L8.57995429,4.87779429 L8.27202286,5.61878857 L7.77465143,4.79192 L6.18620571,4.64916571 L7.37146286,4.22172571 L7.01582857,3.5656 L8.12552,3.9996 L9.17165714,3.65710857 L8.88889143,4.33554286 L9.95554286,4.73498286 Z M8.18989714,8.32982857 L5.62258286,7.26504 L9.30137143,6.70035429 L8.18989714,8.32982857 Z M4.63052571,5.14685714 C5.71645714,5.14685714 6.59677714,5.48810286 6.59677714,5.90898286 C6.59677714,6.32997714 5.71645714,6.67116571 4.63052571,6.67116571 C3.54458286,6.67116571 2.66427429,6.32992 2.66427429,5.90898286 C2.66427429,5.48810286 3.54458286,5.14685714 4.63052571,5.14685714 Z M9.17257143,5.89034286 L11.5813714,4.93753143 L11.5832,6.65747429 L11.3469714,6.74985143 L9.17257143,5.89034286 Z" id="Shape" fill="#FFFFFF"></path>
            <path d="M15.3726857,5.19178286 C14.5188571,5.63678857 10.0955429,7.45553143 9.15394286,7.94666286 C8.21220571,8.43748571 7.68908571,8.43268571 6.94514286,8.07714286 C6.20121143,7.72165714 1.49414857,5.82003429 0.646205714,5.41491429 C0.222457143,5.21222857 -0.000422857143,5.04140571 -0.000422857143,4.88003429 L-0.000422857143,3.26253714 C-0.000422857143,3.26253714 5.97355429,0.907657143 6.96286857,0.552788571 C7.95211429,0.197782857 8.30098286,0.244388571 9.14285714,0.552765714 C9.98491429,0.861211429 15.1675429,2.73084571 15.9995429,3.03565714 L15.9992,4.63016 C15.9993143,4.78985143 15.8073143,4.96522286 15.3726857,5.19178286 Z" id="Path" fill="#A8B3BC" fill-rule="nonzero"></path>
            <polygon id="Path" fill="#FFFFFF" fill-rule="nonzero" opacity="0.2" points="11.5809143 2.21337143 13.7581714 3.07374857 11.5827429 3.93331429"></polygon>
            <path d="M12.3950857,4.90187429 C13.6913143,4.34481143 14.9564571,3.80113143 15.3728,3.58412571 C16.2266286,3.13912 16.1947429,2.88780571 15.3625143,2.58306286 C14.9478857,2.43117714 13.6482286,1.92048 12.3443429,1.40811429 C11.0314286,0.892217143 9.71428571,0.374617143 9.29188571,0.219874286 C8.44996571,-0.08856 8.10677714,-0.0758171429 7.11752,0.27912 C6.19673143,0.60952 2.07822857,2.22307429 0.840262857,2.70809143 C0.748057143,2.74421714 0.671828571,2.77408 0.614091429,2.79668571 C-0.21872,3.12286857 -0.20104,3.40193143 0.646902857,3.80706286 C1.08441143,4.01616 2.54964571,4.62372571 3.96761143,5.21170286 C5.29738286,5.76310857 6.58558857,6.29726857 6.94558857,6.46937143 C7.68946286,6.82481143 8.21258286,6.82962286 9.15417143,6.33875429 C9.63668571,6.08724571 11.0330286,5.48717714 12.3950857,4.90187429 Z M9.9552,2.01078857 L8.57954286,2.1536 L8.2716,2.89460571 L7.77422857,2.06772571 L6.18579429,1.92497143 L7.37104,1.49754286 L7.01541714,0.841417143 L8.12510857,1.27541714 L9.1712,0.932914286 L8.88848,1.61134857 L9.9552,2.01078857 Z M8.18947429,5.60566857 L5.62216,4.54084571 L9.30091429,3.97616 L8.18947429,5.60566857 Z M4.63010286,2.42266286 C5.71604571,2.42266286 6.59635429,2.76390857 6.59635429,3.18478857 C6.59635429,3.60578286 5.71604571,3.94697143 4.63010286,3.94697143 C3.54417143,3.94697143 2.66385143,3.60572571 2.66385143,3.18478857 C2.66385143,2.76390857 3.54417143,2.42266286 4.63010286,2.42266286 Z M9.17211429,3.16616 L11.5809143,2.21334857 L11.5827429,3.93328 L11.3466286,4.02565714 L9.17211429,3.16616 Z" id="Shape" fill="#FFFFFF"></path>
            <polygon id="Path" fill="#C9D3DC" fill-rule="nonzero" opacity="0.5" points="11.5809143 2.21337143 13.7581714 3.07374857 11.5827429 3.93331429"></polygon>
        </g>
    </g>
</svg>