<?xml version="1.0" encoding="UTF-8"?>
<svg width="18px" height="18px" viewBox="0 0 18 18" version="1.1" xmlns="http://www.w3.org/2000/svg" xmlns:xlink="http://www.w3.org/1999/xlink">
    <title>lnb/filled/sas</title>
    <g id="lnb/filled/sas" stroke="none" stroke-width="1" fill="none" fill-rule="evenodd">
        <g>
            <rect id="Rectangle" x="0" y="0" width="18" height="18"></rect>
            <g id="Shape" transform="translate(1.000000, 1.000000)" fill="#FFFFFF">
                <path d="M8,0 C12.418278,0 16,3.581722 16,8 C16,12.3349143 12.5521622,15.8645429 8.24917933,15.9961932 L8,16 C3.581722,16 0,12.418278 0,8 C0,3.66508574 3.44783777,0.135457134 7.75082067,0.00380682464 L8,0 Z M12.0674942,5.48908123 L11.8745342,5.49604123 L11.6761563,5.51827294 C11.4823607,5.54786589 11.3021205,5.59956404 11.1337158,5.67356007 C10.8491173,5.79861093 10.6228981,5.98023881 10.4574636,6.21750673 C10.2904548,6.45703247 10.207,6.73704539 10.207,7.054 C10.207,7.72578842 10.5865537,8.20886846 11.3221835,8.49155228 L11.48526,8.54905584 L11.6647076,8.60191433 L12.3815397,8.79471176 L12.5045254,8.83184135 L12.6004694,8.86852423 C12.6893678,8.90682604 12.7569571,8.94977236 12.8016862,8.9954531 C12.8714226,9.06667328 12.907,9.16507878 12.907,9.298 C12.907,9.43894237 12.8501208,9.54118097 12.7281503,9.61837748 C12.647763,9.66925549 12.5426331,9.70590551 12.4125036,9.7272048 L12.2740313,9.7433456 L12.1095733,9.74907841 L11.9557601,9.74091556 C11.7559235,9.71921168 11.5771201,9.65423143 11.4198562,9.54602233 C11.3006775,9.46401867 11.1975457,9.36328988 11.1101831,9.24333151 L11.0280665,9.11694461 L10.9531804,8.97086929 L10.7860983,8.9161966 L10.103,9.258 L8.85205822,5.66292378 L8.734,5.579 L7.558,5.579 L7.43994178,5.66292378 L6.185,9.267 L6.18031182,9.13502039 C6.14909833,8.76463946 6.00861712,8.4638913 5.75858078,8.23905241 C5.57617244,8.07502632 5.36281917,7.94152733 5.11906263,7.83850524 L4.93055307,7.7669523 L4.73603861,7.70830782 L4.04781166,7.52711568 L3.92737809,7.49236927 L3.82895135,7.45730907 C3.73630904,7.42063908 3.66118689,7.3792714 3.60508688,7.3343914 C3.52614169,7.27123525 3.487,7.18156519 3.487,7.054 C3.487,6.90854226 3.53816725,6.80175844 3.64423128,6.72182612 C3.73499161,6.65342703 3.86527634,6.61073777 4.03618466,6.59639803 L4.172,6.591 L4.3099347,6.59896242 L4.42702712,6.62017621 C4.54164548,6.64862039 4.64859878,6.69875073 4.74570112,6.77052202 C4.84667768,6.84515687 4.93580075,6.93296288 5.01324973,7.03422411 L5.08681398,7.13998093 L5.1555467,7.26015208 L5.32058654,7.30945835 L6.10058654,6.91345835 L6.15659807,6.74771672 L6.0769314,6.58246672 L5.97435259,6.41382825 C5.82716367,6.19656608 5.63824891,6.00945752 5.40692261,5.85006807 C5.10730762,5.64362603 4.76123307,5.52581013 4.37086508,5.49636155 L4.172,5.489 L3.97453422,5.49604123 L3.77615634,5.51827294 C3.58236068,5.54786589 3.40212054,5.59956404 3.23371579,5.67356007 C2.94911728,5.79861093 2.72289812,5.98023881 2.5574636,6.21750673 C2.39045483,6.45703247 2.307,6.73704539 2.307,7.054 C2.307,7.72578842 2.68655369,8.20886846 3.42218347,8.49155228 L3.58526001,8.54905584 L3.76470761,8.60191433 L4.4815397,8.79471176 L4.60452543,8.83184135 L4.7004694,8.86852423 C4.78936781,8.90682604 4.85695714,8.94977236 4.9016862,8.9954531 C4.97142263,9.06667328 5.007,9.16507878 5.007,9.298 C5.007,9.43894237 4.95012078,9.54118097 4.8281503,9.61837748 C4.74776304,9.66925549 4.64263312,9.70590551 4.51250357,9.7272048 L4.3740313,9.7433456 L4.2095733,9.74907841 L4.05576008,9.74091556 C3.85592352,9.71921168 3.67712008,9.65423143 3.51985619,9.54602233 C3.40067753,9.46401867 3.29754573,9.36328988 3.21018306,9.24333151 L3.12806647,9.11694461 L3.0531804,8.97086929 L2.8860983,8.9161966 L2.0940983,9.3121966 L2.03621815,9.47575607 L2.11397325,9.64669485 L2.20960598,9.81797861 C2.37900908,10.0930614 2.59851834,10.3162986 2.86858473,10.4892624 C3.19176091,10.6962404 3.5681038,10.8141654 3.99585092,10.8436342 L4.214,10.851 L4.42289411,10.8440903 L4.63167259,10.8223992 C4.83569716,10.7935165 5.02564123,10.7430379 5.20313584,10.6707722 C5.41799143,10.5832953 5.60165872,10.4669385 5.75324527,10.3218911 L5.8609061,10.2077291 L5.72394178,10.5949238 L5.842,10.761 L6.802,10.761 L6.9202705,10.676461 L7.359,9.393 L8.932,9.393 L9.3717295,10.676461 L9.49,10.761 L10.45,10.761 L10.5680582,10.5949238 L10.4412202,10.2314227 C10.5405662,10.3272049 10.6496749,10.4131067 10.7685847,10.4892624 C11.0917609,10.6962404 11.4681038,10.8141654 11.8958509,10.8436342 L12.114,10.851 L12.3228941,10.8440903 L12.5316726,10.8223992 C12.7356972,10.7935165 12.9256412,10.7430379 13.1031358,10.6707722 C13.4035391,10.5484652 13.6429736,10.3697019 13.819,10.135 C13.9975841,9.89688782 14.087,9.61649733 14.087,9.298 C14.087,8.85211668 13.9443366,8.49601114 13.6585808,8.23905241 C13.4761724,8.07502632 13.2628192,7.94152733 13.0190626,7.83850524 L12.8305531,7.7669523 L12.6360386,7.70830782 L11.9478117,7.52711568 L11.8273781,7.49236927 L11.7289514,7.45730907 C11.636309,7.42063908 11.5611869,7.3792714 11.5050869,7.3343914 C11.4261417,7.27123525 11.387,7.18156519 11.387,7.054 C11.387,6.90854226 11.4381672,6.80175844 11.5442313,6.72182612 C11.6349916,6.65342703 11.7652763,6.61073777 11.9361847,6.59639803 L12.072,6.591 L12.2099347,6.59896242 L12.3270271,6.62017621 C12.4416455,6.64862039 12.5485988,6.69875073 12.6457011,6.77052202 C12.7466777,6.84515687 12.8358008,6.93296288 12.9132497,7.03422411 L12.986814,7.13998093 L13.0555467,7.26015208 L13.2205865,7.30945835 L14.0005865,6.91345835 L14.0565981,6.74771672 L13.9769314,6.58246672 L13.8743526,6.41382825 C13.7271637,6.19656608 13.5382489,6.00945752 13.3069226,5.85006807 C12.9573718,5.60921902 12.5445843,5.489 12.0674942,5.48908123 Z M8.146,6.718 L8.728,8.422 L7.564,8.422 L8.146,6.718 Z"></path>
            </g>
        </g>
    </g>
</svg>