<?xml version="1.0" encoding="UTF-8"?>
<svg width="18px" height="18px" viewBox="0 0 18 18" version="1.1" xmlns="http://www.w3.org/2000/svg" xmlns:xlink="http://www.w3.org/1999/xlink">
    <title>lnb/filled/service_mesh</title>
    <defs>
        <filter id="filter-1">
            <feColorMatrix in="SourceGraphic" type="matrix" values="0 0 0 0 1.000000 0 0 0 0 1.000000 0 0 0 0 1.000000 0 0 0 1.000000 0"></feColorMatrix>
        </filter>
    </defs>
    <g id="lnb/filled/service_mesh" stroke="none" stroke-width="1" fill="none" fill-rule="evenodd">
        <g filter="url(#filter-1)">
            <g>
                <polygon id="Path" points="0 0 18 0 18 18 0 18"></polygon>
                <path d="M3,0.75 C3.378125,0.75 3.69322917,1.03359375 3.74312066,1.39858941 L3.75,1.5 L3.75,4.5 L5.25,4.5 L5.25,12 C5.25,12.9176471 4.69193772,13.7024221 3.90095868,14.0541909 L3.75,14.115 L3.75,17.25 L2.25,17.25 L2.25,14.115 C1.43117647,13.8185294 0.824948097,13.0702941 0.756460411,12.1704285 L0.75,12 L0.75,4.5 L2.25,4.5 L2.25,1.5 C2.25,1.0875 2.5875,0.75 3,0.75 Z M9,0.75 C9.378125,0.75 9.69322917,1.03359375 9.74312066,1.39858941 L9.75,1.5 L9.75,4.5 L11.25,4.5 L11.25,12 C11.25,12.9176471 10.6919377,13.7024221 9.90095868,14.0541909 L9.75,14.115 L9.75,17.25 L8.25,17.25 L8.25,14.115 C7.43117647,13.8185294 6.8249481,13.0702941 6.75646041,12.1704285 L6.75,12 L6.75,4.5 L8.25,4.5 L8.25,1.5 C8.25,1.0875 8.5875,0.75 9,0.75 Z M15,0.75 C15.378125,0.75 15.6932292,1.03359375 15.7431207,1.39858941 L15.75,1.5 L15.75,4.5 L17.25,4.5 L17.25,12 C17.25,12.9176471 16.6919377,13.7024221 15.9009587,14.0541909 L15.75,14.115 L15.75,17.25 L14.25,17.25 L14.25,14.115 C13.4311765,13.8185294 12.8249481,13.0702941 12.7564604,12.1704285 L12.75,12 L12.75,4.5 L14.25,4.5 L14.25,1.5 C14.25,1.0875 14.5875,0.75 15,0.75 Z M3.75,6 L2.25,6 L2.25,9 L3.75,9 L3.75,6 Z M9.75,6 L8.25,6 L8.25,9 L9.75,9 L9.75,6 Z M15.75,6 L14.25,6 L14.25,9 L15.75,9 L15.75,6 Z" id="Shape" fill="#000000" fill-rule="nonzero"></path>
            </g>
        </g>
    </g>
</svg>