<?xml version="1.0" encoding="UTF-8"?>
<svg width="18px" height="18px" viewBox="0 0 18 18" version="1.1" xmlns="http://www.w3.org/2000/svg" xmlns:xlink="http://www.w3.org/1999/xlink">
    <title>lnb/filled/service_binding_filled</title>
    <g id="lnb/filled/service_binding_filled" stroke="none" stroke-width="1" fill="none" fill-rule="evenodd">
        <g transform="translate(1.000000, 1.000000)" fill="#FFFFFF">
            <path d="M9.4359,1.95833 C9.4359,2.76374 8.79302,3.41667 8,3.41667 C7.20698,3.41667 6.5641,2.76374 6.5641,1.95833 C6.5641,1.15292 7.20698,0.5 8,0.5 C8.79302,0.5 9.4359,1.15292 9.4359,1.95833 Z M13.9487,4.04167 C13.9487,4.84708 13.3058,5.5 12.5128,5.5 C11.94,5.5 11.4456,5.15936 11.2151,4.66667 L10.7087,4.66667 L9.9615,5.96101 L10.2958,6.54167 L10.8737,7.58333 L13.2664,7.58333 C13.4968,7.09064 13.9913,6.75 14.5641,6.75 C15.3571,6.75 16,7.40292 16,8.20833 C16,9.0137 15.3571,9.6667 14.5641,9.6667 C13.9913,9.6667 13.4968,9.326 13.2664,8.83333 L10.6426,8.83333 L10.2958,9.4583 L9.8414,10.2476 L10.7087,11.75 L11.2151,11.75 C11.4456,11.2573 11.94,10.9167 12.5128,10.9167 C13.3058,10.9167 13.9487,11.5696 13.9487,12.375 C13.9487,13.1804 13.3058,13.8333 12.5128,13.8333 C11.94,13.8333 11.4456,13.4927 11.2151,13 L10.2517,13 C10.106,13 9.9714,12.9216 9.8977,12.7941 L8.80925,10.9087 L7.82292,10.9167 L6.78075,10.9082 L5.69201,12.7941 C5.61839,12.9216 5.48372,13 5.33809,13 L4.37465,13 C4.14418,13.4927 3.64974,13.8333 3.07692,13.8333 C2.2839,13.8333 1.64103,13.1804 1.64103,12.375 C1.64103,11.5696 2.2839,10.9167 3.07692,10.9167 C3.64974,10.9167 4.14418,11.2573 4.37465,11.75 L4.88101,11.75 L5.77644,10.199 L5.35006,9.4583 L5.00326,8.83333 L2.73362,8.83333 C2.50315,9.326 2.00871,9.6667 1.4359,9.6667 C0.64288,9.6667 0,9.0137 0,8.20833 C0,7.40292 0.64288,6.75 1.4359,6.75 C2.00871,6.75 2.50315,7.09064 2.73362,7.58333 L4.77209,7.58333 L5.35006,6.54167 L5.6563,6.00966 L4.88101,4.66667 L4.37465,4.66667 C4.14418,5.15936 3.64974,5.5 3.07692,5.5 C2.2839,5.5 1.64103,4.84708 1.64103,4.04167 C1.64103,3.23626 2.2839,2.58333 3.07692,2.58333 C3.64974,2.58333 4.14418,2.92397 4.37465,3.41667 L5.33809,3.41667 C5.48372,3.41667 5.61839,3.49503 5.69201,3.62258 L6.54132,5.09373 L7.82292,5.08333 L9.0487,5.09329 L9.8977,3.62258 C9.9714,3.49503 10.106,3.41667 10.2517,3.41667 L11.2151,3.41667 C11.4456,2.92397 11.94,2.58333 12.5128,2.58333 C13.3058,2.58333 13.9487,3.23626 13.9487,4.04167 Z M9.1685,7.25 L8.72498,6.50685 L7.84998,6.5 L6.97498,6.50685 L6.53145,7.25 L6.09998,8 L6.53145,8.75 L6.97498,9.4931 L7.84998,9.5 L8.72498,9.4931 L9.1685,8.75 L9.6,8 L9.1685,7.25 Z M9.4359,14.0417 C9.4359,14.8471 8.79302,15.5 8,15.5 C7.20698,15.5 6.5641,14.8471 6.5641,14.0417 C6.5641,13.2363 7.20698,12.5833 8,12.5833 C8.79302,12.5833 9.4359,13.2363 9.4359,14.0417 Z" id="Shape"></path>
            <polygon id="Path" fill-rule="nonzero" opacity="0.5" points="8.72498 6.50685 9.1685 7.25 9.6 8 9.1685 8.75 8.72498 9.4931 7.84998 9.5 6.97498 9.4931 6.53145 8.75 6.09998 8 6.53145 7.25 6.97498 6.50685 7.84998 6.5"></polygon>
        </g>
    </g>
</svg>