<?xml version="1.0" encoding="UTF-8"?>
<svg width="18px" height="18px" viewBox="0 0 18 18" version="1.1" xmlns="http://www.w3.org/2000/svg" xmlns:xlink="http://www.w3.org/1999/xlink">
    <title>lnb/filled/single_cluster</title>
    <defs>
        <filter id="filter-1">
            <feColorMatrix in="SourceGraphic" type="matrix" values="0 0 0 0 1.000000 0 0 0 0 1.000000 0 0 0 0 1.000000 0 0 0 1.000000 0"></feColorMatrix>
        </filter>
    </defs>
    <g id="lnb/filled/single_cluster" stroke="none" stroke-width="1" fill="none" fill-rule="evenodd">
        <g filter="url(#filter-1)">
            <g>
                <polygon id="Path" points="0 0 18 0 18 18 0 18"></polygon>
                <path d="M9,1.5 C13.14,1.5 16.5,4.86 16.5,9 C16.5,13.14 13.14,16.5 9,16.5 C4.86,16.5 1.5,13.14 1.5,9 C1.5,4.86 4.86,1.5 9,1.5 Z M9,7.5 C8.17157288,7.5 7.5,8.17157288 7.5,9 C7.5,9.82842712 8.17157288,10.5 9,10.5 C9.82842712,10.5 10.5,9.82842712 10.5,9 C10.5,8.17157288 9.82842712,7.5 9,7.5 Z" id="Combined-Shape" fill="#000000" fill-rule="nonzero"></path>
            </g>
        </g>
    </g>
</svg>