<?xml version="1.0" encoding="UTF-8"?>
<svg width="18px" height="18px" viewBox="0 0 18 18" version="1.1" xmlns="http://www.w3.org/2000/svg" xmlns:xlink="http://www.w3.org/1999/xlink">
    <title>lnb/filled/storage</title>
    <defs>
        <filter id="filter-1">
            <feColorMatrix in="SourceGraphic" type="matrix" values="0 0 0 0 1.000000 0 0 0 0 1.000000 0 0 0 0 1.000000 0 0 0 1.000000 0"></feColorMatrix>
        </filter>
    </defs>
    <g id="lnb/filled/storage" stroke="none" stroke-width="1" fill="none" fill-rule="evenodd">
        <g filter="url(#filter-1)">
            <g>
                <polygon id="Path" points="0 0 18 0 18 18 0 18"></polygon>
                <path d="M1.5,15 L16.5,15 L16.5,12 L1.5,12 L1.5,15 Z M3,12.75 L4.5,12.75 L4.5,14.25 L3,14.25 L3,12.75 Z M1.5,3 L1.5,6 L16.5,6 L16.5,3 L1.5,3 Z M4.5,5.25 L3,5.25 L3,3.75 L4.5,3.75 L4.5,5.25 Z M1.5,10.5 L16.5,10.5 L16.5,7.5 L1.5,7.5 L1.5,10.5 Z M3,8.25 L4.5,8.25 L4.5,9.75 L3,9.75 L3,8.25 Z" id="Shape" fill="#000000" fill-rule="nonzero"></path>
            </g>
        </g>
    </g>
</svg>