<?xml version="1.0" encoding="UTF-8"?>
<svg width="18px" height="18px" viewBox="0 0 18 18" version="1.1" xmlns="http://www.w3.org/2000/svg" xmlns:xlink="http://www.w3.org/1999/xlink">
    <title>lnb/filled/terraform_claim</title>
    <defs>
        <filter id="filter-1">
            <feColorMatrix in="SourceGraphic" type="matrix" values="0 0 0 0 1.000000 0 0 0 0 1.000000 0 0 0 0 1.000000 0 0 0 1.000000 0"></feColorMatrix>
        </filter>
    </defs>
    <g id="lnb/filled/terraform_claim" stroke="none" stroke-width="1" fill="none" fill-rule="evenodd">
        <g filter="url(#filter-1)">
            <g>
                <polygon id="Path" points="0 0 18 0 18 18 0 18"></polygon>
                <path d="M2.25,3.75 L2.25,14.25 C2.25,15.075 2.9175,15.75 3.75,15.75 L8.25,15.75 L8.25,2.25 L3.75,2.25 C2.9175,2.25 2.25,2.925 2.25,3.75 Z M14.25,2.25 L9.75,2.25 L9.75,8.25 L15.75,8.25 L15.75,3.75 C15.75,2.925 15.075,2.25 14.25,2.25 Z M9.75,15.75 L14.25,15.75 C15.075,15.75 15.75,15.075 15.75,14.25 L15.75,9.75 L9.75,9.75 L9.75,15.75 Z" id="Shape" fill="#000000" fill-rule="nonzero"></path>
            </g>
        </g>
    </g>
</svg>