<?xml version="1.0" encoding="UTF-8"?>
<svg width="18px" height="18px" viewBox="0 0 18 18" version="1.1" xmlns="http://www.w3.org/2000/svg" xmlns:xlink="http://www.w3.org/1999/xlink">
    <title>lnb/filled/topology_filled</title>
    <defs>
        <filter id="filter-1">
            <feColorMatrix in="SourceGraphic" type="matrix" values="0 0 0 0 1.000000 0 0 0 0 1.000000 0 0 0 0 1.000000 0 0 0 1.000000 0"></feColorMatrix>
        </filter>
    </defs>
    <g id="lnb/filled/topology_filled" stroke="none" stroke-width="1" fill="none" fill-rule="evenodd">
        <g filter="url(#filter-1)" id="lnb/developer">
            <g>
                <path d="M9.5,6 C8.12142857,6 7,7.12142857 7,8.5 C7,9.87857143 8.12142857,11 9.5,11 C10.8785714,11 12,9.87857143 12,8.5 C12,7.12142857 10.8785714,6 9.5,6 Z" id="Shape" fill="#000000" fill-rule="nonzero" opacity="0.5"></path>
                <path d="M14.75,1 C13.785,1 13,1.785 13,2.75 C13,3.715 13.785,4.5 14.75,4.5 C15.715,4.5 16.5,3.715 16.5,2.75 C16.5,1.785 15.715,1 14.75,1 Z" id="Shape" fill="#000000" fill-rule="nonzero" opacity="0.3"></path>
                <path d="M3.5,12.2 C2.39714286,12.2 1.5,13.0971429 1.5,14.2 C1.5,15.3028571 2.39714286,16.2 3.5,16.2 C4.60285714,16.2 5.5,15.3028571 5.5,14.2 C5.5,13.0971429 4.60285714,12.2 3.5,12.2 Z" id="Shape" fill="#000000" fill-rule="nonzero" opacity="0.3"></path>
                <g id="developer" transform="translate(1.000000, 1.000000)" fill="#151515">
                    <path d="M13.8463235,0 C15.0330882,0 15.9977941,0.965332031 15.9977941,2.14746094 C15.9977941,3.32958984 15.0330882,4.29052734 13.8463235,4.29052734 C13.5498147,4.29052734 13.2679015,4.22964669 13.0120796,4.12219872 C12.9861038,4.17060906 12.9520944,4.21677523 12.9121502,4.25947458 L11.6917522,5.56464578 C12.0343792,6.12891444 12.2316177,6.79157316 12.2316177,7.5 C12.2316177,7.83632813 12.1873824,8.16234375 12.1041824,8.47279688 L12.0345588,8.70263672 L11.615,9.521 L12.5677565,10.5671587 L12.6238727,10.61939 C13.3780515,10.225846 14.3314151,10.3454725 14.9645007,10.9782695 C15.3548336,11.3684245 15.55,11.8807307 15.55,12.393037 C15.55,12.9053433 15.3548336,13.4158265 14.9645007,13.8078046 C14.1838349,14.5881145 12.9161651,14.5881145 12.1354993,13.8078046 C11.6005643,13.2718642 11.4321824,12.5090726 11.6303536,11.8303199 L11.5757244,11.7922164 L10.5066101,10.6526847 C10.0310971,10.9589382 9.48180856,11.1612553 8.89145628,11.227235 L8.63602942,11.2470703 L7.69926471,11.1708984 C7.22405176,11.0731473 6.78171113,10.8860389 6.39063765,10.6280361 L4.70357226,12.3149348 C4.90119075,12.683127 5,13.090677 5,13.498227 C5,14.1386099 4.75604195,14.7767138 4.26812585,15.2666864 C3.29229366,16.2420739 1.70770634,16.2420739 0.731874145,15.2666864 C-0.243958048,14.2890201 -0.243958048,12.7074339 0.731874145,11.7297676 C1.49556891,10.9664209 2.6321118,10.800476 3.55791444,11.2319328 L5.286,9.503 L5.24485295,9.43945312 L4.82720589,8.46240234 C4.74632353,8.15478516 4.70220589,7.83251953 4.70220589,7.5 C4.70220589,6.53107046 5.07079437,5.64852884 5.67646481,4.98336797 L4.96678667,4.07476422 C4.83235638,4.10324438 4.69293273,4.1182266 4.55,4.1182266 C3.44516864,4.1182266 2.55,3.22305796 2.55,2.1182266 C2.55,1.01339524 3.44516864,0.118226601 4.55,0.118226601 C5.65483136,0.118226601 6.55,1.01339524 6.55,2.1182266 C6.55,2.50115111 6.44246764,2.85888982 6.25594348,3.16290218 L6.965,4.072 L7.04485295,4.02685547 C7.41004902,3.87792969 7.80486112,3.7849528 8.21737473,3.75809733 L8.46691177,3.75 C9.26375281,3.75 10.0012331,3.99616937 10.6089821,4.4151269 L11.7633365,3.18134257 C11.8062109,3.1355108 11.8534848,3.09626 11.9038929,3.06363235 C11.7690326,2.7859081 11.6948529,2.47394876 11.6948529,2.14306641 C11.6948529,0.9609375 12.6595588,0 13.8463235,0 Z M3.38406293,12.6157703 C2.89614683,12.1280766 2.10385317,12.1280766 1.61593707,12.6157703 C1.12802098,13.1046035 1.12802098,13.8953965 1.61593707,14.3842297 C2.10385317,14.8719234 2.89614683,14.8719234 3.38406293,14.3842297 C3.62802098,14.1392434 3.75,13.8201914 3.75,13.5 C3.75,13.1798086 3.62802098,12.8596171 3.38406293,12.6157703 Z M8.5,5.25 C7.25722656,5.25 6.25,6.25722656 6.25,7.5 C6.25,8.74277344 7.25722656,9.75 8.5,9.75 C9.74453125,9.75 10.75,8.74277344 10.75,7.5 C10.75,6.25722656 9.74277344,5.25 8.5,5.25 Z M13.9,1.18 C13.3465894,1.18 12.9,1.62658945 12.9,2.18 C12.9,2.73341055 13.3465894,3.18 13.9,3.18 C14.4534106,3.18 14.9,2.73341055 14.9,2.18 C14.9,1.62658945 14.4534106,1.18 13.9,1.18 Z" id="Shape"></path>
                </g>
            </g>
        </g>
    </g>
</svg>