<?xml version="1.0" encoding="UTF-8"?>
<svg width="18px" height="18px" viewBox="0 0 18 18" version="1.1" xmlns="http://www.w3.org/2000/svg" xmlns:xlink="http://www.w3.org/1999/xlink">
    <title>lnb/filled/workload</title>
    <defs>
        <filter id="filter-1">
            <feColorMatrix in="SourceGraphic" type="matrix" values="0 0 0 0 1.000000 0 0 0 0 1.000000 0 0 0 0 1.000000 0 0 0 1.000000 0"></feColorMatrix>
        </filter>
    </defs>
    <g id="lnb/filled/workload" stroke="none" stroke-width="1" fill="none" fill-rule="evenodd">
        <g filter="url(#filter-1)">
            <g>
                <rect id="Rectangle" x="0" y="0" width="18" height="18"></rect>
                <path d="M14.9775,4.8225 L9,1.5 L3.0225,4.8225 L6.825,6.93 C7.3725,6.36 8.145,6 9,6 C9.855,6 10.6275,6.36 11.175,6.93 L14.9775,4.8225 Z M7.5,9 C7.5,8.175 8.175,7.5 9,7.5 C9.825,7.5 10.5,8.175 10.5,9 C10.5,9.825 9.825,10.5 9,10.5 C8.175,10.5 7.5,9.825 7.5,9 Z M8.25,16.08 L2.25,12.75 L2.25,6.105 L6.0975,8.2425 C6.03,8.4825 6,8.7375 6,9 C6,10.395 6.9525,11.5725 8.25,11.9025 L8.25,16.08 Z M9.75,16.08 L9.75,11.9025 C11.0475,11.5725 12,10.395 12,9 C12,8.7375 11.97,8.4825 11.9025,8.2425 L15.75,6.105 L15.75,12.75 L9.75,16.08 Z" id="Shape" fill="#000000" fill-rule="nonzero"></path>
            </g>
        </g>
    </g>
</svg>