<svg width="217" height="61" viewBox="0 0 217 61" xmlns="http://www.w3.org/2000/svg" xmlns:xlink="http://www.w3.org/1999/xlink"><title>Mask</title><defs><path id="a" d="M0 0h217v61H0z"/><path id="c" d="M.169.065H11.56v14.027H.169z"/></defs><g fill="none" fill-rule="evenodd"><mask id="b" fill="#fff"><use xlink:href="#a"/></mask><ellipse fill="#EC3854" opacity=".418" mask="url(#b)" cx="73.5" cy="-26" rx="151.5" ry="82"/><ellipse fill="#EC3854" mask="url(#b)" cx="53" cy="-4.5" rx="131" ry="74.5"/><g><path d="M30.63 21.057c2.796 0 5.097 1.971 5.434 4.516l.047-.002a3.87 3.87 0 0 1 3.87 3.869c0 2.137-1.733 3.83-3.87 3.83h-6.109v.537a2.69 2.69 0 0 1 1.93 1.93H36.2v1.225h-4.242a2.687 2.687 0 0 1-5.257 0h-4.241v-1.226h4.269a2.69 2.69 0 0 1 1.93-1.93l-.001-.536h-6.09v.043c-1.501-.532-2.579-2.19-2.579-3.873a3.87 3.87 0 0 1 3.87-3.869c.46 0 .9.085 1.31.233.225-2.656 2.58-4.747 5.46-4.747zm-1.3 14.008a1.343 1.343 0 1 0 0 2.685 1.343 1.343 0 0 0 0-2.685zm7.192-6.879h-4.029v1.343l1.118-.001-.447 2.686h1.343l.447-2.686h1.568v-1.342z" fill="#FFF"/><path fill="#FEFEFE" d="M55.253 23l-.794 4.777h-3.344L51.91 23h-3.75L46 36h3.748l.87-5.232h3.344L53.094 36h3.749L59 23zM61.428 35.308l-1.443-9.883h3.423l.352 3.396c.032.32.048.623.048.914 0 .293-.015.574-.043.85.12-.333.237-.643.352-.932.115-.287.224-.54.323-.755l1.577-3.473h3.236l-7.002 14.573h-2.994l2.171-4.69zM96.75 25.786a1.656 1.656 0 0 0-.647-.379 2.188 2.188 0 0 0-.763-.14c-.415 0-.81.117-1.201.354-.394.233-.786.59-1.178 1.037l.162-1.25h-3.188l-1.782 10.38h3.236l.879-5.118c.114-.734.324-1.253.622-1.607.3-.352.695-.519 1.179-.519.207 0 .417.047.625.12.183.07.369.165.53.28l1.526-3.158zM67.602 40l2.514-14.565h3.077l-.044.806c.339-.336.68-.581 1.015-.74a2.467 2.467 0 0 1 1.045-.235c1.01 0 1.74.477 2.194 1.43.454.952.543 2.22.27 3.8-.27 1.573-.825 2.85-1.66 3.828-.838.977-1.769 1.466-2.788 1.466-.353 0-.657-.068-.915-.204a1.838 1.838 0 0 1-.668-.627L70.77 40h-3.167zm4.458-7.48c.102.126.213.218.33.277a.8.8 0 0 0 .38.091c.398 0 .74-.21 1.025-.628.287-.418.494-1.014.63-1.789.133-.763.128-1.365-.013-1.809-.141-.444-.394-.666-.762-.666a.88.88 0 0 0-.42.118c-.143.08-.302.2-.471.364l-.699 4.042zM81.751 31.38a3.441 3.441 0 0 0-.04.29c-.014.125-.02.235-.02.333 0 .513.166.871.497 1.08.333.204.729.308 1.188.308.704 0 1.376-.092 2.012-.278a6.943 6.943 0 0 0 1.747-.779l-.345 2.531c-.19.138-.42.275-.692.415a6.322 6.322 0 0 1-.914.373c-.338.11-.696.2-1.076.269-.379.07-.773.104-1.179.104-.676 0-1.292-.11-1.847-.33a4.09 4.09 0 0 1-1.435-.955 4.405 4.405 0 0 1-.933-1.525c-.226-.6-.336-1.276-.336-2.021a7.2 7.2 0 0 1 .346-2.232 6.1 6.1 0 0 1 .994-1.898 4.905 4.905 0 0 1 1.566-1.316c.61-.325 1.3-.487 2.072-.487.773 0 1.429.113 1.972.342.54.228.982.554 1.32.975.339.422.58.938.732 1.556.147.615.222 1.311.222 2.084a7.955 7.955 0 0 1-.08 1.16h-5.77zm2.599-1.97c.016-.07.021-.148.021-.24v-.238c0-.136-.01-.287-.03-.446a1.277 1.277 0 0 0-.142-.445 1.015 1.015 0 0 0-.295-.342c-.122-.09-.281-.135-.487-.135-.068 0-.167.015-.295.041a.956.956 0 0 0-.407.23c-.14.124-.28.31-.416.56-.135.246-.236.586-.303 1.014h2.354zM128.588 34.847c-.496.43-.984.75-1.463.962a3.584 3.584 0 0 1-1.44.314c-.91 0-1.535-.31-1.876-.93-.34-.622-.398-1.57-.179-2.845l1.207-6.976h3.27l-1.121 6.497c-.092.52-.086.888.019 1.11.102.221.312.331.632.331.147 0 .312-.03.495-.092.181-.06.388-.15.609-.263l1.313-7.583h3.27l-1.12 6.477c-.08.47-.07.775.029.914.098.142.325.224.684.25l-1.157 2.931c-.247.064-.476.11-.684.138-.21.027-.403.041-.582.041-.537 0-.96-.103-1.272-.31-.314-.209-.524-.53-.634-.966M117.117 30.66c.14-.791.35-1.436.655-1.893.306-.453.634-.694 1.01-.694.373 0 .632.24.773.694.14.457.14 1.102 0 1.893-.141.812-.353 1.46-.658 1.913-.304.456-.632.695-1.03.695-.353 0-.61-.24-.75-.695-.142-.454-.142-1.101 0-1.913m5.205-3.974c-.633-.981-1.664-1.483-3.072-1.46-1.383-.023-2.58.479-3.564 1.46-.985.958-1.618 2.272-1.9 3.974-.305 1.675-.117 2.99.515 3.971.658.983 1.69 1.461 3.073 1.461 1.409 0 2.603-.478 3.589-1.46.96-.982 1.595-2.297 1.9-3.972.303-1.702.117-3.016-.541-3.974M138.503 33.1l.843-4.872a2.675 2.675 0 0 0-.408-.146 1.289 1.289 0 0 0-.287-.038c-.44 0-.81.217-1.11.649-.304.434-.525 1.064-.666 1.888-.148.848-.139 1.479.022 1.895.16.418.472.625.937.625h.669zm2.756 2.75h-3.183c-1.058 0-1.838-.078-2.34-.232a2.976 2.976 0 0 1-1.286-.773c-.462-.47-.762-1.08-.905-1.83-.143-.75-.12-1.65.061-2.7.26-1.512.817-2.74 1.673-3.685.851-.948 1.822-1.42 2.905-1.42.319 0 .616.04.882.12.268.08.506.197.72.35l.576-3.336h3.228l-2.33 13.505zM111.96 35.85h-3.748l2.2-13.5h3.748z"/><g transform="translate(96.979 22)"><mask id="d" fill="#fff"><use xlink:href="#c"/></mask><path d="M10.378 12.62c-.553.43-1.235.783-2.044 1.058a8.147 8.147 0 0 1-2.637.414 7.163 7.163 0 0 1-2.27-.344 4.258 4.258 0 0 1-1.748-1.089c-.48-.496-.852-1.14-1.115-1.933C.3 9.933.17 8.978.17 7.863c0-.873.135-1.769.404-2.689a8.398 8.398 0 0 1 1.215-2.518A6.746 6.746 0 0 1 3.783.791C4.572.307 5.493.065 6.547.065c.54 0 1.099.094 1.678.281a4.669 4.669 0 0 1 1.6.901c.485.414.89.945 1.214 1.594.322.648.496 1.443.522 2.384l-3.593.544a6.229 6.229 0 0 0-.029-.928 2.909 2.909 0 0 0-.218-.866 1.772 1.772 0 0 0-.45-.634c-.19-.168-.442-.252-.757-.252-.314 0-.578.081-.795.243-.214.16-.396.367-.539.615-.145.25-.259.523-.345.818-.085.296-.154.58-.206.848-.09.417-.168.886-.226 1.404-.058.52-.094 1-.108 1.445-.026.768.138 1.364.493 1.789.353.424.958.635 1.81.635a6.26 6.26 0 0 0 2.333-.432 8.055 8.055 0 0 0 1.998-1.14l-.551 3.306z" fill="#FEFEFE" mask="url(#d)"/></g></g></g></svg>