<?xml version="1.0" encoding="utf-8"?>
<!-- Generator: Adobe Illustrator 16.0.0, SVG Export Plug-In . SVG Version: 6.00 Build 0)  -->
<!DOCTYPE svg PUBLIC "-//W3C//DTD SVG 1.1//EN" "http://www.w3.org/Graphics/SVG/1.1/DTD/svg11.dtd">
<svg version="1.1" id="Layer_1" xmlns="http://www.w3.org/2000/svg" xmlns:xlink="http://www.w3.org/1999/xlink" x="0px" y="0px"
	 width="17px" height="17px" viewBox="0 0 17 17" enable-background="new 0 0 17 17" xml:space="preserve">
<path d="M4.405,6.404c0.489-0.979,1.287-1.768,2.277-2.237c0.151-0.071,0.307-0.13,0.466-0.186C7.322,3.92,7.505,3.878,7.687,3.834
	h1.001V0.24H7.74L7.451,2.066C6.616,2.234,5.84,2.562,5.149,3.011L3.614,1.853L2.126,3.341L3.26,4.864
	c-0.471,0.696-0.812,1.488-0.99,2.34L0.532,7.459v2.104l1.711,0.239c0.162,0.865,0.491,1.669,0.952,2.381l-1.069,1.438l1.488,1.488
	l1.399-1.057c0.706,0.484,1.515,0.82,2.381,1.004l0.294,1.704h0.999v-3.302c-0.571-0.01-1.115-0.121-1.623-0.312
	c-1.199-0.451-2.178-1.354-2.719-2.509c-0.086-0.184-0.15-0.375-0.214-0.57C3.979,9.595,3.876,9.1,3.876,8.576
	c0-0.583,0.119-1.135,0.307-1.653C4.247,6.744,4.321,6.573,4.405,6.404z"/>
<path fill="none" d="M14.742,7.557c0.455-0.305,0.725-0.812,0.725-1.357c0-0.807-0.607-1.498-1.414-1.608
	c-0.266-0.036-0.506-0.177-0.666-0.391s-0.229-0.483-0.189-0.748c0.01-0.061,0.02-0.104,0.02-0.148c0-0.546-0.443-0.989-0.988-0.989
	c-0.068,0-0.15,0.014-0.258,0.043c-0.088,0.022-0.174,0.034-0.26,0.034c-0.371,0-0.721-0.207-0.895-0.551
	c-0.033-0.065-0.064-0.113-0.092-0.146c-0.082,0.101-0.197,0.322-0.225,0.673c-0.002,0.03-0.006,0.061-0.01,0.09v12.291
	c0.004,0.03,0.008,0.062,0.012,0.093c0.027,0.351,0.145,0.572,0.225,0.671c0.031-0.038,0.072-0.097,0.111-0.182
	c0.166-0.366,0.529-0.586,0.91-0.586c0.117,0,0.236,0.021,0.352,0.063c0.119,0.046,0.23,0.067,0.338,0.067
	c0.545,0,0.988-0.443,0.988-0.988c0-0.116-0.023-0.237-0.072-0.359c-0.109-0.279-0.086-0.594,0.061-0.855
	c0.148-0.261,0.404-0.442,0.701-0.494c0.783-0.136,1.352-0.811,1.352-1.604c0-0.545-0.27-1.052-0.725-1.357
	c-0.139-0.094-0.25-0.219-0.326-0.363c-0.926-0.372-1.24-1.024-1.26-1.068c-0.111-0.253,0.004-0.548,0.258-0.659
	c0.25-0.11,0.541,0.001,0.654,0.248c0.014,0.025,0.135,0.229,0.439,0.416C14.572,7.701,14.648,7.62,14.742,7.557z"/>
<path d="M15.301,8.387c0.123-0.083,0.229-0.188,0.336-0.291c0.506-0.479,0.83-1.146,0.83-1.896c0-1.333-0.994-2.424-2.279-2.599
	c0.014-0.098,0.029-0.195,0.029-0.297c0-1.099-0.891-1.989-1.988-1.989c-0.18,0-0.352,0.032-0.518,0.077
	c-0.227-0.449-0.582-0.743-0.984-0.743c-0.637,0-1.154,0.721-1.223,1.644H9.49v12.626h0.014c0.072,0.92,0.588,1.637,1.223,1.637
	c0.424,0,0.799-0.321,1.021-0.811c0.215,0.081,0.445,0.131,0.689,0.131c1.098,0,1.988-0.891,1.988-1.988
	c0-0.256-0.053-0.499-0.141-0.724c1.238-0.215,2.182-1.289,2.182-2.589c0-0.55-0.184-1.049-0.471-1.471
	C15.807,8.825,15.58,8.575,15.301,8.387z M14.115,12.178c-0.297,0.052-0.553,0.233-0.701,0.494c-0.146,0.262-0.17,0.576-0.061,0.855
	c0.049,0.122,0.072,0.243,0.072,0.359c0,0.545-0.443,0.988-0.988,0.988c-0.107,0-0.219-0.021-0.338-0.067
	c-0.115-0.043-0.234-0.063-0.352-0.063c-0.381,0-0.744,0.22-0.91,0.586c-0.039,0.085-0.08,0.144-0.111,0.182
	c-0.08-0.099-0.197-0.32-0.225-0.671c-0.004-0.031-0.008-0.062-0.012-0.093V2.457c0.004-0.029,0.008-0.06,0.01-0.09
	c0.027-0.351,0.143-0.572,0.225-0.673c0.027,0.033,0.059,0.081,0.092,0.146c0.174,0.344,0.523,0.551,0.895,0.551
	c0.086,0,0.172-0.012,0.26-0.034c0.107-0.029,0.189-0.043,0.258-0.043c0.545,0,0.988,0.443,0.988,0.989
	c0,0.045-0.01,0.088-0.02,0.148c-0.039,0.265,0.029,0.534,0.189,0.748s0.4,0.354,0.666,0.391c0.807,0.11,1.414,0.802,1.414,1.608
	c0,0.545-0.27,1.053-0.725,1.357c-0.094,0.063-0.17,0.145-0.234,0.233c-0.305-0.188-0.426-0.391-0.439-0.416
	c-0.113-0.247-0.404-0.358-0.654-0.248c-0.254,0.111-0.369,0.406-0.258,0.659c0.02,0.044,0.334,0.696,1.26,1.068
	c0.076,0.145,0.188,0.27,0.326,0.363c0.455,0.306,0.725,0.812,0.725,1.357C15.467,11.367,14.898,12.042,14.115,12.178z"/>
<path d="M11.572,13.834c-0.232,0-0.441-0.165-0.488-0.403c-0.02-0.091-0.162-0.902,0.328-1.533c0.213-0.271,0.623-0.604,1.383-0.646
	c0.312-0.026,0.512,0.196,0.525,0.472c0.016,0.276-0.195,0.512-0.471,0.526c-0.309,0.017-0.525,0.104-0.646,0.261
	c-0.188,0.24-0.156,0.634-0.139,0.727c0.053,0.271-0.123,0.534-0.395,0.587C11.639,13.831,11.605,13.834,11.572,13.834z"/>
<path d="M12.66,6.726c-0.83,0-1.393-0.57-1.592-0.918c-0.693-1.403,0.105-2.351,0.623-2.659c0.235-0.142,0.543-0.064,0.686,0.173
	c0.141,0.235,0.065,0.54-0.168,0.683c-0.119,0.075-0.678,0.486-0.26,1.333c0.016,0.021,0.319,0.493,0.91,0.366
	c0.269-0.06,0.535,0.112,0.595,0.383c0.059,0.27-0.112,0.536-0.383,0.595C12.928,6.711,12.791,6.726,12.66,6.726z"/>
<path d="M13.803,10.755c-0.346,0-0.652-0.089-0.92-0.268c-0.651-0.436-0.756-1.219-0.766-1.307
	c-0.029-0.274,0.168-0.521,0.442-0.552c0.282-0.032,0.52,0.165,0.552,0.438c0.015,0.115,0.104,0.442,0.332,0.593
	c0.18,0.117,0.442,0.126,0.783,0.027c0.266-0.078,0.542,0.077,0.619,0.342c0.076,0.265-0.076,0.542-0.342,0.619
	C14.256,10.719,14.021,10.755,13.803,10.755z"/>
</svg>
