<?xml version="1.0" encoding="utf-8"?>
<!-- Generator: Adobe Illustrator 16.0.0, SVG Export Plug-In . SVG Version: 6.00 Build 0)  -->
<!DOCTYPE svg PUBLIC "-//W3C//DTD SVG 1.1//EN" "http://www.w3.org/Graphics/SVG/1.1/DTD/svg11.dtd">
<svg version="1.1" id="Layer_1" xmlns="http://www.w3.org/2000/svg" xmlns:xlink="http://www.w3.org/1999/xlink" x="0px" y="0px"
	 width="17px" height="17px" viewBox="0 0 17 17" enable-background="new 0 0 17 17" xml:space="preserve">
<path d="M15.773,10.299l-1.11-2.065c-0.356-0.421-0.433-2.115-0.433-2.115c-0.166-2.669-1.931-4.9-4.349-5.753v1.931l1.076,1.391
	c0.091-0.029,0.183-0.057,0.283-0.057c0.521,0,0.943,0.422,0.943,0.944c0,0.521-0.423,0.943-0.943,0.943
	c-0.521,0-0.944-0.422-0.944-0.943c0-0.12,0.028-0.232,0.068-0.337L9.076,2.572V0.136C8.706,0.057,8.324,0.013,7.933,0v7.568
	C8.25,7.72,8.474,8.038,8.474,8.414c0,0.521-0.423,0.944-0.944,0.944c-0.521,0-0.944-0.423-0.944-0.944
	c0-0.376,0.223-0.694,0.541-0.846V0.019c-0.442,0.04-0.871,0.123-1.283,0.246v3.724L4.556,5.653C4.596,5.758,4.624,5.87,4.624,5.99
	c0,0.521-0.422,0.943-0.943,0.943c-0.521,0-0.944-0.422-0.944-0.943c0-0.521,0.422-0.944,0.944-0.944c0.1,0,0.192,0.028,0.283,0.057
	L5.04,3.712V0.566C2.765,1.589,1.178,3.87,1.178,6.525c0,1.869,0.795,4.47,2.052,5.661L3.266,17h7.696l0.026-2.202h1.35
	c1.267-0.133,1.393-1.544,1.393-1.544l0.52-1.889h0.893C16.077,11.301,15.773,10.299,15.773,10.299z"/>
</svg>
