<?xml version="1.0" encoding="UTF-8"?>
<svg width="360px" height="200px" viewBox="0 0 360 200" version="1.1" xmlns="http://www.w3.org/2000/svg" xmlns:xlink="http://www.w3.org/1999/xlink">
    <!-- Generator: Sketch 64 (93537) - https://sketch.com -->
    <title>img_403error</title>
    <desc>Created with Sketch.</desc>
    <defs>
        <path d="M19.7280279,5.52556868 L34.1144916,48.3632749 C34.4661451,49.4103725 33.9023763,50.5442845 32.8552786,50.8959381 C32.6500673,50.9648555 32.4350283,51 32.2185535,51 L2.82012768,51 C1.71555819,51 0.820127685,50.1045695 0.820127685,49 C0.820127685,48.7747566 0.858176715,48.5511314 0.932668914,48.3385626 L15.944631,5.50085644 C16.3099328,4.45844174 17.4511125,3.90953326 18.4935272,4.27483503 C19.0759633,4.47894281 19.5315458,4.94051599 19.7280279,5.52556868 Z" id="path-1"></path>
        <path d="M22.7926618,5.5517565 L40.1191072,57.3657287 C40.4694055,58.4132805 39.9041699,59.546462 38.8566181,59.8967604 C38.6521412,59.9651369 38.4379532,60 38.2223468,60 L2.81613243,60 C1.71156293,60 0.816132429,59.1045695 0.816132429,58 C0.816132429,57.7756551 0.853878539,57.5529091 0.92779019,57.3410891 L19.0075592,5.52711688 C19.3714657,4.48421425 20.5119097,3.9337791 21.5548124,4.29768555 C22.139267,4.5016229 22.5963506,4.96469642 22.7926618,5.5517565 Z" id="path-3"></path>
        <path d="M19.2191022,5.58170111 L33.1243309,47.3685136 C33.4730912,48.4165785 32.9061929,49.548929 31.858128,49.8976894 C31.6544855,49.9654546 31.441263,50 31.2266415,50 L2.81160906,50 C1.70703956,50 0.811609063,49.1045695 0.811609063,48 C0.811609063,47.7766744 0.849013007,47.5549258 0.922268655,47.3439567 L15.4320725,5.55714422 C15.7943952,4.51369033 16.9340023,3.96152441 17.9774562,4.32384712 C18.564202,4.52758523 19.0229904,4.99236252 19.2191022,5.58170111 Z" id="path-5"></path>
        <filter x="-5.5%" y="-8.3%" width="110.9%" height="116.7%" filterUnits="objectBoundingBox" id="filter-7">
            <feOffset dx="0" dy="2" in="SourceAlpha" result="shadowOffsetOuter1"></feOffset>
            <feGaussianBlur stdDeviation="0.5" in="shadowOffsetOuter1" result="shadowBlurOuter1"></feGaussianBlur>
            <feColorMatrix values="0 0 0 0 0   0 0 0 0 0   0 0 0 0 0  0 0 0 0.2 0" type="matrix" in="shadowBlurOuter1" result="shadowMatrixOuter1"></feColorMatrix>
            <feMerge>
                <feMergeNode in="shadowMatrixOuter1"></feMergeNode>
                <feMergeNode in="SourceGraphic"></feMergeNode>
            </feMerge>
        </filter>
        <rect id="path-8" x="0" y="0" width="28" height="17"></rect>
        <polygon id="path-10" points="0 26 28 26 28 0 0 0"></polygon>
    </defs>
    <g id="Page-1" stroke="none" stroke-width="1" fill="none" fill-rule="evenodd">
        <g id="3_0_5_Service-instance_1920" transform="translate(-891.000000, -384.000000)">
            <g id="img" transform="translate(891.000000, 384.000000)">
                <g id="Group-4" transform="translate(95.000000, 46.000000)">
                    <rect id="Rectangle-Copy" stroke="#535353" stroke-width="2" fill="#DDDDDC" x="-1" y="-1" width="159" height="102"></rect>
                    <rect id="Rectangle" stroke="#535353" stroke-width="2" fill="#FFFFFF" x="5" y="5" width="147" height="80"></rect>
                    <rect id="Rectangle" stroke="#535353" stroke-width="2" fill="#BBC3C5" x="64" y="101" width="29" height="18"></rect>
                    <rect id="Rectangle" fill="#ADB4B5" x="65" y="102" width="27" height="1"></rect>
                    <rect id="Rectangle" stroke="#535353" stroke-width="2" fill="#DDDDDC" x="49" y="119" width="59" height="7" rx="1"></rect>
                </g>
                <g id="Group-4-Copy-2" transform="translate(266.000000, 117.000000)">
                    <g id="Rectangle-+-Rectangle-Copy-Mask" transform="translate(6.000000, 0.000000)">
                        <mask id="mask-2" fill="white">
                            <use xlink:href="#path-1"></use>
                        </mask>
                        <path stroke="#535353" stroke-width="2" d="M18.8242459,3.33110565 C18.0424348,3.05712932 17.2235869,3.12598184 16.5316977,3.45878119 C15.8398085,3.79158054 15.274878,4.38832673 15.0009017,5.17013775 L-0.0110604709,48.007844 C-0.122798769,48.3266972 -0.179872315,48.6621349 -0.179872315,49 C-0.179872315,49.8284271 0.155914123,50.5784271 0.698807341,51.1213203 C1.24170056,51.6642136 1.99170056,52 2.82012768,52 L32.2185535,52 C32.5432656,52 32.8658241,51.9472833 33.1736412,51.8439071 C33.9589645,51.5801669 34.5630394,51.0230798 34.9048485,50.335597 C35.2466576,49.6481142 35.3262008,48.8302356 35.0624606,48.0449123 L20.6759969,5.20720611 C20.3812739,4.32962708 19.6979001,3.63726732 18.8242459,3.33110565 Z"></path>
                        <rect id="Rectangle" fill="#EDEDED" mask="url(#mask-2)" x="0" y="19.3448276" width="35.875" height="7.9137931"></rect>
                        <rect id="Rectangle-Copy" fill="#EDEDED" mask="url(#mask-2)" x="3.10862447e-15" y="35.1724138" width="35.875" height="7.9137931"></rect>
                    </g>
                    <rect id="Rectangle" stroke="#535353" stroke-width="2" fill="#DD5454" x="1" y="50" width="45" height="5" rx="2.5"></rect>
                </g>
                <g id="Group-4" transform="translate(232.000000, 107.000000)">
                    <g id="Rectangle-+-Rectangle-Copy-Mask" transform="translate(7.000000, 0.000000)">
                        <mask id="mask-4" fill="white">
                            <use xlink:href="#path-3"></use>
                        </mask>
                        <path stroke="#535353" stroke-width="2" d="M21.8842678,3.35351443 C21.1020909,3.08058459 20.2833358,3.15053286 19.5918926,3.48425782 C18.9004494,3.81798279 18.3363179,4.41548446 18.0633881,5.19766142 L-0.0163809302,57.0116336 C-0.127248405,57.3293636 -0.183867571,57.6634827 -0.183867571,58 C-0.183867571,58.8284271 0.151918867,59.5784271 0.694812086,60.1213203 C1.2377053,60.6642136 1.9877053,61 2.81613243,61 L38.2223468,61 C38.5457564,61 38.8670384,60.9477053 39.1737537,60.8451406 C39.9594176,60.5824168 40.5642129,60.0261119 40.9069113,59.3390719 C41.2496096,58.6520319 41.3302111,57.8342569 41.0674873,57.0485931 L23.741042,5.23462085 C23.4465752,4.35403073 22.7609497,3.65942045 21.8842678,3.35351443 Z"></path>
                        <rect id="Rectangle" fill="#EDEDED" mask="url(#mask-4)" x="0" y="23.4782609" width="42.7446809" height="9.56521739"></rect>
                        <rect id="Rectangle-Copy" fill="#EDEDED" mask="url(#mask-4)" x="0" y="41.7391304" width="42.7446809" height="9.56521739"></rect>
                    </g>
                    <rect id="Rectangle" stroke="#535353" stroke-width="2" fill="#F75757" x="1" y="58" width="54" height="7" rx="3"></rect>
                </g>
                <g id="Group-4-Copy-3" transform="translate(56.000000, 164.500000) rotate(-116.000000) translate(-56.000000, -164.500000) translate(33.000000, 137.000000)">
                    <g id="Rectangle-+-Rectangle-Copy-Mask" transform="translate(6.000000, 0.000000)">
                        <mask id="mask-6" fill="white">
                            <use xlink:href="#path-5"></use>
                        </mask>
                        <path stroke="#535353" stroke-width="2" d="M18.3054778,3.37917692 C17.5228874,3.10743488 16.7042395,3.17862608 16.0133038,3.5134004 C15.322368,3.84817472 14.7591443,4.44653215 14.4874023,5.22912257 L-0.0224015492,47.015935 C-0.132285021,47.3323887 -0.188390937,47.6650115 -0.188390937,48 C-0.188390937,48.8284271 0.147395501,49.5784271 0.69028872,50.1213203 C1.23318194,50.6642136 1.98318194,51 2.81160906,51 L31.2266415,51 C31.5485738,51 31.8684075,50.948182 32.1738712,50.846534 C32.9599198,50.5849638 33.5655311,50.0295472 33.9092376,49.343011 C34.2529441,48.6564748 34.3347458,47.838819 34.0731756,47.0527704 L20.1679469,5.2659579 C19.8737792,4.38195002 19.1855965,3.68478408 18.3054778,3.37917692 Z"></path>
                        <rect id="Rectangle" fill="#EDEDED" mask="url(#mask-6)" x="0" y="19.5652174" width="35.4468085" height="7.97101449"></rect>
                        <rect id="Rectangle-Copy" fill="#EDEDED" mask="url(#mask-6)" x="0" y="34.7826087" width="35.4468085" height="7.97101449"></rect>
                    </g>
                    <rect id="Rectangle" stroke="#535353" stroke-width="2" fill="#F75757" x="1" y="49" width="44" height="5" rx="2.5"></rect>
                </g>
                <g id="Group" transform="translate(33.000000, 10.000000)">
                    <circle id="Oval-Copy" fill="#DDDDDC" cx="259" cy="79" r="4"></circle>
                    <circle id="Oval-Copy-2" fill="#DDDDDC" cx="6" cy="35" r="4"></circle>
                    <circle id="Oval" stroke="#535353" stroke-width="2" cx="257" cy="75" r="4"></circle>
                    <circle id="Oval-Copy-3" stroke="#535353" stroke-width="2" cx="4" cy="31" r="4"></circle>
                    <path d="M230,8 L230,12 L228,12 L228,8 L230,8 Z M231,5 L235,5 L235,7 L231,7 L231,5 Z M223,5 L227,5 L227,7 L223,7 L223,5 Z M230,0 L230,4 L228,4 L228,0 L230,0 Z" id="Combined-Shape-Copy-2" fill="#535353"></path>
                    <path d="M36,95 L36,97 L34,97 L34,95 L36,95 Z M36,85 L36,93 L34,93 L34,85 L36,85 Z" id="Combined-Shape-Copy-3" fill="#535353"></path>
                    <path d="M22,80 L22,82 L20,82 L20,80 L22,80 Z M22,70 L22,78 L20,78 L20,70 L22,70 Z" id="Combined-Shape-Copy-4" fill="#535353"></path>
                </g>
                <g id="Group-8" filter="url(#filter-7)" transform="translate(173.500000, 73.000000) rotate(10.000000) translate(-173.500000, -73.000000) translate(114.000000, 34.000000)">
                    <rect id="Rectangle" stroke="#535353" stroke-width="2" fill="#DCEEFF" x="1" y="1" width="117" height="76"></rect>
                    <text id="403" font-family="PTMono-Bold, PT Mono" font-size="37" font-weight="bold" fill="#1976D2">
                        <tspan x="26.7" y="55">403</tspan>
                    </text>
                    <rect id="Rectangle" fill="#1976D2" x="2" y="2" width="115" height="9"></rect>
                    <rect id="Rectangle-Copy-7" fill="#535353" x="2" y="11" width="115" height="2"></rect>
                    <rect id="Rectangle" fill="#FFFFFF" x="105" y="5" width="7" height="2"></rect>
                    <rect id="Rectangle-Copy-5" fill="#FFFFFF" x="96" y="5" width="7" height="2"></rect>
                    <rect id="Rectangle-Copy-6" fill="#FFFFFF" x="86" y="5" width="7" height="2"></rect>
                </g>
                <g id="Group-6" transform="translate(59.000000, 10.000000)">
                    <rect id="Rectangle" stroke="#535353" stroke-width="2" fill="#F6DE52" x="1" y="18" width="26" height="24" rx="2"></rect>
                    <g id="Rectangle">
                        <mask id="mask-9" fill="white">
                            <use xlink:href="#path-8"></use>
                        </mask>
                        <g id="Mask"></g>
                        <rect stroke="#535353" stroke-width="3" mask="url(#mask-9)" x="5.61764706" y="1.5" width="16.7647059" height="18.047619" rx="6"></rect>
                    </g>
                    <path d="M13.5,26 C14.8807119,26 16,27.1192881 16,28.5 C16,29.5884142 15.3044567,30.5143756 14.3336048,30.8576493 L14.3333333,35.1666667 C14.3333333,35.626904 13.9602373,36 13.5,36 C13.0397627,36 12.6666667,35.626904 12.6666667,35.1666667 L12.6663952,30.8576493 C11.6955433,30.5143756 11,29.5884142 11,28.5 C11,27.1192881 12.1192881,26 13.5,26 Z" id="Combined-Shape" stroke="#535353" fill="#535353"></path>
                </g>
                <g id="Group-7" transform="translate(271.000000, 36.000000)">
                    <path d="M26.9778233,12.4421885 C27.0073922,12.4755907 27.0073922,12.5244093 26.9778233,12.5578115 C26.3146334,13.3012242 19.3219931,21 14.0004224,21 C8.67800686,21 1.68621143,13.3012242 1.02217673,12.5578115 C0.992607756,12.5244093 0.992607756,12.4755907 1.02217673,12.4421885 C1.68621143,11.6987758 8.67800686,4 14.0004224,4 C19.3219931,4 26.3146334,11.6987758 26.9778233,12.4421885" id="Fill-1" fill="#FFFFFF"></path>
                    <path d="M15,13.49967 C15,14.3287129 14.3280528,15 13.50033,15 C12.6719472,15 12,14.3287129 12,13.49967 C12,12.6712871 12.6719472,12 13.50033,12 C14.3280528,12 15,12.6712871 15,13.49967" id="Fill-3" fill="#DDDDDC"></path>
                    <mask id="mask-11" fill="white">
                        <use xlink:href="#path-10"></use>
                    </mask>
                    <g id="Clip-6"></g>
                    <path d="M13.7067768,15.7330086 C12.2606136,15.7330086 11.0842506,14.5897232 11.0842506,13.1842241 C11.0842506,11.778725 12.2606136,10.6362827 13.7067768,10.6362827 L13.7067768,11.900979 C12.9780563,11.900979 12.3855371,12.4768373 12.3855371,13.1842241 C12.3855371,13.892454 12.9780563,14.4683123 13.7067768,14.4683123 C14.4354972,14.4683123 15.0271489,13.892454 15.0271489,13.1842241 L16.3284354,13.1842241 C16.3284354,14.5897232 15.1529399,15.7330086 13.7067768,15.7330086 L13.7067768,15.7330086 Z M13.571443,18.8399457 L13.8273627,18.8399457 L14.1301287,16.8231767 L14.5612883,16.7253736 C14.9525418,16.6360017 15.3264448,16.4859244 15.6708519,16.2793573 L16.0473575,16.0525552 L17.7277522,17.275938 L17.9090648,17.1005668 L16.6528895,15.464893 L16.8879886,15.0981311 C17.1013996,14.7642513 17.2566865,14.4033913 17.3477765,14.0231393 L17.4492769,13.6032601 L19.5269978,13.3132231 L19.5269978,13.0636564 L17.4501444,12.77109 L17.3495116,12.3512108 C17.2592891,11.971802 17.1040022,11.6092557 16.8905912,11.2736896 L16.6572271,10.9069277 L17.91427,9.27462645 L17.7338249,9.0984121 L16.0516951,10.3184224 L15.674322,10.0916202 C15.3307824,9.88421003 14.9577469,9.73413275 14.5664934,9.64476088 L14.1353338,9.54611457 L13.8343028,7.52765938 L13.5792507,7.52765938 L13.2790872,9.54527144 L12.8479276,9.64391775 C12.4592767,9.73413275 12.0897113,9.88168064 11.7479067,10.0874046 L11.3705336,10.3125205 L9.69187397,9.0874514 L9.5114289,9.26197948 L10.7641341,10.8993395 L10.5299025,11.2661015 C10.3164915,11.598295 10.1603371,11.9599981 10.067512,12.3410933 L9.96427663,12.7609724 L7.88742328,13.04848 L7.88742328,13.2963605 L9.96254158,13.5931425 L10.0631744,14.0121786 C10.1542645,14.3924306 10.3086838,14.7558199 10.5212273,15.0905429 L10.7537238,15.4573048 L9.49407842,17.0887629 L9.67452349,17.2649773 L11.3583883,16.0466532 L11.7348939,16.2742986 C12.077566,16.4825519 12.4506015,16.6326292 12.8427225,16.7236873 L13.2738821,16.8231767 L13.571443,18.8399457 Z M14.9516742,20.1063282 L12.4427938,20.1029556 L12.1079293,17.8332475 C11.8789029,17.7590519 11.6576842,17.6688369 11.4416706,17.5634456 L9.54786493,18.9335332 L7.77811521,17.2059581 L9.19391498,15.3704623 C9.08634196,15.1605227 8.99351685,14.9438381 8.91804223,14.7229378 L6.58266663,14.3882149 L6.58960682,11.9507237 L8.92498243,11.6278046 C9.00132457,11.405218 9.09501721,11.1885334 9.20345775,10.979437 L7.79459817,9.13888238 L9.57302313,7.41973863 L11.4598886,8.79657127 C11.6715646,8.69370931 11.8901807,8.6060237 12.1148695,8.53351445 L12.453204,6.26296314 L14.961217,6.26296314 L15.2995515,8.53351445 C15.5285779,8.60770996 15.7506642,8.69708183 15.9658102,8.80247318 L17.8570134,7.4298562 L19.6302332,9.15405874 L18.217036,10.9912408 C18.3254765,11.2011804 18.4183016,11.4187081 18.4937762,11.6396084 L20.8300194,11.9701157 L20.8265493,14.40845 L18.4920412,14.7347417 C18.415699,14.9573282 18.3228739,15.1740128 18.2135659,15.3831093 L19.625028,17.2228207 L17.8492056,18.9436508 L15.9606051,17.5693475 C15.7445915,17.6747389 15.5216377,17.7641107 15.2926113,17.8374631 L14.9516742,20.1063282 Z M1.50331143,13.0004216 C4.4173258,16.0373788 9.97902454,20.7353038 14,20.7353038 C18.0209755,20.7353038 23.5818067,16.0382219 26.4966886,13.0004216 C23.5826742,9.9626212 18.0209755,5.26469624 14,5.26469624 C9.97902454,5.26469624 4.41819332,9.96177807 1.50331143,13.0004216 L1.50331143,13.0004216 Z M14,22 C8.28388192,22 1.00188235,14.3528034 0.19074706,13.4810061 C-0.0634375806,13.2069886 -0.0634375806,12.7938545 0.189879536,12.519837 C1.00188235,11.6471966 8.28388192,4 14,4 C19.7161181,4 26.9972501,11.6471966 27.8092529,12.5189939 C28.0634376,12.7938545 28.0634376,13.2069886 27.8101205,13.480163 C26.9972501,14.3528034 19.7161181,22 14,22 L14,22 Z" id="Fill-5" fill="#535353" mask="url(#mask-11)"></path>
                </g>
            </g>
        </g>
    </g>
</svg>