<?xml version="1.0" encoding="UTF-8"?>
<svg width="70px" height="70px" viewBox="0 0 70 70" version="1.1" xmlns="http://www.w3.org/2000/svg" xmlns:xlink="http://www.w3.org/1999/xlink">
    <!-- Generator: Sketch 63 (92445) - https://sketch.com -->
    <title>img_catalog_default</title>
    <desc>Created with Sketch.</desc>
    <g id="Page-1" stroke="none" stroke-width="1" fill="none" fill-rule="evenodd">
        <g id="4_1_1_Catalog_DetaiL_Popup" transform="translate(-322.000000, -145.000000)">
            <g id="Popup" transform="translate(301.000000, 69.000000)">
                <g id="img_catalog_default" transform="translate(21.000000, 76.000000)">
                    <rect id="Rectangle" fill="#AEAEAE" x="0" y="0" width="70" height="70" rx="2"></rect>
                    <g id="Group-14" transform="translate(8.750000, 10.937500)" fill="#FFFFFF">
                        <path d="M24.609375,46.3540735 C24.609375,47.279804 23.7479796,47.8710268 22.6866174,47.6784904 C22.6866174,47.6784904 16.0857904,45.1969105 10.2386844,44.1292088 C5.94708937,43.3473944 1.98236312,43.6449506 1.98236312,43.6449506 C0.886391271,43.5943855 0,42.7911782 0,41.8673926 L0,11.8861732 C0,10.9623876 0.859472664,10.3711648 1.92275764,10.5637011 C1.92275764,10.5637011 6.81233031,10.3517166 11.8230367,11.2657782 C17.1817622,12.2420738 22.6866174,14.3502498 22.6866174,14.3502498 C23.7479796,14.544731 24.609375,15.4510133 24.609375,16.3747989 L24.609375,46.3540735 Z" id="Fill-2"></path>
                        <path d="M23.293508,12.7148438 C23.293508,12.7148438 15.3526368,8.45952934 2.92608272,7.88485666 C2.92608272,7.88485666 2.29253378,7.94154206 3.3288947,4.83557302 C3.3288947,4.83557302 3.79036862,3.51226211 10.808292,6.21556933 C10.808292,6.21556933 25.4796429,12.3121819 23.293508,12.7148438" id="Fill-4"></path>
                        <path d="M18.5067413,5.01471396 C22.5143713,7.46929068 25.6850509,10.210562 24.2641816,9.9651043 C24.2641816,9.9651043 15.7486977,4.5650355 8.20641201,3.09228946 C8.20641201,3.09228946 7.3149625,2.64261101 7.80156158,1.82376421 L8.28816066,0.637712738 C8.28816066,0.637712738 8.32514219,-0.456046652 10.5712835,0.588621203 C10.5712835,0.588621203 14.7171077,2.69170254 18.5067413,5.01471396" id="Fill-6"></path>
                        <path d="M27.890625,46.3540735 C27.890625,47.279804 28.7519531,47.8710268 29.8132324,47.6784904 C29.8132324,47.6784904 36.4135437,45.1969105 42.2601929,44.1292088 C46.5514526,43.3473944 50.5158691,43.6449506 50.5158691,43.6449506 C51.613678,43.5943855 52.5,42.7911782 52.5,41.8673926 L52.5,11.8861732 C52.5,10.9623876 51.6386719,10.3711648 50.5773926,10.5637011 C50.5773926,10.5637011 45.6882019,10.3517166 40.6740417,11.2657782 C35.3157349,12.2420738 29.8132324,14.3502498 29.8132324,14.3502498 C28.7519531,14.544731 27.890625,15.4510133 27.890625,16.3747989 L27.890625,46.3540735 Z" id="Fill-8"></path>
                        <path d="M29.7533755,12.7148438 C29.7533755,12.7148438 37.6945518,8.45952934 50.1215834,7.88485666 C50.1215834,7.88485666 50.7532012,7.94154206 49.7187559,4.83557302 C49.7187559,4.83557302 49.2572643,3.51226211 42.2390713,6.21556933 C42.2390713,6.21556933 27.5671566,12.3121819 29.7533755,12.7148438" id="Fill-10"></path>
                        <path d="M33.9927443,5.01471396 C29.9850094,7.46929068 26.8161933,10.210562 28.2351534,9.9651043 C28.2351534,9.9651043 36.7528065,4.5650355 44.2952896,3.09228946 C44.2952896,3.09228946 45.184816,2.64261101 44.6982042,1.82376421 L44.2115924,0.637712738 C44.2115924,0.637712738 44.1746099,-0.456046652 41.9284098,0.588621203 C41.9284098,0.588621203 37.7824771,2.69170254 33.9927443,5.01471396" id="Fill-12"></path>
                    </g>
                </g>
            </g>
        </g>
    </g>
</svg>