<?xml version="1.0" encoding="UTF-8"?>
<svg width="155px" height="25px" viewBox="0 0 155 25" version="1.1" xmlns="http://www.w3.org/2000/svg" xmlns:xlink="http://www.w3.org/1999/xlink">
    <title>BI_Supercloud_white</title>
    <g id="BI_Supercloud_white" stroke="none" stroke-width="1" fill="none" fill-rule="evenodd">
        <g fill-rule="nonzero">
            <path d="M72.1262724,7.4 C73.3103426,7.4 74.1683413,7.9703806 74.7023964,9.10616757 C75.2348556,10.2441653 75.3391134,11.760206 75.0194251,13.6487627 C74.7023964,15.5284763 74.0513173,17.0528074 73.0683157,18.2195453 C72.0874417,19.3868358 70.9948629,19.9721392 69.7985584,19.9721392 C69.3852508,19.9721392 69.0277957,19.8908931 68.725661,19.7295064 C68.4747686,19.5945568 68.2504726,19.3981968 68.0546199,19.1404263 L67.9405363,18.9783947 L66.9149804,25 L63.2,25 L66.150069,7.60283884 L69.7618554,7.60283884 L69.7086627,8.56507977 C70.1060124,8.16382364 70.5065536,7.87089562 70.9023076,7.68132144 C71.2964658,7.49395804 71.7055178,7.4 72.1262724,7.4 Z M154.4,4.2 L151.640225,20.2 L147.872227,20.2 C146.620508,20.2 145.696837,20.108134 145.102285,19.9254956 C144.506126,19.743404 143.998803,19.4393711 143.580849,19.0101162 C143.033925,18.4534518 142.67912,17.7300069 142.510547,16.8414218 C142.34144,15.9539303 142.367127,14.8870814 142.582257,13.6441558 C142.89104,11.8522215 143.549811,10.3965824 144.562317,9.27669173 C145.570006,8.15406699 146.718976,7.59521531 148.000663,7.59521531 C148.378479,7.59521531 148.729004,7.64224197 149.045278,7.73629528 C149.298297,7.81241284 149.529739,7.91652768 149.741522,8.04835981 L149.896703,8.15242652 L150.578486,4.2 L154.4,4.2 Z M119.2,4.2 L116.536941,20.2 L112,20.2 L114.663606,4.2 L119.2,4.2 Z M136.026964,7.4 L134.65737,15.1349474 C134.544709,15.7547542 134.551888,16.1926851 134.680012,16.4564327 C134.805374,16.7196309 135.062173,16.8509552 135.452618,16.8509552 C135.632102,16.8509552 135.83257,16.8152393 136.057339,16.7416098 C136.223429,16.687624 136.406606,16.6141661 136.601742,16.5242498 L136.800675,16.428959 L138.404979,7.4 L142.4,7.4 L141.031509,15.1113201 C140.934313,15.6706847 140.944252,16.0338872 141.066302,16.2009273 C141.171161,16.3470874 141.396947,16.4402404 141.745511,16.4829631 L141.902418,16.4981927 L140.488089,19.986804 C140.186005,20.0626314 139.907116,20.1181283 139.653078,20.1505473 C139.397384,20.1835157 139.161018,20.2 138.941773,20.2 C138.287349,20.2 137.770437,20.0769178 137.388276,19.8296544 C137.005562,19.5818416 136.748763,19.1994076 136.613461,18.680704 C136.00874,19.192814 135.412304,19.574149 134.826912,19.8252586 C134.242626,20.0730714 133.657786,20.2 133.069081,20.2 C131.957389,20.2 131.193067,19.8313029 130.776114,19.0917107 C130.39005,18.4019374 130.301291,17.371842 130.509389,16.0041047 L130.558525,15.7058511 L132.031944,7.4 L136.026964,7.4 Z M125.10743,7.40093339 C126.792956,7.37320508 128.02735,7.9636552 128.783565,9.12063297 C129.570613,10.2477076 129.793474,11.7972315 129.431054,13.8012822 C129.06647,15.7743425 128.305927,17.32441 127.157541,18.4797567 C125.978322,19.6372782 124.549194,20.2 122.863668,20.2 C121.207892,20.2 119.97458,19.6372782 119.188073,18.4797567 C118.430235,17.32441 118.206292,15.7743425 118.571417,13.8012822 C118.907873,11.7972315 119.666252,10.2477076 120.843849,9.12063297 C122.021986,7.9636552 123.454359,7.37320508 125.10743,7.40093339 Z M106.013906,3.4 C106.657798,3.4 107.324899,3.51166832 108.016827,3.73666337 C108.707675,3.96 109.345091,4.31932872 109.926915,4.81575519 C110.505501,5.3105232 110.990174,5.94791708 111.376077,6.72406713 C111.717664,7.41446968 111.919801,8.24333492 111.982868,9.21066287 L112,9.57990129 L107.710263,10.2311155 C107.726994,9.8773149 107.71512,9.50692991 107.67626,9.12051333 C107.63686,8.73409674 107.548345,8.38803554 107.416652,8.0817769 C107.284419,7.7771767 107.104151,7.52454096 106.876927,7.32386969 C106.651861,7.12209279 106.351774,7.02203356 105.974506,7.02203356 C105.599397,7.02203356 105.284197,7.11932873 105.026208,7.31226062 C104.769839,7.50463968 104.553409,7.7523001 104.381776,8.04916091 C104.209604,8.34823298 104.073053,8.67549852 103.970506,9.02929911 C103.90286,9.26516617 103.84409,9.49489086 103.793876,9.71716281 L103.724931,10.0448174 C103.615366,10.5445607 103.524153,11.1056663 103.455068,11.7264758 C103.384904,12.3494965 103.342805,12.9238697 103.326074,13.4567818 C103.295309,14.3766634 103.49015,15.0908984 103.913835,15.6000395 C104.33536,16.1075222 105.057513,16.3607108 106.075435,16.3607108 C107.062592,16.3607108 107.99092,16.1887858 108.860418,15.8427246 C109.604776,15.5465745 110.295602,15.1696009 110.931537,14.712848 L111.244924,14.4778282 L110.586459,18.437078 C109.926915,18.952853 109.113009,19.3752023 108.14798,19.705232 C107.180792,20.0341559 106.131566,20.2 105.000302,20.2 C104.011525,20.2 103.106945,20.0623494 102.289261,19.7887068 C101.472117,19.5161698 100.775871,19.0811056 100.202143,18.4851728 C99.6300342,17.8903455 99.1847608,17.1180652 98.87172,16.1688845 C98.5565204,15.219151 98.4,14.07538 98.4,12.73923 C98.4,11.6949655 98.5613779,10.620849 98.8825145,9.5190918 C99.2058101,8.4156762 99.6883246,7.41231984 100.332757,6.50349458 C100.977728,5.59356368 101.771664,4.84781836 102.714565,4.26902271 C103.655846,3.68912142 104.755266,3.4 106.013906,3.4 Z M47.6302446,3.4 C48.2883111,3.4 48.9141981,3.4960798 49.5095148,3.69214962 C50.0179476,3.86020947 50.5058906,4.11199145 50.9699666,4.44714377 L51.2,4.62166583 L50.4716754,8.24197506 C50.1579275,7.84983542 49.8093185,7.53645885 49.4263851,7.29961097 C49.0418426,7.0633217 48.5843604,6.94489775 48.0528659,6.94489775 C47.4580854,6.94489775 47.0306373,7.11303741 46.7721304,7.4465237 C46.5141598,7.78112718 46.385979,8.17661846 46.385979,8.6324389 C46.385979,9.15473316 46.5259589,9.56195511 46.8096729,9.85522194 L46.957201,10.0068052 L46.957201,10.0068052 L47.2958483,10.3382743 C47.357123,10.3966949 47.4208111,10.4567138 47.4869078,10.5183464 L47.9123498,10.9076309 L47.9123498,10.9076309 C48.240042,11.2176559 48.5377005,11.5103641 48.8047886,11.78799 C49.0697313,12.0650574 49.2982042,12.354414 49.4843078,12.6549426 C49.6725566,12.9577057 49.8141454,13.2872818 49.906929,13.6453467 C50.0023942,14.00397 50.0490542,14.4123093 50.0490542,14.8686882 C50.0490542,15.5205785 49.9117559,16.165207 49.6376957,16.8008978 C49.3630991,17.4360299 48.9678303,18.0069227 48.4518891,18.5113416 C47.9348752,19.0174364 47.2977254,19.425217 46.5372216,19.7346833 C45.7799358,20.0447082 44.9218215,20.2 43.9671694,20.2 C43.1841401,20.2 42.4649332,20.1022444 41.8074032,19.9061746 C41.2433462,19.7385936 40.7198746,19.4692326 40.2376638,19.0977401 L40,18.9034812 L40.7272518,15.2356907 C41.1026768,15.7077107 41.5328066,16.0870025 42.0192501,16.3730075 C42.503012,16.6578953 43.0516688,16.8008978 43.6630752,16.8008978 C44.8360101,16.8008978 45.4227458,16.230005 45.4227458,15.0887781 C45.4227458,14.6815562 45.2731121,14.2933266 44.974381,13.9274414 C44.7349672,13.6329456 44.4650044,13.3581127 44.1653166,13.1009406 L43.9349902,12.9113416 C43.0849208,12.2443691 42.4622516,11.5919202 42.0680553,10.9556708 C41.6738591,10.31998 41.4797108,9.64462842 41.4797108,8.92626434 C41.4797108,8.19225935 41.6347076,7.4956808 41.9500646,6.83541147 C42.2648853,6.17402494 42.7009145,5.58860848 43.2597615,5.07469326 C43.8191447,4.56189526 44.4702389,4.1524389 45.2173347,3.85135162 C45.9644303,3.55082295 46.7678398,3.4 47.6302446,3.4 Z M56.827865,7.4 L55.4572549,15.135952 C55.3448547,15.7544277 55.3526837,16.1943687 55.4807414,16.4568872 C55.6043256,16.7205179 55.8615596,16.8506648 56.2530029,16.8506648 C56.4325075,16.8506648 56.6321435,16.8156252 56.8575029,16.7422091 C57.024006,16.6875641 57.2062367,16.6144608 57.401836,16.5240723 L57.6018041,16.4279656 L59.2050433,7.4 L63.2,7.4 L61.8327451,15.1137047 C61.7343251,15.6715564 61.7443908,16.0341879 61.8657381,16.2010428 C61.9699599,16.3475276 62.1970581,16.4412097 62.5459088,16.4832069 L62.7028673,16.4980446 L61.2891984,19.9886504 C60.9872279,20.0626228 60.7081849,20.1182411 60.4531877,20.1499436 C60.1976312,20.1827583 59.9622061,20.2 59.7429979,20.2 C59.0876103,20.2 58.5692277,20.0770835 58.1878503,19.829582 C57.8047952,19.5826366 57.5492388,19.1994264 57.4144705,18.6816198 C56.8094113,19.1933085 56.2127401,19.574294 55.627253,19.8251325 C55.0412067,20.072634 54.4568381,20.2 53.8696734,20.2 C52.7562972,20.2 51.9918647,19.8318068 51.5763758,19.0920831 C51.1901519,18.4021934 51.1010768,17.3726711 51.3096052,16.0039684 L51.3588452,15.7054836 L52.8312306,7.4 L56.827865,7.4 Z M96.6946325,7.4 C96.9411705,7.4 97.1877085,7.43603096 97.4331235,7.50895764 L97.6169566,7.5705841 C97.8639333,7.64084447 98.073359,7.7651513 98.262079,7.91439155 L98.3999999,8.03054187 L96.5548032,11.8757213 C96.3606875,11.7327234 96.1347675,11.6173117 95.9126858,11.5323012 C95.6604449,11.4456017 95.4087525,11.3876144 95.1570599,11.3876144 C94.5708742,11.3876144 94.0949067,11.5902885 93.7318991,12.0187192 C93.406673,12.4073469 93.1689469,12.9569487 93.0231183,13.7126699 L92.9779184,13.972273 L91.9152167,20.2 L88,20.2 L90.1544658,7.5705841 L94.0115574,7.5705841 L93.816345,9.09176636 C94.2906675,8.54792399 94.7649899,8.11555242 95.2409574,7.83068261 C95.7158283,7.54187192 96.1912474,7.4 96.6946325,7.4 Z M82.044654,7.4 C82.9829402,7.4 83.7792453,7.53534494 84.4385219,7.80713518 C85.0944968,8.07727487 85.6305032,8.4640533 86.0410377,8.96526972 C86.4521226,9.46758651 86.7470912,10.0837911 86.9308962,10.8149839 C87.1080975,11.5467268 87.2,12.3736514 87.2,13.2935568 C87.2,13.4335784 87.1977987,13.5642467 87.1936026,13.685562 L87.1752358,14.0214485 L87.1752358,14.0214485 C87.165697,14.1586274 87.1515111,14.3011859 87.1330042,14.4491239 L87.102044,14.6750656 L80.0948898,14.6750656 L80.0578985,14.9152203 C80.0537883,14.9479905 80.0497641,14.9827552 80.045912,15.0194799 C80.0310534,15.1685794 80.0211478,15.3000731 80.0211478,15.4150612 C80.0211478,16.0235633 80.2242138,16.4510553 80.625393,16.6969869 C81.0298742,16.9440189 81.510849,17.06781 82.0688679,17.06781 C82.9240565,17.06781 83.7390723,16.9561229 84.5117138,16.7349495 C85.1555818,16.5497213 85.7551188,16.3052721 86.3074587,15.9996915 L86.6331761,15.808992 L86.2138365,18.8190414 C85.9832547,18.9840963 85.7042452,19.1475005 85.3740566,19.3120052 C85.0449686,19.47706 84.6740566,19.6250591 84.263522,19.7560025 C83.8529874,19.8874962 83.418239,19.9936815 82.9576258,20.076759 C82.4981132,20.1592865 82.0204402,20.2 81.5262579,20.2 C80.7046383,20.2 79.9573113,20.0685063 79.2826258,19.8060692 C78.6084905,19.5430818 78.0257075,19.164006 77.5414307,18.6710423 C77.057154,18.1780786 76.6796384,17.5734279 76.4077829,16.8576402 C76.1342766,16.1418526 76,15.3407866 76,14.453342 C76,13.5323361 76.1397798,12.6487427 76.4198898,11.8014614 C76.6988993,10.9552805 77.1033804,10.2026306 77.6272798,9.54516226 C78.1544811,8.88769396 78.789544,8.36502041 79.5275157,7.97824199 C80.2693396,7.59256394 81.1069182,7.4 82.044654,7.4 Z M148.554009,10.9526999 C148.032772,10.9526999 147.595553,11.2091593 147.238607,11.7209843 C146.880591,12.2349966 146.618367,12.9814081 146.4514,13.9591251 C146.27587,14.9630896 146.286574,15.7100478 146.477087,16.203281 C146.650282,16.653166 146.970753,16.8969761 147.441317,16.9375871 L147.586991,16.9436774 L148.378479,16.9436774 L148.606245,14.7587155 L148.606245,14.7587155 L148.802163,12.7104511 L148.802163,12.7104511 L148.873335,11.8428379 L148.873335,11.8428379 L148.896203,11.4985911 L148.896203,11.4985911 L148.908299,11.2332622 C148.91239,11.0858841 148.908153,11.0007237 148.893295,10.9969925 C148.763788,10.9674641 148.650872,10.9526999 148.554009,10.9526999 Z M124.549194,10.7544291 C124.099143,10.7544291 123.705349,11.0371492 123.340224,11.5721427 C122.974557,12.109311 122.723027,12.8688495 122.556421,13.8012822 C122.38603,14.7581812 122.38603,15.5204381 122.556421,16.0554316 C122.723027,16.5915125 123.031896,16.8736889 123.454359,16.8736889 C123.929833,16.8736889 124.322005,16.5915125 124.685508,16.0554316 C125.050633,15.5204381 125.304327,14.7581812 125.473638,13.8012822 C125.640242,12.8688495 125.640242,12.109311 125.473638,11.5721427 C125.304327,11.0371492 124.994377,10.7544291 124.549194,10.7544291 Z M70.2985701,10.6620023 C70.1400558,10.6620023 69.9762222,10.7084286 69.8049415,10.8018339 C69.6700448,10.8783268 69.5239137,10.9859475 69.3695441,11.1266768 L69.252269,11.2384625 L68.4320371,16.0662479 C68.550657,16.2171335 68.6809791,16.3249089 68.8187482,16.3973118 C68.959177,16.4702675 69.105989,16.5061926 69.2645034,16.5061926 C69.7310036,16.5061926 70.1315449,16.2563748 70.4682549,15.7545284 C70.8028372,15.2554452 71.0485876,14.5424696 71.20657,13.6178118 C71.3629567,12.7075242 71.3576373,11.9873634 71.192208,11.4567768 C71.0267786,10.9261902 70.7294312,10.6620023 70.2985701,10.6620023 Z M82.1183962,10.1371588 C82.035849,10.1371588 81.9153302,10.1536643 81.7590408,10.1872254 C81.6033018,10.2196862 81.4398585,10.3099162 81.2665094,10.4579153 C81.0937107,10.6053643 80.9253144,10.8276381 80.7602201,11.1236364 C80.6210691,11.3768776 80.5102201,11.7089409 80.4297523,12.1198263 L80.3920598,12.3318375 L83.252044,12.3318375 C83.2641509,12.277186 83.270877,12.2173995 83.2740158,12.1516629 L83.2762578,12.0484934 L83.2762578,11.7645992 C83.2762578,11.6011949 83.2641509,11.4240361 83.2404874,11.2353235 C83.2157232,11.0460606 83.1568396,10.8683516 83.0682389,10.7049473 C82.9763364,10.5398925 82.8596698,10.4045476 82.7099842,10.297262 C82.5625,10.1905265 82.3660377,10.1371588 82.1183962,10.1371588 Z" id="Shape" fill="#FFFFFF"></path>
            <g id="BI_Logo_Supercloud">
                <path d="M11.2247318,2.39808173e-14 C5.32252282,2.39808173e-14 0.449518766,4.75545014 1.59872116e-14,10.4 L4.36502027,10.4 C4.7985439,7.08115912 7.72069165,4.22724554 11.2247318,4.22724554 C13.2599762,4.22724554 15.078459,5.10025781 16.3393177,6.46929978 C17.3508728,5.40806435 18.6133862,4.60798186 20,4.12750336 C17.9399354,1.61732495 14.7767574,2.39808173e-14 11.2247318,2.39808173e-14" id="Fill-21" fill="#17BBEF"></path>
                <path d="M22.9080566,4 C21.8684761,4 20.8458929,4.19307683 19.8797848,4.54150284 C18.5008054,5.03806537 17.2462904,5.86585454 16.2407046,6.96439513 C16.1935506,7.01654807 16.1403653,7.06204318 16.094308,7.11530575 C15.072273,8.28541793 14.3808643,9.71352068 14.0524314,11.2364974 C13.7519618,12.6263177 13.9531888,14.0821614 13.2990644,15.3826559 C12.491964,16.9860812 10.8245776,18.0258112 9.04533772,18.0258112 C6.72931016,18.0258112 4.79490079,16.07285 4.36667695,13.8535762 L1.42108547e-14,13.8535762 C0.460573661,18.4929683 4.34145505,22.3994452 9.04533772,22.3994452 C12.9920154,22.3994452 16.5817484,19.7124593 17.7403105,15.8947534 C18.2754532,14.1315402 17.870258,12.2074297 18.8922929,10.5979013 C19.7635447,9.22583525 21.2955005,8.37363406 22.9080566,8.37363406 C25.5377129,8.37363406 27.6771872,10.5385358 27.6771872,13.2 C27.6771872,15.8536968 25.5503238,18.0124955 22.9310852,18.0252563 C22.0697029,18.0219274 21.1633597,17.741744 20.3973818,17.3039923 L18.198691,21.1904957 C19.5184538,22.1164878 20.9418457,22.3894584 22.9080566,22.4 C22.9168295,22.4 22.9250539,22.3983355 22.9338268,22.3983355 C22.9425996,22.3983355 22.9513724,22.4 22.9601453,22.3972259 C27.949145,22.3683754 31.9994516,18.2543963 32,13.2 C32,8.12729466 27.9211816,4 22.9080566,4" id="Fill-23" fill="#020B5C"></path>
            </g>
        </g>
    </g>
</svg>