<?xml version="1.0" encoding="UTF-8"?>
<svg width="138px" height="34px" viewBox="0 0 138 34" version="1.1" xmlns="http://www.w3.org/2000/svg" xmlns:xlink="http://www.w3.org/1999/xlink">
    <!-- Generator: Sketch 61.1 (89650) - https://sketch.com -->
    <title>Rectangle</title>
    <desc>Created with Sketch.</desc>
    <defs>
        <polygon id="path-1" points="0.468166748 0.544860511 16.0815455 0.544860511 16.0815455 16.2454628 0.468166748 16.2454628"></polygon>
    </defs>
    <g id="Page-1" stroke="none" stroke-width="1" fill="none" fill-rule="evenodd">
        <g id="1_0_0_Login" transform="translate(-337.000000, -323.000000)">
            <g id="Login" transform="translate(-210.000000, -663.000000)">
                <g id="Logo" transform="translate(547.000000, 986.000000)">
                    <g id="Group-5">
                        <rect id="Rectangle" fill="#FFFFFF" x="0" y="0" width="138" height="34" rx="17"></rect>
                        <g id="logo_ac" transform="translate(17.000000, 6.000000)">
                            <path d="M66.0041053,3.81818182 L57.2727273,19.0909091 L61.2595976,19.0909091 L62.854723,16.0245725 L68.6159109,16.0245725 L68.992529,19.0909091 L73.5,19.0909091 L70.8674458,3.81818182 L66.0041053,3.81818182 Z M67.6174643,6.79893741 L67.6778238,6.79893741 L68.2581552,13.2099075 L64.3498779,13.2099075 L67.6174643,6.79893741 Z" id="Fill-1" fill="#00448D"></path>
                            <g id="Group-17">
                                <path d="M88.5235273,11.3917692 C88.1162545,13.2722834 87.5028,14.7149297 85.8221636,16.4701598 L87.7414364,19.7100064 L83.6146182,19.7100064 L83.0527091,18.7277791 C82.1707091,19.2721385 80.9966182,20.0037976 78.6548,20.0037976 C77.5322545,20.0037976 75.3247091,19.7732749 74.5591636,18.1013587 C74.3561636,17.6415661 74.0666182,16.78337 74.2708909,15.5724993 C74.7125273,12.9997905 76.7164364,12.0582805 77.8542545,11.5164268 C77.4126182,10.9313501 76.4606182,9.73927202 76.7858,7.92077344 C77.2261636,5.32676634 79.5705273,4.24055327 82.0160727,4.24055327 C83.1908,4.24055327 86.4521636,4.49300071 85.8387091,7.96149077 C85.4842545,10.0737805 84.0378,11.1186499 82.8318909,11.9962649 L84.2261636,14.129853 C85.2958909,12.8124908 85.4842545,11.8077124 85.5841636,11.3917692 L88.5235273,11.3917692 Z M79.6895273,13.7521214 C78.3652545,14.4211385 77.9395273,15.0281399 77.8205273,15.6764851 C77.6856182,16.4494879 78.0935273,17.4323416 79.4687091,17.4323416 C80.1318,17.4323416 80.9126182,17.181147 81.4904364,16.51213 L79.6895273,13.7521214 Z M82.6969818,7.77419105 C82.8318909,6.97926349 82.3228,6.54076918 81.6425273,6.54076918 C80.9285273,6.54076918 80.2845273,7.04190554 80.1496182,7.77419105 C80.0987091,8.12811861 80.0637091,8.54719389 81.0316182,9.75869105 C81.3542545,9.57076491 82.5258,8.77834304 82.6969818,7.77419105 L82.6969818,7.77419105 Z" id="Fill-2" fill="#00448D"></path>
                                <g id="Group-6" transform="translate(88.454545, 3.758523)">
                                    <mask id="mask-2" fill="white">
                                        <use xlink:href="#path-1"></use>
                                    </mask>
                                    <g id="Clip-5"></g>
                                    <path d="M11.5869091,5.60508494 C11.7358182,4.07787188 10.7577273,3.51409347 9.54672727,3.51409347 C6.98027273,3.51409347 5.70563636,5.83372841 5.10872727,8.59373693 C4.89809091,9.51394858 4.10963636,13.3188264 7.40409091,13.3188264 C9.65427273,13.3188264 10.2263636,11.7082994 10.4395455,11.1225963 L14.8565455,11.1225963 C13.8160909,15.8483122 8.84736364,16.2454628 6.85109091,16.2454628 C5.36390909,16.2454628 2.79554545,15.9948946 1.45790909,14.2390381 C0.160363636,12.4813023 0.395818182,10.077727 0.733727273,8.50917017 C1.18045455,6.44072983 2.11527273,4.36978381 3.899,2.76050966 C5.85136364,1.00465312 7.97554545,0.544860511 10.2066364,0.544860511 C12.6903636,0.544860511 14.455,1.12993722 15.3898182,2.38465739 C16.345,3.68072131 16.0675455,5.03942727 15.9631818,5.60508494 L11.5869091,5.60508494 Z" id="Fill-4" fill="#00448D" mask="url(#mask-2)"></path>
                                </g>
                                <polygon id="Fill-7" fill="#00448D" points="5.69246364 8.7310483 1.81891818 8.7310483 2.71746364 4.57349574 16.6945545 4.57349574 15.7947364 8.7310483 11.9186455 8.7310483 9.47882727 20.0454545 3.25264545 20.0454545"></polygon>
                                <polygon id="Fill-9" fill="#E00113" points="7.27936364 6.82059119 0 6.82059119 1.53427273 0.156730398 8.82127273 0.156730398"></polygon>
                                <path d="M19.2092727,11.0724827 L19.2506364,11.0724827 C20.2910909,9.6492554 21.7884545,9.11303949 23.3577273,9.11303949 C24.6342727,9.11303949 25.9337273,9.77453949 26.1055455,11.0298861 C27.0804545,9.79207926 28.679,9.09048835 30.2571818,9.05102386 C32.515,9.05102386 33.8793636,10.494923 33.3842727,12.7807313 L31.8926364,19.7045565 L27.9153636,19.7045565 L29.2262727,13.6245196 C29.4038182,12.6166091 29.3891818,11.5241318 28.154,11.5241318 C26.1882727,11.5241318 25.9763636,13.6458179 25.9509091,13.7692227 L24.6699091,19.7045565 L20.6926364,19.7045565 L22.0073636,13.6245196 C22.1823636,12.6166091 22.1683636,11.5241318 20.9331818,11.5241318 C18.9674545,11.5241318 18.7606364,13.6458179 18.732,13.7692227 L17.451,19.7045565 L13.4718182,19.7045565 L15.1346364,12.0171247 C15.3331818,11.0919017 15.4477273,10.475504 15.582,9.36360767 L19.5172727,9.36360767 L19.2092727,11.0724827 Z" id="Fill-11" fill="#00448D"></path>
                                <path d="M43.9320636,19.7047445 C44.0548818,18.4656848 44.0688818,18.0159149 44.1656091,17.5805527 L45.3110636,12.2660016 C45.8557909,9.93697031 43.4707,9.05246463 41.3388818,9.05246463 C40.1673364,9.05246463 38.7826091,9.17524304 37.5849727,9.67074162 C36.4166091,10.1443155 35.4563364,10.9906095 35.1623364,12.4539277 L38.9105182,12.4539277 C39.0218818,11.8337714 39.5360636,10.907922 40.5077909,10.8672047 C42.1127,10.8045626 41.6163364,12.1231777 41.4203364,13.0296081 L40.1673364,13.0296081 C36.7341545,13.0296081 34.1657909,14.0613226 33.5828818,16.5726422 C33.0820636,18.6949547 34.0957909,20.0098112 36.5877909,20.0098112 C38.5567,20.0098112 39.6633364,19.0432445 40.3047909,18.2996834 L40.3493364,18.2996834 C40.1851545,19.0432445 40.1138818,19.3739945 40.1285182,19.7047445 L43.9320636,19.7047445 Z M37.4748818,16.3847161 C37.6307909,15.6643325 38.1685182,15.2947445 38.8201545,15.0065911 C39.4215182,14.7366038 40.2067909,14.7798268 41.0404273,14.7798268 C40.7464273,16.1598311 40.2583364,17.7453013 38.5407909,17.7453013 C37.7873364,17.7453013 37.3119727,17.1289036 37.4748818,16.3847161 L37.4748818,16.3847161 Z" id="Fill-13" fill="#00448D"></path>
                                <polygon id="Fill-15" fill="#00448D" points="48.7564 19.7047445 44.6989455 19.7047445 49.3965818 14.3037473 47.3462182 9.3637956 51.9299455 9.3637956 52.5866727 12.5322303 54.6739455 9.3637956 58.6919455 9.3637956 54.4003091 14.3037473 56.7955818 19.7047445 52.1469455 19.7047445 51.3184 15.8723041"></polygon>
                            </g>
                        </g>
                    </g>
                </g>
            </g>
        </g>
    </g>
</svg>