<?xml version="1.0" encoding="UTF-8"?>
<svg width="216px" height="26px" viewBox="0 0 216 26" version="1.1" xmlns="http://www.w3.org/2000/svg" xmlns:xlink="http://www.w3.org/1999/xlink">
    <title> logo_symbol_text@1x</title>
    <g id="Page-2:HyperCloud-Single-Cluster" stroke="none" stroke-width="1" fill="none" fill-rule="evenodd">
        <g id="02_90_00_Manual" transform="translate(-336.000000, -252.000000)">
            <g id="-logo_symbol_text@1x" transform="translate(336.000000, 252.000000)">
                <g id="logo_symbol_text" fill-rule="nonzero">
                    <path d="M28.2108108,6.98378378 C27.3802727,6.6812714 26.5033741,6.52579291 25.6194595,6.52417448 C21.6073533,6.50677096 18.249087,9.56238802 17.8887683,13.5583202 C17.5284496,17.5542524 20.2859312,21.1613349 24.2364598,21.8617832 C28.1869883,22.5622315 32.0165015,20.1230559 33.0519558,16.2468286 C34.08741,12.3706013 31.9843828,8.3466698 28.2108108,6.98378378 Z" id="Path" fill="#28384F"></path>
                    <path d="M26.9151351,9.24432432 C26.1524324,4.00648649 21.9897297,0 16.9540541,0 C12.092973,0 8.03135135,3.73081081 7.07567568,8.70216216 L6.66216216,8.70216216 C3.00153456,8.68689566 0.0202488277,11.6393966 0,15.3 L0,15.5297297 C0.114358176,19.1233401 3.06675192,21.9739272 6.66216216,21.9622345 L17.9005405,21.9622345 C19.0678792,21.8381916 20.2020545,21.4985622 21.2454054,20.9605405 C24.8766439,18.9777462 27.1095015,15.1454406 27.0437838,11.0086486 C27.0405529,10.4183195 26.9975728,9.82887796 26.9151351,9.24432432 Z" id="Path" fill="#FFFFFF"></path>
                    <path d="M27.0437838,10.9627027 C27.0385178,10.3877132 26.9955427,9.81368824 26.9151351,9.24432432 C26.7767156,8.321083 26.5299687,7.41737235 26.18,6.55189163 L25.6194595,6.55189163 C22.1904962,6.55126107 19.1752712,8.82057332 18.2267897,12.1157474 C17.2783081,15.4109215 18.6256884,18.9359642 21.5302703,20.7583784 L21.5302703,20.7583784 C24.9990828,18.7253214 27.1054984,14.9829231 27.0437838,10.9627027 Z" id="Path" fill="#14566E"></path>
                    <polygon id="Combined-Shape-Copy" fill="#FFFFFF" points="22.3572973 13.0486486 23.12 10.9627027 30.0118919 10.9627027 29.2491892 13.0486486 27.2275676 13.0486486 25.5551351 18.6172973 23.0464865 18.6172973 24.7189189 13.0486486"></polygon>
                </g>
                <g id="Group" transform="translate(40.000000, 0.000000)" fill="#FFFFFE">
                    <polygon id="Fill-90" points="11.9126667 12.037 6.90933333 12.037 5.60733333 19.809 5.80276568e-14 19.809 3.232 0.497 8.842 0.497 7.65333333 7.59366667 12.6566667 7.59366667 13.8446667 0.497 19.4513333 0.497 16.2233333 19.809 10.614 19.809"></polygon>
                    <path d="M22.2473333,19.1275333 L20.118,4.85353333 L25.166,4.85353333 L25.6846667,9.7582 C25.732,10.2202 25.7546667,10.6582 25.7546667,11.0788667 C25.7546667,11.5022 25.7333333,11.9082 25.692,12.3048667 C25.8686667,11.8255333 26.042,11.3782 26.212,10.9608667 C26.3813333,10.5462 26.5406667,10.1815333 26.688,9.8702 L29.012,4.85353333 L33.7846667,4.85353333 L23.4606667,25.9028667 L19.0453333,25.9028667 L22.2473333,19.1275333 Z" id="Fill-92"></path>
                    <path d="M74.3286667,5.37426667 C74.056,5.13626667 73.7506667,4.93293333 73.374,4.82693333 C73.0006667,4.69226667 72.624,4.6256 72.2493333,4.6256 C71.6373333,4.6256 71.0573333,4.79426667 70.4786667,5.13626667 C69.898,5.4736 69.3193333,5.98826667 68.7413333,6.63493333 L68.98,4.82693333 L64.2793333,4.82693333 L61.6526667,19.8209333 L66.424,19.8209333 L67.7193333,12.4289333 C67.8886667,11.3689333 68.1973333,10.6196 68.6373333,10.1076 C69.0806667,9.5996 69.662,9.35826667 70.376,9.35826667 C70.682,9.35826667 70.99,9.4256 71.2973333,9.5316 C71.5673333,9.6316 71.8413333,9.7696 72.0793333,9.9376 L74.3286667,5.37426667 Z" id="Fill-94"></path>
                    <path d="M31.3495333,25.9061333 L35.0575333,4.86813333 L39.5948667,4.86813333 L39.5282,6.03146667 C40.0282,5.54613333 40.5302,5.19213333 41.0262,4.96213333 C41.5228667,4.7368 42.0382,4.62413333 42.5655333,4.62413333 C44.0542,4.62413333 45.1322,5.31213333 45.8022,6.68813333 C46.4715333,8.06413333 46.6028667,9.89613333 46.2002,12.1781333 C45.8022,14.4508 44.9842,16.2948 43.7508667,17.7068 C42.5162,19.1181333 41.1435333,19.8241333 39.6402,19.8241333 C39.1215333,19.8241333 38.6722,19.7268 38.2928667,19.5301333 C37.9148667,19.3361333 37.5855333,19.0328 37.3068667,18.6241333 L36.0188667,25.9061333 L31.3495333,25.9061333 Z M37.9242,15.1014667 C38.0735333,15.2834667 38.2375333,15.4161333 38.4095333,15.5021333 C38.5862,15.5928 38.7702,15.6334667 38.9708667,15.6334667 C39.5568667,15.6334667 40.0608667,15.3308 40.4822,14.7254667 C40.9042,14.1221333 41.2102,13.2608 41.4095333,12.1421333 C41.6068667,11.0401333 41.5995333,10.1701333 41.3908667,9.5288 C41.1835333,8.88746667 40.8102,8.5668 40.2675333,8.5668 C40.0695333,8.5668 39.8628667,8.6228 39.6488667,8.73746667 C39.4368667,8.85213333 39.2035333,9.02613333 38.9548667,9.26346667 L37.9242,15.1014667 Z" id="Fill-96"></path>
                    <path d="M52.2128,13.4543333 C52.1948,13.5536667 52.1701333,13.6956667 52.1528,13.875 C52.1334667,14.0543333 52.1234667,14.213 52.1234667,14.355 C52.1234667,15.0956667 52.3688,15.613 52.8574667,15.913 C53.3481333,16.2103333 53.9314667,16.3603333 54.6094667,16.3603333 C55.6468,16.3603333 56.6381333,16.2276667 57.5748,15.957 C58.5134667,15.687 59.3741333,15.313 60.1528,14.8336667 L59.6428,18.4896667 C59.3628,18.689 59.0241333,18.8863333 58.6221333,19.089 C58.2254667,19.2863333 57.7728,19.4683333 57.2741333,19.627 C56.7754667,19.7856667 56.2481333,19.915 55.6888,20.0156667 C55.1294667,20.1176667 54.5494667,20.165 53.9501333,20.165 C52.9528,20.165 52.0454667,20.0063333 51.2268,19.6896667 C50.4081333,19.3683333 49.7001333,18.9063333 49.1101333,18.3096667 C48.5241333,17.7096667 48.0654667,16.9743333 47.7348,16.107 C47.4014667,15.2396667 47.2394667,14.2636667 47.2394667,13.1876667 C47.2394667,12.0663333 47.4094667,10.9936667 47.7501333,9.96366667 C48.0881333,8.935 48.5794667,8.023 49.2154667,7.223 C49.8568,6.423 50.6261333,5.791 51.5248,5.32166667 C52.4234667,4.85166667 53.4414667,4.61833333 54.5788,4.61833333 C55.7194667,4.61833333 56.6861333,4.78166667 57.4861333,5.113 C58.2828,5.441 58.9354667,5.91166667 59.4341333,6.52033333 C59.9328,7.129 60.2901333,7.87566667 60.5128,8.767 C60.7294667,9.65566667 60.8401333,10.6616667 60.8401333,11.7783333 C60.8401333,12.1163333 60.8301333,12.411 60.8108,12.661 C60.7928,12.911 60.7634667,13.175 60.7221333,13.4543333 L52.2128,13.4543333 Z M56.0454667,10.6076667 C56.0681333,10.5083333 56.0761333,10.3963333 56.0761333,10.2636667 L56.0761333,9.919 C56.0761333,9.72233333 56.0608,9.505 56.0321333,9.275 C56.0028,9.04633333 55.9314667,8.83166667 55.8228,8.63166667 C55.7101333,8.43166667 55.5694667,8.26766667 55.3874667,8.13766667 C55.2074667,8.00833333 54.9721333,7.943 54.6694667,7.943 C54.5681333,7.943 54.4234667,7.96433333 54.2341333,8.00233333 C54.0448,8.04366667 53.8468,8.15233333 53.6334667,8.33433333 C53.4261333,8.51433333 53.2221333,8.781 53.0201333,9.143 C52.8208,9.499 52.6728,9.99033333 52.5734667,10.6076667 L56.0454667,10.6076667 Z" id="Fill-98"></path>
                    <path d="M121.274,18.4634667 C120.543333,19.0848 119.823333,19.5468 119.117333,19.8514667 C118.411333,20.1521333 117.705333,20.3068 116.994667,20.3068 C115.652667,20.3068 114.730667,19.8594667 114.227333,18.9621333 C113.728,18.0648 113.640667,16.6948 113.964,14.8534667 L115.742667,4.7768 L120.566,4.7768 L118.912667,14.1614667 C118.776667,14.9128 118.785333,15.4448 118.94,15.7641333 C119.091333,16.0834667 119.400667,16.2434667 119.872,16.2434667 C120.089333,16.2434667 120.331333,16.1994667 120.602,16.1101333 C120.87,16.0228 121.174,15.8941333 121.5,15.7301333 L123.436,4.7768 L128.259333,4.7768 L126.607333,14.1328 C126.489333,14.8108 126.502,15.2514667 126.649333,15.4534667 C126.793333,15.6574667 127.128667,15.7761333 127.658,15.8141333 L125.951333,20.0481333 C125.586667,20.1394667 125.25,20.2068 124.943333,20.2461333 C124.634,20.2854667 124.348667,20.3068 124.084667,20.3068 C123.294,20.3068 122.670667,20.1574667 122.208667,19.8568 C121.747333,19.5561333 121.436667,19.0914667 121.274,18.4634667" id="Fill-100"></path>
                    <path d="M104.3606,12.4146 C104.565933,11.2719333 104.875267,10.3406 105.325933,9.68126667 C105.7766,9.02593333 106.261933,8.6786 106.8166,8.6786 C107.365267,8.6786 107.7466,9.02593333 107.955933,9.68126667 C108.1606,10.3406 108.1606,11.2719333 107.955933,12.4146 C107.7466,13.5879333 107.433933,14.5226 106.9846,15.1786 C106.5366,15.8359333 106.0526,16.1819333 105.4666,16.1819333 C104.9466,16.1819333 104.565933,15.8359333 104.3606,15.1786 C104.1506,14.5226 104.1506,13.5879333 104.3606,12.4146 M112.035267,6.67526667 C111.1026,5.25726667 109.581933,4.5326 107.5046,4.5666 C105.4666,4.5326 103.701933,5.25726667 102.249933,6.67526667 C100.797933,8.05793333 99.8639333,9.95726667 99.4492667,12.4146 C98.9992667,14.8339333 99.2752667,16.7346 100.2086,18.1512667 C101.1786,19.5706 102.6986,20.2606 104.7386,20.2606 C106.8166,20.2606 108.577267,19.5706 110.031267,18.1512667 C111.4466,16.7346 112.383267,14.8339333 112.833267,12.4146 C113.279933,9.95726667 113.005267,8.05793333 112.035267,6.67526667" id="Fill-102"></path>
                    <path d="M135.894467,15.9406667 L137.1378,8.90266667 C136.895133,8.79866667 136.693133,8.72933333 136.5358,8.69 C136.374467,8.654 136.2338,8.636 136.113133,8.636 C135.4638,8.636 134.919133,8.94933333 134.474467,9.57266667 C134.028467,10.2 133.7018,11.11 133.4938,12.3013333 C133.275133,13.526 133.288467,14.436 133.5258,15.038 C133.763133,15.6413333 134.222467,15.9406667 134.908467,15.9406667 L135.894467,15.9406667 Z M139.9578,19.91 L135.2638,19.91 C133.704467,19.91 132.5538,19.7986667 131.813133,19.5753333 C131.070467,19.3533333 130.438467,18.9833333 129.9178,18.4593333 C129.236467,17.7813333 128.794467,16.8993333 128.584467,15.816 C128.3738,14.734 128.4058,13.4326667 128.6738,11.9173333 C129.058467,9.73266667 129.879133,7.95866667 131.140467,6.59266667 C132.3958,5.22466667 133.827133,4.54333333 135.4238,4.54333333 C135.894467,4.54333333 136.331133,4.60066667 136.725133,4.71533333 C137.119133,4.83066667 137.471133,5 137.7858,5.22266667 L138.635133,0.404 L143.3958,0.404 L139.9578,19.91 Z" id="Fill-104"></path>
                    <polygon id="Fill-106" points="96.7564 19.9100667 91.2297333 19.9100667 94.4744 0.412733333 100.0004 0.412733333"></polygon>
                    <path d="M89.968,18.1346667 C89.1526667,18.7566667 88.148,19.2653333 86.9553333,19.6633333 C85.7606667,20.06 84.4653333,20.26 83.0673333,20.26 C81.846,20.26 80.7293333,20.094 79.7193333,19.764 C78.7093333,19.4353333 77.8493333,18.9106667 77.1413333,18.192 C76.434,17.4753333 75.8846667,16.544 75.498,15.3986667 C75.1086667,14.2533333 74.9153333,12.8746667 74.9153333,11.2626667 C74.9153333,10.0033333 75.1146667,8.708 75.5106667,7.38 C75.9106667,6.04933333 76.5066667,4.83933333 77.3026667,3.74333333 C78.0986667,2.646 79.08,1.74666667 80.2446667,1.04866667 C81.4066667,0.349333333 82.7646667,-1.90662301e-13 84.3193333,-1.90662301e-13 C85.1153333,-1.90662301e-13 85.9393333,0.135333333 86.7933333,0.406666667 C87.6473333,0.676 88.434,1.10866667 89.1526667,1.70733333 C89.868,2.30466667 90.4666667,3.07333333 90.9433333,4.00933333 C91.418,4.946 91.6746667,6.09333333 91.7133333,7.45333333 L86.4153333,8.238 C86.4353333,7.81266667 86.4213333,7.36466667 86.3726667,6.89866667 C86.324,6.43266667 86.2153333,6.016 86.0526667,5.64733333 C85.8893333,5.27933333 85.6666667,4.97466667 85.386,4.732 C85.108,4.48933333 84.7366667,4.36866667 84.2713333,4.36866667 C83.808,4.36866667 83.4186667,4.48533333 83.0993333,4.718 C82.7833333,4.95066667 82.5153333,5.24866667 82.304,5.60733333 C82.0913333,5.96733333 81.9226667,6.36266667 81.7953333,6.78933333 C81.6706667,7.216 81.5693333,7.626 81.492,8.01333333 C81.3573333,8.61666667 81.2446667,9.29333333 81.1586667,10.042 C81.072,10.7926667 81.02,11.4853333 81,12.1286667 C80.9613333,13.238 81.2026667,14.0986667 81.726,14.7126667 C82.2466667,15.3253333 83.1386667,15.6306667 84.396,15.6306667 C85.6153333,15.6306667 86.7613333,15.4233333 87.836,15.006 C88.908,14.5886667 89.8913333,14.04 90.7813333,13.36 L89.968,18.1346667 Z" id="Fill-108"></path>
                    <path d="M155.3964,15.2394667 C159.135067,11.8541333 161.1724,8.98213333 161.611733,6.48746667 C161.931067,4.67413333 161.591067,3.10813333 160.6284,1.9608 C159.6464,0.7908 158.0504,0.1468 156.133733,0.1468 C153.551067,0.1468 151.611067,0.976133333 149.2164,3.10746667 L148.8684,3.41613333 L151.465733,6.52946667 L151.8364,6.19146667 C152.733067,5.3748 153.801067,4.53946667 154.9364,4.53946667 C155.495733,4.53946667 155.907067,4.69013333 156.1564,4.98746667 C156.4384,5.32413333 156.5224,5.87013333 156.399733,6.5668 C155.959067,9.06813333 152.365733,12.3241333 147.1064,16.4428 L146.961733,16.5568 L146.3864,19.8201333 L160.101067,19.8201333 L160.923067,15.1554667 L156.967733,15.1554667 C156.521067,15.1554667 155.957733,15.1908 155.3964,15.2394667" id="Fill-110"></path>
                    <path d="M174.714733,0.476133333 L170.7834,0.476133333 L170.6734,0.537466667 C169.244067,1.32946667 167.8874,1.79413333 165.984733,2.13946667 L165.654733,2.19946667 L165.0194,5.80946667 L168.4014,5.80946667 L166.7294,15.2948 L162.8274,15.2948 L162.030733,19.8121333 L174.614067,19.8121333 L175.412067,15.2948 L172.102067,15.2948 L174.714733,0.476133333 Z" id="Fill-112"></path>
                </g>
            </g>
        </g>
    </g>
</svg>